<svg id="Group_93" data-name="Group 93" xmlns="http://www.w3.org/2000/svg" width="182.189" height="45.454" viewBox="0 0 182.189 45.454">
  <path id="Path_610" data-name="Path 610" d="M201.906,240.52c.562,1.825,2.29,2.817,3.188,4.425.953,1.708,2.439,3.1,3.133,4.977h-1.053a7.277,7.277,0,0,0-1.832-2.617c-2.239-2.172-4.311-4.533-6.69-6.54-2.478-2.091-4.749-4.443-7.6-6.124-.969-.572-1.723-1.542-2.848-1.957l-1.58-1.044a69.872,69.872,0,0,0-10.1-6.312c-2.444-1.292-4.793-2.792-7.332-3.887-4.461-1.922-8.891-3.909-13.486-5.535-2.675-.947-5.336-1.957-8.055-2.755-2.9-.85-5.782-1.754-8.734-2.43-1.769-.4-3.572-.729-5.3-1.2s-3.535-.555-5.238-1.3c-1.325-.581-2.994-.344-4.478-.63-1.624-.311-3.317-.272-4.875-.92a1.59,1.59,0,0,0-.484-.1,62.375,62.375,0,0,1-6.879-.58c-2.306-.44-4.681-.063-6.879-.563-2.859-.65-5.67-.212-8.491-.42a3.883,3.883,0,0,1-1.807-.358,6.56,6.56,0,0,1,1.029-.164c5.353-.011,10.706-.039,16.058.017a26.764,26.764,0,0,1,3.73.5c1.242.19,2.585-.461,3.751.495.209.171.687-.014,1.032.031,1.34.172,2.687-.276,4.053.385,1.182.572,2.6.036,3.972.56,1.523.582,3.343.352,5.005.644,1.374.241,2.748.551,4.116.816,1.864.361,3.692.913,5.555,1.189a34.626,34.626,0,0,1,4.555,1.106c2.975.857,5.934,1.768,8.916,2.6,3.216.9,6.246,2.272,9.358,3.436,2.432.91,4.8,1.99,7.141,3.063s4.654,2.344,6.9,3.647c2.852,1.657,5.452,3.732,8.28,5.433a23.9,23.9,0,0,1,1.983,1.531c.6.446,1.225.854,1.826,1.3a72.932,72.932,0,0,1,7.421,6.822,3.078,3.078,0,0,0,.631.375Z" transform="translate(-40.701 -204.468)" fill="#fff"/>
  <path id="Path_611" data-name="Path 611" d="M43.586,223.756q2.366,0,4.733,0a15.665,15.665,0,0,1,2.687.453,4.3,4.3,0,0,1,2.86,6.812l-.814.194a22.123,22.123,0,0,0,2.024,1.4c.756.413.847,1.361,1.634,1.746V237.9l-3.155,3.126c-3.06,1.02-6.54.284-9.969.493Zm3.21,6.79h3.3l1.836-1.236v-1.8l-.285.2-.812-1.283h-4.51v12.992c1.325,0,2.546-.025,3.763.007a3.4,3.4,0,0,0,2.718-1.049c.418-.443.863-.861,1.3-1.291.2-1.883-.567-3.2-2.913-4.011H46.8Z" transform="translate(-43.586 -203.374)" fill="#fff"/>
  <path id="Path_612" data-name="Path 612" d="M100.181,241.425v-7.663H89.187v7.68H86.072v-17.03a4.03,4.03,0,0,1,1.056-.629c.556-.157.872.024,1.923.656v7.033h11.076v-6.878l.839-.832h1.574c.357.321.473,10.468.192,17.662Z" transform="translate(-41.178 -203.375)" fill="#fff"/>
  <path id="Path_613" data-name="Path 613" d="M64.567,235.316c-.576-4.921,2.067-7.826,7.063-9.581.835,0,2.233.071,3.621-.015a9.283,9.283,0,0,1,7.558,3.27,6.945,6.945,0,0,1-.03,9.232c-1.639,1.819-3.679,2.568-5.99,3.3-2.786.885-5.059-.172-7.42-.894a7.007,7.007,0,0,1-3.79-3.54C65.262,236.522,64.936,235.96,64.567,235.316Zm2.695-.521c.954,3.779,4.133,4.353,7.232,5.043,3.2-.669,6.407-1.328,7.342-5.195a5.651,5.651,0,0,0-1.732-5.165,7.872,7.872,0,0,0-5.653-2.059,7.55,7.55,0,0,0-5.608,2.177A5.686,5.686,0,0,0,67.262,234.795Z" transform="translate(-42.401 -203.264)" fill="#fff"/>
  <path id="Path_614" data-name="Path 614" d="M159.847,235.445a7.627,7.627,0,0,1,1.317-6.134,13.357,13.357,0,0,1,5.092-3.578c1.651,0,3.3-.012,4.954,0a9.057,9.057,0,0,1,7.525,4.728c.785,1.5,1.451,2.915.8,4.679a9.128,9.128,0,0,1-4.049,5.082,11.677,11.677,0,0,1-5.594,1.574,10.991,10.991,0,0,1-6.118-1.512,7.9,7.9,0,0,1-3.5-4.226A2.361,2.361,0,0,0,159.847,235.445Zm2.539-.29a7.318,7.318,0,0,0,7.591,4.6c3.255-.166,6.11-1.493,7.287-6.052a5.751,5.751,0,0,0-1.937-4.227,8.21,8.21,0,0,0-5.657-2.071,8.293,8.293,0,0,0-5.045,1.645c-1.376,1.027-2.484,2.33-2.253,4.28A13.832,13.832,0,0,1,162.386,235.156Z" transform="translate(-37.005 -203.262)" fill="#fff"/>
  <path id="Path_615" data-name="Path 615" d="M104.91,231.782c.572-.936,1.067-1.882,1.689-2.739,1.174-1.62,3.05-2.259,4.743-3.13a2.936,2.936,0,0,1,1.239-.172c1.229-.021,2.459-.03,3.687,0a7.279,7.279,0,0,1,5.389,2.231c.419.444.863.868,1.3,1.293a3.987,3.987,0,0,1,1.47,3.064,1.954,1.954,0,0,0,.356.875c-.4,4.159-2.455,6.883-6.443,8.05-1.04.36-2.2.211-3.382.545-1.111.313-2.517-.548-3.817-.72-2.557-.338-3.9-2.313-5.441-3.942a4.753,4.753,0,0,1-.764-2.525A21.443,21.443,0,0,1,104.91,231.782Zm2.8,3.827c1.231,1.8,2.505,3.843,5.347,3.7,1.942,1.284,3.6.033,5.412-.474,2.3-.642,2.9-2.463,3.6-4.278.495-1.283-.518-4.376-1.6-5.157a13.219,13.219,0,0,0-4.915-2.059,9.587,9.587,0,0,0-2.672.484c-.877.2-1.743.44-2.27.575C107.88,230.157,107.074,232.435,107.709,235.609Z" transform="translate(-40.113 -203.263)" fill="#fff"/>
  <path id="Path_616" data-name="Path 616" d="M125.924,226.441l.71-.7a35.843,35.843,0,0,1,5.441.058c1.984.306,4.06.664,5.058,2.956.385.884.119,1.67.392,2.728l-3.262,3.063,6.239,6.71-2.927.2-6.106-6.773h-1.7l.241-.331-1.235-.518-.038-.5,1.4-.329c1.33-.579,3.244-.039,4.752-1.932l-.6-2.493c-1.859-1.212-3.78-.544-5.785-.819V241.3c-1.021.151-1.869.312-2.574-.624Z" transform="translate(-38.92 -203.266)" fill="#fff"/>
  <path id="Path_617" data-name="Path 617" d="M154.884,228.185c-.272-.25-.335-.36-.4-.36-2.454-.008-4.906-.007-7.543-.007l-.1-1.993h12.395l-9.659,13.412h9.271v2.058H145.513C148.585,236.7,151.741,232.505,154.884,228.185Z" transform="translate(-37.81 -203.257)" fill="#fff"/>
  <path id="Path_618" data-name="Path 618" d="M198.51,238.057a25.108,25.108,0,0,0,4.086,1.353c2.723.432,3.726.365,5.532-1.483v-1.218l-2.285-2.136c-1.942-.753-4.927-.86-6.17-4.259a3.8,3.8,0,0,1,2.591-4.239,4.543,4.543,0,0,1,1.436-.327c1.573-.04,3.148-.015,4.485-.015l1.608.819-.843,1.79c-1.266-.21-2.379-1.2-3.711-1.008a16.585,16.585,0,0,0-2.8.913v2.5a1.094,1.094,0,0,0,.285.209c1.782.772,3.572,1.527,5.351,2.3a4.032,4.032,0,0,1,2.693,4.325c-.026.337,0,.677,0,.95-.5.5-.929.932-1.369,1.356a6.431,6.431,0,0,1-5.773,1.542,14.771,14.771,0,0,0-2.594-.025C199.376,240.376,199.376,240.376,198.51,238.057Z" transform="translate(-34.806 -203.262)" fill="#fff"/>
  <path id="Path_619" data-name="Path 619" d="M143.349,241.358h-2.464V225.826l2.464-.108Z" transform="translate(-38.072 -203.263)" fill="#fff"/>
  <path id="Path_620" data-name="Path 620" d="M61.671,241.4H59.279c-.043-.049-.151-.113-.151-.178q-.013-7.386-.007-14.778c.528-.948,1.452-.7,2.551-.7Z" transform="translate(-42.706 -203.263)" fill="#fff"/>
  <path id="Path_621" data-name="Path 621" d="M196.258,239.31l-2.107-2.089V226.607c.939-.822.939-.822,2.633-.821,0,4.37.005,8.744-.022,13.118C196.762,239.04,196.433,239.175,196.258,239.31Z" transform="translate(-35.053 -203.259)" fill="#fff"/>
  <path id="Path_622" data-name="Path 622" d="M216.286,230.748l-2.183,1.089-1.862-.533-1.214-1.49.5-3.555,3.409-.638,1.347,1.336Z" transform="translate(-34.097 -203.268)" fill="#fff"/>
  <path id="Path_623" data-name="Path 623" d="M181.711,230.182l1.58,1.044v9.857h-2.027c0-3.55,0-7.135.019-10.719C181.283,230.3,181.562,230.242,181.711,230.182Z" transform="translate(-35.784 -203.01)" fill="#fff"/>
</svg>
