<svg xmlns="http://www.w3.org/2000/svg" width="103.289" height="18.32" viewBox="0 0 103.289 18.32">
  <g id="Group_188" data-name="Group 188" transform="translate(-82.565 -382.235)">
    <g id="Group_187" data-name="Group 187" transform="translate(82.565 382.236)">
      <path id="Path_875" data-name="Path 875" d="M225.171,402.114c-3.233,0-6.466,0-9.7-.01-.227,0-.637-.121-.647-.228a2.605,2.605,0,0,1,.126-1.191c.442-1.028.955-2.011,1.44-3.013q.8-1.657,1.6-3.315c.491-1.022.971-2.051,1.466-3.07.511-1.052,1.041-2.092,1.552-3.145.294-.6.563-1.226.852-1.834.3-.624.623-1.228.9-1.863a.981.981,0,0,1,1.1-.6c4.59.012,9.18.007,13.769.008,1.223,0,2.448.06,3.668-.012.725-.043,1.194.526,1.759.846a3.446,3.446,0,0,1,.857.98,3.334,3.334,0,0,1-.333,4.1c-.98,1.071-2.065,2-3.077,3.033a1.367,1.367,0,0,0-.254.817c-.034,1.348.082,2.715-.067,4.041a4.507,4.507,0,0,1-2.055,3.164c-.685.506-1.117.641-1.359.848-1,.538-2.786.409-3.759.428C230.4,402.148,227.785,402.114,225.171,402.114Zm7.491-15.206c-1.608,0-3.217-.023-4.824.021a1.116,1.116,0,0,0-.836.47c-.591.987-1.114,2.033-1.641,3.074a1.033,1.033,0,0,0-.088.664c.042.139.288.253.448.263.986.061,1.972.113,2.959.124,1.977.023,3.954-.017,5.93.041a2.483,2.483,0,0,0,2.142-.511c.848-.875,1.694-1.75,1.514-3.322-.066-.576-.263-.843-.781-.833C235.879,386.929,234.271,386.91,232.662,386.908ZM229.1,394.82v0c-1.559,0-3.117-.009-4.676.005a1.1,1.1,0,0,0-1.216.787,27.094,27.094,0,0,1-1.379,2.636,5.672,5.672,0,0,0-.253.679,1.89,1.89,0,0,0,.62.266c2.395.058,4.79.091,7.184.132a16.852,16.852,0,0,1,2.108.06c1.593.23,3.222-1.506,3.172-3.446-.023-.88-.21-1.113-.935-1.115C232.182,394.817,230.64,394.82,229.1,394.82Z" transform="translate(-187.739 -383.819)"/>
      <path id="Path_876" data-name="Path 876" d="M92.011,402.055c-2.916,0-5.832,0-8.747-.008-.219,0-.6-.065-.625-.178a2.561,2.561,0,0,1,.005-1.233c.213-.593.6-1.088.857-1.664.672-1.519,1.3-3.067,1.968-4.588.511-1.161,1.073-2.289,1.589-3.447.495-1.111.946-2.25,1.441-3.362.526-1.182,1.056-2.363,1.643-3.5.1-.2.5-.264.756-.265,3.737-.015,7.474-.01,11.21-.008,1.709,0,3.423.093,5.126-.032a4.694,4.694,0,0,1,2.687.853,6.092,6.092,0,0,1,2.589,2.484,5.538,5.538,0,0,1,.476,2.844,7.6,7.6,0,0,1-1.766,4.4,47,47,0,0,1-3.121,3.825,14.517,14.517,0,0,1-2.453,1.923c-.657.454-1.368.793-2.055,1.182a.518.518,0,0,1-.14.067,21.559,21.559,0,0,1-3.448.676c-2.662.1-5.328.032-7.992.032Zm3.063-4.081c.966-.1,1.886,0,2.908-.146a12.1,12.1,0,0,0,3.766-1.2,10.152,10.152,0,0,0,3.431-2.717,5.981,5.981,0,0,0,1.537-3.924,2.077,2.077,0,0,0-1.883-2.245c-3.384-.081-6.77-.04-10.155-.021a.788.788,0,0,0-.6.325,14.672,14.672,0,0,0-.736,1.471c-.513,1.075-1.031,2.146-1.531,3.23-.579,1.256-1.155,2.516-1.7,3.8a1.978,1.978,0,0,0-.124,1.025c.022.128.426.223.658.226" transform="translate(-82.565 -383.762)"/>
      <path id="Path_877" data-name="Path 877" d="M496.219,406.9c2.447,0,4.893-.007,7.34,0,1.467.005,1.529.082,1.528,1.62,0,.09-.007.18,0,.269a8.142,8.142,0,0,1-.959,4.242,16.482,16.482,0,0,1-2.971,4.246,2.3,2.3,0,0,1-1.843.841c-4.842-.047-9.686-.023-14.529-.025-.748,0-.869-.161-.951-.959a6.635,6.635,0,0,1,1.424-4.471c.262-.391.574-.745.852-1.125a1.9,1.9,0,0,1,1.689-.755q5.656.016,11.311-.008c.308,0,.873.253.862-.377-.011-.573-.555-.464-.918-.465-3.687-.014-7.373,0-11.06-.034-.359,0-.929-.154-1.021-.4-.119-.317.141-.8.245-1.209.021-.083.087-.153.116-.236.392-1.112.448-1.157,1.545-1.158q3.67,0,7.34,0Zm-2.7,8.508v0c1.172,0,2.344-.013,3.516.005.637.01.927-.489,1.147-.954.255-.537-.085-.865-.882-.869q-3.315-.019-6.631,0c-.262,0-.647,0-.76.167a4.22,4.22,0,0,0-.515,1.3,1.4,1.4,0,0,0,.709.335C491.242,415.427,492.381,415.406,493.52,415.406Z" transform="translate(-401.822 -399.798)"/>
      <path id="Path_878" data-name="Path 878" d="M357.535,406.941h7.239c1.238,0,1.783.967,1.408,2.243a9.1,9.1,0,0,1-2.774,4.33,2.479,2.479,0,0,1-1.747.763c-3.334-.042-6.669.012-10-.039a2.236,2.236,0,0,0-2.016,1.1c-.62.875-1.316,1.69-2.006,2.5a.888.888,0,0,1-.6.272q-1.532.041-3.066,0c-.215-.006-.573-.137-.607-.28a1.508,1.508,0,0,1,.081-.958c.51-.973,1.08-1.912,1.637-2.856.506-.858,1.033-1.7,1.536-2.562.477-.814.94-1.638,1.4-2.462a7.276,7.276,0,0,1,.819-1.449,1.882,1.882,0,0,1,1.207-.578C352.541,406.914,355.038,406.941,357.535,406.941Zm-1.563,4.525c1.256,0,2.513.011,3.769,0a1.128,1.128,0,0,0,1.008-1.182c-.033-.725-.556-.539-.939-.541-1.96-.014-3.922.049-5.88-.031a2.009,2.009,0,0,0-1.889,1.1,2.68,2.68,0,0,0-.2.526,2.21,2.21,0,0,0,.514.131C353.559,411.473,354.765,411.467,355.972,411.466Z" transform="translate(-290.024 -399.829)"/>
      <path id="Path_879" data-name="Path 879" d="M445.841,418.107c-.737,0-1.475-.016-2.211.006-.509.015-.659-.243-.468-.694.334-.79.7-1.568,1.084-2.331.3-.593.658-1.151.98-1.73q1.092-1.965,2.171-3.939c.3-.55.613-1.1.863-1.671a1.143,1.143,0,0,1,1.071-.82c1.139-.012,2.279-.018,3.418,0,.508.008.751.358.575.864-.213.613-.5,1.2-.762,1.79-.345.777-.689,1.555-1.051,2.322-.3.646-.64,1.274-.948,1.918-.233.487-.451.983-.665,1.48-.264.613-.519,1.231-.777,1.847-.237.565-.548,1-1.219.968-.686-.031-1.374-.007-2.061-.007Z" transform="translate(-369.557 -399.816)"/>
    </g>
    <path id="Path_880" data-name="Path 880" d="M2.558,0A2.264,2.264,0,0,1,5.07,2,2.391,2.391,0,0,1,2.513,4.068,2.264,2.264,0,0,1,0,2.064,2.391,2.391,0,0,1,2.558,0Z" transform="matrix(0.986, -0.166, 0.166, 0.986, 162.795, 383.078)"/>
  </g>
</svg>
