<svg xmlns="http://www.w3.org/2000/svg" width="1018" height="155" viewBox="0 0 1018 155">
  <g id="Component_57_3" data-name="Component 57 – 3" transform="translate(0 1)">
    <g id="Component_56_1" data-name="Component 56 – 1">
      <text id="Scan" transform="translate(509 21)" fill="#fff" font-size="28" font-family="AvenirLTStd-Heavy, Avenir LT Std" font-weight="800"><tspan x="-30.338" y="0">Scan</tspan></text>
      <text id="Delivery" transform="translate(964 21)" fill="#fff" font-size="28" font-family="AvenirLTStd-Heavy, Avenir LT Std" font-weight="800"><tspan x="-53.956" y="0">Delivery</tspan></text>
      <text id="Surgery" transform="translate(51 21)" fill="#fff" font-size="28" font-family="AvenirLTStd-Heavy, Avenir LT Std" font-weight="800"><tspan x="-50.834" y="0">Surgery</tspan></text>
    </g>
    <g id="Component_56_3" data-name="Component 56 – 3" transform="translate(44 130)">
      <text id="_2" data-name="2" transform="translate(465 18)" fill="#fff" font-size="24" font-family="AvenirLTStd-Heavy, Avenir LT Std" font-weight="800"><tspan x="-7.104" y="0">2</tspan></text>
      <text id="_3" data-name="3" transform="translate(920 18)" fill="#fff" font-size="24" font-family="AvenirLTStd-Heavy, Avenir LT Std" font-weight="800"><tspan x="-7.104" y="0">3</tspan></text>
      <text id="_1" data-name="1" transform="translate(7 18)" fill="#fff" font-size="24" font-family="AvenirLTStd-Heavy, Avenir LT Std" font-weight="800"><tspan x="-7.104" y="0">1</tspan></text>
    </g>
    <g id="Group_78" data-name="Group 78" transform="translate(1036.979 -243.254) rotate(30)">
      <path id="Path_585" data-name="Path 585" d="M-197.265,549.673l-2.938,5.878-1.155,2.31h-25.923a21.754,21.754,0,0,1-6.537-1.8l0-10.425.009,4.038Z" transform="translate(-72.822 -7.537)" fill="#ffbe29" stroke="#ffbe29" stroke-miterlimit="10" stroke-width="3"/>
      <path id="Path_586" data-name="Path 586" d="M-191.194,537.411l-2.563,4.725h-40.057l-.009-4.038a51.612,51.612,0,0,1,9.313-1.92C-215.017,535.04-191.194,537.411-191.194,537.411Z" transform="translate(-72.822 0)" fill="none" stroke="#ffbe29" stroke-miterlimit="10" stroke-width="3"/>
      <path id="Path_587" data-name="Path 587" d="M-77.523,563.325l-2.682,5.946-6.327-.068,2.938-5.878Z" transform="translate(-186.493 -21.189)" fill="none" stroke="#ffbe29" stroke-miterlimit="10" stroke-width="3"/>
      <path id="Path_588" data-name="Path 588" d="M-306.641,556.06c-3.006-1.185-5.832-2.515-6.464-2.515h-8.845c-.057-.76-1.171-.936-1.171-.936h-2.107a1.476,1.476,0,0,0-.58.694c-.189.475-1.139.758-1.8.664s-.568-1.71-.568-1.71l4.839-4.839H-311a21.385,21.385,0,0,1,4.355-1.783Z" transform="translate(0 -7.537)" fill="none" stroke="#ffbe29" stroke-miterlimit="10" stroke-width="3"/>
    </g>
    <g id="Group_79" data-name="Group 79" transform="translate(117.244 -230.457)">
      <path id="Path_589" data-name="Path 589" d="M-22.8,304.85c-.19,1.786-.4,3.777-.623,5.868" transform="translate(-33.023 -11.241)" fill="none" stroke="#7ee6ff" stroke-miterlimit="10" stroke-width="3"/>
      <line id="Line_23" data-name="Line 23" x1="0.647" y1="5.415" transform="translate(-77.265 297.658)" fill="none" stroke="#7ee6ff" stroke-miterlimit="10" stroke-width="3"/>
      <path id="Path_590" data-name="Path 590" d="M-28.119,355.79c-.219,2.1-.417,4.021-.581,5.637" transform="translate(-29.921 -41.174)" fill="none" stroke="#7ee6ff" stroke-miterlimit="10" stroke-width="3"/>
      <line id="Line_24" data-name="Line 24" x1="0.668" y1="5.629" transform="translate(-74.893 317.515)" fill="none" stroke="#7ee6ff" stroke-miterlimit="10" stroke-width="3"/>
      <path id="Path_591" data-name="Path 591" d="M-64.94,383.25a9.15,9.15,0,0,0,1.588,3.109,6.034,6.034,0,0,0,5.452,2.6c4.99-.553,7.085-4.008,7.456-8.388" transform="translate(-8.626 -55.736)" fill="none" stroke="#7ee6ff" stroke-miterlimit="10" stroke-width="3"/>
      <path id="Path_592" data-name="Path 592" d="M-25.524,331.07c-.2,1.847-.392,3.707-.586,5.518" transform="translate(-31.443 -26.648)" fill="none" stroke="#7ee6ff" stroke-miterlimit="10" stroke-width="3"/>
      <line id="Line_25" data-name="Line 25" x1="0.676" y1="5.678" transform="translate(-76.085 307.535)" fill="none" stroke="#7ee6ff" stroke-miterlimit="10" stroke-width="3"/>
      <path id="Path_593" data-name="Path 593" d="M-76.5,292.924l-.858-7.2h23.708s-.132,1.25-.355,3.3" transform="translate(-1.327)" fill="none" stroke="#7ee6ff" stroke-miterlimit="10" stroke-width="3"/>
      <path id="Path_594" data-name="Path 594" d="M-54.98,293.412a71.869,71.869,0,0,1-22.849,4.029,2.023,2.023,0,0,0-1.769,2.4,2.572,2.572,0,0,0,2.333,2.332s11.856-.15,22.284-4.382c0,0,2.252-.593,2.1-2.587A1.875,1.875,0,0,0-54.98,293.412Z" transform="translate(0 -4.517)" fill="none" stroke="#7ee6ff" stroke-miterlimit="10" stroke-width="3"/>
      <path id="Path_595" data-name="Path 595" d="M-54.828,318.919s-11.381,3.66-20.172,3.6c0,0-2.21.27-1.819,2.334a2.3,2.3,0,0,0,2.008,2.12,58.394,58.394,0,0,0,19.46-3.107s3.633-.909,2.964-3.308S-54.828,318.919-54.828,318.919Z" transform="translate(-1.618 -19.44)" fill="none" stroke="#7ee6ff" stroke-miterlimit="10" stroke-width="3"/>
      <path id="Path_596" data-name="Path 596" d="M-54.427,344.4s-10.478,3.161-17.858,3.275c0,0-2.694.393-1.857,2.847s7.94,2.183,19.226-1.446c0,0,3.369-.45,3.06-2.793A2.1,2.1,0,0,0-54.427,344.4Z" transform="translate(-3.123 -34.46)" fill="none" stroke="#7ee6ff" stroke-miterlimit="10" stroke-width="3"/>
      <path id="Path_597" data-name="Path 597" d="M-53.99,369.454s-9.1,2.831-15.6,2.89c0,0-2.707.617-2.038,2.57a2.7,2.7,0,0,0,2.7,1.8s10.546-.88,14.495-2.68a3.065,3.065,0,0,0,2.889-2.413C-51.1,369.279-53.99,369.454-53.99,369.454Z" transform="translate(-4.632 -49.202)" fill="none" stroke="#7ee6ff" stroke-miterlimit="10" stroke-width="3"/>
    </g>
    <g id="Group_80" data-name="Group 80" transform="translate(1034.167 432.254)">
      <path id="Path_598" data-name="Path 598" d="M-31.771-360.126c10.981,2.348,20.229-21,31.428,0,3.111,5.832-1.734,16.662-6.208,24.53" transform="translate(-47.816 -0.583)" fill="none" stroke="#36f294" stroke-linecap="round" stroke-miterlimit="10" stroke-width="6"/>
      <path id="Path_599" data-name="Path 599" d="M-85.879-336.129c-4.5-8.037-9.427-19.353-6.3-26.175,7.267-15.832,21.915-3.316,21.915-3.316" transform="translate(0 0)" fill="none" stroke="#36f294" stroke-linecap="round" stroke-miterlimit="10" stroke-width="6"/>
      <path id="Path_600" data-name="Path 600" d="M-59.47-221.3a50.982,50.982,0,0,1,31.512-.05" transform="translate(-26.409 -114.828)" fill="none" stroke="#36f294" stroke-miterlimit="10" stroke-width="6"/>
    </g>
    <line id="Line_26" data-name="Line 26" x2="351" transform="translate(95.5 79.5)" fill="none" stroke="#fff" stroke-width="3" opacity="0.64"/>
    <line id="Line_27" data-name="Line 27" x2="338" transform="translate(571.5 79.5)" fill="none" stroke="#fff" stroke-width="3" opacity="0.64"/>
  </g>
</svg>
