<svg id="Icon_awesome-facebook-square" data-name="Icon awesome-facebook-square" xmlns="http://www.w3.org/2000/svg" width="23.256" height="23.256" viewBox="0 0 23.256 23.256">
  <path id="Icon_awesome-facebook-square-2" data-name="Icon awesome-facebook-square" d="M20.765,2.25H2.492A2.492,2.492,0,0,0,0,4.742V23.015a2.492,2.492,0,0,0,2.492,2.492H9.617V17.6H6.346V13.878h3.27V11.042c0-3.226,1.921-5.008,4.863-5.008a19.813,19.813,0,0,1,2.882.251V9.451H15.738a1.861,1.861,0,0,0-2.1,2.011v2.416h3.57L16.639,17.6h-3v7.907h7.125a2.492,2.492,0,0,0,2.492-2.492V4.742A2.492,2.492,0,0,0,20.765,2.25Z" transform="translate(0 -2.25)" fill="#fff"/>
</svg>
