<svg id="Icon_awesome-instagram" data-name="Icon awesome-instagram" xmlns="http://www.w3.org/2000/svg" width="23.263" height="23.256" viewBox="0 0 23.263 23.256">
  <path id="Icon_awesome-instagram-2" data-name="Icon awesome-instagram" d="M11.629,7.9a5.963,5.963,0,1,0,5.963,5.963A5.953,5.953,0,0,0,11.629,7.9Zm0,9.839a3.877,3.877,0,1,1,3.877-3.877,3.884,3.884,0,0,1-3.877,3.877Zm7.6-10.083a1.391,1.391,0,1,1-1.391-1.391A1.388,1.388,0,0,1,19.227,7.659Zm3.949,1.412A6.882,6.882,0,0,0,21.3,4.2a6.929,6.929,0,0,0-4.873-1.879c-1.92-.109-7.676-.109-9.6,0A6.919,6.919,0,0,0,1.955,4.193,6.9,6.9,0,0,0,.076,9.066c-.109,1.92-.109,7.675,0,9.6a6.882,6.882,0,0,0,1.879,4.873,6.937,6.937,0,0,0,4.873,1.879c1.92.109,7.676.109,9.6,0A6.883,6.883,0,0,0,21.3,23.534a6.928,6.928,0,0,0,1.879-4.873c.109-1.92.109-7.67,0-9.59ZM20.7,20.721a3.925,3.925,0,0,1-2.211,2.211c-1.531.607-5.164.467-6.856.467s-5.33.135-6.856-.467a3.925,3.925,0,0,1-2.211-2.211C1.955,19.19,2.1,15.558,2.1,13.866s-.135-5.33.467-6.855A3.925,3.925,0,0,1,4.773,4.8c1.531-.607,5.164-.467,6.856-.467s5.33-.135,6.856.467A3.925,3.925,0,0,1,20.7,7.011c.607,1.531.467,5.163.467,6.855S21.3,19.2,20.7,20.721Z" transform="translate(0.005 -2.238)" fill="#fff"/>
</svg>
