<svg id="Icon_simple-tiktok" data-name="Icon simple-tiktok" xmlns="http://www.w3.org/2000/svg" width="20.205" height="23.256" viewBox="0 0 20.205 23.256">
  <path id="Icon_simple-tiktok-2" data-name="Icon simple-tiktok" d="M12.98.019C14.249,0,15.509.01,16.769,0a6.036,6.036,0,0,0,1.7,4.041,6.834,6.834,0,0,0,4.109,1.735V9.68a10.372,10.372,0,0,1-4.07-.94,11.972,11.972,0,0,1-1.57-.9c-.01,2.829.01,5.659-.019,8.479a7.4,7.4,0,0,1-1.308,3.818,7.219,7.219,0,0,1-5.727,3.11,7.066,7.066,0,0,1-3.954-1,7.307,7.307,0,0,1-3.537-5.533c-.019-.485-.029-.969-.01-1.444A7.295,7.295,0,0,1,10.839,8.8c.019,1.434-.039,2.868-.039,4.3a3.325,3.325,0,0,0-4.244,2.054,3.844,3.844,0,0,0-.136,1.56A3.3,3.3,0,0,0,9.811,19.5a3.255,3.255,0,0,0,2.684-1.56,2.236,2.236,0,0,0,.4-1.027c.1-1.735.058-3.459.068-5.194.01-3.905-.01-7.8.019-11.7Z" transform="translate(-2.369)" fill="#fff"/>
</svg>
