<svg xmlns="http://www.w3.org/2000/svg" width="115.223" height="65.404" viewBox="0 0 115.223 65.404">
  <g id="_1T2fYy" data-name="1T2fYy" transform="translate(159.774 -33.715)">
    <g id="Group_131" data-name="Group 131" transform="translate(-159.774 33.715)">
      <path id="Path_714" data-name="Path 714" d="M402.525,52.65c.32-6.5,2.227-12.312,7.762-16.231,7.847-5.556,20.394-2.58,22.415,9.22a21.332,21.332,0,0,1-3.478,16.073A14.993,14.993,0,0,1,410.49,66.9c-5.027-2.553-7.458-7.014-7.959-12.563C402.481,53.78,402.525,53.213,402.525,52.65Zm27.526-1.281c-.3-5.013-3.036-9.938-8.646-13.057-4.78-2.658-9.682-1.531-13.011,2.787a12.536,12.536,0,0,0-2.428,9.887,17.58,17.58,0,0,0,6.875,12.189,8.99,8.99,0,0,0,7.169,1.97C425.849,64.066,430.048,58.834,430.051,51.369Z" transform="translate(-357.059 -33.715)" fill="#080808"/>
      <path id="Path_715" data-name="Path 715" d="M196.95,60.431q0-7.786,0-15.573c0-1.127-.2-2.056-1.565-2.293a1.107,1.107,0,0,1-.6-.916,1.14,1.14,0,0,1,.879-.659c2.118-.038,4.239-.023,6.355.063.413.017.811.421,1.216.647-.306.332-.628.651-.914,1a7.025,7.025,0,0,0-1.048,1.425,3.347,3.347,0,0,0-.044,1.284q-.032,15.637-.065,31.274a10.7,10.7,0,0,1-1.757,6.141c-2.063,3.044-5.515,3.167-8.333,2.05a1.458,1.458,0,0,1-.6-1.2c.058-.728.668-.582,1.209-.471a3.434,3.434,0,0,0,4.236-2.28,21.621,21.621,0,0,0,.99-5.565C197.038,70.383,196.95,65.406,196.95,60.431Z" transform="translate(-162.158 -40.383)" fill="#080808"/>
      <path id="Path_716" data-name="Path 716" d="M837.694,75.131c-.952,0-1.907.051-2.853-.027-.342-.028-.658-.363-.986-.558.225-.354.4-.961.685-1.016.976-.188,1.134-.819,1.134-1.609q.005-13.368,0-26.735c0-.874-.187-1.614-1.227-1.872a1.011,1.011,0,0,1-.538-.837,1.032,1.032,0,0,1,.748-.668q3.242-.081,6.486,0a1.012,1.012,0,0,1,.686.718,1,1,0,0,1-.593.789c-1.15.159-1.35.9-1.35,1.857q.006,13.238,0,26.476c0,.941.152,1.707,1.324,1.871.258.036.591.577.611.9.012.209-.473.625-.756.644-1.119.075-2.247.031-3.372.031Z" transform="translate(-753.542 -41.12)" fill="#080808"/>
      <path id="Path_717" data-name="Path 717" d="M288.334,707.992c1.227-.524,1.8-.113,2.1.91a56.306,56.306,0,0,0,1.986,5.877c.6-1.982,1.2-3.963,1.788-5.948.261-.88.687-1.414,1.681-.892.033.017.047.069.07.1-.584,1.305.147,7.7.776,10.352l-1.786.079-.478-6.579-.173-.026-2.01,6.42-.491-.013-1.953-6.181-.227.018c-.171,2-.342,4-.528,6.188l-.984.056c.173-1.855.376-3.557.477-5.265C288.68,711.419,289.573,709.719,288.334,707.992Z" transform="translate(-251.903 -653.253)" fill="#080808"/>
      <path id="Path_718" data-name="Path 718" d="M-50.294,707.362c.542,0,1.1,0,1.651,0,2.6.023,3.688,1.726,2.684,4.154-.235.569-.627,1.3-.447,1.769a18.31,18.31,0,0,0,1.9,3.5c.163.245.855.139,1.6.232-.3.374-.5.878-.795.935-.583.114-1.415.219-1.782-.1a8.1,8.1,0,0,1-1.526-2.187,15.03,15.03,0,0,0-1.286-2.19,6.717,6.717,0,0,0-.013,4.5h-1.986Zm1.6,2.963a2.377,2.377,0,0,0,.015.773,9.358,9.358,0,0,0,.584,1.133,4.357,4.357,0,0,0,.97-.893,1.393,1.393,0,0,0,.108-1.117,12.416,12.416,0,0,0-1.13-1.7c-.183.558-.368,1.115-.549,1.673A.37.37,0,0,0-48.694,710.325Z" transform="translate(59.143 -652.911)" fill="#080808"/>
      <path id="Path_719" data-name="Path 719" d="M635.445,718.187c.261-3.5.76-6.867-.419-10.273.8-.509,1.3-.4,1.99.658,1.037,1.592,2.042,3.2,3.068,4.8.252.393.533.768.9,1.3v-6.937l1.075-.061v10.6l-.526.147-4.841-7.355v7.121Z" transform="translate(-570.784 -653.15)" fill="#080808"/>
      <path id="Path_720" data-name="Path 720" d="M824.826,711.829a24.151,24.151,0,0,1-1.46,3.978,3.144,3.144,0,0,1-5.606.013,7.7,7.7,0,0,1,.935-8.372A3.285,3.285,0,0,1,824,708.5,18.74,18.74,0,0,1,824.826,711.829Zm-.921.843-.321-.158a5.285,5.285,0,0,0-1.778-4.152,1.818,1.818,0,0,0-3.05.426,5.834,5.834,0,0,0,1.107,6.983,1.589,1.589,0,0,0,2.335-.063A20.377,20.377,0,0,0,823.905,712.672Z" transform="translate(-737.982 -652.128)" fill="#080808"/>
      <path id="Path_721" data-name="Path 721" d="M1001.655,711.458a7.679,7.679,0,0,1-1.885,4.934,3.116,3.116,0,0,1-5.209-.67,7.936,7.936,0,0,1,.676-7.963,3.273,3.273,0,0,1,5.507.527A16.794,16.794,0,0,1,1001.655,711.458Zm-7.01.009a20.331,20.331,0,0,0,1.366,3.411,2.931,2.931,0,0,0,1.924,1.216c1.021.117,1.695-.711,2.117-1.624a5.2,5.2,0,0,0,.087-3.912c-.55-1.711-1.99-3.015-3.134-2.831C995.836,707.915,994.891,709.553,994.645,711.467Z" transform="translate(-900.551 -652.117)" fill="#080808"/>
      <path id="Path_722" data-name="Path 722" d="M-151.968,710.982a8.063,8.063,0,0,1-1.414,4.457,3.181,3.181,0,0,1-5.566-.108,7.7,7.7,0,0,1,.644-7.973c1.743-2.074,4.465-1.8,5.6.647A15.538,15.538,0,0,1-151.968,710.982Zm-6.762-.174-.2.119a20.8,20.8,0,0,0,1.393,3.537c1.1,1.8,3,1.594,3.944-.312a4.956,4.956,0,0,0-.495-5.387,3.864,3.864,0,0,0-2.4-1.45c-1.007-.111-1.56.943-1.889,1.866A12.394,12.394,0,0,0-158.73,710.808Z" transform="translate(159.774 -651.631)" fill="#080808"/>
      <path id="Path_723" data-name="Path 723" d="M1105.077,708.539a5.223,5.223,0,0,1-.479-.373c-1.586-1.55-3.023-1.323-3.979.651a6.827,6.827,0,0,0-.334,4.933,4.653,4.653,0,0,0,1.75,2.1,1.719,1.719,0,0,0,1.653-.018c.342-.285.326-1.076.344-1.649a4.164,4.164,0,0,0-.366-1.186h1.894v3.7a4.739,4.739,0,0,1-6.243-2.027,6.677,6.677,0,0,1,.872-7.38,3.515,3.515,0,0,1,4.27-.656c.5.318.722,1.06,1.072,1.609Z" transform="translate(-996.878 -651.82)" fill="#080808"/>
      <path id="Path_724" data-name="Path 724" d="M406.5,707.577a3.992,3.992,0,0,1,3.971.559,3.947,3.947,0,0,1,.188,3.82,1.72,1.72,0,0,1-2.13.888l-.47-.467a2.7,2.7,0,0,0,.983-.323,2.557,2.557,0,0,0,.253-3.1,1.052,1.052,0,0,0-.73-.413c-.174.011-.461.4-.463.617-.031,2.872-.021,5.745-.021,8.748H406.5Z" transform="translate(-360.728 -652.852)" fill="#080808"/>
      <path id="Path_725" data-name="Path 725" d="M548.539,718.417c-.357-1.408-.588-2.6-.982-3.727a1.542,1.542,0,0,0-1.039-.861c-.262-.039-.776.48-.895.842-.386,1.176-.641,2.395-.986,3.75l-1.027-.125,2.99-10.575.58.006c.481,1.756.952,3.516,1.445,5.269.486,1.729.993,3.452,1.536,5.337Zm-1.776-6.711-.325.013a2.367,2.367,0,0,0-.145.605,1.578,1.578,0,0,0,.191.5l.279-.038Z" transform="translate(-486.758 -653.243)" fill="#080808"/>
      <path id="Path_726" data-name="Path 726" d="M47.257,718.229,50.185,707.7l.545-.033,3.008,10.514c-1.418.413-1.569.313-1.842-.983a15.359,15.359,0,0,0-.752-2.612,1.4,1.4,0,0,0-.951-.806,1.342,1.342,0,0,0-.948.792,15.6,15.6,0,0,0-.716,2.887C48.385,718.41,47.92,718.469,47.257,718.229Zm2.787-5.559.381-.03-.118-1.132-.263.026Z" transform="translate(-30.523 -653.197)" fill="#080808"/>
      <path id="Path_727" data-name="Path 727" d="M737.555,717.955H735.75c0-2.7.006-5.311,0-7.927-.005-1.673-.187-1.8-1.977-1.3l-.422-1.386h6.233l-.289,1.38c-1.907-.439-1.987-.375-1.991,1.527,0,1.774-.022,3.549.011,5.323C737.325,716.293,737.455,717.013,737.555,717.955Z" transform="translate(-661.158 -652.894)" fill="#080808"/>
      <path id="Path_728" data-name="Path 728" d="M1197.991,718.127l-2.189-.133c.584-3.721.187-7.118-1.888-10.161,1.421-.782,1.807-.586,2.175.807a21.931,21.931,0,0,0,.974,2.391,18.515,18.515,0,0,0,1.131-2.834c.225-1.069.7-.853,1.526-.463A12.052,12.052,0,0,0,1197.991,718.127Z" transform="translate(-1084.498 -652.925)" fill="#080808"/>
      <path id="Path_729" data-name="Path 729" d="M137.9,709.092h1.938c-.8,2.823-.352,5.573-.384,8.3a1.2,1.2,0,0,0,1.254,1.354,1.265,1.265,0,0,0,1.445-1.164,8.014,8.014,0,0,1,.319-.982,2.6,2.6,0,0,1,.349,2.634c-.071.259-.92.4-1.421.425-1.144.061-2.293.019-3.5.019Z" transform="translate(-113.839 -654.502)" fill="#080808"/>
      <path id="Path_730" data-name="Path 730" d="M923.119,708.967h1.653c-.051,2.731-.11,5.342-.143,7.953-.011.89.213,1.758,1.31,1.674a2.476,2.476,0,0,0,1.309-.918c.214-.234.2-.679.286-1.028l.49.026a8,8,0,0,1-.073,2.352c-.1.31-.989.476-1.533.512-1.148.076-2.3.023-3.3.023Z" transform="translate(-835.591 -654.387)" fill="#080808"/>
      <path id="Path_731" data-name="Path 731" d="M478.515,717.382a18.143,18.143,0,0,1-.033,2.22.948.948,0,0,1-.692.6c-1.41.058-2.824.028-4.193.028a57.793,57.793,0,0,0,.046-10.505h1.536c0,2.623,0,5.193,0,7.762,0,.861.036,1.719,1.173,1.819,1.1.1,1.407-.612,1.486-1.538.012-.144.149-.278.228-.417Z" transform="translate(-422.403 -655.082)" fill="#080808"/>
      <path id="Path_732" data-name="Path 732" d="M255.177,719.853h-1.664V709.378h1.664Z" transform="translate(-220.108 -654.765)" fill="#080808"/>
      <path id="Path_733" data-name="Path 733" d="M-104.831,620.507a2.445,2.445,0,0,1-2.557,2.211,2.33,2.33,0,0,1-2.242-2.487,2.369,2.369,0,0,1,2.443-2.166A2.5,2.5,0,0,1-104.831,620.507Zm-1.534-1.2.007.007c-.772-.789-1.479-.534-2.08.193a1.3,1.3,0,0,0,.227,2.035,1.463,1.463,0,0,0,2.1-.173A1.213,1.213,0,0,0-106.366,619.311Z" transform="translate(113.686 -570.831)" fill="#080808"/>
      <path id="Path_734" data-name="Path 734" d="M198.5,620.573a2.471,2.471,0,0,1-2.476,2.317,2.289,2.289,0,0,1-2.26-2.336,2.369,2.369,0,0,1,4.736.02Zm-3.883-.167a1.439,1.439,0,0,0,1.361,1.617,1.389,1.389,0,0,0,1.648-1.279,1.514,1.514,0,1,0-3.009-.339Z" transform="translate(-165.192 -570.998)" fill="#080808"/>
      <path id="Path_735" data-name="Path 735" d="M42.15,623.171l.184-2.5.465.028v4.032l-.333.2-2.213-2.89-.335,2.752-.475-.025a8.378,8.378,0,0,1-.014-3.828c.179-.731.828-.407,1.18.049C41.129,621.66,41.593,622.374,42.15,623.171Z" transform="translate(-23.131 -573.077)" fill="#080808"/>
      <path id="Path_736" data-name="Path 736" d="M-.2,625.928l-1.328-2.137-.59,1.831c-.517-.7-.84-3.726-.36-3.972a3.422,3.422,0,0,1,2.149-.261c.857.19.952,1.009.772,1.8C.273,623.925.1,624.657-.2,625.928Zm-1.766-2.9.534.485,1.038-.939-.811-.673Z" transform="translate(15.41 -573.824)" fill="#080808"/>
      <path id="Path_737" data-name="Path 737" d="M88.3,625.374c.275-.66.5-1.344.837-1.972.388-.732.868-1.416,1.307-2.12a23.582,23.582,0,0,1,1.362,2.039,18.223,18.223,0,0,1,.823,2.078l-.262.16c-.629-.458-1.247-1.255-1.891-1.277-.605-.021-1.238.777-1.859,1.214Zm2.377-2.684-.388-.031-.064.74c.119,0,.334.02.342-.012A5.565,5.565,0,0,0,90.68,622.69Z" transform="translate(-68.251 -573.79)" fill="#080808"/>
      <path id="Path_738" data-name="Path 738" d="M-47.284,625.8a6.631,6.631,0,0,1-.129-3.767l.458-.026c.072.388.173.774.209,1.166a5.626,5.626,0,0,0,.049,1.285,3.822,3.822,0,0,0,.766.98c.23-.315.607-.607.661-.95.128-.807.1-1.639.262-2.449a3.541,3.541,0,0,1,.242,3.694c-.8.91-1.666.709-2.524.06Z" transform="translate(56.688 -574.455)" fill="#080808"/>
      <path id="Path_739" data-name="Path 739" d="M257.27,620.145l-1.458.813,1.2,1.156c-1.4-.075-1.155,1.278-1.736,2.056a6.645,6.645,0,0,1-.2-3.869C255.192,619.712,256.1,619.678,257.27,620.145Z" transform="translate(-221.367 -572.449)" fill="#080808"/>
      <path id="Path_740" data-name="Path 740" d="M-143.546,622.5a5.985,5.985,0,0,1-.052,3.666,1.352,1.352,0,0,1-1.155.548c-.425-.057-.8-.5-1.2-.774l.21-.386,1.409.318.29-3.371Z" transform="translate(147.066 -574.909)" fill="#080808"/>
      <path id="Path_741" data-name="Path 741" d="M145.422,621.947c0,.654.037,1.311-.009,1.962-.066.934.1,1.626,1.251,1.606.125,0,.253.178.38.273l-.029.345a6.137,6.137,0,0,1-1.842-.057c-.25-.082-.39-.781-.417-1.21-.06-.977-.019-1.961-.019-2.941Z" transform="translate(-120.112 -574.381)" fill="#080808"/>
      <path id="Path_742" data-name="Path 742" d="M-43.5,668.863l.005.005Z" transform="translate(52.896 -617.525)" fill="#080808"/>
      <path id="Path_743" data-name="Path 743" d="M-69.213,633.5l.007.007Z" transform="translate(76.533 -585.02)" fill="#080808"/>
    </g>
  </g>
</svg>
