<svg id="Group_109" data-name="Group 109" xmlns="http://www.w3.org/2000/svg" width="153.184" height="45.347" viewBox="0 0 153.184 45.347">
  <path id="Path_675" data-name="Path 675" d="M430.785,35.227c.086.066.172.191.258.19a10.367,10.367,0,0,1,2.438.363c.79.18,1.57.4,2.357.569a24.6,24.6,0,0,1,5.34,2.276,12.5,12.5,0,0,1,1.7,1.2,17.19,17.19,0,0,1,2.859,2.688,19.712,19.712,0,0,1,1.838,2.5,25.975,25.975,0,0,1,1.526,2.858,18.109,18.109,0,0,1,1.053,3.143,8.6,8.6,0,0,0,.577,2.244c.015.025,0,.065,0,.1.066,1.265.123,2.53.2,3.793.023.351-.155.356-.416.35-.564-.013-1.129,0-1.694,0-.464,0-.928,0-1.393-.007-.031-.451-.046-.9-.1-1.352-.043-.373-.13-.74-.194-1.111-.059-.339.152-.724-.193-1.018-.049-.042.008-.194-.009-.29-.066-.37.107-.745-.171-1.129-.175-.243.024-.661-.206-1.005a3.063,3.063,0,0,1-.321-1.054,11.262,11.262,0,0,0-.931-2.4,12.02,12.02,0,0,0-1.2-2.088,17.752,17.752,0,0,0-1.98-2.356A18,18,0,0,0,438.473,41a28.279,28.279,0,0,0-4.36-1.74A9.582,9.582,0,0,0,432.622,39c-.306-.055-.609-.136-.915-.2a3.872,3.872,0,0,1-.832-.155,3.8,3.8,0,0,0-1.377-.045c-1.206.012-2.39-.286-3.607-.215-1.192.069-2.392.015-3.588.015h-3.688c-.166,0-.332,0-.5,0-.484.006-.491.007-.492.46q-.005,2.385,0,4.77V56.36a2.181,2.181,0,0,1-.017.69c-.062.175-.265.42-.416.427-.9.04-1.794.033-2.69.012a.447.447,0,0,1-.469-.5c0-.232,0-.464,0-.7V35.227Z" transform="translate(-331.264 -35.227)" fill="#080808"/>
  <path id="Path_676" data-name="Path 676" d="M366.433,35.227c.053.066.106.19.158.19a10.825,10.825,0,0,1,3.149.825,12.574,12.574,0,0,1,2.3,1.18,6.017,6.017,0,0,1,.753.588,12.266,12.266,0,0,1,2.924,3.192,6.887,6.887,0,0,1,.673,1.113c.218.571.451,1.145.662,1.716a5.7,5.7,0,0,0,.55,1.658,21.982,21.982,0,0,1,.167,3.987,4.189,4.189,0,0,0-.156,1.113,2.756,2.756,0,0,1-.221,1.109,11.092,11.092,0,0,1-1.5,3.657,11.624,11.624,0,0,1-1.145,1.708.649.649,0,0,1-.5.241c-1.462-.015-2.923-.006-4.385-.013a.372.372,0,0,1-.224-.113c.028-.117.062-.278.15-.328A12.555,12.555,0,0,0,372.018,55a10.11,10.11,0,0,0,1.814-3.522,10.317,10.317,0,0,0,.366-3.714,9.078,9.078,0,0,0-2.591-6.077,17.979,17.979,0,0,0-1.971-1.741,5.223,5.223,0,0,0-2.1-.918,4.637,4.637,0,0,1-.713-.214,3.881,3.881,0,0,0-.814-.2,8.193,8.193,0,0,1-.894-.017,24.256,24.256,0,0,0-4.9-.18c-1.627-.042-3.255-.009-4.883-.009-.133,0-.266.008-.4,0-.223-.018-.281.09-.269.293.014.231,0,.463,0,.7V56.483a7.248,7.248,0,0,1-.011.793.319.319,0,0,1-.228.21c-.964.015-1.927.023-2.89,0a.446.446,0,0,1-.462-.5c.006-.232,0-.464,0-.7V35.227Z" transform="translate(-297.826 -35.227)" fill="#080808"/>
  <path id="Path_677" data-name="Path 677" d="M332.97,35.227V56.28c0,.232.011.464,0,.695a.484.484,0,0,1-.548.517q-1.244.018-2.49,0a.483.483,0,0,1-.547-.517c-.013-.231,0-.463,0-.695V35.227Z" transform="translate(-286.301 -35.227)" fill="#080808"/>
  <path id="Path_678" data-name="Path 678" d="M237.5,83.99c1.163,0,2.326,0,3.49,0,.2,0,.321.029.3.26-.014.153.044.319-.216.348-.242.027-.475.135-.716.188-.217.046-.489,0-.641.12-.1.076-.023.373-.023.571,0,1.16,0,2.32,0,3.479,0,.143.094.338-.145.407-.211.061-.612-.123-.642-.325a3.913,3.913,0,0,1-.007-.595c0-1.127,0-2.253,0-3.38,0-.215-.076-.28-.286-.278a1.538,1.538,0,0,1-1.114-.194Z" transform="translate(-237.504 -61.125)" fill="#080808"/>
  <path id="Path_679" data-name="Path 679" d="M414.023,104.265c0-2.518.007-5.037-.009-7.555,0-.347.066-.452.433-.441.963.031,1.928.015,2.891.007.217,0,.282.077.278.286-.012.5,0,.994,0,1.491q0,5.318,0,10.637c0,.506.006.512.54.512,3.523,0,7.047.008,10.569-.007.439,0,.874-.151,1.315-.183.462-.033,1.034.159,1.369-.049.422-.263.9.041,1.28-.33.192-.187.623.1.923-.155.244-.2.667.087.883-.269a10.907,10.907,0,0,0,2.877-1,14.733,14.733,0,0,0,3.73-2.279,15.685,15.685,0,0,0,3.237-3.619,26.654,26.654,0,0,0,1.929-4.074.945.945,0,0,0,.065-.172c.194-.946.2-.789.88-.789.8,0,1.6,0,2.393,0,.51,0,.646.152.511.633-.148.532-.372,1.043-.51,1.577a15.044,15.044,0,0,1-1.64,3.6,18.065,18.065,0,0,1-1.8,2.648,15.9,15.9,0,0,1-1.581,1.718c-.762.685-1.573,1.316-2.379,1.949a8.3,8.3,0,0,1-1.094.724,2.985,2.985,0,0,0-1.03.639c-.519-.174-.693.482-1.218.473-.412-.008-.822.377-1.249.549-.4.161-.83.242-1.225.409a18.759,18.759,0,0,1-3.063.788,14.148,14.148,0,0,1-3.724.4c-1.572-.05-3.125.281-4.7.211-1.626-.072-3.257-.016-4.885-.016-1.6,0-3.191-.011-4.787,0-1.163.01-1.221.069-1.21-1.165C414.037,109.037,414.023,106.651,414.023,104.265Z" transform="translate(-331.255 -67.648)" fill="#080808"/>
  <path id="Path_680" data-name="Path 680" d="M311.983,113h-2.791a3.46,3.46,0,0,1-.5,0,.672.672,0,0,1-.582-.684c0-.927,0-1.855,0-2.782,0-.257.079-.393.335-.27a5.85,5.85,0,0,0,2.958.557,10.726,10.726,0,0,0,2.418-.168,4.9,4.9,0,0,0,3.666-4,8.812,8.812,0,0,0,.427-2.514,53.96,53.96,0,0,0,.169-6.282c.025-.548.01-.56.5-.553,1.02.015,2.041.044,3.061.067q.015,1.485.03,2.969c0,.43-.034.865.007,1.291a21.3,21.3,0,0,1-.249,4.088,12.339,12.339,0,0,1-.85,3.71,7.621,7.621,0,0,1-3.108,3.647,5.315,5.315,0,0,1-3,.937C313.647,112.959,312.814,113,311.983,113Z" transform="translate(-275.005 -67.662)" fill="#080808"/>
  <path id="Path_681" data-name="Path 681" d="M354.662,104.49q0,3.723,0,7.446c0,.648-.005.65-.7.651-.764,0-1.527.007-2.29,0-.43-.005-.576-.153-.6-.567-.008-.132,0-.264,0-.4v-14.6c0-.132.009-.265,0-.4-.018-.231.022-.362.312-.352,1.084.04,2.17.056,3.255.081.008.989.021,1.979.024,2.968C354.664,101.049,354.662,102.77,354.662,104.49Z" transform="translate(-297.821 -67.653)" fill="#080808"/>
  <path id="Path_682" data-name="Path 682" d="M314.912,86.623c0-.761,0-1.523,0-2.285,0-.142-.084-.378.183-.359.2.014.437-.139.617.132a16.011,16.011,0,0,0,1.5,1.871c.443.491.805,1.055,1.21,1.582a.9.9,0,0,0,.208.153,1.152,1.152,0,0,0,.067-.269c0-1.059.015-2.12,0-3.179-.006-.306.147-.314.363-.3s.456-.084.45.314c-.021,1.49-.016,2.981,0,4.471a.523.523,0,0,1-.394.58.489.489,0,0,1-.579-.272,13.665,13.665,0,0,0-1.27-1.662c-.438-.542-.847-1.107-1.275-1.657a.967.967,0,0,0-.208-.154,1.168,1.168,0,0,0-.067.269c-.005.961-.018,1.921.007,2.881a.612.612,0,0,1-.294.574.34.34,0,0,1-.512-.307C314.909,88.213,314.912,87.419,314.912,86.623Z" transform="translate(-278.614 -61.105)" fill="#080808"/>
  <path id="Path_683" data-name="Path 683" d="M504.635,86.53c0-.695-.006-1.39,0-2.085,0-.152.045-.427.1-.434a1.956,1.956,0,0,1,.663.056c.082.018.154.124.211.2.389.54.836,1.034,1.233,1.569a14.371,14.371,0,0,1,1.383,1.816c.02.038.086.053.13.079a.545.545,0,0,0,.063-.171c0-1.092.015-2.184,0-3.275-.006-.308.149-.312.364-.3s.455-.084.45.314c-.022,1.488-.005,2.977-.016,4.466a.9.9,0,0,1-.145.432c-.088.145-.237.248-.4.1a3.641,3.641,0,0,1-.627-.635,11.939,11.939,0,0,0-1.341-1.73c-.331-.346-.618-.734-.918-1.108-.1-.129-.189-.274-.283-.411a3.621,3.621,0,0,0-.063.469c-.005.893,0,1.786,0,2.68a1.27,1.27,0,0,1-.014.49.531.531,0,0,1-.361.284.512.512,0,0,1-.374-.249,1.033,1.033,0,0,1-.047-.474C504.632,87.919,504.635,87.224,504.635,86.53Z" transform="translate(-379.386 -61.124)" fill="#080808"/>
  <path id="Path_684" data-name="Path 684" d="M282.7,89.153a2.3,2.3,0,0,1-1.959-.768,2.938,2.938,0,0,1-.751-2.076,2.637,2.637,0,0,1,2.842-2.708,2.8,2.8,0,0,1,2.012.9,2.512,2.512,0,0,1,.706,1.877,2.548,2.548,0,0,1-.865,2.012A2.626,2.626,0,0,1,282.7,89.153Zm.228-.795c.528.227.876-.278,1.279-.533.486-.308.274-.991.59-1.422-.318-.333-.067-.859-.453-1.2a2.246,2.246,0,0,0-1.645-.833,2,2,0,1,0,.229,3.989Z" transform="translate(-260.071 -60.92)" fill="#080808"/>
  <path id="Path_685" data-name="Path 685" d="M391.059,86.53c0-.76.006-1.52,0-2.28,0-.218.083-.275.289-.273.729.01,1.46.028,2.187-.007a1.171,1.171,0,0,1,.763.335,1.408,1.408,0,0,1,.539,1.562,1.284,1.284,0,0,1-.793,1.088c-.173.062-.191.072-.081.226q.463.645.884,1.319c.258.415.285.78.085.845-.353.114-.561-.134-.737-.363a8.441,8.441,0,0,1-.539-.866c-.078-.131-.123-.282-.2-.411a1.027,1.027,0,0,0-1.039-.56c-.326.028-.375.139-.359.414.02.362.009.727,0,1.09-.007.471-.152.682-.467.7-.368.02-.522-.188-.528-.738C391.054,87.918,391.059,87.224,391.059,86.53Zm1-.816c0,1.021,0,1.019,1.11.657.09-.029.211.028.3-.009.572-.251.915-.9.245-1.448a.88.88,0,0,0-.643-.134C392.055,84.758,392.055,84.762,392.056,85.714Z" transform="translate(-319.061 -61.116)" fill="#080808"/>
  <path id="Path_686" data-name="Path 686" d="M405.96,86.539a2,2,0,0,1-.8,1.871,2.861,2.861,0,0,1-4.812-2.092,3.176,3.176,0,0,1,1.108-2.133A2.423,2.423,0,0,1,403.2,83.6a2.71,2.71,0,0,1,2.153,1.04A2.464,2.464,0,0,1,405.96,86.539Zm-2.879,1.819c.887,0,1.107-.04,1.46-.485a2.059,2.059,0,0,0,.643-1.419,1.938,1.938,0,0,0-2.049-2.075,1.542,1.542,0,0,0-1.211.393,2.507,2.507,0,0,0-.744,1.66,1.952,1.952,0,0,0,.527,1.365A1.544,1.544,0,0,0,403.081,88.359Z" transform="translate(-323.996 -60.92)" fill="#080808"/>
  <path id="Path_687" data-name="Path 687" d="M304.709,86.536c0-.761.006-1.522,0-2.282,0-.219.086-.274.291-.271.663.01,1.328.021,1.99,0a1.22,1.22,0,0,1,1.2.64c.158.357.615.814.112,1.276a1,1,0,0,1-.635,1.015c-.1.049-.165.118-.054.283.311.459.544.972.866,1.422.165.229.339.433.162.679-.15.208-.849.049-.92-.243-.125-.511-.572-.82-.715-1.294-.164-.544-.53-.654-1.037-.6-.22.024-.27.1-.264.3.012.43.01.859,0,1.289-.008.375-.178.586-.464.6-.345.021-.523-.18-.529-.637C304.7,87.992,304.709,87.264,304.709,86.536Zm1.8-1.754c-.806,0-.806,0-.807.839a1.748,1.748,0,0,0,0,.2c.031.251,0,.675.112.716a1.964,1.964,0,0,0,.852-.038c.085-.011.16-.1.245-.123.736-.23.937-.8.506-1.381C307.166,84.65,306.82,84.835,306.513,84.783Z" transform="translate(-273.198 -61.122)" fill="#080808"/>
  <path id="Path_688" data-name="Path 688" d="M358.317,86.367a2.849,2.849,0,0,1-5.383,1.149,1.177,1.177,0,0,1-.214-.71,5.487,5.487,0,0,1,.04-1.376,2.741,2.741,0,0,1,1.448-1.632,2.641,2.641,0,0,1,1.577-.267,3.3,3.3,0,0,1,1.213.412A2.762,2.762,0,0,1,358.317,86.367Zm-2.894,1.93a1.9,1.9,0,0,0,2.065-2.012,2.032,2.032,0,0,0-.619-1.507,1.836,1.836,0,0,0-1.294-.46,1.991,1.991,0,0,0-.152,3.979Z" transform="translate(-298.683 -60.859)" fill="#080808"/>
  <path id="Path_689" data-name="Path 689" d="M483.789,86.49c0-.726.005-1.452,0-2.178,0-.229.022-.358.313-.352.827.02,1.664-.068,2.479.031a2.028,2.028,0,0,1,1.609.983,3.024,3.024,0,0,1-.286,3.516,2.774,2.774,0,0,1-1.02.631,8.863,8.863,0,0,1-2.691.21.491.491,0,0,1-.405-.565C483.8,88.009,483.789,87.249,483.789,86.49Zm.8-.037c0,.265-.008.53,0,.795.017.421.044.842.068,1.263a6.677,6.677,0,0,0,1.281.015,2.064,2.064,0,0,0,1.716-1.129,2.829,2.829,0,0,0,.115-1.241,1.6,1.6,0,0,0-1.114-1.385,11.193,11.193,0,0,0-1.511-.2c-.55-.034-.552-.008-.556.589C484.585,85.591,484.587,86.021,484.587,86.452Z" transform="translate(-368.313 -61.102)" fill="#080808"/>
  <path id="Path_690" data-name="Path 690" d="M547.172,86.582c0-.165,0-.331,0-.5.021-.685.044-1.37.067-2.055.825-.01,1.65-.032,2.475-.025.271,0,1.025.792,1.044,1.061a1.831,1.831,0,0,1-.543,1.756c-.295.231-.3.418-.062.716a8.509,8.509,0,0,1,.795,1.257c.056.1.349.234.054.447a.469.469,0,0,1-.613.042c-.159-.116-.371-.256-.409-.42-.129-.542-.618-.874-.769-1.37-.092-.307-.226-.316-.467-.319-.773-.009-.773-.015-.775.777,0,.3-.017.6,0,.893a.513.513,0,0,1-.358.516.314.314,0,0,1-.444-.3C547.169,88.236,547.172,87.409,547.172,86.582Zm.8-.934c0,.1,0,.2,0,.3.005.691.034.716.714.639a1.588,1.588,0,0,0,.194-.013c.823-.2,1.172-.618,1.084-1.3a.467.467,0,0,0-.5-.473c-.4,0-.8.008-1.2,0-.2-.006-.317.029-.3.26C547.979,85.25,547.97,85.449,547.97,85.648Z" transform="translate(-401.98 -61.135)" fill="#080808"/>
  <path id="Path_691" data-name="Path 691" d="M435.425,86.769c0,.695.013,1.39-.008,2.085-.006.179.186.512-.248.5a.494.494,0,0,1-.538-.528c-.014-.3,0-.6,0-.894s-.01-.6,0-.893c.01-.218-.082-.277-.289-.274-.73.01-1.461.017-2.19,0-.281-.007-.324.107-.32.346.013.629.008,1.258,0,1.886,0,.143.076.328-.193.366a.544.544,0,0,1-.573-.291.8.8,0,0,1-.028-.383c0-1.456.013-2.913-.01-4.368-.006-.377.2-.318.43-.339.306-.027.4.084.383.384-.024.429.01.861-.012,1.29-.014.272.094.34.342.324.264-.017.531,0,.8,0,.528-.006,1.056-.015,1.584-.023.026-.519.047-1.038.079-1.557.009-.145-.1-.364.145-.4a1.746,1.746,0,0,1,.58.037c.039.007.066.168.066.258C435.427,85.114,435.425,85.941,435.425,86.769Z" transform="translate(-340.292 -61.118)" fill="#080808"/>
  <path id="Path_692" data-name="Path 692" d="M247.277,86.649c0-.794.021-1.589-.009-2.382-.015-.4.229-.308.445-.319s.4-.019.367.294c-.027.3-.007.6-.006.893,0,.8,0,.8.848.8h.1l1.58-.034c.022-.521.046-1.041.065-1.561a.436.436,0,0,1,.655-.382c.078.035.137.2.137.307q.013,2.334,0,4.666c0,.141.092.34-.167.386-.234.042-.587-.133-.622-.346a3.344,3.344,0,0,1-.006-.5c-.009-.558-.02-1.117-.03-1.675-.588-.023-1.176-.059-1.764-.066-.8-.01-.8,0-.8.748,0,.43-.024.862.008,1.29a.549.549,0,0,1-.339.538.319.319,0,0,1-.465-.279C247.274,88.237,247.277,87.443,247.277,86.649Z" transform="translate(-242.69 -61.082)" fill="#080808"/>
  <path id="Path_693" data-name="Path 693" d="M331.083,89c-.051.127-.076.278-.122.284a.7.7,0,0,1-.459-.031,1.224,1.224,0,0,1-.461-.895.458.458,0,0,0-.53-.438c-.563.009-1.127.012-1.691,0a.537.537,0,0,0-.574.4c-.1.255-.344.478-.373.732-.048.428-.343.265-.51.242-.232-.032-.3-.344-.19-.6.616-1.465,1.37-2.87,1.88-4.381a.742.742,0,0,1,.893-.368.259.259,0,0,1,.1.154,16.252,16.252,0,0,0,.891,2.211c.3.735.653,1.45.974,2.176A5.289,5.289,0,0,1,331.083,89Zm-2.25-1.872.566-.051-.35-.7c-.067-.137-.19-.275-.187-.41a.649.649,0,0,0-.268-.584c-.114.187-.24.368-.338.562-.068.134-.086.293-.148.431C327.763,87.126,327.76,87.125,328.833,87.126Z" transform="translate(-284.573 -61.079)" fill="#080808"/>
  <path id="Path_694" data-name="Path 694" d="M258.77,86.558c0-.694,0-1.388,0-2.082,0-.5.005-.5.544-.5.729,0,1.458-.009,2.187.006.16,0,.416-.14.459.189a.5.5,0,0,1-.471.6c-.2.017-.4,0-.6,0-.232,0-.464,0-.7,0-.724.008-.626-.108-.63.619,0,.568,0,.57.576.574.464,0,.928-.01,1.392.005.221.008.5.3.414.434s-.263.331-.411.341c-.561.04-1.127.023-1.69.012-.209,0-.3.062-.285.277.025.489.036.978.052,1.467.457.017.915.036,1.372.049a4.287,4.287,0,0,0,.6,0c.305-.035.406.082.382.382-.018.236.031.441-.342.427-.761-.031-1.524,0-2.286-.013-.412-.007-.561-.168-.566-.6C258.764,88.012,258.77,87.285,258.77,86.558Z" transform="translate(-248.798 -61.105)" fill="#080808"/>
  <path id="Path_695" data-name="Path 695" d="M442.953,86.477c0-.695.008-1.39,0-2.084,0-.257,0-.428.35-.417.829.026,1.659.006,2.489.012.144,0,.327-.073.363.2a.526.526,0,0,1-.3.568,1.129,1.129,0,0,1-.484.028c-.465,0-.93-.01-1.393.011a.322.322,0,0,0-.217.22c-.031.227,0,.462-.013.693s.084.277.29.272c.531-.011,1.064.02,1.593-.011.4-.023.3.235.314.448s.008.392-.3.361a5.628,5.628,0,0,0-.8,0c-.356.014-.855-.087-1.028.1s-.06.684-.07,1.044a1.679,1.679,0,0,1,0,.2c-.044.317.01.488.413.455.56-.047,1.128.006,1.692-.019.319-.014.3.169.289.372-.006.219.071.456-.324.44-.762-.032-1.527,0-2.29-.013-.422-.006-.569-.159-.574-.589C442.946,88,442.953,87.238,442.953,86.477Z" transform="translate(-346.624 -61.119)" fill="#080808"/>
  <path id="Path_696" data-name="Path 696" d="M293.629,86.182c0-.629-.007-1.258.007-1.887,0-.1.086-.276.151-.286a1.318,1.318,0,0,1,.574.041c.054.017.063.232.063.356,0,1.059,0,2.119,0,3.178,0,.586.076.746.632.9a3.417,3.417,0,0,0,1.162.067c.159-.013.317-.2.447-.339a.666.666,0,0,0,.147-.333,12.656,12.656,0,0,0,.2-1.308c.033-.461.008-.927.008-1.39,0-.3-.013-.6.008-.894.007-.1.091-.269.158-.278a1.666,1.666,0,0,1,.575.043c.036.008.055.171.055.263,0,1.06.016,2.119,0,3.178a2.057,2.057,0,0,1-1.851,1.871,2.172,2.172,0,0,1-1.785-.519,1.525,1.525,0,0,1-.558-1.372A11.247,11.247,0,0,0,293.629,86.182Z" transform="translate(-267.302 -61.129)" fill="#080808"/>
  <path id="Path_697" data-name="Path 697" d="M464.868,86.306a.811.811,0,0,1,0,.1,1.569,1.569,0,0,0,1.089,1.719,1.842,1.842,0,0,0,1.957-.16c.08-.056.131-.157.214-.2a.564.564,0,0,1,.677.21c.164.242-.042.362-.18.475a2.855,2.855,0,0,1-1.707.688,2.915,2.915,0,0,1-2.5-1.173,1.98,1.98,0,0,1-.377-1.038,2.135,2.135,0,0,1-.06-1.059,3.2,3.2,0,0,1,.892-1.615c.228-.2.523-.48.781-.473.556.015,1.032-.475,1.666-.117.408.232.983.168,1.342.588.126.146.3.25.113.484a.588.588,0,0,1-.612.2c-.052-.007-.092-.09-.144-.131a1.974,1.974,0,0,0-3.048.561c-.166.226-.1.62-.143.937Z" transform="translate(-357.769 -60.881)" fill="#080808"/>
  <path id="Path_698" data-name="Path 698" d="M496.128,86.595c0-.727,0-1.455,0-2.182,0-.444.009-.447.5-.45.664,0,1.327-.014,1.99.008.18.006.514-.185.5.246a.492.492,0,0,1-.528.537c-.43.015-.863.023-1.293,0-.312-.019-.38.1-.38.388,0,.809-.015.809.844.811a5.584,5.584,0,0,1,.992.019.381.381,0,0,1-.021.759,11.054,11.054,0,0,1-1.491.011c-.278-.013-.331.1-.321.344.021.459.021.919.03,1.378.454.024.908.05,1.363.073.1.005.2,0,.3,0,.534.007.542.029.513.545-.013.233-.121.255-.31.254-.8-.007-1.592-.018-2.388,0-.308.009-.3-.148-.3-.362C496.13,88.182,496.128,87.389,496.128,86.595Z" transform="translate(-374.867 -61.097)" fill="#080808"/>
  <path id="Path_699" data-name="Path 699" d="M415.008,89.091c-.855.161-1.321-.534-1.845-1.087a.3.3,0,0,1,.187-.516c.2-.042.4-.235.509.056.242.664.767.763,1.367.751a.871.871,0,0,0,.892-.691c.045-.423-.2-.718-.681-.9a12.648,12.648,0,0,1-1.342-.6,1.467,1.467,0,0,1-.114-2.284,1.572,1.572,0,0,1,1.529-.219c.344.158.743.219.947.575a.632.632,0,0,1,.024.456c-.018.059-.228.088-.346.078-.151-.013-.363-.032-.432-.13-.214-.3-.508-.233-.795-.268a.484.484,0,0,0-.554.3.752.752,0,0,0,.092.737c.314.375.77.394,1.169.552a2.553,2.553,0,0,1,1.1.9,1.516,1.516,0,0,1-1.33,2.288C415.288,89.093,415.189,89.091,415.008,89.091Z" transform="translate(-330.758 -60.857)" fill="#080808"/>
  <path id="Path_700" data-name="Path 700" d="M531.15,89.159c-.764-.133-1.563-.218-1.985-1.122-.108-.23-.127-.31.049-.428.1-.067.239-.079.334-.149s.149-.193.251.029a2.1,2.1,0,0,0,.46.6,1.409,1.409,0,0,0,1.825-.166.427.427,0,0,0-.018-.608,2.022,2.022,0,0,0-1.167-.777,2.034,2.034,0,0,1-1.175-.767c-.3-.308-.068-.692-.135-1.034a.707.707,0,0,1,.359-.835A4.849,4.849,0,0,1,531,83.559c.425-.1.792.164,1.164.3.163.06.252.34.351.533.022.043-.038.151-.088.2a.407.407,0,0,1-.666.007c-.225-.3-.509-.227-.8-.263a.48.48,0,0,0-.55.308c-.052.221-.145.519.109.732a2.04,2.04,0,0,0,.637.387,2.442,2.442,0,0,1,1.66,1.273,1.114,1.114,0,0,1,.013.964,2.888,2.888,0,0,1-.882,1.014C531.795,89.162,531.461,89.112,531.15,89.159Z" transform="translate(-392.373 -60.887)" fill="#080808"/>
  <path id="Path_701" data-name="Path 701" d="M382.12,86.625c0-.761.018-1.523-.008-2.283-.011-.336.134-.369.408-.36.564.017,1.129-.006,1.693.008a1.123,1.123,0,0,1,1.173.752c.149.4.487.735.242,1.222-.279.557-.48,1.167-1.26,1.212-.175.01-.339.146-.517.186-.306.069-.724-.167-.908.139-.131.219-.025.58-.025.878a1.761,1.761,0,0,1-.015.59.711.711,0,0,1-.382.37c-.149.054-.408.107-.4-.234C382.127,88.279,382.12,87.452,382.12,86.625Zm.8-.974-.022,0c.024.29-.054.738.094.834a1.254,1.254,0,0,0,.945.068c.7-.224,1.231-.789.734-1.5a.748.748,0,0,0-.478-.26c-.326-.041-.661,0-.992-.015-.21-.008-.3.063-.284.277C382.928,85.253,382.918,85.453,382.918,85.65Z" transform="translate(-314.311 -61.122)" fill="#080808"/>
  <path id="Path_702" data-name="Path 702" d="M366.39,86.567c0-.132,0-.265,0-.4q.033-1.077.068-2.155l2.177-.03a1.476,1.476,0,0,1,.3,0c.163.032.418-.13.449.2a.5.5,0,0,1-.483.584c-.265.017-.531,0-.8,0a5.1,5.1,0,0,0-.7.011.326.326,0,0,0-.21.227c-.03.228,0,.462-.013.693s.095.272.3.266c.4-.013.8,0,1.195-.005a.469.469,0,0,1,.5.466c.024.156.039.343-.219.331-.066,0-.133,0-.2,0l-1.558.085c0,.494-.01.988-.014,1.482a2.036,2.036,0,0,1-.014.591.854.854,0,0,1-.342.417.307.307,0,0,1-.441-.3C366.387,88.221,366.39,87.394,366.39,86.567Z" transform="translate(-305.96 -61.12)" fill="#080808"/>
  <path id="Path_703" data-name="Path 703" d="M557.441,88.108c0-.2,0-.4,0-.594a1.391,1.391,0,0,0-.26-.788,23.848,23.848,0,0,0-1.429-2.177c-.158-.211-.209-.49.006-.58a.517.517,0,0,1,.685.128c.37.614.762,1.212,1.162,1.806.241.359.279.1.343.007.309-.429.6-.873.885-1.315.031-.048,0-.157.036-.179.233-.144.307-.569.682-.442.159.054.107.756-.047.992-.374.572-.758,1.137-1.115,1.719a1.125,1.125,0,0,0-.145.53c-.019.527-.012,1.056,0,1.583a.472.472,0,0,1-.46.506c-.147.024-.345.057-.341-.206C557.444,88.768,557.441,88.438,557.441,88.108Z" transform="translate(-406.465 -61.077)" fill="#080808"/>
  <path id="Path_704" data-name="Path 704" d="M423.081,86.919c0-.331,0-.662,0-.993-.005-.36.116-.841-.068-1.045s-.673-.111-1.027-.1c-.308.013-.315-.147-.3-.363s-.087-.459.314-.449c1.029.025,2.058.006,3.088.012.142,0,.341-.093.39.164.043.229-.135.6-.345.62a4.68,4.68,0,0,1-.895,0c-.336-.032-.367.13-.363.4.014.993.005,1.986.005,2.979a4.147,4.147,0,0,0,0,.5c.042.327-.041.6-.376.692-.233.066-.419-.266-.423-.733C423.077,88.045,423.081,87.482,423.081,86.919Z" transform="translate(-335.327 -61.115)" fill="#080808"/>
  <path id="Path_705" data-name="Path 705" d="M517.511,86.86V84.874c-.385-.034-.768-.085-1.153-.1-.341-.009-.232-.244-.241-.416-.008-.187-.065-.395.268-.39,1.029.015,2.058,0,3.088.01.166,0,.421-.117.433.22a.52.52,0,0,1-.4.569c-.1.014-.2,0-.3,0-.289.02-.7-.059-.835.1s-.059.559-.06.853c0,.927,0,1.854,0,2.78,0,.166.055.361-.014.489-.08.148-.276.333-.411.325a.528.528,0,0,1-.356-.374C517.49,88.251,517.511,87.555,517.511,86.86Z" transform="translate(-385.481 -61.113)" fill="#080808"/>
  <path id="Path_706" data-name="Path 706" d="M538.948,86.964V84.878a9.415,9.415,0,0,0-1.054-.09.565.565,0,0,1-.536-.342.317.317,0,0,1,.284-.461q1.544-.006,3.088,0c.172,0,.4-.1.422.239a.574.574,0,0,1-.332.546c-.068.046-.194,0-.294.009-.255.023-.564-.022-.742.109-.113.083-.036.431-.036.661,0,1.059-.011,2.119.006,3.177a.59.59,0,0,1-.354.622.321.321,0,0,1-.448-.3C538.946,88.354,538.948,87.658,538.948,86.964Z" transform="translate(-396.748 -61.118)" fill="#080808"/>
  <path id="Path_707" data-name="Path 707" d="M452.173,86.966c0-.364.008-.729,0-1.092s-.043-.709-.066-1.064c-.328-.01-.657-.044-.984-.023a.545.545,0,0,1-.537-.339.317.317,0,0,1,.283-.462c1.062,0,2.125.015,3.188-.01.4-.009.3.236.314.449s.007.377-.3.364c-.354-.014-.855-.092-1.027.1s-.065.685-.067,1.045c0,.861,0,1.721,0,2.582,0,.166.055.361-.014.489-.081.149-.276.333-.411.325a.525.525,0,0,1-.355-.375C452.152,88.291,452.173,87.628,452.173,86.966Z" transform="translate(-350.658 -61.119)" fill="#080808"/>
  <path id="Path_708" data-name="Path 708" d="M338.308,86.47c0-.726.019-1.453-.008-2.178-.014-.4.248-.287.456-.3.224-.019.361.01.356.3-.017,1.254-.009,2.508-.006,3.762,0,.5.006.5.542.506.4,0,.795,0,1.192,0,.485.006.476.009.463.49,0,.186-.018.31-.254.307-.728-.009-1.457.006-2.185-.007-.4-.007-.549-.176-.554-.606C338.3,87.989,338.308,87.229,338.308,86.47Z" transform="translate(-291.04 -61.123)" fill="#080808"/>
  <path id="Path_709" data-name="Path 709" d="M276.074,86.177c0,.6.043,1.2-.013,1.786-.051.552-.121,1.157-.82,1.322a3.505,3.505,0,0,1-.768.068c-.408,0-.395-.006-.4-.456,0-.245.051-.356.326-.343.218.011.594.012.632-.087a2.165,2.165,0,0,0,.258-.893c-.038-1.091,0-2.184-.022-3.275-.008-.4.243-.294.454-.31s.371,0,.36.3C276.057,84.919,276.074,85.549,276.074,86.177Z" transform="translate(-256.928 -61.124)" fill="#080808"/>
  <path id="Path_710" data-name="Path 710" d="M461.179,86.665c0,.759.005,1.518,0,2.277,0,.169.1.4-.234.424a.583.583,0,0,1-.553-.324c-.047-.066-.007-.193-.007-.292,0-1.485.012-2.97-.008-4.454-.006-.4.242-.293.453-.309s.368,0,.36.3C461.165,85.081,461.179,85.873,461.179,86.665Z" transform="translate(-355.875 -61.124)" fill="#080808"/>
  <path id="Path_711" data-name="Path 711" d="M525.894,86.669c0-.758-.005-1.516,0-2.274,0-.169-.1-.4.234-.422a.558.558,0,0,1,.549.325c.059.1.01.257.01.389v3.954c0,.132.048.293-.01.389a.556.556,0,0,1-.544.33c-.337-.023-.239-.246-.24-.418C525.889,88.185,525.894,87.426,525.894,86.669Z" transform="translate(-390.674 -61.117)" fill="#080808"/>
</svg>
