<svg xmlns="http://www.w3.org/2000/svg" width="1444" height="56.536" viewBox="0 0 1444 56.536">
  <g id="Group_97" data-name="Group 97" transform="translate(-238.001 -6348.332)">
    <g id="Group_93" data-name="Group 93" transform="translate(238 6348.332)">
      <path id="Path_610" data-name="Path 610" d="M215.052,244.932c.631,2.048,2.57,3.162,3.578,4.967,1.07,1.917,2.737,3.477,3.516,5.586h-1.182a8.168,8.168,0,0,0-2.057-2.938c-2.513-2.437-4.839-5.088-7.508-7.34-2.781-2.347-5.33-4.987-8.525-6.873-1.088-.642-1.934-1.73-3.2-2.2l-1.773-1.172a78.423,78.423,0,0,0-11.34-7.084c-2.743-1.451-5.38-3.133-8.23-4.362-5.007-2.157-9.979-4.387-15.137-6.212-3-1.063-5.989-2.2-9.041-3.092-3.251-.954-6.49-1.969-9.8-2.728-1.985-.454-4.009-.818-5.945-1.35s-3.967-.623-5.879-1.46c-1.487-.652-3.36-.387-5.026-.707-1.823-.349-3.723-.3-5.472-1.033a1.786,1.786,0,0,0-.543-.11,70,70,0,0,1-7.721-.651c-2.588-.493-5.254-.071-7.721-.632-3.209-.729-6.364-.238-9.531-.471a4.358,4.358,0,0,1-2.028-.4,7.359,7.359,0,0,1,1.155-.184c6.008-.012,12.016-.044,18.024.019a30.036,30.036,0,0,1,4.187.563c1.394.214,2.9-.517,4.21.555.235.192.771-.015,1.159.034,1.5.193,3.016-.31,4.549.432,1.327.642,2.916.04,4.458.629,1.709.654,3.752.395,5.618.722,1.542.27,3.085.618,4.619.916,2.092.406,4.144,1.025,6.235,1.334a38.86,38.86,0,0,1,5.113,1.242c3.339.962,6.661,1.984,10.007,2.916,3.61,1.007,7.01,2.55,10.5,3.857,2.73,1.021,5.389,2.233,8.015,3.438s5.223,2.631,7.741,4.093c3.2,1.86,6.12,4.189,9.293,6.1a26.823,26.823,0,0,1,2.226,1.719c.671.5,1.375.958,2.049,1.455a81.856,81.856,0,0,1,8.329,7.657,3.456,3.456,0,0,0,.708.421Z" transform="translate(-34.119 -204.469)"/>
      <path id="Path_611" data-name="Path 611" d="M43.586,223.756q2.656,0,5.312,0a17.582,17.582,0,0,1,3.016.509,4.824,4.824,0,0,1,3.21,7.646l-.913.218a24.831,24.831,0,0,0,2.271,1.575c.848.464.951,1.528,1.834,1.959v3.964l-3.541,3.508c-3.435,1.145-7.34.319-11.189.554Zm3.6,7.621h3.705l2.061-1.388v-2.016l-.32.228-.911-1.44H46.662v14.582c1.487,0,2.857-.028,4.223.008a3.813,3.813,0,0,0,3.05-1.178c.47-.5.969-.967,1.455-1.449.224-2.113-.637-3.591-3.27-4.5H47.189Z" transform="translate(-43.586 -200.88)"/>
      <path id="Path_612" data-name="Path 612" d="M101.907,243.591v-8.6H89.568v8.62h-3.5V224.5a4.523,4.523,0,0,1,1.185-.706c.624-.177.978.027,2.159.737v7.894h12.432V224.7l.942-.933h1.767c.4.361.531,11.75.216,19.824Z" transform="translate(-35.684 -200.885)"/>
      <path id="Path_613" data-name="Path 613" d="M64.577,236.492c-.646-5.523,2.32-8.783,7.927-10.753.937,0,2.506.079,4.064-.017a10.42,10.42,0,0,1,8.483,3.671,7.8,7.8,0,0,1-.033,10.362c-1.839,2.041-4.13,2.882-6.723,3.705-3.127.994-5.679-.193-8.328-1a7.865,7.865,0,0,1-4.254-3.973C65.357,237.847,64.991,237.216,64.577,236.492Zm3.024-.585c1.071,4.241,4.638,4.886,8.117,5.661,3.592-.751,7.191-1.491,8.24-5.83a6.342,6.342,0,0,0-1.944-5.8,8.836,8.836,0,0,0-6.345-2.312,8.474,8.474,0,0,0-6.294,2.443A6.382,6.382,0,0,0,67.6,235.908Z" transform="translate(-39.698 -200.518)"/>
      <path id="Path_614" data-name="Path 614" d="M159.863,236.634a8.56,8.56,0,0,1,1.478-6.885,14.992,14.992,0,0,1,5.715-4.016c1.853,0,3.706-.013,5.56,0a10.166,10.166,0,0,1,8.445,5.306c.881,1.683,1.628,3.272.893,5.252a10.245,10.245,0,0,1-4.545,5.7,13.106,13.106,0,0,1-6.279,1.767,12.336,12.336,0,0,1-6.867-1.7,8.867,8.867,0,0,1-3.929-4.743A2.65,2.65,0,0,0,159.863,236.634Zm2.85-.325a8.213,8.213,0,0,0,8.52,5.163c3.653-.186,6.857-1.676,8.179-6.792.187-1.162-.6-3.168-2.174-4.744a9.215,9.215,0,0,0-6.35-2.325,9.308,9.308,0,0,0-5.662,1.847c-1.544,1.153-2.788,2.615-2.529,4.8A15.524,15.524,0,0,1,162.713,236.309Z" transform="translate(-21.987 -200.513)"/>
      <path id="Path_615" data-name="Path 615" d="M104.914,232.524c.642-1.051,1.2-2.112,1.9-3.074,1.318-1.818,3.423-2.536,5.324-3.513a3.3,3.3,0,0,1,1.391-.193c1.379-.024,2.76-.033,4.138,0a8.17,8.17,0,0,1,6.049,2.5c.471.5.969.974,1.461,1.452a4.475,4.475,0,0,1,1.65,3.439,2.193,2.193,0,0,0,.4.982c-.448,4.668-2.755,7.726-7.231,9.035-1.167.4-2.469.237-3.8.612-1.246.351-2.825-.616-4.284-.808-2.87-.379-4.375-2.6-6.107-4.425a5.335,5.335,0,0,1-.857-2.835A24.068,24.068,0,0,1,104.914,232.524Zm3.142,4.3c1.382,2.025,2.812,4.313,6,4.158,2.18,1.441,4.041.037,6.075-.533,2.576-.721,3.254-2.765,4.039-4.8.555-1.44-.581-4.911-1.8-5.788a14.837,14.837,0,0,0-5.516-2.311,10.761,10.761,0,0,0-3,.543c-.984.221-1.957.493-2.548.645C108.248,230.7,107.343,233.257,108.056,236.819Z" transform="translate(-32.187 -200.514)"/>
      <path id="Path_616" data-name="Path 616" d="M125.924,226.537l.8-.79a40.229,40.229,0,0,1,6.107.065c2.227.344,4.557.745,5.677,3.317.432.993.134,1.874.44,3.062l-3.661,3.438,7,7.531-3.285.222-6.854-7.6h-1.913l.27-.371-1.386-.581-.043-.563,1.567-.369c1.493-.65,3.641-.044,5.333-2.168l-.669-2.8c-2.086-1.36-4.242-.611-6.493-.919v15.2c-1.146.17-2.1.35-2.889-.7Z" transform="translate(-28.272 -200.527)"/>
      <path id="Path_617" data-name="Path 617" d="M156.03,228.474c-.3-.281-.376-.4-.447-.4-2.754-.009-5.507-.008-8.466-.008l-.11-2.237h13.912l-10.841,15.054h10.406v2.31H145.513C148.961,238.034,152.5,233.323,156.03,228.474Z" transform="translate(-24.628 -200.495)"/>
      <path id="Path_618" data-name="Path 618" d="M198.51,239.567a28.182,28.182,0,0,0,4.586,1.518c3.056.485,4.182.409,6.209-1.664v-1.367l-2.564-2.4c-2.18-.846-5.53-.965-6.925-4.781a4.261,4.261,0,0,1,2.908-4.758,5.1,5.1,0,0,1,1.612-.366c1.766-.045,3.533-.017,5.033-.017l1.805.919-.946,2.009c-1.421-.236-2.67-1.346-4.165-1.131a18.614,18.614,0,0,0-3.146,1.025v2.8a1.228,1.228,0,0,0,.32.235c2,.867,4.009,1.714,6.006,2.585a4.526,4.526,0,0,1,3.023,4.854c-.03.378,0,.76,0,1.066-.561.557-1.042,1.046-1.537,1.522a7.218,7.218,0,0,1-6.479,1.73,16.579,16.579,0,0,0-2.912-.028C199.483,242.169,199.483,242.169,198.51,239.567Z" transform="translate(-14.771 -200.514)"/>
      <path id="Path_619" data-name="Path 619" d="M143.651,243.272h-2.766V225.839l2.766-.121Z" transform="translate(-25.489 -200.515)"/>
      <path id="Path_620" data-name="Path 620" d="M61.983,243.323H59.3c-.049-.055-.17-.127-.17-.2q-.014-8.29-.008-16.586c.593-1.064,1.63-.786,2.863-.791Z" transform="translate(-40.697 -200.515)"/>
      <path id="Path_621" data-name="Path 621" d="M196.516,240.966l-2.365-2.345V226.708c1.054-.923,1.054-.923,2.956-.922,0,4.905.006,9.814-.025,14.723C197.082,240.662,196.713,240.814,196.516,240.966Z" transform="translate(-15.582 -200.502)"/>
      <path id="Path_622" data-name="Path 622" d="M216.93,231.375l-2.45,1.223-2.09-.6-1.363-1.672.565-3.99,3.826-.716,1.512,1.5Z" transform="translate(-12.443 -200.533)"/>
      <path id="Path_623" data-name="Path 623" d="M181.766,230.182l1.773,1.172v11.063h-2.275c0-3.985,0-8.008.021-12.031C181.285,230.317,181.6,230.25,181.766,230.182Z" transform="translate(-17.979 -199.685)"/>
    </g>
    <g id="Group_94" data-name="Group 94" transform="translate(547.079 6362.507)">
      <path id="Path_624" data-name="Path 624" d="M140.882,338.569c.556,1.322,1.831,2.061,2.653,3.215,2.248,3.158,4.6,6.241,6.627,9.552,1.575.944,1.475,2.464,1.421,3.982-.031.879.02,1.762-.02,2.64-.012.264-.178.723-.316.74-.36.042-.94.012-1.082-.209a28.91,28.91,0,0,0-2.42-3.333c-.891-1.038-1.626-2.205-2.424-3.321q-1.723-2.413-3.437-4.834c-.747-1.053-1.478-2.12-2.238-3.163a2.142,2.142,0,0,0-2.032-.969c-1.6.105-3.218.072-4.828.1-.056,1.577-.155,3.154-.16,4.732-.019,5.921,0,11.842-.02,17.764,0,.668.075,1.021.888.975,1.211-.068,2.429-.043,3.644-.01a1.178,1.178,0,0,1,1.308,1.277,12.363,12.363,0,0,1-.011,2.158,1.5,1.5,0,0,1-1.708,1.357q-3.646.009-7.29,0a1.649,1.649,0,0,1-1.67-1.4,6.168,6.168,0,0,1-.008-.959c0-9.522.013-19.043-.027-28.565a3.81,3.81,0,0,1,.514-1.722Z" transform="translate(-127.73 -338.569)"/>
      <path id="Path_625" data-name="Path 625" d="M161.054,338.569v29.757c0,.4.008.8,0,1.2-.029,1.388-.283,1.677-1.624,1.69-2.267.022-4.534.006-6.8.006-.648,0-1.3-.053-1.942.011a3.8,3.8,0,0,1-3.5-1.49c-1.25-1.55-2.443-3.149-3.621-4.755q-2.773-3.777-5.482-7.6a3.5,3.5,0,0,1-.862-2.293c.078-1.195-.012-2.4.044-3.6a1.088,1.088,0,0,1,.535-.709c.125-.072.519.112.657.286,1.715,2.171,3.437,4.339,5.094,6.553,1.551,2.072,3.026,4.2,4.539,6.3.093.129.238.219.339.343.58.713,1.016,1.733,1.768,2.068a7.04,7.04,0,0,0,2.878.075c1.188-.038,2.375-.122,3.563-.186.016-1.114.045-2.228.046-3.341q.006-8.639,0-17.279c0-.479.023-.961-.006-1.439a1.183,1.183,0,0,0-1.315-1.27c-1.214-.033-2.432-.059-3.643.01-.82.047-.911-.316-.883-.98.047-1.118.013-2.239.013-3.359Z" transform="translate(-127.972 -338.569)"/>
      <path id="Path_626" data-name="Path 626" d="M189.205,362.216c0,2.879.009,5.757-.017,8.636,0,.245-.218.688-.361.7a7.675,7.675,0,0,1-2.652-.024c-.686-.2-1.043-1-1.47-1.672-2.31-3.633-4.763-7.177-7.171-10.75a4.109,4.109,0,0,0-.337-.391,1.451,1.451,0,0,0-.14.42c-.008,3.759,0,7.517-.009,11.276,0,1.153-.016,1.153-1.137,1.173-2.261.043-2.262.043-2.263-2.224,0-5.2.015-10.4-.017-15.593,0-.728.2-.968.939-.926,1.049.059,2.261-.3,3.109.11.746.363,1.112,1.524,1.6,2.357,1.757,2.979,4.043,5.631,5.552,8.763.052.107.191.172.29.258.063-.134.181-.268.182-.4.01-3.278,0-6.557.01-9.836,0-1.217.015-1.23,1.319-1.23.8,0,1.866-.249,2.32.154.422.375.232,1.467.24,2.244C189.219,357.578,189.205,359.9,189.205,362.216Z" transform="translate(-128.901 -338.931)"/>
      <path id="Path_627" data-name="Path 627" d="M206.572,362.1c0-2.79.029-5.581-.019-8.371-.013-.78.288-.974.974-.874.079.012.162,0,.242,0q1.3.073,2.6.149c.03.784.07,1.57.088,2.354.015.638.02,1.277,0,1.914-.024.707-.091.827.792.44,3.387-1.488,6.564-.322,7.946,3.493a9.519,9.519,0,0,1,.017,6.294,5.433,5.433,0,0,1-5.468,4.078c-1.091,0-2.268.257-3.024-.907a.715.715,0,0,0-.614.094c-.627,1.042-1.643.764-2.578.827-.691.048-.987-.105-.974-.883C206.6,367.843,206.572,364.972,206.572,362.1Zm9.235,2.308c0-.559.029-1.121-.007-1.677a2.64,2.64,0,0,0-1.659-2.13,7.307,7.307,0,0,0-2.4-.018,3.054,3.054,0,0,0-1.5.967c-.153.168.229.735.2,1.108-.108,1.4.349,2.828-.275,4.194a.534.534,0,0,0,.149.489c.424.314.872.784,1.336.815.914.058,1.948.43,2.754-.258.831-.709,1.825-1.4,1.409-2.773A2.539,2.539,0,0,1,215.808,364.409Z" transform="translate(-129.741 -338.933)"/>
      <path id="Path_628" data-name="Path 628" d="M248.973,362.327c0-2.88.011-5.759-.009-8.639,0-.562.07-.857.77-.846,2.671.041,5.344-.017,8.016.029a4.752,4.752,0,0,1,3.844,3.482,9.468,9.468,0,0,1-.025,2.63,3.064,3.064,0,0,1-.917,1.291c-.947,1.013-.966,1,.085,2.042a5.629,5.629,0,0,1,1.6,2.471,4.221,4.221,0,0,1-1.022,4.4,7.184,7.184,0,0,1-5.786,2.4c-2.16-.105-4.326-.123-6.488-.179-.024-2.07-.052-4.14-.071-6.209C248.965,364.247,248.973,363.287,248.973,362.327Zm2.43,3.257c0,1.115,0,2.231.007,3.345a.234.234,0,0,0,.153.167q1.8.056,3.595.088a6.357,6.357,0,0,0,1.448-.014c2.277-.5,3.786-1.094,3.558-3.684a2.889,2.889,0,0,0-2.544-2.537c-1.693-.027-3.4.111-5.075-.057-.815-.082-1.312-.363-1.157.782A14.182,14.182,0,0,1,251.4,365.583Zm3.162-10.8c-.968,0-1.934,0-2.9.007a.231.231,0,0,0-.169.15q-.057,1.535-.09,3.071a16.178,16.178,0,0,0,.02,1.908c.021.222.291.6.456.6a37.912,37.912,0,0,0,5.314-.016A2.675,2.675,0,0,0,259,356.3c-.811-1.011-1.741-1.841-3.23-1.53A6,6,0,0,1,254.565,354.779Z" transform="translate(-130.823 -338.933)"/>
      <path id="Path_629" data-name="Path 629" d="M229.344,365.935c-1.292,0-2.586-.028-3.877.011-.834.024-.238.333-.138.645a3.1,3.1,0,0,0,1.853,1.876,1.59,1.59,0,0,0,1.695.1c.652-.342,1.59-.294,2.084-.752.838-.777,1.257-.308,1.719.264.371.46.911.994.9,1.485-.009.4-.67.866-1.135,1.16-2.047,1.3-4.365.953-6.618.974-1.194-.867-2.58-1.551-3.41-2.789a5.963,5.963,0,0,1-.847-2.509,16.409,16.409,0,0,1-.02-3.346,5.858,5.858,0,0,1,2.984-4.819,5.952,5.952,0,0,1,6.709.037,4.918,4.918,0,0,1,1.448,1.413,20.327,20.327,0,0,1,1.2,2.376c.588,1.2.2,2.46.22,3.693-.863.06-1.726.141-2.59.176C230.8,365.958,230.072,365.935,229.344,365.935Zm-1.818-2.881c.724,0,1.449.015,2.173-.006a.705.705,0,0,0,.587-.987,2.653,2.653,0,0,0-4.494-1,6.282,6.282,0,0,0-.83,1.777c.452.072.9.17,1.357.211C226.718,363.082,227.123,363.054,227.526,363.054Z" transform="translate(-130.122 -339.045)"/>
      <path id="Path_630" data-name="Path 630" d="M198.111,371.673c-3.552.887-6.94-3.53-7.035-6.784-.088-3,1.327-5.14,3.524-6.926.316-.257.859-.236,1.294-.357a6.2,6.2,0,0,1,6.26,1.2,6.265,6.265,0,0,1,2.127,4.175c.1.859.543,1.547.193,2.57-.537,1.572-.806,3.229-2.127,4.388C201.124,371.013,199.875,372.128,198.111,371.673Zm2.789-6.927a4.3,4.3,0,0,0-1.081-3.427,2.844,2.844,0,0,0-3.8.008,5.355,5.355,0,0,0-.684,5.182c.8,1.666,1.214,1.852,3.063,1.848,1.441,0,1.737-1.139,2.237-2.032A4.738,4.738,0,0,0,200.9,364.746Z" transform="translate(-129.346 -339.046)"/>
      <path id="Path_631" data-name="Path 631" d="M326.688,365.456c-1.376,0-2.755.057-4.125-.02-.895-.051-.865.432-.829,1.023.125,2.034,2.419,3.95,5.339,3.052.695-.213,1.5-.248,2.044-.963a.763.763,0,0,1,1.338.158c.18.428.848.945-.1,1.477-1.263.711-2.392,1.661-3.982,1.52a6.631,6.631,0,0,0-1.212,0c-2.384.221-3.688-1.228-4.9-2.949-1.723-2.44-1.28-7.373.873-9.646a5.6,5.6,0,0,1,9.126,1.1,11.582,11.582,0,0,1,1,2.46,14.955,14.955,0,0,1,.179,2.561c-.7.077-1.391.19-2.089.22C328.469,365.484,327.578,365.456,326.688,365.456Zm-1.56-1.922c1.125,0,2.25.026,3.373-.025.183-.009.537-.418.5-.539-.306-.9-.667-1.789-1.058-2.659-.318-.706-1.239-.384-1.6-.714-1.155-1.052-2.155,0-2.956.294a2.841,2.841,0,0,0-1.66,2.807c.016.536.034.9.753.852C323.357,363.487,324.244,363.535,325.128,363.535Z" transform="translate(-132.615 -339.046)"/>
      <path id="Path_632" data-name="Path 632" d="M308.039,364.591c0,.878.048,1.76-.012,2.635a4.17,4.17,0,0,0,.769,3.042c.317.4.313.744-.084.978a2.845,2.845,0,0,1-1.265.415c-.234.01-.494-.339-.723-.548-.3-.27-.571-.785-.86-.789a1.676,1.676,0,0,0-1.148.615,2.166,2.166,0,0,1-2.124.765,5.139,5.139,0,0,0-1.211,0c-2.106.3-3.181-.963-4.033-2.562a3.506,3.506,0,0,1,1.663-5.13,6.262,6.262,0,0,1,3.478-.97,5.12,5.12,0,0,0,2.5-.415c1.223-.655,1.313-.491.784-1.575a2.866,2.866,0,0,0-3.3-1.814,8.549,8.549,0,0,0-3.419,1.041c-1.049.723-1.024.069-1.412-.5-.426-.628-.357-.657.335-1.106,2.179-1.416,4.54-1.49,6.955-1.361a3.686,3.686,0,0,1,3.1,3.445C308.07,362.034,308.039,363.313,308.039,364.591Zm-1.944,1.7c0-1.892-.011-1.948-1.94-1.772-1.059.1-2.067.477-3.171.519a1.844,1.844,0,0,0-1.695,1.831c-.094,1.874.02,2.082,1.477,2.687,1.378.573,4.243-.108,5.081-1.225a1.233,1.233,0,0,0,.237-.612C306.118,367.245,306.1,366.766,306.1,366.29Z" transform="translate(-132.044 -339.046)"/>
      <path id="Path_633" data-name="Path 633" d="M282.068,364.759a6,6,0,0,1-2.272,5.547,4.847,4.847,0,0,1-2.323,1.324c-1.367.136-2.855.421-4.152-.415A7.554,7.554,0,0,1,270,367.21a12.377,12.377,0,0,1-.061-5.789,3.812,3.812,0,0,1,.821-1.333c.584-.66,1.246-1.25,1.872-1.874a3.07,3.07,0,0,1,2.524-.919,9.154,9.154,0,0,1,3.019.306,6.233,6.233,0,0,1,3.9,5.746C282.077,363.746,282.068,364.144,282.068,364.759Zm-2.43-.151c0-.62.012-1.178,0-1.737a3.74,3.74,0,0,0-3.151-3.65,5.353,5.353,0,0,0-3.652,1.673,7.09,7.09,0,0,0,.107,7.294,3.855,3.855,0,0,0,6.224-.244C279.818,366.852,279.587,365.693,279.638,364.608Z" transform="translate(-131.35 -339.046)"/>
      <path id="Path_634" data-name="Path 634" d="M236,360.79c0-2.237,0-4.474,0-6.71,0-1.2.014-1.217,1.328-1.217.8,0,1.866-.246,2.315.158.421.379.232,1.468.235,2.244.017,3.915,0,7.828.01,11.743,0,1.162.014,1.162,1.092,1.216,1.338.068,1.338.068,1.336,1.457,0,1.335-.472,1.814-1.9,1.9-1.386.086-2.786.123-3.559-1.324a5.78,5.78,0,0,1-.87-2.76C236.014,365.262,236,363.026,236,360.79Z" transform="translate(-130.492 -338.932)"/>
      <path id="Path_635" data-name="Path 635" d="M290.093,371.7a5.575,5.575,0,0,1-5.726-4.079,10.074,10.074,0,0,1-.032-6.09,5.728,5.728,0,0,1,6.8-4.178,6.069,6.069,0,0,1,3.8,2.467c.6.817-.263,2.243-1.325,2.257-.159,0-.471-.253-.459-.363.113-1.064-.658-1.55-1.373-2a3.531,3.531,0,0,0-2.457-.494,3.929,3.929,0,0,0-3,3.336c-.053.523.21,1.1-.309,1.559-.136.121-.232.515-.144.62.916,1.1.085,2.811,1.355,3.766a9.849,9.849,0,0,0,1.7,1.161,1.8,1.8,0,0,0,1.385.085c1.061-.582,2.52-.826,2.79-2.262.148-.785.623-.613,1.031-.561.353.045.666.336,1.018.447.557.176.594.591.252.855-.9.69-1.453,1.673-2.289,2.436A3.655,3.655,0,0,1,290.093,371.7Z" transform="translate(-131.714 -339.046)"/>
      <path id="Path_636" data-name="Path 636" d="M311.326,364.755c0-2,.018-4-.01-6-.01-.63.034-1.2.851-.958.549.162,1.6-.666,1.6.708.23-.075.456-.158.688-.223,1.234-.348,2.279-1.247,3.722-1.028.688.1,1.036.195.933.939a6.694,6.694,0,0,0-.007.959c0,.584-.344.572-.788.489a4.711,4.711,0,0,0-4.156,1.368,2.23,2.23,0,0,0-.386,1.269q-.05,4.319,0,8.64c.008.645-.212.852-.827.785a5.21,5.21,0,0,0-.971,0c-.545.043-.662-.218-.656-.707C311.338,368.915,311.326,366.835,311.326,364.755Z" transform="translate(-132.414 -339.045)"/>
      <path id="Path_637" data-name="Path 637" d="M267.364,364.76c0,1.989.008,3.977-.006,5.965,0,.42.226.968-.6.992-.766.022-1.441-.078-1.8-.794-.13-.254-.021-.627-.021-.944V359.005c0-.16.007-.319,0-.477-.037-.771.449-1.119,1.113-1.222a1.141,1.141,0,0,1,1.309,1.252C267.385,360.626,267.364,362.694,267.364,364.76Z" transform="translate(-131.229 -339.047)"/>
      <path id="Path_638" data-name="Path 638" d="M336.761,359.833c1.324-.022,1.3.3,1.329.615.046.5-.134.728-.665.692-.4-.026-.806.059-.811-.553a3.894,3.894,0,0,0-.2-.868,4.174,4.174,0,0,0-.746.464c-.214.2-.318.525-.535.724a.78.78,0,0,1-.616.2c-.145-.042-.292-.335-.3-.524-.038-.635,0-1.275-.024-1.912,0-.132-.134-.26-.207-.39-.09.105-.253.208-.257.316-.024.636-.035,1.276-.006,1.912.025.543-.239.648-.725.64-.459-.008-.775-.052-.745-.618a9.552,9.552,0,0,0-.018-1.67.839.839,0,0,0-.483-.585c-.892-.251-.175-.577,0-.689a2.741,2.741,0,0,1,2.448-.091c.582.176,1.419-.21,1.481.852,0,.082.27.224.389.2s.212-.247.35-.311c.422-.2.474-1.06,1.19-.693.614.316.493.924.485,1.47,0,.159,0,.319-1.323.819-1.252.34-1.179.34-1.107.34a1.337,1.337,0,0,0-.147-.363c-.023-.03-.192.05-.294.079C335.289,359.984,335.363,360.079,336.761,359.833Z" transform="translate(-132.924 -339.046)"/>
      <path id="Path_639" data-name="Path 639" d="M264.935,354.233c.066-1.076.557-1.473,1.7-1.374a1.223,1.223,0,0,1,1.22,1.127c.024.667-1.021,1.815-1.6,1.753A1.764,1.764,0,0,1,264.935,354.233Z" transform="translate(-131.23 -338.933)"/>
    </g>
    <g id="Group_95" data-name="Group 95" transform="translate(856.994 6358.41)">
      <path id="Path_640" data-name="Path 640" d="M563.618,225.5c.619-1.286,1.239-2.572,1.877-3.9,1.554.631.839,1.885,1.363,2.79l2.254-2.854.611.147.612,3.247,2.671-3.593a23.458,23.458,0,0,1,.944,2.173,6.456,6.456,0,0,0,.63,1.853c.377-1.186.755-2.373,1.264-3.973l2.19,2.283,1.082-2.078c.81,2.309-.043,4.085-.542,5.888H562.613Z" transform="translate(-445.721 -181.025)"/>
      <path id="Path_641" data-name="Path 641" d="M544.157,227.483c-.8-1.316.553-1.393,1.118-1.855a2,2,0,0,0-.007-.539c-.262-.8-.925-1.7-.737-2.37.343-1.221,1.574-1.1,2.705-1.052,1.719.076,3.446-.048,5.17-.068,2.11-.025,2.6.847,1.581,2.72a5.415,5.415,0,0,0-.33,1.182l.55.313c.978-1.38,1.955-2.759,3.268-4.614.479,1.252.843,2.074,1.1,2.926.234.765.354,1.564.524,2.347l.018,1.01h-5.487l-1.035-1.329a5.2,5.2,0,0,1-1.429.519c-.127.006-.39-.637-.408-.991-.038-.779.75-1.655-.431-2.509l-1.684,4.31h-.5c.052-.889.062-1.783.167-2.666.228-1.926-.015-2.112-2.334-1.457,1.678,1.543.894,2.861-.327,4.123Z" transform="translate(-445.721 -181.025)"/>
      <path id="Path_642" data-name="Path 642" d="M591.542,227.483a23.81,23.81,0,0,1,.481-3.36c.244-.865.658-2.1,1.3-2.326.706-.248,1.756.471,2.916.854a10.383,10.383,0,0,1,.843-.61c1.7-1.069,3.836-.033,3.469,2a8.9,8.9,0,0,0-.029,1.463l-.5,1.98ZM599.718,224c-.621-.4-.978-.826-1.325-.818-1.026.023-1.392.778-1.26,1.665.052.346.541.627.831.938Z" transform="translate(-445.721 -181.025)"/>
      <path id="Path_643" data-name="Path 643" d="M615.484,227.483a38.88,38.88,0,0,1,.566-4.354,2.365,2.365,0,0,1,1.342-1.448,1.809,1.809,0,0,1,1.669.569,3.427,3.427,0,0,1-.206,1.97,7.859,7.859,0,0,1-.825,1.47c2.533-.525,2.166-3.113,4.011-4.014,1.484,1.341,1.035,3.156,1.524,5.145-1.786-.627-3.253-1.133-4.091.662Z" transform="translate(-445.721 -181.025)"/>
      <path id="Path_644" data-name="Path 644" d="M650.9,196.81a14.558,14.558,0,0,1-2.274.906,2.7,2.7,0,0,1-3.268-1.541,2.289,2.289,0,0,1,.56-3.074c1.042-.926,2.149-1.551,3.543-.7.489.3.96.628,1.439.944Z" transform="translate(-445.721 -181.025)"/>
      <path id="Path_645" data-name="Path 645" d="M629.45,227.483c-.857-1.756.02-3.38.535-4.97a1.987,1.987,0,0,1,1.742-.861c.765.188,1.849.825,1.976,1.438a5.044,5.044,0,0,1-.623,2.926c-.29.609-1.073.986-1.635,1.467Z" transform="translate(-445.721 -181.025)"/>
      <path id="Path_646" data-name="Path 646" d="M580.07,227.483a9.376,9.376,0,0,1,1.307-5.933l1.855,2.331.948-2.078.6.143a9.1,9.1,0,0,1-1.216,5.537Z" transform="translate(-445.721 -181.025)"/>
      <path id="Path_647" data-name="Path 647" d="M611.494,227.483c.183-1.671.271-3.36.585-5.006.2-1.04,1.238-1.082,2.016-.818.5.17,1.232.887,1.172,1.247-.268,1.623.042,3.535-1.778,4.577Z" transform="translate(-445.721 -181.025)"/>
      <path id="Path_648" data-name="Path 648" d="M537.174,227.483a13.128,13.128,0,0,1,3.331-5.973c1.4,1.991,1.39,4.022,1.657,5.973Z" transform="translate(-445.721 -181.025)"/>
      <path id="Path_649" data-name="Path 649" d="M559.121,227.483l-.018-1.01c.05-3,.134-3.3,1.416-4.8,1.06,1.356-.542,2.684.158,4.221,2.266-.5,1.3-3.081,2.6-4.248,1.542,1.261-.068,2.653.34,3.853l-1.005,1.985Z" transform="translate(-445.721 -181.025)"/>
      <path id="Path_650" data-name="Path 650" d="M623.963,227.483a9.409,9.409,0,0,1,1.3-5.929l1.863,2.317c.312-.689.622-1.372.987-2.175a4.071,4.071,0,0,1-1.092,5.211l-1.516-2.6c-.221,1.3-.381,2.239-.542,3.181Z" transform="translate(-445.721 -181.025)"/>
      <path id="Path_651" data-name="Path 651" d="M600.022,227.483l.5-1.98,1.173-3.8c1.643,1.3-.023,2.832.791,4.1,2.469-.353,1.074-3.231,2.942-4.158.665,2.45-.506,4.177-1.914,5.835Z" transform="translate(-445.721 -181.025)"/>
      <path id="Path_652" data-name="Path 652" d="M588.051,227.483c-1.965-2.592-1.862-4.164.414-5.495a2.214,2.214,0,0,1,3,.265,29.3,29.3,0,0,0-3.225,1.928c-.228.174.054,1,.152,2.089l2.271-1.854c.876,1.26-.071,2.126-.62,3.067Z" transform="translate(-445.721 -181.025)"/>
      <path id="Path_653" data-name="Path 653" d="M606.007,227.483c.161-1.6.231-3.219.543-4.791a1.731,1.731,0,0,1,1.357-1.019,2.587,2.587,0,0,1,1.737,1.085,1.762,1.762,0,0,1-.447,1.671c-1.137.843-2.336,1.558-2.691,3.054Z" transform="translate(-445.721 -181.025)"/>
      <path id="Path_654" data-name="Path 654" d="M487.978,195.181c-1.009.055-1.981.151-2.954.153-5.985.015-11.971-.028-17.956.02-4.508.037-7.461,2.376-8.476,6.561-.992,4.094,2.325,8.957,6.554,9.159,4.629.222,9.276.051,14.14.051-4.789-3.063-6.382-6.183-5.278-10.041a7.7,7.7,0,0,1,6.573-5.264,7.9,7.9,0,0,1,8.121,4.922c1.368,3.531.347,6.388-3.744,9.71l3.019-.747a13.125,13.125,0,0,1-3.194,5.155,23.545,23.545,0,0,1-30.241,3.278c-3.612-2.545-6.911-5.654-7.933-10.156-2.229-9.824-.4-16.035,7.118-21.985a24.118,24.118,0,0,1,12.624-4.88c4.921-.527,9.446,1.283,13.679,3.764a18.662,18.662,0,0,1,7.651,8.22,7.778,7.778,0,0,1,.43,1.155A3.7,3.7,0,0,1,487.978,195.181Z" transform="translate(-445.721 -181.025)"/>
      <path id="Path_655" data-name="Path 655" d="M616.416,206.978c.558-4.207,1.092-7.94,1.536-11.683.253-2.122,1.089-2.973,3.131-2.914,1.789.052,2.267.606,2.012,2.445-.845,6.1-1.773,12.195-2.527,18.308-.2,1.66-1,1.909-2.438,2.033-2.327.2-3.737-.6-4.573-2.8-.962-2.537-2.16-4.988-3.284-7.464a14.465,14.465,0,0,0-2.086-3.467c-.554,3.76-1.121,7.517-1.65,11.279-.126.9,0,2.056-1.127,2.208a13.792,13.792,0,0,1-3.888-.195c-.2-.032-.434-1.018-.362-1.521.886-6.181,1.832-12.353,2.746-18.53.163-1.1.3-2.276,1.754-2.249,1.566.03,3.447-.761,4.459,1.206.678,1.317,1.206,2.709,1.84,4.049C613.335,200.584,614.735,203.477,616.416,206.978Z" transform="translate(-445.721 -181.025)"/>
      <path id="Path_656" data-name="Path 656" d="M503.351,201.436q-.561,5.257-1.122,10.517c-.3,2.841-.868,3.348-3.539,3.163-1.672-.116-2.041-.374-1.895-2.159.246-3.028.669-6.043,1.078-9.056.431-3.175.978-6.336,1.38-9.515a2.025,2.025,0,0,1,1.847-1.964c2.862-.557,4.143.087,5.309,2.761,1.384,3.174,2.74,6.359,4.125,9.531a2.892,2.892,0,0,0,1.247,1.409c.311-2,.646-4,.926-6.005.239-1.709.353-3.437.635-5.138.39-2.355,2.1-3.306,4.378-2.529,1.328.452,1.036,1.562.924,2.5-.254,2.121-.6,4.231-.93,6.343-.6,3.9-1.216,7.8-1.821,11.7-.169,1.092-.312,2.254-1.839,2.1-1.6-.156-3.547.808-4.471-1.565-.835-2.146-1.927-4.194-2.912-6.283q-1.405-2.978-2.823-5.951Z" transform="translate(-445.721 -181.025)"/>
      <path id="Path_657" data-name="Path 657" d="M560.192,214.689c.994-6.966,1.963-13.706,2.908-20.45.124-.887.36-1.725,1.375-1.775,3.975-.2,7.993-.474,11.8,1,4.183,1.617,5.855,5.024,5.74,9.214-.121,4.442-1.362,8.542-5.738,10.781a13.34,13.34,0,0,1-4.921,1.562c-3.3.239-6.638.072-9.959.048A5.347,5.347,0,0,1,560.192,214.689Zm15.874-11.609c0-.576.032-1.153-.006-1.725-.151-2.321-1.1-3.468-3.4-3.873a11.706,11.706,0,0,0-3.211-.084,1.659,1.659,0,0,0-1.221.933c-.6,3.388-1.1,6.794-1.577,10.2-.111.8.222,1.561,1.174,1.552a15.954,15.954,0,0,0,4.408-.331C575.056,208.9,576.077,206.911,576.066,203.08Z" transform="translate(-445.721 -181.025)"/>
      <path id="Path_658" data-name="Path 658" d="M548.3,215.611c-6.338.383-12.313-4.821-10.994-13.265a12.086,12.086,0,0,1,6.271-9.012c5.875-3.371,15.159-.175,15.907,7.687.426,4.471-1.008,10.541-5.591,13.134A9.915,9.915,0,0,1,548.3,215.611Zm-.227-4.954a4.729,4.729,0,0,0,4.809-3.005,9.688,9.688,0,0,0,.82-7.15,4.9,4.9,0,0,0-8.007-2.465,8.6,8.6,0,0,0-2.917,7.291C542.994,208.945,544.817,210.668,548.074,210.657Z" transform="translate(-445.721 -181.025)"/>
      <path id="Path_659" data-name="Path 659" d="M588.752,210.165c2.6,0,4.9-.029,7.2.013,1.094.02,2.5-.34,2.51,1.514.01,2.328-.722,3.392-2.519,3.413q-5.605.066-11.212,0c-1.943-.023-2.366-.5-2.107-2.407.519-3.826,1.112-7.642,1.694-11.459.347-2.274.767-4.538,1.086-6.816a2.159,2.159,0,0,1,2.529-2.077c3.57.044,7.142-.006,10.713.026.959.009,2.093-.13,2.11,1.4.026,2.4-.507,3.412-2.144,3.5-1.9.1-3.82.014-5.73.048-1.981.036-2.307.367-2.642,2.173-.221,1.192.24,1.725,1.41,1.736,1.661.015,3.322.033,4.983.021,1.174-.009,1.887.378,1.9,1.695.021,1.64-.508,2.616-1.837,2.717-1.57.12-3.154.047-4.732.06-2.693.023-2.691.024-2.974,2.674C588.945,208.8,588.882,209.2,588.752,210.165Z" transform="translate(-445.721 -181.025)"/>
      <path id="Path_660" data-name="Path 660" d="M525.526,209.963c.807.072,1.524.178,2.242.192,1.493.029,2.991-.061,4.478.034,1.032.066,2.546-.518,2.659,1.33.163,2.666-.534,3.562-2.808,3.59-3.4.042-6.8.028-10.2.008-2.53-.015-2.958-.448-2.624-2.89.49-3.577,1.088-7.14,1.617-10.712.3-2.029.592-4.06.816-6.1.253-2.294.92-3,3.334-3.042,3.4-.055,6.8-.035,10.2,0,.95.009,2.109-.167,2.166,1.344.089,2.314-.513,3.467-2.084,3.55-2.068.109-4.147.087-6.219.038a1.991,1.991,0,0,0-2.233,1.814c-.312,1.446.047,2.023,1.533,2.1,1.572.082,3.151.034,4.727.035,1.074,0,2,.127,2.033,1.538.037,1.609-.679,2.807-1.982,2.89-1.487.1-2.985.033-4.478.042-2.8.019-2.8.02-3.083,2.826C525.581,208.95,525.566,209.35,525.526,209.963Z" transform="translate(-445.721 -181.025)"/>
      <path id="Path_661" data-name="Path 661" d="M630.7,197.315c-1.739,0-2.978.041-4.213-.013-1.008-.044-2.317.341-2.459-1.317a3.114,3.114,0,0,1,2.321-3.556,7.451,7.451,0,0,1,1.242-.067c4.488,0,8.976-.015,13.464.006,1.05.005,2.292-.2,2.308,1.475.024,2.294-.731,3.381-2.485,3.461-.913.042-1.829.038-2.742.016-1.424-.033-2.05.593-2.2,2.043-.417,3.921-.968,7.828-1.486,11.739-.107.814-.349,1.612-.439,2.428-.123,1.1-.706,1.508-1.8,1.6-3.626.306-4.006-.149-3.445-3.8C629.454,206.8,630.02,202.242,630.7,197.315Z" transform="translate(-445.721 -181.025)"/>
    </g>
    <g id="Group_96" data-name="Group 96" transform="translate(1166.909 6358.41)">
      <path id="Path_662" data-name="Path 662" d="M538.369,360.356c-3.107.546-5.944-.584-8.749-1.512a13.724,13.724,0,0,1-4.431-2.711,21.673,21.673,0,0,1-6.144-7.8c-.769-1.808-1.634-3.611-1.574-5.68a11.878,11.878,0,0,0-.461-1.814,8.072,8.072,0,0,1-.012-1.766,22.317,22.317,0,0,1,3.109-10.576,18.938,18.938,0,0,1,4.741-5.163,24.954,24.954,0,0,1,6.5-3.362,17.81,17.81,0,0,1,8.693-.96,27.635,27.635,0,0,1,8.585,2.487,14.024,14.024,0,0,1,3.752,2.579c.985,1.022,2.133,1.835,3.075,2.959,1.986,2.37,2.912,5.211,4.187,7.9.13.276-.006.668.022,1a6.32,6.32,0,0,0,.419,2.612c.344.681-.061,1.747-.165,2.637-.036.306-.26.606-.245.9a13.869,13.869,0,0,1-2.3,7.644,19.126,19.126,0,0,1-5.612,6.293,18.648,18.648,0,0,1-5.633,2.984C543.574,359.73,541.116,360.883,538.369,360.356Zm14.407-31.933c-.79,1.3-1.569,2.486-2.255,3.725-2.274,4.105-4.082,8.448-6.569,12.455a76.469,76.469,0,0,0-3.5,7.137c.216.028.48.146.679.076a23.16,23.16,0,0,0,3.273-1.267c2.754-1.482,4.317-4.024,5.577-6.736.739-1.589.625-1.641,2.645-1.338V351.4a18.925,18.925,0,0,0,3.992-11.267A18.149,18.149,0,0,0,552.776,328.423Zm-15.827-.207c-.455-.1-.626-.193-.761-.157-.528.142-1.041.339-1.568.493a10.4,10.4,0,0,0-6.94,7.8c-.173.878-.5,1.362-1.428,1.311-.552-.03-1.1-.065-1.736-.1v-8.507c-.218.145-.375.2-.447.305a15.146,15.146,0,0,0-2.484,7.3c-.122,1.59-.006,3.2-.028,4.8a15.151,15.151,0,0,0,1.2,5.313c.526,1.476,1.656,2.545,2.058,4.105.323-.322.563-.469.672-.683,2.6-5.072,5.156-10.163,7.77-15.226C534.4,332.737,535.656,330.568,536.949,328.216Zm13.718-2.294c-1.567-1.01-2.887-2.007-4.337-2.754a8.506,8.506,0,0,0-5.087-1.191c-1.636-1.365-3.261.291-4.912.018-1.833-.3-3.415.71-5.059,1.248a14.129,14.129,0,0,0-4.326,2.679Zm-.548,27.932h-9.258c-2.284,0-4.569.034-6.853-.009-2.1-.041-4.227.315-6.748-.662C534.4,359.153,543.833,359.554,550.119,353.854Z" transform="translate(-516.955 -318.827)"/>
      <path id="Path_663" data-name="Path 663" d="M682.455,337.943c-.073,3.306-.586,6.386-.891,9.549h-2.41c.188-1.237-.367-2.471.445-3.76.342-.544.114-1.482.052-2.234-.275-3.322.951-6.561.437-10.009H682.6l4.4,11.62c.3-.414.675-.707.762-1.07.725-2.974,2.22-5.656,3.206-8.528.1-.293.268-.564.367-.858.4-1.2.586-1.351,1.693-1.286.866.051,1.418.485,1.335,1.361-.333,3.5.764,6.91.556,10.4a2.981,2.981,0,0,0,.352,2.134c.344.5.065,1.422.065,2.151-2.978.219-2.979.219-2.981-2.615,0-2.252,0-4.5-.191-6.8-1.793,3.009-2.6,6.407-4.076,9.514a1.954,1.954,0,0,1-2.613-1.469C684.516,343.324,683.468,340.64,682.455,337.943Z" transform="translate(-514.048 -318.603)"/>
      <path id="Path_664" data-name="Path 664" d="M718.9,331.453v1.876h-4.982V347.5h-2.569V333.433h-11.7c0,1.28-.013,2.524,0,3.768a1.152,1.152,0,0,0,1.223,1.236c1.268.041,2.541-.033,3.807.033a7.14,7.14,0,0,1,1.577.454,1.453,1.453,0,0,1-1.619,1.054c-1.6-.037-3.2-.011-4.9-.011v5.495c.782.021,1.677.056,2.571.068.931.012,1.863-.017,2.793.008,1.353.036,1.446.156,1.611,1.916h-9.562c-.11-2.538-.034-5.194-.047-7.847-.014-2.688,0-5.377,0-8.153Z" transform="translate(-513.726 -318.601)"/>
      <path id="Path_665" data-name="Path 665" d="M599.093,347.5a8.865,8.865,0,0,1-1.2.045c-.918-.087-1.309-.47-1.326-1.382-.032-1.685-.062-3.373.007-5.056a8.256,8.256,0,0,0-.732-4.057l-4.1,10.437-1.544.074c-1.357-3.632-2.666-7.138-3.975-10.643l-.26.009a18.6,18.6,0,0,0-.051,2.659c.318,2.664-.73,5.2-.529,7.9h-2.043c.2-1.991-.448-4.036.516-6a.482.482,0,0,0,0-.25c-.389-3.245.782-6.4.479-9.756h1.911l4.952,12.693c.552-.91,0-1.808.74-2.521.439-.424.315-1.37.632-1.985a48.466,48.466,0,0,0,2.979-7.371,1.229,1.229,0,0,1,1.534-.913,1.122,1.122,0,0,1,1,1.211c-.005.084.006.17,0,.253-.386,4.083.756,8.1.537,12.181A10.95,10.95,0,0,0,599.093,347.5Z" transform="translate(-515.766 -318.603)"/>
      <path id="Path_666" data-name="Path 666" d="M616.47,347.557h-1.691c-.056-.057-.163-.114-.167-.178-.26-3.608-.51-7.216-.79-11.228l-4.467,11.388H608L604.064,337a23.888,23.888,0,0,0-.681,2.935,29.649,29.649,0,0,0-.028,3.283,15.767,15.767,0,0,1-.026,2.271,11.4,11.4,0,0,1-.711,2l-1.617.075c-.087-.264-.223-.492-.171-.548a2.922,2.922,0,0,0,.488-2.33c-.151-3.821.86-7.586.549-11.421a5.14,5.14,0,0,1,.551-1.773c.963-.329,1.65-.118,1.952.877.792,2.616,1.937,5.1,2.865,7.665l1.5,4.134c1.687-4.328,3.324-8.526,4.971-12.757h1.67a1.832,1.832,0,0,1,.166.491c.013,1.011-.056,2.027.022,3.031.107,1.367.392,2.722.473,4.09.085,1.427-.25,2.932.092,4.277A11.553,11.553,0,0,1,616.47,347.557Z" transform="translate(-515.452 -318.603)"/>
      <path id="Path_667" data-name="Path 667" d="M677.908,339.335a7.8,7.8,0,0,1-4.446,7.849c-2.5,1.34-5.895.38-7.484-1.048a9.217,9.217,0,0,1-1.089-12.066,5.843,5.843,0,0,1,5.178-2.707,18.228,18.228,0,0,0,2.029-.005,3.358,3.358,0,0,1,2.405.927C676.758,334.136,678.191,336.4,677.908,339.335Zm-2.531.11c0-.168-.008-.337,0-.5a5.83,5.83,0,0,0-2.333-5.092,14.191,14.191,0,0,0-3.1-.86,5.955,5.955,0,0,0-3.277,2.576c-1.023,1.616-.953,3.235-.93,4.924a5.521,5.521,0,0,0,3.352,5.148,3.009,3.009,0,0,0,2.958,0,6.418,6.418,0,0,0,3.288-3.933A6.7,6.7,0,0,0,675.377,339.445Z" transform="translate(-514.336 -318.603)"/>
      <path id="Path_668" data-name="Path 668" d="M647.293,332.011a7.871,7.871,0,0,1,6.459-.081,3.874,3.874,0,0,1,2.02,1.969c.347.9,1.185,2,.1,3.1-.5.51-.451,1.527-1.639,1.61a20.063,20.063,0,0,1,1.605,1.62,3.6,3.6,0,0,1,.587,4.183,4.971,4.971,0,0,1-4.8,3.14c-1.419.044-2.842.008-4.335.008Zm2.037,8.023V346.2a31.547,31.547,0,0,0,3.362-.688,2.7,2.7,0,0,0,.857-4.574C652.325,339.793,650.9,339.908,649.33,340.034Zm.047-6.643v4.479h3.172c1.292-.728,1.479-1.9,1.226-3.257-.388-.387-.805-.805-1.225-1.221Z" transform="translate(-514.619 -318.604)"/>
      <path id="Path_669" data-name="Path 669" d="M639.965,347.462a7.466,7.466,0,0,1-1,.091c-1.159-.056-1.351-.279-1.605-1.369-.285-1.218-.744-2.444-.912-3.632-.221-1.566-1.293-1.728-2.3-2.037a8.112,8.112,0,0,0-2.258-.04c.809,2.334.183,4.624.445,7.084-.4,0-.716.024-1.023,0-1.168-.111-1.516-.41-1.556-1.4-.035-.839-.007-1.681-.007-2.521V332.649c1.558-1.761,3.564-1.359,5.393-1.222A4.544,4.544,0,0,1,638.286,333c1.892,2.187,1.357,5.173-1.48,6.688a5.681,5.681,0,0,1,2.142,4.545A14.241,14.241,0,0,0,639.965,347.462Zm-4.234-13.984h-3.881c.961,1.757.108,3.608.563,5.386a8.643,8.643,0,0,0,3-.322c1.193-.193,1.3-1.041,1.792-1.7.575-.773-.04-1.382-.364-1.971A9.311,9.311,0,0,0,635.73,333.478Z" transform="translate(-514.933 -318.604)"/>
      <path id="Path_670" data-name="Path 670" d="M564.183,347.473a9.491,9.491,0,0,1,.686-1.634c2.7-3.94,5.439-7.86,8.15-11.8.067-.1-.034-.31-.069-.562h-7.437l-.118-2.034h10.491c.653,1.113-.018,2.1-.641,3-2.4,3.481-4.859,6.922-7.282,10.388-.072.1.013.319.042.7,2.319,0,4.657-.005,7,.006a2.609,2.609,0,0,1,.951.146.966.966,0,0,1,.524.524,6.847,6.847,0,0,1,.138,1.265Z" transform="translate(-516.109 -318.601)"/>
      <path id="Path_671" data-name="Path 671" d="M627.782,347.494h-8.4V331.428H627.3v1.935h-6.37c.711,1.635.2,3.262.459,5.017h5.974c.137,1.118-.385,1.539-1.207,1.57-1.519.056-3.041.016-4.746.016-.25,1.783.01,3.592-.15,5.566,1.79,0,3.458-.02,5.125.007C627.6,345.559,627.771,345.814,627.782,347.494Z" transform="translate(-515.119 -318.602)"/>
      <path id="Path_672" data-name="Path 672" d="M661.151,347.513h-2.375V331.455l2.375-.1Z" transform="translate(-514.413 -318.603)"/>
      <path id="Path_673" data-name="Path 673" d="M580.311,347.513h-1.867v-16.06l1.867-.1Z" transform="translate(-515.853 -318.603)"/>
    </g>
    <g id="Kc7JNC.tif" transform="translate(1476.824 6356.237)">
      <g id="Group_47" data-name="Group 47">
        <g id="Group_46" data-name="Group 46">
          <path id="Path_143" data-name="Path 143" d="M270.191,275.513c-1.522,0-2.73-.007-3.938,0a2.045,2.045,0,0,1-2.246-2.117c-.113-1.927-.01-3.865-.036-5.8-.022-1.719.3-3.428-1.411-4.841-.549-.454-.53-2.7.01-3.1,2.01-1.478,1.121-3.5,1.537-5.424h6.053l.315,4.3c2.674,0,5.355-.012,8.035.007.824.005,1.945-.365,1.839,1.159a1.507,1.507,0,0,0,.768.228c1.385-1.985,3.366-1.413,5.575-1.233v5.14c1.9-4.288,4.644-5.318,8.277-5.423,1.734-.05,3.138,1.878,5.258.273,1.123-.85,3.456-.15,5.366-.15v16.918c-2.173-.206-4.479.838-6.658-.757-.226-.166-.819.057-1.2.206a8.548,8.548,0,0,1-7.107-.2c-2.594-1.18-3-3.362-4.135-5.466-1.087-2.01-.139-3.405.348-5.341-1.228,0-2.1-.04-2.964.008a3.68,3.68,0,0,0-3.557,3.589c-.047,1.932-.005,3.866-.011,5.8a2.066,2.066,0,0,1-2.166,2.2c-1.323.1-2.659.022-4.128.022V264.072h-3.827Zm29.18-8.489c0-2.5-.574-3.095-3.026-3.128-2.078-.028-4.045,1.322-4.234,2.906-.2,1.713,1.907,3.382,4.234,3.35C298.8,270.118,299.371,269.524,299.371,267.024Z" transform="translate(-211.269 -244.938)" fill="#080808"/>
          <path id="Path_144" data-name="Path 144" d="M356.535,275.915c0-2.943-.057-5.6.025-8.261a5.208,5.208,0,0,0-.906-3.221c-.734-1.108-1.792-1.519-2.669-.612a5.712,5.712,0,0,0-1.908,4.127c.047,2.523.012,5.048.012,7.77h-5.445c0-1.787-.1-3.555.027-5.306a14.107,14.107,0,0,0-.958-5.876c-.154-.429-.661-1.107-.907-1.067-.907.142-2.184-.819-2.69.68a12.185,12.185,0,0,0-.876,3.2c-.124,2.791-.041,5.59-.041,8.566-1.444,0-2.631.046-3.811-.01-1.83-.089-2.51-.8-2.53-2.739-.039-3.87-.046-7.742,0-11.612.024-1.93.7-2.651,2.659-2.569,1.22.051,2.8-.8,3.62.646.4.7.116,1.357,1.206.478,2.1-1.7,6.389-1.7,8.542-.068.817.618,1.312.965,2.235.158,1.66-1.452,3.76-1.321,5.808-1.262,2.212.064,3.2,1,4.1,3.109a11.88,11.88,0,0,1,.867,5.01c-.032,2.085.034,4.17-.02,6.253-.049,1.914-.7,2.518-2.672,2.6C359.147,275.952,358.087,275.915,356.535,275.915Z" transform="translate(-217.612 -245.34)" fill="#080808"/>
          <path id="Path_145" data-name="Path 145" d="M238.431,244.036c0,3.13.172,6.066-.1,8.963a4.476,4.476,0,0,1-2.057,2.662c-5.79,3.756-11.673,7.373-17.505,11.066a56.376,56.376,0,0,0-5.621,3.811c-1.3,1.066-1.931.241-2.518-.551a6.565,6.565,0,0,1,1.708-9.4c5.635-3.754,11.4-7.313,17.08-11,2.5-1.627,4.907-3.392,7.38-5.061A7.272,7.272,0,0,1,238.431,244.036Z" transform="translate(-206.595 -244.036)" fill="#080808"/>
          <path id="Path_146" data-name="Path 146" d="M206.579,288.7c-.057-.655-.162-1.335-.17-2.016a45.973,45.973,0,0,1,.086-6.671,4.255,4.255,0,0,1,2.008-2.675c5.078-2.786,9.551-6.478,14.65-9.241a64.8,64.8,0,0,0,8.466-5.662c1.3-1,2.014-.414,2.5.458,1.014,1.807,2.114,3.469.532,5.847-1.152,1.734-1.952,3.368-3.9,4.594-7.906,4.968-15.627,10.221-23.424,15.358C207.224,288.764,207.033,288.7,206.579,288.7Z" transform="translate(-206.328 -245.617)" fill="#080808"/>
          <path id="Path_147" data-name="Path 147" d="M385.626,258.845v16.986c-1.839-.276-3.846.972-5.74-.69-.2-.179-.981.393-1.5.429a43.552,43.552,0,0,1-6.642.283c-1.9-.159-5.124-4.286-4.99-6.241.155-2.26-.623-4.518.774-6.814,1.486-2.441,3.2-4.016,6.124-3.824,1.715.112,3.564-.665,5.153.663a1.242,1.242,0,0,0,1.179.032C381.711,258.2,383.659,259.283,385.626,258.845Zm-9.49,5.459c-2.459.02-3.07.629-3.082,3.074-.013,2.731.55,3.252,3.423,3.181,2.032-.05,3.973-1.718,3.838-3.3S378.2,264.288,376.136,264.3Z" transform="translate(-220.519 -245.346)" fill="#080808"/>
          <path id="Path_148" data-name="Path 148" d="M407.754,275.769c-7.445.643-6.349-.5-6.352-5.786a31.786,31.786,0,0,0-.061-4.444A2.87,2.87,0,0,0,400,263.513a3.031,3.031,0,0,0-2.375.56,3.444,3.444,0,0,0-1.733,3.3c.219,2.771.06,5.57.06,8.549-1.578,0-2.918.1-4.235-.028a2.081,2.081,0,0,1-2.124-2.235q.025-6.232,0-12.465a2.05,2.05,0,0,1,2.135-2.216,33.893,33.893,0,0,1,3.98.173c.311,1.732.908,1.615,1.938.4s2.53-.551,3.8-.557c1.4-.006,2.906-.561,4.152.891a7.51,7.51,0,0,1,2.18,5.372C407.671,268.658,407.754,272.072,407.754,275.769Z" transform="translate(-222.548 -245.343)" fill="#080808"/>
          <path id="Path_149" data-name="Path 149" d="M318.3,258.951c0,2.951.139,5.613-.05,8.251a3.664,3.664,0,0,0,1.822,3.7,2.971,2.971,0,0,0,2.374.361,2.839,2.839,0,0,0,1.241-2.071c.16-2.215.043-4.447.061-6.673.026-3.156.381-3.511,3.5-3.564.872-.015,1.746,0,2.848,0,0,4.044.077,7.873-.025,11.7a5.449,5.449,0,0,1-5.515,5.267c-2.107.069-4.222.084-6.328,0-3.037-.128-4.427-1.917-5.473-4.948-1.094-3.171-.693-6.3-.78-9.455-.051-1.831.75-2.48,2.688-2.552C315.719,258.919,316.775,258.951,318.3,258.951Z" transform="translate(-215.678 -245.354)" fill="#080808"/>
          <path id="Path_150" data-name="Path 150" d="M417.958,275.78H412.6V258.935c1.473,0,2.945-.039,4.412.03.324.016.859.383.9.649.149.929.126,1.31,1.193.488a7.492,7.492,0,0,1,10.127,1.5,3.721,3.721,0,0,1,.5,2.01c.045,4,.022,7.991.022,12.3-1.289,0-2.456.034-3.62-.007-1.947-.068-2.671-.714-2.719-2.547-.058-2.228.005-4.459-.019-6.688s-.606-3.128-2-3.269a3.631,3.631,0,0,0-3.418,3.274C417.9,269.636,417.958,272.6,417.958,275.78Z" transform="translate(-224.585 -245.339)" fill="#080808"/>
          <path id="Path_151" data-name="Path 151" d="M246.127,274.47a11.324,11.324,0,0,1,1.15-2.64c.651-.841,1.3-1.971,2.858-.708.741.6,2.272.3,3.445.293a1.1,1.1,0,0,0,.759-.765,1.191,1.191,0,0,0-.581-.953c-.891-.386-1.848-.627-2.778-.925-2.573-.824-3.944-2.481-3.848-4.65.1-2.359,1.962-4.862,4.3-5.117a52.746,52.746,0,0,1,7.685,0c.255.01.736.876.668,1.272a7.719,7.719,0,0,1-.961,2.7c-.206.336-1.063.464-1.579.387s-.948-.585-1.464-.794c-.494-.2-2.32.845-2.14,1.147.335.564.891,1.394,1.374,1.407a5.777,5.777,0,0,1,4.01,1.375,5.382,5.382,0,0,1-2.588,9.289C253.035,275.979,249.366,276.832,246.127,274.47Z" transform="translate(-209.85 -245.347)" fill="#080808"/>
        </g>
      </g>
    </g>
  </g>
</svg>
