<svg xmlns="http://www.w3.org/2000/svg" width="182.804" height="41.392" viewBox="0 0 182.804 41.392">
  <g id="Group_95" data-name="Group 95" transform="translate(0 0)">
    <path id="Path_640" data-name="Path 640" d="M563.508,225.044l1.672-3.473c1.385.562.747,1.679,1.214,2.486l2.008-2.543.544.131.545,2.893,2.38-3.2a20.914,20.914,0,0,1,.841,1.936,5.75,5.75,0,0,0,.561,1.651l1.126-3.54,1.951,2.034.964-1.851c.722,2.057-.038,3.64-.483,5.246H562.613Z" transform="translate(-458.467 -185.421)" fill="#fff"/>
    <path id="Path_641" data-name="Path 641" d="M544.13,226.8c-.711-1.172.493-1.241,1-1.653a1.784,1.784,0,0,0-.006-.48c-.233-.714-.824-1.516-.657-2.112.306-1.088,1.4-.982,2.41-.937,1.532.068,3.07-.043,4.606-.061,1.88-.022,2.316.755,1.409,2.423a4.824,4.824,0,0,0-.294,1.053l.49.279c.871-1.23,1.742-2.458,2.912-4.111.427,1.115.751,1.848.984,2.607.208.682.315,1.393.467,2.091l.016.9h-4.889l-.922-1.184a4.632,4.632,0,0,1-1.273.462c-.113.005-.347-.568-.363-.883-.034-.694.668-1.475-.384-2.235l-1.5,3.84h-.445c.046-.792.055-1.589.149-2.375.2-1.716-.013-1.882-2.079-1.3,1.495,1.375.8,2.549-.291,3.673Z" transform="translate(-456.428 -185.406)" fill="#fff"/>
    <path id="Path_642" data-name="Path 642" d="M591.542,226.843a21.219,21.219,0,0,1,.429-2.994c.217-.771.586-1.872,1.157-2.072.629-.221,1.565.42,2.6.761a9.247,9.247,0,0,1,.751-.543c1.516-.952,3.418-.029,3.091,1.781a7.94,7.94,0,0,0-.026,1.3l-.445,1.764Zm7.285-3.1c-.553-.357-.871-.736-1.181-.729-.914.021-1.24.693-1.123,1.483.046.308.482.559.74.836Z" transform="translate(-461.622 -185.451)" fill="#fff"/>
    <path id="Path_643" data-name="Path 643" d="M615.484,226.846a34.634,34.634,0,0,1,.5-3.879,2.107,2.107,0,0,1,1.2-1.29,1.612,1.612,0,0,1,1.487.507,3.053,3.053,0,0,1-.184,1.755,7,7,0,0,1-.735,1.31c2.257-.468,1.93-2.774,3.574-3.576,1.322,1.195.922,2.812,1.358,4.584-1.591-.559-2.9-1.009-3.645.59Z" transform="translate(-464.232 -185.454)" fill="#fff"/>
    <path id="Path_644" data-name="Path 644" d="M650.255,196.285a12.972,12.972,0,0,1-2.026.807,2.406,2.406,0,0,1-2.912-1.373,2.039,2.039,0,0,1,.5-2.739c.928-.825,1.915-1.382,3.157-.622.436.267.855.56,1.282.841Z" transform="translate(-467.451 -182.222)" fill="#fff"/>
    <path id="Path_645" data-name="Path 645" d="M629.411,226.845c-.764-1.565.018-3.011.477-4.428a1.77,1.77,0,0,1,1.552-.767c.682.168,1.647.735,1.761,1.281a4.5,4.5,0,0,1-.555,2.607c-.258.543-.956.878-1.457,1.307Z" transform="translate(-465.716 -185.453)" fill="#fff"/>
    <path id="Path_646" data-name="Path 646" d="M580.069,226.836a8.354,8.354,0,0,1,1.164-5.286l1.653,2.077.845-1.851.533.127a8.109,8.109,0,0,1-1.083,4.933Z" transform="translate(-460.369 -185.444)" fill="#fff"/>
    <path id="Path_647" data-name="Path 647" d="M611.494,226.833c.163-1.489.241-2.994.521-4.46.177-.927,1.1-.964,1.8-.729.445.151,1.1.79,1.044,1.111-.239,1.446.037,3.15-1.584,4.078Z" transform="translate(-463.797 -185.441)" fill="#fff"/>
    <path id="Path_648" data-name="Path 648" d="M537.174,226.832a11.7,11.7,0,0,1,2.968-5.322c1.249,1.774,1.238,3.583,1.476,5.322Z" transform="translate(-455.693 -185.44)" fill="#fff"/>
    <path id="Path_649" data-name="Path 649" d="M559.119,226.846l-.016-.9c.045-2.671.119-2.936,1.262-4.277.944,1.208-.483,2.391.141,3.761,2.019-.445,1.159-2.745,2.317-3.785,1.374,1.124-.061,2.364.3,3.433l-.9,1.769Z" transform="translate(-458.085 -185.455)" fill="#fff"/>
    <path id="Path_650" data-name="Path 650" d="M623.962,226.836a8.383,8.383,0,0,1,1.156-5.282l1.66,2.064c.278-.614.554-1.222.879-1.938a3.627,3.627,0,0,1-.973,4.643L625.334,224c-.2,1.155-.339,1.995-.483,2.834Z" transform="translate(-465.155 -185.445)" fill="#fff"/>
    <path id="Path_651" data-name="Path 651" d="M600.022,226.847l.445-1.764,1.045-3.383c1.464,1.155-.021,2.523.7,3.653,2.2-.315.957-2.879,2.621-3.7.593,2.183-.451,3.722-1.705,5.2Z" transform="translate(-462.546 -185.455)" fill="#fff"/>
    <path id="Path_652" data-name="Path 652" d="M587.9,226.833c-1.751-2.309-1.659-3.71.369-4.9a1.972,1.972,0,0,1,2.676.236,26.1,26.1,0,0,0-2.873,1.718c-.2.155.048.894.135,1.861l2.023-1.652c.78,1.123-.063,1.894-.552,2.733Z" transform="translate(-461.09 -185.441)" fill="#fff"/>
    <path id="Path_653" data-name="Path 653" d="M606.007,226.849c.143-1.426.206-2.868.484-4.269a1.542,1.542,0,0,1,1.209-.908,2.3,2.3,0,0,1,1.548.967,1.57,1.57,0,0,1-.4,1.489c-1.013.751-2.081,1.388-2.4,2.721Z" transform="translate(-463.199 -185.457)" fill="#fff"/>
    <path id="Path_654" data-name="Path 654" d="M483.37,193.637c-.9.049-1.765.135-2.632.136-5.332.013-10.666-.025-16,.018-4.016.033-6.647,2.117-7.552,5.846-.884,3.648,2.071,7.98,5.839,8.16,4.124.2,8.265.045,12.6.045-4.267-2.729-5.686-5.509-4.7-8.946a6.862,6.862,0,0,1,5.856-4.69,7.037,7.037,0,0,1,7.236,4.385c1.219,3.146.309,5.691-3.336,8.651l2.69-.666a11.694,11.694,0,0,1-2.846,4.593,20.978,20.978,0,0,1-26.944,2.921c-3.218-2.267-6.157-5.037-7.068-9.049-1.986-8.753-.36-14.287,6.342-19.588a21.488,21.488,0,0,1,11.247-4.348c4.384-.47,8.416,1.143,12.187,3.354a16.627,16.627,0,0,1,6.817,7.324,6.931,6.931,0,0,1,.383,1.029A3.3,3.3,0,0,1,483.37,193.637Z" transform="translate(-445.721 -181.025)" fill="#fff"/>
    <path id="Path_655" data-name="Path 655" d="M614.751,205.377c.5-3.748.973-7.074,1.368-10.409.225-1.891.97-2.649,2.79-2.6,1.594.046,2.02.54,1.792,2.178-.753,5.437-1.58,10.865-2.251,16.312-.182,1.479-.888,1.7-2.172,1.811a3.492,3.492,0,0,1-4.074-2.5c-.857-2.26-1.924-4.444-2.926-6.65a12.885,12.885,0,0,0-1.859-3.089c-.494,3.35-1,6.7-1.47,10.049-.112.8,0,1.832-1,1.967a12.288,12.288,0,0,1-3.464-.174c-.182-.029-.387-.907-.323-1.355.789-5.507,1.632-11.006,2.447-16.509.145-.981.266-2.028,1.563-2,1.4.027,3.071-.678,3.973,1.074.6,1.173,1.075,2.414,1.639,3.608C612.006,199.68,613.253,202.257,614.751,205.377Z" transform="translate(-462.669 -182.254)" fill="#fff"/>
    <path id="Path_656" data-name="Path 656" d="M502.633,200.427q-.5,4.684-1,9.37c-.269,2.531-.773,2.983-3.153,2.818-1.49-.1-1.818-.333-1.688-1.924.219-2.7.6-5.384.96-8.069.384-2.829.871-5.645,1.23-8.477a1.8,1.8,0,0,1,1.646-1.75c2.55-.5,3.691.078,4.73,2.46,1.233,2.828,2.441,5.666,3.675,8.492a2.576,2.576,0,0,0,1.111,1.255c.277-1.783.576-3.563.825-5.35.213-1.523.315-3.062.566-4.578.347-2.1,1.868-2.945,3.9-2.253,1.183.4.923,1.392.823,2.225-.226,1.89-.538,3.77-.829,5.651-.535,3.475-1.083,6.948-1.622,10.422-.151.973-.278,2.008-1.638,1.875-1.424-.139-3.16.72-3.984-1.394-.744-1.912-1.717-3.737-2.594-5.6q-1.252-2.653-2.515-5.3Z" transform="translate(-451.287 -182.242)" fill="#fff"/>
    <path id="Path_657" data-name="Path 657" d="M560.192,212.248c.886-6.206,1.749-12.211,2.591-18.22.111-.79.321-1.537,1.225-1.581,3.542-.174,7.121-.422,10.513.889,3.727,1.441,5.217,4.476,5.114,8.209-.108,3.958-1.214,7.611-5.112,9.605a11.885,11.885,0,0,1-4.384,1.392c-2.943.213-5.914.064-8.873.043A4.765,4.765,0,0,1,560.192,212.248Zm14.143-10.343c0-.513.029-1.027-.005-1.537-.135-2.068-.981-3.09-3.028-3.451a10.43,10.43,0,0,0-2.861-.075,1.478,1.478,0,0,0-1.088.831c-.533,3.019-.982,6.053-1.405,9.089-.1.714.2,1.391,1.046,1.383a14.215,14.215,0,0,0,3.927-.295C573.435,207.091,574.345,205.318,574.335,201.905Z" transform="translate(-458.203 -182.255)" fill="#fff"/>
    <path id="Path_658" data-name="Path 658" d="M547.082,213.037c-5.647.341-10.97-4.3-9.8-11.819a10.768,10.768,0,0,1,5.587-8.029c5.234-3,13.506-.156,14.172,6.849.38,3.983-.9,9.392-4.981,11.7A8.834,8.834,0,0,1,547.082,213.037Zm-.2-4.414a4.214,4.214,0,0,0,4.285-2.677,8.631,8.631,0,0,0,.731-6.37,4.369,4.369,0,0,0-7.134-2.2,7.663,7.663,0,0,0-2.6,6.5C542.354,207.1,543.978,208.633,546.88,208.623Z" transform="translate(-455.688 -182.222)" fill="#fff"/>
    <path id="Path_659" data-name="Path 659" d="M588.076,208.222c2.313,0,4.362-.026,6.41.012.975.018,2.229-.3,2.236,1.349.009,2.074-.643,3.022-2.244,3.041q-4.994.059-9.989,0c-1.731-.02-2.108-.442-1.877-2.145.462-3.409.991-6.809,1.509-10.209.309-2.026.683-4.043.968-6.073a1.924,1.924,0,0,1,2.253-1.851c3.181.039,6.363-.005,9.545.023.854.008,1.865-.116,1.88,1.248.023,2.143-.452,3.04-1.91,3.118-1.7.091-3.4.012-5.105.043-1.765.032-2.055.327-2.354,1.936-.2,1.062.214,1.537,1.256,1.547,1.48.013,2.96.029,4.44.019,1.046-.008,1.681.337,1.7,1.51.019,1.461-.453,2.331-1.637,2.421-1.4.107-2.81.042-4.216.053-2.4.02-2.4.021-2.65,2.382C588.248,207.007,588.192,207.362,588.076,208.222Z" transform="translate(-460.641 -182.26)" fill="#fff"/>
    <path id="Path_660" data-name="Path 660" d="M524.833,208.042c.719.064,1.358.159,2,.171,1.33.026,2.665-.054,3.99.03.919.059,2.268-.462,2.369,1.185.145,2.375-.476,3.174-2.5,3.2-3.029.037-6.06.025-9.09.007-2.254-.013-2.635-.4-2.338-2.575.437-3.187.969-6.361,1.441-9.544.267-1.808.527-3.617.727-5.432.225-2.044.82-2.675,2.971-2.71,3.029-.049,6.059-.031,9.09,0,.846.008,1.879-.149,1.93,1.2.079,2.062-.457,3.089-1.857,3.163-1.843.1-3.695.077-5.541.034a1.774,1.774,0,0,0-1.99,1.616c-.278,1.288.042,1.8,1.366,1.871,1.4.073,2.807.03,4.212.031.957,0,1.783.113,1.811,1.37.033,1.434-.6,2.5-1.766,2.575-1.325.086-2.66.029-3.99.037-2.5.017-2.5.018-2.747,2.518C524.882,207.139,524.869,207.5,524.833,208.042Z" transform="translate(-453.731 -182.259)" fill="#fff"/>
    <path id="Path_661" data-name="Path 661" d="M629.967,196.774c-1.549,0-2.653.037-3.754-.012-.9-.039-2.064.3-2.191-1.173a2.774,2.774,0,0,1,2.068-3.168,6.639,6.639,0,0,1,1.107-.06c4,0,8-.013,12,.005.935,0,2.042-.176,2.056,1.314.021,2.044-.651,3.012-2.214,3.084-.813.037-1.63.034-2.443.014-1.269-.029-1.827.528-1.964,1.82-.372,3.493-.862,6.974-1.324,10.459-.1.725-.311,1.436-.391,2.163-.11.985-.629,1.344-1.6,1.426-3.231.273-3.569-.133-3.069-3.385C628.86,205.222,629.365,201.164,629.967,196.774Z" transform="translate(-465.162 -182.261)" fill="#fff"/>
  </g>
</svg>
