<svg xmlns="http://www.w3.org/2000/svg" width="182.804" height="29.173" viewBox="0 0 182.804 29.173">
  <g id="Group_94" data-name="Group 94" transform="translate(0 0)">
    <path id="Path_624" data-name="Path 624" d="M139.448,338.569c.5,1.178,1.631,1.836,2.363,2.864,2,2.814,4.1,5.56,5.9,8.51,1.4.841,1.314,2.2,1.266,3.548-.028.783.017,1.57-.018,2.352-.01.235-.159.644-.281.659-.32.037-.838.01-.964-.186a25.756,25.756,0,0,0-2.156-2.969c-.794-.925-1.449-1.965-2.159-2.959q-1.535-2.15-3.062-4.307c-.666-.939-1.317-1.888-1.994-2.818a1.908,1.908,0,0,0-1.81-.863c-1.429.094-2.867.064-4.3.087-.049,1.4-.138,2.81-.142,4.216-.016,5.275,0,10.551-.018,15.827,0,.595.067.91.791.869,1.079-.061,2.165-.038,3.246-.009a1.049,1.049,0,0,1,1.165,1.137,11.014,11.014,0,0,1-.01,1.922,1.338,1.338,0,0,1-1.522,1.209q-3.248.008-6.5,0a1.469,1.469,0,0,1-1.488-1.251,5.5,5.5,0,0,1-.007-.854c0-8.483.011-16.967-.024-25.45a3.4,3.4,0,0,1,.458-1.534Z" transform="translate(-127.73 -338.569)" fill="#fff"/>
    <path id="Path_625" data-name="Path 625" d="M158.454,338.569v26.512c0,.356.007.713,0,1.069-.026,1.236-.252,1.494-1.447,1.505-2.019.02-4.04.005-6.06.005-.577,0-1.159-.047-1.73.01a3.39,3.39,0,0,1-3.121-1.328c-1.114-1.381-2.177-2.805-3.226-4.236q-2.471-3.365-4.884-6.77a3.118,3.118,0,0,1-.768-2.043c.069-1.064-.01-2.138.039-3.2a.969.969,0,0,1,.477-.632c.111-.064.463.1.585.254,1.528,1.934,3.062,3.866,4.538,5.839,1.382,1.846,2.7,3.741,4.044,5.611.082.115.212.2.3.306.517.636.906,1.544,1.575,1.842a6.272,6.272,0,0,0,2.564.067c1.058-.034,2.116-.109,3.174-.166.014-.992.04-1.985.041-2.976q.005-7.7,0-15.395c0-.427.021-.856-.005-1.282a1.054,1.054,0,0,0-1.171-1.131c-1.082-.03-2.167-.053-3.245.009-.73.042-.812-.281-.787-.873.042-1,.011-2,.011-2.993Z" transform="translate(-128.979 -338.569)" fill="#fff"/>
    <path id="Path_626" data-name="Path 626" d="M187.507,361.184c0,2.565.008,5.13-.015,7.694,0,.218-.195.613-.321.622a6.838,6.838,0,0,1-2.362-.022c-.611-.182-.929-.893-1.309-1.49-2.058-3.237-4.244-6.394-6.389-9.577a3.662,3.662,0,0,0-.3-.348,1.293,1.293,0,0,0-.125.374c-.007,3.349,0,6.7-.008,10.046,0,1.027-.014,1.027-1.013,1.045-2.014.038-2.015.038-2.016-1.981,0-4.631.013-9.262-.015-13.893,0-.649.177-.862.837-.825.934.053,2.014-.268,2.77.1.665.323.991,1.358,1.428,2.1,1.565,2.654,3.6,5.017,4.946,7.807.046.1.17.154.259.23.056-.12.161-.239.162-.359.009-2.921,0-5.842.009-8.763,0-1.084.013-1.1,1.176-1.1.712,0,1.663-.222,2.067.137.376.334.207,1.307.214,2C187.519,357.051,187.507,359.118,187.507,361.184Z" transform="translate(-133.779 -340.438)" fill="#fff"/>
    <path id="Path_627" data-name="Path 627" d="M206.57,361.091c0-2.486.026-4.972-.017-7.458-.011-.695.257-.867.868-.779.07.01.144,0,.215,0l2.317.133c.027.7.063,1.4.078,2.1.013.569.018,1.137,0,1.705-.022.63-.081.737.706.392,3.018-1.326,5.848-.287,7.08,3.112a8.481,8.481,0,0,1,.015,5.608,4.841,4.841,0,0,1-4.872,3.634c-.972,0-2.02.229-2.694-.808a.637.637,0,0,0-.547.083c-.558.928-1.464.681-2.3.737-.616.043-.88-.094-.868-.787C206.6,366.206,206.57,363.648,206.57,361.091Zm8.228,2.056c0-.5.026-1-.006-1.494a2.352,2.352,0,0,0-1.478-1.9,6.511,6.511,0,0,0-2.136-.016,2.721,2.721,0,0,0-1.338.861c-.136.149.2.655.179.987-.1,1.243.311,2.52-.245,3.737a.476.476,0,0,0,.133.436c.378.28.777.7,1.19.726.814.052,1.736.383,2.454-.23.741-.632,1.626-1.25,1.255-2.471A2.262,2.262,0,0,1,214.8,363.147Z" transform="translate(-138.116 -340.449)" fill="#fff"/>
    <path id="Path_628" data-name="Path 628" d="M248.972,361.292c0-2.566.01-5.131-.008-7.7,0-.5.063-.763.686-.754,2.38.036,4.761-.015,7.142.026a4.234,4.234,0,0,1,3.425,3.1,8.435,8.435,0,0,1-.023,2.343,2.73,2.73,0,0,1-.817,1.15c-.844.9-.86.894.076,1.819a5.015,5.015,0,0,1,1.429,2.2,3.761,3.761,0,0,1-.911,3.924,6.4,6.4,0,0,1-5.155,2.142c-1.925-.094-3.854-.109-5.781-.16-.022-1.844-.046-3.688-.063-5.532C248.965,363,248.972,362.148,248.972,361.292Zm2.165,2.9c0,.993,0,1.987.006,2.981a.208.208,0,0,0,.136.148q1.6.049,3.2.078a5.663,5.663,0,0,0,1.29-.012c2.029-.445,3.373-.975,3.17-3.282a2.574,2.574,0,0,0-2.267-2.26c-1.508-.024-3.028.1-4.522-.051-.726-.073-1.169-.323-1.031.7A12.636,12.636,0,0,1,251.137,364.194Zm2.817-9.626c-.862,0-1.723,0-2.586.006a.206.206,0,0,0-.15.134q-.051,1.367-.08,2.736a14.413,14.413,0,0,0,.018,1.7c.019.2.26.531.406.534a33.783,33.783,0,0,0,4.734-.014,2.383,2.383,0,0,0,1.61-3.744,2.8,2.8,0,0,0-2.878-1.363A5.347,5.347,0,0,1,253.955,354.568Z" transform="translate(-143.705 -340.45)" fill="#fff"/>
    <path id="Path_629" data-name="Path 629" d="M228.486,364.984c-1.151,0-2.3-.025-3.455.01-.743.022-.212.3-.123.575a2.764,2.764,0,0,0,1.651,1.671,1.417,1.417,0,0,0,1.51.089c.581-.3,1.417-.262,1.857-.67.747-.692,1.12-.274,1.532.235.331.41.812.886.8,1.323-.008.356-.6.772-1.012,1.033-1.824,1.154-3.889.849-5.9.868a11.224,11.224,0,0,1-3.038-2.485,5.313,5.313,0,0,1-.755-2.236,14.62,14.62,0,0,1-.017-2.982,5.219,5.219,0,0,1,2.659-4.293,5.3,5.3,0,0,1,5.978.033,4.382,4.382,0,0,1,1.29,1.259,18.113,18.113,0,0,1,1.072,2.117c.524,1.07.175,2.191.2,3.291-.769.054-1.538.126-2.308.157C229.783,365,229.135,364.984,228.486,364.984Zm-1.62-2.566c.645,0,1.291.013,1.936-.005a.628.628,0,0,0,.523-.88,2.364,2.364,0,0,0-4-.893,5.6,5.6,0,0,0-.74,1.584c.4.064.8.151,1.209.188C226.146,362.443,226.507,362.418,226.866,362.418Z" transform="translate(-140.083 -341.026)" fill="#fff"/>
    <path id="Path_630" data-name="Path 630" d="M197.343,370.1c-3.165.79-6.184-3.145-6.268-6.045a7.362,7.362,0,0,1,3.14-6.171c.281-.229.766-.21,1.153-.318a5.519,5.519,0,0,1,5.577,1.071,5.582,5.582,0,0,1,1.9,3.719c.091.765.484,1.378.172,2.29-.478,1.4-.718,2.877-1.9,3.91C200.028,369.513,198.915,370.507,197.343,370.1Zm2.485-6.171a3.833,3.833,0,0,0-.963-3.054,2.534,2.534,0,0,0-3.387.007,4.771,4.771,0,0,0-.609,4.617c.716,1.485,1.082,1.65,2.729,1.646,1.284,0,1.547-1.015,1.993-1.81A4.221,4.221,0,0,0,199.828,363.93Z" transform="translate(-136.077 -341.032)" fill="#fff"/>
    <path id="Path_631" data-name="Path 631" d="M325.872,364.561c-1.226,0-2.454.05-3.675-.018-.8-.045-.771.385-.739.912.111,1.812,2.155,3.519,4.757,2.719.619-.19,1.334-.221,1.822-.858a.68.68,0,0,1,1.192.141c.161.381.755.842-.085,1.316-1.125.634-2.132,1.48-3.548,1.354a5.909,5.909,0,0,0-1.08,0c-2.124.2-3.286-1.094-4.368-2.627-1.535-2.174-1.141-6.569.778-8.594a4.994,4.994,0,0,1,8.131.977,10.319,10.319,0,0,1,.9,2.191,13.325,13.325,0,0,1,.16,2.282c-.621.069-1.239.169-1.862.2C327.459,364.587,326.665,364.561,325.872,364.561Zm-1.39-1.712c1,0,2,.023,3-.023.163-.008.478-.373.443-.48-.273-.8-.594-1.594-.943-2.369-.283-.629-1.1-.342-1.426-.636-1.029-.938-1.92,0-2.633.262a2.532,2.532,0,0,0-1.479,2.5c.014.478.03.8.671.759C322.9,362.807,323.695,362.849,324.482,362.849Z" transform="translate(-152.961 -341.031)" fill="#fff"/>
    <path id="Path_632" data-name="Path 632" d="M306.815,363.793c0,.782.043,1.568-.01,2.348a3.716,3.716,0,0,0,.685,2.711c.282.354.279.663-.075.872a2.535,2.535,0,0,1-1.127.37c-.208.009-.44-.3-.644-.488-.264-.24-.509-.7-.767-.7a1.494,1.494,0,0,0-1.023.548,1.93,1.93,0,0,1-1.893.682,4.58,4.58,0,0,0-1.079,0c-1.876.269-2.834-.858-3.594-2.283a3.123,3.123,0,0,1,1.482-4.57,5.579,5.579,0,0,1,3.1-.864,4.562,4.562,0,0,0,2.226-.37c1.09-.583,1.17-.438.7-1.4a2.554,2.554,0,0,0-2.944-1.616,7.617,7.617,0,0,0-3.046.927c-.934.644-.913.062-1.258-.448-.379-.559-.318-.585.3-.985a9.815,9.815,0,0,1,6.2-1.213,3.284,3.284,0,0,1,2.766,3.069C306.843,361.515,306.815,362.654,306.815,363.793Zm-1.732,1.513c0-1.685-.01-1.736-1.729-1.578-.944.087-1.841.425-2.825.463a1.643,1.643,0,0,0-1.51,1.631c-.083,1.67.018,1.855,1.316,2.394a4.88,4.88,0,0,0,4.527-1.091,1.1,1.1,0,0,0,.211-.545C305.1,366.157,305.083,365.731,305.083,365.306Z" transform="translate(-150.01 -341.033)" fill="#fff"/>
    <path id="Path_633" data-name="Path 633" d="M280.711,363.944a5.342,5.342,0,0,1-2.025,4.942,4.318,4.318,0,0,1-2.07,1.18c-1.218.122-2.544.375-3.7-.37a6.73,6.73,0,0,1-2.961-3.568,11.028,11.028,0,0,1-.055-5.158,3.4,3.4,0,0,1,.731-1.188c.52-.588,1.11-1.114,1.668-1.67a2.736,2.736,0,0,1,2.249-.819,8.156,8.156,0,0,1,2.69.273,5.553,5.553,0,0,1,3.471,5.119C280.719,363.041,280.711,363.4,280.711,363.944Zm-2.165-.135c0-.552.01-1.05,0-1.547a3.332,3.332,0,0,0-2.807-3.252,4.769,4.769,0,0,0-3.254,1.491,6.317,6.317,0,0,0,.1,6.5,3.435,3.435,0,0,0,5.545-.217A5.757,5.757,0,0,0,278.546,363.809Z" transform="translate(-146.427 -341.035)" fill="#fff"/>
    <path id="Path_634" data-name="Path 634" d="M236,359.917c0-1.993,0-3.986,0-5.979,0-1.073.012-1.084,1.183-1.084.711,0,1.663-.219,2.063.141.375.338.207,1.308.209,2,.015,3.488,0,6.974.009,10.462,0,1.035.012,1.035.973,1.084,1.192.061,1.192.061,1.19,1.3,0,1.189-.42,1.617-1.689,1.7-1.235.076-2.482.109-3.171-1.18a5.15,5.15,0,0,1-.775-2.459C236.012,363.9,236,361.91,236,359.917Z" transform="translate(-141.996 -340.443)" fill="#fff"/>
    <path id="Path_635" data-name="Path 635" d="M289.416,370.123a4.967,4.967,0,0,1-5.1-3.634,8.976,8.976,0,0,1-.029-5.426,5.1,5.1,0,0,1,6.061-3.722,5.407,5.407,0,0,1,3.382,2.2c.531.728-.234,2-1.181,2.011-.142,0-.419-.226-.409-.323.1-.948-.586-1.381-1.223-1.785a3.146,3.146,0,0,0-2.189-.44,3.5,3.5,0,0,0-2.675,2.972c-.047.466.187.979-.275,1.389-.122.108-.207.458-.129.552.816.982.076,2.5,1.207,3.356a8.775,8.775,0,0,0,1.513,1.034,1.6,1.6,0,0,0,1.234.076c.945-.518,2.245-.736,2.486-2.015.132-.7.555-.546.919-.5.314.04.593.3.907.4.5.157.53.526.225.761-.8.615-1.295,1.491-2.039,2.171A3.257,3.257,0,0,1,289.416,370.123Z" transform="translate(-148.306 -341.03)" fill="#fff"/>
    <path id="Path_636" data-name="Path 636" d="M311.325,363.933c0-1.782.016-3.564-.009-5.346-.009-.562.03-1.07.758-.853.489.144,1.428-.593,1.427.631.2-.067.406-.141.613-.2,1.1-.31,2.031-1.111,3.316-.916.613.093.923.174.831.837a5.966,5.966,0,0,0-.006.854c0,.52-.306.51-.7.436a4.2,4.2,0,0,0-3.7,1.219,1.987,1.987,0,0,0-.344,1.13q-.044,3.848,0,7.7c.007.575-.189.759-.737.7a4.64,4.64,0,0,0-.865,0c-.485.038-.59-.194-.584-.629C311.336,367.64,311.325,365.787,311.325,363.933Z" transform="translate(-151.921 -341.027)" fill="#fff"/>
    <path id="Path_637" data-name="Path 637" d="M267.095,363.946c0,1.772.007,3.543-.005,5.314,0,.374.2.862-.533.884-.682.02-1.284-.069-1.608-.708-.115-.227-.019-.558-.019-.841v-9.777c0-.142.006-.284,0-.425-.033-.687.4-1,.991-1.089a1.016,1.016,0,0,1,1.166,1.116C267.113,360.262,267.095,362.1,267.095,363.946Z" transform="translate(-145.804 -341.036)" fill="#fff"/>
    <path id="Path_638" data-name="Path 638" d="M336.167,359.552c1.18-.02,1.159.267,1.184.548.041.445-.119.649-.592.616-.353-.023-.718.053-.722-.492a3.468,3.468,0,0,0-.182-.774,3.718,3.718,0,0,0-.664.413c-.191.182-.283.468-.477.645a.7.7,0,0,1-.549.176c-.129-.037-.26-.3-.27-.467-.034-.566,0-1.136-.022-1.7,0-.117-.12-.232-.184-.347-.08.094-.226.185-.229.281-.022.567-.031,1.137-.005,1.7.023.484-.213.577-.646.57-.409-.007-.69-.046-.664-.55a8.507,8.507,0,0,0-.016-1.488.748.748,0,0,0-.431-.521c-.794-.224-.156-.514,0-.614a2.442,2.442,0,0,1,2.181-.081c.518.157,1.264-.187,1.32.759,0,.073.24.2.346.181s.189-.22.312-.277c.376-.175.422-.945,1.06-.617.547.281.439.823.432,1.309,0,.142,0,.284-1.179.729-1.116.3-1.051.3-.986.3a1.191,1.191,0,0,0-.131-.324c-.021-.027-.171.044-.262.07C334.855,359.686,334.921,359.771,336.167,359.552Z" transform="translate(-154.555 -341.031)" fill="#fff"/>
    <path id="Path_639" data-name="Path 639" d="M264.935,354.081c.059-.959.5-1.313,1.512-1.224a1.09,1.09,0,0,1,1.087,1c.022.594-.91,1.617-1.423,1.562A1.572,1.572,0,0,1,264.935,354.081Z" transform="translate(-145.809 -340.45)" fill="#fff"/>
  </g>
</svg>
