<svg xmlns="http://www.w3.org/2000/svg" width="122.842" height="32.12" viewBox="0 0 122.842 32.12">
  <g id="tWXSU5.tif" transform="translate(-40.936 -715.725)">
    <g id="Group_134" data-name="Group 134" transform="translate(40.936 715.725)">
      <path id="Path_744" data-name="Path 744" d="M184.706,726.226c.154-.369.237-.548.3-.734.833-2.276,1.659-4.555,2.5-6.828a1.225,1.225,0,0,1,1.708-.663.784.784,0,0,1,.306.563c.207,2.988.4,5.977.557,8.968a.82.82,0,0,1-.5.589.543.543,0,0,1-.763-.531c-.066-1.014-.143-2.027-.2-3.041-.087-1.661-.157-3.323-.244-5.194-.156.342-.244.507-.307.68q-1.337,3.674-2.67,7.35c-.134.366-.239.73-.777.729s-.635-.36-.761-.735q-1.208-3.594-2.418-7.187a.834.834,0,0,0-.314-.465c-.078,1.415-.153,2.831-.235,4.245-.065,1.118-.116,2.238-.222,3.352a1.085,1.085,0,0,1-.39.762c-.5.284-.89-.035-.85-.648.14-2.131.294-4.262.445-6.392.053-.753.108-1.506.17-2.259.034-.423.052-.864.663-.856.539.007,1.091-.125,1.339.614.752,2.249,1.551,4.482,2.331,6.721C184.474,725.525,184.559,725.787,184.706,726.226Z" transform="translate(-135.802 -717.188)" fill="#080808"/>
      <path id="Path_745" data-name="Path 745" d="M141.149,722.6l2.554,2.86c.293-.681.527-1.177.719-1.688.118-.315.089-.717.28-.962a1.369,1.369,0,0,1,.833-.328.828.828,0,0,1,.25.589,18.291,18.291,0,0,1-.968,2.538c-.221.444-.282.724.1,1.074.341.313.633.68,1.007,1.09a1.415,1.415,0,0,1-1.816-.3.653.653,0,0,0-1.051-.114,4.3,4.3,0,0,1-3.375.677,2.83,2.83,0,0,1-1.7-4.692,13.3,13.3,0,0,1,1.253-1.148c-.155-.3-.328-.615-.477-.938a2.484,2.484,0,0,1,.33-2.849,2.615,2.615,0,0,1,2.732-.761,2.128,2.128,0,0,1,1.1,3.436A13.942,13.942,0,0,1,141.149,722.6Zm1.693,3.584c-.705-.775-1.42-1.559-2.133-2.344-.872-.96-1.383-.876-1.956.322a2.1,2.1,0,0,0,.429,2.442A2.665,2.665,0,0,0,142.842,726.179Zm-3.343-6.141.968,1.592a7.979,7.979,0,0,0,1.462-1.063,1.171,1.171,0,0,0-.057-1.7,1.758,1.758,0,0,0-1.323-.325C139.869,718.672,139.685,719.294,139.5,720.038Z" transform="translate(-106.916 -716.975)" fill="#080808"/>
      <path id="Path_746" data-name="Path 746" d="M50.488,722.716c-.038,2.812-1.314,4.673-3.519,5.256a4.573,4.573,0,0,1-5.909-3.631,8.18,8.18,0,0,1,.019-2.935,4.629,4.629,0,0,1,5.149-3.813,4.547,4.547,0,0,1,4.224,4.466C50.471,722.318,50.481,722.578,50.488,722.716Zm-1.219.1a14.8,14.8,0,0,0-.894-2.643,3.062,3.062,0,0,0-5.316-.1,5.081,5.081,0,0,0-.049,5.491,3.071,3.071,0,0,0,5.4-.109A15.258,15.258,0,0,0,49.269,722.817Z" transform="translate(-40.936 -716.993)" fill="#080808"/>
      <path id="Path_747" data-name="Path 747" d="M155.954,784.416c.066-.226.063-.428.161-.51a1.173,1.173,0,0,1,.66-.339c.149,0,.415.317.415.491-.005,2.266.042,4.537-.109,6.8-.143,2.136-1.411,3.21-3.575,3.233a7.267,7.267,0,0,1-1.857-.26c-.788-.2-.834-.427-.362-1.146,3.555.674,4.974-.178,4.461-2.761-.187.119-.358.216-.517.33a3,3,0,0,1-3.6.017,3.76,3.76,0,0,1-1.3-4.074,3.389,3.389,0,0,1,2.765-2.755C154.061,783.258,154.733,783.482,155.954,784.416Zm-.111,2.739h-.014c0-.26.011-.52,0-.779a1.963,1.963,0,0,0-1.4-1.868,2.1,2.1,0,0,0-2.251.711,3.413,3.413,0,0,0-.075,3.809,2.117,2.117,0,0,0,2.305.752,1.985,1.985,0,0,0,1.431-1.847C155.854,787.674,155.843,787.414,155.843,787.154Z" transform="translate(-115.785 -762.067)" fill="#080808"/>
      <path id="Path_748" data-name="Path 748" d="M83.114,783.044a3.7,3.7,0,0,0,.793.237,13.806,13.806,0,0,0,2.543.086,1.41,1.41,0,0,0,1.193-1.294,1.58,1.58,0,0,0-.715-1.7c-.461-.29-.978-.492-1.466-.742a9.672,9.672,0,0,1-1.447-.773,2.5,2.5,0,0,1,.381-4.329,4.859,4.859,0,0,1,3.675-.189c.392.112.555.336.4.763-.145.4-.375.39-.736.31a6.73,6.73,0,0,0-1.7-.217,1.577,1.577,0,0,0-.652,3.066c.7.361,1.437.634,2.132,1a2.6,2.6,0,0,1,1.525,2.214,2.743,2.743,0,0,1-2.053,2.957,5.78,5.78,0,0,1-3.41-.041C82.713,784.131,82.662,783.976,83.114,783.044Z" transform="translate(-69.634 -755.693)" fill="#080808"/>
      <path id="Path_749" data-name="Path 749" d="M259.915,784.829c-3.114-.067-5.144-1.9-5.317-4.852a5.092,5.092,0,0,1,4.828-5.714,13.574,13.574,0,0,1,2.563.182c.333.036.578.2.463.638s-.33.5-.744.412a7.408,7.408,0,0,0-1.784-.209c-2.638.119-4.214,2.085-3.9,4.8.309,2.657,2.225,4,5.046,3.538a2.542,2.542,0,0,1,.688-.132.934.934,0,0,1,.628.324c.206.353-.019.6-.39.664C261.3,784.607,260.609,784.714,259.915,784.829Z" transform="translate(-187.28 -755.81)" fill="#080808"/>
      <path id="Path_750" data-name="Path 750" d="M304.588,734.342a3.5,3.5,0,0,1-3.573-3.794,3.688,3.688,0,1,1,3.573,3.794Zm2.446-3.8a12.423,12.423,0,0,0-.307-1.292,2.1,2.1,0,0,0-2.034-1.552,2.012,2.012,0,0,0-2.093,1.56,6.19,6.19,0,0,0-.028,2.514,2.036,2.036,0,0,0,2.039,1.635,2.165,2.165,0,0,0,2.114-1.566A11.886,11.886,0,0,0,307.033,730.54Z" transform="translate(-219.082 -723.24)" fill="#080808"/>
      <path id="Path_751" data-name="Path 751" d="M226.446,784.169c-1.1,2.626-2.143,5.21-3.256,7.766a4.572,4.572,0,0,1-2.129,2.333c-.317.159-.7.514-.994-.051-.24-.463-.1-.763.385-.982a3.1,3.1,0,0,0,.82-.6c1.056-1.007,1.149-1.487.6-2.828q-1.014-2.46-2.025-4.921c-.1-.256-.188-.52-.279-.775.99-.422,1.323-.309,1.644.541.535,1.415,1.051,2.836,1.579,4.254.07.187.157.368.314.734.4-1.153.732-2.131,1.07-3.107.221-.641.442-1.282.673-1.919C225.137,783.807,225.51,783.681,226.446,784.169Z" transform="translate(-163.292 -762.405)" fill="#080808"/>
      <path id="Path_752" data-name="Path 752" d="M347.333,733.747a13.83,13.83,0,0,1-2.356.6,1.961,1.961,0,0,1-2.069-1.358,2.136,2.136,0,0,1,.9-2.6,14.623,14.623,0,0,1,2.436-.774c.359-.114.946.129,1-.487a1.1,1.1,0,0,0-.908-1.283,13.775,13.775,0,0,0-2.155.093c-.233.006-.581-.018-.683-.163-.253-.36.049-.558.367-.68a4.608,4.608,0,0,1,3-.221,2.145,2.145,0,0,1,1.561,1.513,5.927,5.927,0,0,1,.211,1.459c.033,1.145.04,2.291.008,3.435a3.388,3.388,0,0,1-.3.919Zm.177-2.531c-.216-.253-.461-.741-.642-.719a7.322,7.322,0,0,0-2.23.559,1.3,1.3,0,0,0,.848,2.361C346.609,733.384,347.325,732.595,347.51,731.216Z" transform="translate(-247.693 -723.251)" fill="#080808"/>
      <path id="Path_753" data-name="Path 753" d="M182.069,791.107a3.534,3.534,0,0,1-3.554-2.006,4.548,4.548,0,0,1,.7-4.7,3.477,3.477,0,0,1,3.775-.766,3.36,3.36,0,0,1,1.8,3.152c-.026.516-.308.661-.769.659q-1.849-.008-3.7.008c-.867.008-1.018.23-.726,1.047a2.256,2.256,0,0,0,2.231,1.551c.595.02,1.194-.136,1.793-.153.2-.006.4.176.6.273-.126.213-.212.564-.386.615A15.5,15.5,0,0,1,182.069,791.107Zm-2.509-4.649c.284.022.515.055.746.055.892,0,1.784,0,2.676-.014.507-.007.508-.341.435-.711a1.836,1.836,0,0,0-2.012-1.482A2.073,2.073,0,0,0,179.56,786.458Z" transform="translate(-134.927 -762.065)" fill="#080808"/>
      <path id="Path_754" data-name="Path 754" d="M223.307,733.754a16.372,16.372,0,0,1-2.627.62,1.915,1.915,0,0,1-2.012-1.429,2.078,2.078,0,0,1,.853-2.469,16.937,16.937,0,0,1,2.572-.838c.337-.111.654-.283.98-.428-.25-.427-.411-1.093-.771-1.227a5.434,5.434,0,0,0-1.981-.1,3.309,3.309,0,0,0-.831.253c-.464-.5-.364-.873.247-1.036a7.648,7.648,0,0,1,1.919-.336,2.467,2.467,0,0,1,2.729,2.58c.077,1.454.077,2.911.085,4.368,0,.165-.142.45-.258.472a1.217,1.217,0,0,1-.725-.116C223.356,734,223.312,733.764,223.307,733.754Zm-.023-2.449c-.2-.27-.43-.79-.588-.768a7.462,7.462,0,0,0-2.293.59,1.194,1.194,0,0,0-.4,1.6,1.181,1.181,0,0,0,1.261.729C222.409,733.43,223.131,732.646,223.284,731.3Z" transform="translate(-162.603 -723.286)" fill="#080808"/>
      <path id="Path_755" data-name="Path 755" d="M405.377,733.772a13.626,13.626,0,0,1-2.377.6,1.977,1.977,0,0,1-2.1-1.436,2.176,2.176,0,0,1,.932-2.532,9.992,9.992,0,0,1,1.9-.7c.17-.057.376-.007.543-.069.352-.129.943-.252.982-.461a1.064,1.064,0,0,0-.868-1.291,9.143,9.143,0,0,0-2.079.067c-.306.024-.718.378-.79-.187a.881.881,0,0,1,.509-.673,6.348,6.348,0,0,1,1.84-.338,2.506,2.506,0,0,1,2.774,2.636c.063,1.431.055,2.865.038,4.3,0,.183-.29.535-.375.515A4.6,4.6,0,0,1,405.377,733.772Zm.137-2.492c-.208-.264-.445-.77-.619-.75a7.168,7.168,0,0,0-2.227.55,1.2,1.2,0,0,0-.478,1.576,1.216,1.216,0,0,0,1.376.788C404.651,733.389,405.351,732.592,405.514,731.281Z" transform="translate(-287.438 -723.281)" fill="#080808"/>
      <path id="Path_756" data-name="Path 756" d="M92.1,728.093c-.448-.494-.335-.828.218-1.031a4.582,4.582,0,0,1,2.928-.2,2.194,2.194,0,0,1,1.694,2.033c.116,1.608.113,3.224.132,4.837a.547.547,0,0,1-.319.423,1.251,1.251,0,0,1-.7-.179.371.371,0,0,1-.155-.257,16.15,16.15,0,0,1-2.61.615,1.906,1.906,0,0,1-2.011-1.428,2.076,2.076,0,0,1,.852-2.471A17.183,17.183,0,0,1,94.7,729.6a10.046,10.046,0,0,0,.973-.436c-.253-.425-.418-1.09-.78-1.222a5.468,5.468,0,0,0-1.983-.094A3.212,3.212,0,0,0,92.1,728.093Zm3.793,3.2c-.212-.281-.449-.817-.633-.8a6.583,6.583,0,0,0-2.161.514,1.23,1.23,0,0,0-.5,1.637,1.171,1.171,0,0,0,1.308.765C95.027,733.376,95.73,732.61,95.9,731.3Z" transform="translate(-75.344 -723.247)" fill="#080808"/>
      <path id="Path_757" data-name="Path 757" d="M309.813,784.461a10.611,10.611,0,0,1,1.763-.936,2.469,2.469,0,0,1,3.345,2.1c.154,1.547.066,3.117.079,4.677,0,.451-.287.549-.68.552-.444,0-.6-.216-.6-.626,0-.963,0-1.925-.008-2.888a8.853,8.853,0,0,0-.077-1.244c-.171-1.1-.791-1.669-1.743-1.649a1.959,1.959,0,0,0-1.907,1.747,17.082,17.082,0,0,0-.036,1.793c-.006.755-.014,1.509-.006,2.263.005.475-.241.634-.685.637-.459,0-.681-.194-.681-.649,0-2.029-.015-4.059.017-6.088,0-.2.3-.551.446-.546a1.3,1.3,0,0,1,.7.412C309.823,784.1,309.791,784.31,309.813,784.461Z" transform="translate(-224.259 -762.071)" fill="#080808"/>
      <path id="Path_758" data-name="Path 758" d="M113.528,790.29c-.211.176-.365.3-.517.432a2.882,2.882,0,0,1-3.018.509,2.352,2.352,0,0,1-1.489-2.291c-.075-1.428-.043-2.861-.065-4.292-.007-.479.184-.725.7-.715.482.01.636.265.635.7,0,.989,0,1.978.01,2.967a8.182,8.182,0,0,0,.091,1.243,1.534,1.534,0,0,0,1.6,1.5,1.829,1.829,0,0,0,1.918-1.5,6.162,6.162,0,0,0,.08-1.087c.012-1.015.011-2.03.007-3.045,0-.44.094-.765.64-.772s.663.273.663.738c0,1.978.035,3.956.011,5.934a.837.837,0,0,1-.458.623c-.362.121-.658-.061-.671-.518A1.873,1.873,0,0,0,113.528,790.29Z" transform="translate(-87.173 -762.445)" fill="#080808"/>
      <path id="Path_759" data-name="Path 759" d="M248.378,734.437c-.927.25-1.522.138-1.948-.622-.392-.7-.883-1.341-1.437-2.168-.531.813-.989,1.52-1.453,2.222-.5.76-.7.825-1.754.518.521-.746,1.029-1.454,1.517-2.176,1.154-1.7,1.17-1.049.011-2.752-.451-.663-.924-1.313-1.391-1.975.78-.43,1.236-.362,1.663.234.51.713,1,1.442,1.566,2.267.512-.766.987-1.411,1.389-2.1.386-.658.9-.8,1.747-.518-.4.569-.761,1.086-1.131,1.594-1.321,1.813-1.322,1.812-.035,3.658C247.521,733.195,247.916,733.769,248.378,734.437Z" transform="translate(-178.512 -723.591)" fill="#080808"/>
      <path id="Path_760" data-name="Path 760" d="M328.2,723.5c0-.806-.005-1.613,0-2.419,0-.412-.095-.685-.587-.75a.715.715,0,0,1-.447-.484c-.027-.127.232-.447.374-.455.652-.033.64-.457.674-.92a2.628,2.628,0,0,1,2.638-2.735,1,1,0,0,1,.538.044,3.668,3.668,0,0,1,.565.588c-.208.138-.408.38-.626.4-1.26.1-1.769.612-1.8,1.858-.014.488.158.742.678.7a.953.953,0,0,1,.465.014,4.944,4.944,0,0,1,.65.457c-.216.162-.435.465-.65.462-1.3-.015-1.154.3-1.16,1.311-.008,1.431-.006,2.861-.006,4.292,0,.454-.062.827-.667.826-.628,0-.633-.405-.632-.844,0-.78,0-1.561,0-2.341Z" transform="translate(-236.996 -715.725)" fill="#080808"/>
      <path id="Path_761" data-name="Path 761" d="M370.8,734.458a3.578,3.578,0,0,1-3.849-4.039,3.8,3.8,0,0,1,4.255-3.62,3.856,3.856,0,0,1,1.149.217c.18.075.256.395.38.6a3.536,3.536,0,0,1-.64.336c-.131.039-.3-.066-.456-.087a2.738,2.738,0,0,0-2.9,1.107,3.193,3.193,0,0,0,.037,3.334,2.7,2.7,0,0,0,2.929,1.008c.129-.023.265-.106.379-.081a4.207,4.207,0,0,1,.623.238c-.123.241-.193.628-.379.695A9.056,9.056,0,0,1,370.8,734.458Z" transform="translate(-264.242 -723.3)" fill="#080808"/>
      <path id="Path_762" data-name="Path 762" d="M350.241,791.13a3.57,3.57,0,0,1-3.853-4.038,3.785,3.785,0,0,1,4.256-3.617,3.715,3.715,0,0,1,1.148.221.815.815,0,0,1,.324.634c0,.1-.349.248-.56.3-.134.036-.3-.066-.456-.089a2.711,2.711,0,0,0-2.814.961,3,3,0,0,0-.241,3.188c.533,1.144,1.759,1.574,3.31,1.262.226-.045.594-.067.689.057.251.329.232.72-.265.844S350.754,791.042,350.241,791.13Z" transform="translate(-250.159 -762.12)" fill="#080808"/>
      <path id="Path_763" data-name="Path 763" d="M369.376,789.721a5.948,5.948,0,0,0,.953.267,3.226,3.226,0,0,0,1.382.009,1.439,1.439,0,0,0,.832-.879,1.387,1.387,0,0,0-.5-1.029,4.419,4.419,0,0,0-1.186-.589c-1.248-.557-1.8-1.329-1.625-2.287a2.344,2.344,0,0,1,2.464-1.774,4.8,4.8,0,0,1,1.455.263c.154.049.22.37.326.567-.215.108-.427.3-.644.307a9.5,9.5,0,0,0-1.539-.072,1.161,1.161,0,0,0-.757.748,1.222,1.222,0,0,0,.446.964,7.349,7.349,0,0,0,1.4.686,2.112,2.112,0,0,1,1.455,2.324,2.216,2.216,0,0,1-2.188,1.8,7.035,7.035,0,0,1-1.868-.133C368.968,790.721,368.921,790.518,369.376,789.721Z" transform="translate(-265.71 -762.107)" fill="#080808"/>
      <path id="Path_764" data-name="Path 764" d="M427.916,721.593c0,1.483,0,2.967,0,4.45,0,.458.1.972-.648.98-.72.008-.706-.457-.706-.946q0-4.49,0-8.979c0-.465,0-.881.674-.893s.687.377.684.858C427.91,718.574,427.916,720.084,427.916,721.593Z" transform="translate(-305.077 -716.055)" fill="#080808"/>
      <path id="Path_765" data-name="Path 765" d="M280.438,721.589c0,1.537-.006,3.074,0,4.611,0,.466-.054.812-.658.823-.622.012-.736-.3-.734-.83q.018-4.612,0-9.223c0-.5.121-.769.7-.769s.7.281.693.776C280.428,718.515,280.438,720.052,280.438,721.589Z" transform="translate(-204.036 -716.052)" fill="#080808"/>
      <path id="Path_766" data-name="Path 766" d="M286.651,778.264q0,2.3,0,4.6c0,.454-.062.827-.667.826s-.665-.374-.665-.827q0-4.6,0-9.2c0-.486.123-.788.708-.774.569.013.625.352.625.775Q286.651,775.963,286.651,778.264Z" transform="translate(-208.33 -754.879)" fill="#080808"/>
      <path id="Path_767" data-name="Path 767" d="M118.333,721.6q0,2.3,0,4.6c0,.454-.061.827-.666.827s-.666-.373-.666-.827q0-4.6,0-9.2c0-.485.122-.788.707-.775.569.014.625.352.625.775Q118.333,719.3,118.333,721.6Z" transform="translate(-93.038 -716.065)" fill="#080808"/>
      <path id="Path_768" data-name="Path 768" d="M292.19,721.678c0,1.511,0,3.022,0,4.533,0,.459-.05.83-.662.818-.554-.011-.637-.347-.637-.777q0-4.65,0-9.3c0-.46.138-.728.677-.727.575,0,.624.336.623.765C292.187,718.552,292.19,720.115,292.19,721.678Z" transform="translate(-212.149 -716.067)" fill="#080808"/>
      <path id="Path_769" data-name="Path 769" d="M78.013,727.885c.585-.393,1.112-.8,1.688-1.11.279-.152.709-.23.789.291.061.394.072.739-.507.854a2.054,2.054,0,0,0-1.832,2.253c-.031,1.092-.021,2.186-.008,3.279.006.473-.14.732-.666.733s-.691-.253-.691-.724q.005-2.928,0-5.856c0-.392.009-.736.545-.751.5-.014.631.266.641.686A2.838,2.838,0,0,0,78.013,727.885Z" transform="translate(-65.489 -723.216)" fill="#080808"/>
      <path id="Path_770" data-name="Path 770" d="M137.292,784.552a19.23,19.23,0,0,1,1.66-1.1c.311-.167.758-.214.842.338.065.422,0,.72-.559.81a1.951,1.951,0,0,0-1.795,2.1c-.038,1.092-.018,2.186-.017,3.279,0,.48-.039.881-.695.88-.675,0-.664-.425-.663-.892,0-1.848,0-3.7,0-5.545,0-.37-.13-.829.479-.884.632-.057.633.388.671.816A.558.558,0,0,0,137.292,784.552Z" transform="translate(-106.091 -762.037)" fill="#080808"/>
      <path id="Path_771" data-name="Path 771" d="M206.015,784.557c.613-.394,1.146-.789,1.728-1.091.313-.163.7-.125.755.368.046.391-.009.675-.515.783a2.08,2.08,0,0,0-1.835,2.254c-.038.96.007,1.924-.023,2.884-.015.467.226,1.14-.656,1.115-.862-.024-.622-.695-.63-1.158-.029-1.819-.012-3.638-.026-5.457,0-.369-.009-.684.49-.7.464-.016.68.176.658.645A1.437,1.437,0,0,0,206.015,784.557Z" transform="translate(-153.187 -762.066)" fill="#080808"/>
      <path id="Path_772" data-name="Path 772" d="M298.357,787.621c0,.988-.014,1.977.005,2.964.01.523-.251.675-.726.67-.457-.005-.663-.19-.66-.656q.015-3,0-6.007c0-.522.252-.679.727-.672.455.006.668.192.661.659C298.347,785.592,298.357,786.607,298.357,787.621Z" transform="translate(-216.314 -762.436)" fill="#080808"/>
      <path id="Path_773" data-name="Path 773" d="M336.288,787.565c0-.96,0-1.92,0-2.88,0-.45.12-.751.655-.754.52,0,.68.264.679.73-.006,1.946,0,3.892,0,5.838,0,.441-.111.755-.653.758s-.677-.277-.675-.734c0-.986,0-1.972,0-2.957Z" transform="translate(-243.242 -762.444)" fill="#080808"/>
      <path id="Path_774" data-name="Path 774" d="M392.224,730.971c0,.937,0,1.873,0,2.81,0,.464-.085.82-.682.812-.566-.008-.618-.353-.618-.78q0-2.888,0-5.775c0-.441.076-.768.629-.77.526,0,.677.277.673.739C392.218,728.994,392.223,729.983,392.224,730.971Z" transform="translate(-280.667 -723.631)" fill="#080808"/>
      <path id="Path_775" data-name="Path 775" d="M268.8,730.924v2.888c0,.429-.079.767-.634.779-.608.014-.667-.35-.665-.812q.008-2.849,0-5.7c0-.465.059-.826.663-.817s.642.4.641.849q0,1.4,0,2.809Z" transform="translate(-196.127 -723.63)" fill="#080808"/>
      <path id="Path_776" data-name="Path 776" d="M297.329,774.784c.534,0,.84.255.843.751a.8.8,0,0,1-1.6.026A.712.712,0,0,1,297.329,774.784Z" transform="translate(-216.037 -756.179)" fill="#080808"/>
      <path id="Path_777" data-name="Path 777" d="M268.775,719.054c-.3.209-.571.535-.9.6-.463.088-.78-.228-.794-.726a.693.693,0,0,1,.755-.782C268.342,718.126,268.6,718.387,268.775,719.054Z" transform="translate(-195.842 -717.381)" fill="#080808"/>
      <path id="Path_778" data-name="Path 778" d="M392.08,718.948a.782.782,0,0,1-1.562-.071.7.7,0,0,1,.816-.728C391.843,718.157,392.074,718.449,392.08,718.948Z" transform="translate(-280.389 -717.386)" fill="#080808"/>
      <path id="Path_779" data-name="Path 779" d="M336.743,774.791c.506.019.787.263.787.765a.778.778,0,0,1-1.557,0C335.968,775.051,336.264,774.815,336.743,774.791Z" transform="translate(-243.028 -756.184)" fill="#080808"/>
    </g>
  </g>
</svg>
