<svg xmlns="http://www.w3.org/2000/svg" width="38.577" height="26" viewBox="0 0 38.577 26">
  <path id="Icon_metro-youtube-play" data-name="Icon metro-youtube-play" d="M30.126,19.61a1.157,1.157,0,0,0-.646-1.1l-11.022-6.5a1.363,1.363,0,0,0-1.4-.041,1.2,1.2,0,0,0-.71,1.137v13a1.2,1.2,0,0,0,.71,1.137,1.56,1.56,0,0,0,.667.162,1.279,1.279,0,0,0,.732-.2l11.022-6.5a1.157,1.157,0,0,0,.646-1.1Zm11.022,0q0,1.95-.021,3.047t-.183,2.773a21.294,21.294,0,0,1-.484,3A4.782,4.782,0,0,1,36.3,32.1q-4.779.508-14.445.508T7.414,32.1a4.712,4.712,0,0,1-2.68-1.178,4.663,4.663,0,0,1-1.5-2.5,23.82,23.82,0,0,1-.463-3q-.161-1.676-.183-2.773T2.571,19.61q0-1.95.021-3.047t.183-2.773a21.294,21.294,0,0,1,.484-3A4.783,4.783,0,0,1,7.414,7.118q4.779-.508,14.445-.508T36.3,7.118A4.712,4.712,0,0,1,38.984,8.3a4.663,4.663,0,0,1,1.5,2.5,23.82,23.82,0,0,1,.463,3q.161,1.676.183,2.773T41.148,19.61Z" transform="translate(-2.571 -6.61)" fill="#fff"/>
</svg>
