<svg id="Group_182" data-name="Group 182" xmlns="http://www.w3.org/2000/svg" width="153.183" height="33.904" viewBox="0 0 153.183 33.904">
  <path id="Path_857" data-name="Path 857" d="M639.765,1417.951a.114.114,0,0,0-.127.033,12.588,12.588,0,0,1-7.3,3.65.114.114,0,0,0-.047.208c.021.014,2.283.989,6.139,2.479a.084.084,0,0,0,.031,0,.115.115,0,0,0,.107-.073c.012-.033.734-3.358,1.274-6.193A.1.1,0,0,0,639.765,1417.951Z" transform="translate(-617.864 -1392.794)"/>
  <path id="Path_858" data-name="Path 858" d="M626.14,1393.084l-4.1-10.258a.143.143,0,0,0-.195-.073l-2.679,1.3-1.93.789a.143.143,0,0,0-.076.194l4.912,9.895a.144.144,0,0,0,.138.082.137.137,0,0,0,.046-.01.143.143,0,0,0,.082-.178l-3.07-8.684,2.21-.974,4.406,8.041a.143.143,0,0,0,.188.058.141.141,0,0,0,.069-.184Z" transform="translate(-610.985 -1376.746)"/>
  <g id="Group_178" data-name="Group 178" transform="translate(31.423)">
    <path id="Path_859" data-name="Path 859" d="M676.013,1377.632a.487.487,0,0,1-.7-.046,3.86,3.86,0,0,0-1.488-1.159,5.649,5.649,0,0,0-2.309-.49,6.915,6.915,0,0,0-1.74.222,5.166,5.166,0,0,0-1.533.663,3.334,3.334,0,0,0-1.092,1.171,3.42,3.42,0,0,0-.411,1.708,3.559,3.559,0,0,0,.237,1.344,2.824,2.824,0,0,0,.775,1.059,5.715,5.715,0,0,0,1.455.886,19.962,19.962,0,0,0,2.245.822q1.3.411,2.515.885a8.469,8.469,0,0,1,2.151,1.2,5.337,5.337,0,0,1,1.487,1.819,6.86,6.86,0,0,1-.111,5.646,6.088,6.088,0,0,1-1.755,2.04,7.628,7.628,0,0,1-2.515,1.2,10.944,10.944,0,0,1-2.941.4,11.159,11.159,0,0,1-1.961-.175,9.372,9.372,0,0,1-1.882-.537,7.6,7.6,0,0,1-1.692-.948,5.645,5.645,0,0,1-1.08-1.052.5.5,0,0,1,.088-.689l1.484-1.216a.506.506,0,0,1,.729.109,4.67,4.67,0,0,0,1.72,1.409,6.185,6.185,0,0,0,4.476.38,5.248,5.248,0,0,0,1.566-.743,4.06,4.06,0,0,0,1.138-1.219,3.16,3.16,0,0,0,.442-1.675,3.572,3.572,0,0,0-.348-1.692,3.1,3.1,0,0,0-1.075-1.123,8.285,8.285,0,0,0-1.834-.854q-1.108-.38-2.594-.885a16.482,16.482,0,0,1-2.213-.87,6.761,6.761,0,0,1-1.755-1.2,5.132,5.132,0,0,1-1.171-1.707,6.043,6.043,0,0,1-.427-2.388,5.767,5.767,0,0,1,2.34-4.823,7.767,7.767,0,0,1,2.436-1.218,10.331,10.331,0,0,1,6.31.173,6.6,6.6,0,0,1,2.453,1.657.5.5,0,0,1-.041.721Z" transform="translate(-663.569 -1372.521)"/>
    <path id="Path_860" data-name="Path 860" d="M697.288,1391.659q0-1.013-.064-1.9-.042-.588-.056-1.105a.5.5,0,0,1,.5-.508h1.345a.5.5,0,0,1,.5.491q.008.356.027.71.031.6.032,1.233h.063a4.294,4.294,0,0,1,.712-1.043,5.166,5.166,0,0,1,1.091-.9,6.348,6.348,0,0,1,5.14-.569,4.915,4.915,0,0,1,1.343.727,3.585,3.585,0,0,1,.838.917q.3.491.491.87a6.831,6.831,0,0,1,1.9-2.071,4.8,4.8,0,0,1,2.783-.743,7.254,7.254,0,0,1,2.657.427,4.23,4.23,0,0,1,1.74,1.233,4.885,4.885,0,0,1,.949,1.961,10.78,10.78,0,0,1,.285,2.578v8.485a.5.5,0,0,1-.5.5h-1.472a.5.5,0,0,1-.5-.5v-8.359a6.925,6.925,0,0,0-.158-1.485,3.436,3.436,0,0,0-.569-1.3,2.979,2.979,0,0,0-1.107-.917,3.958,3.958,0,0,0-1.771-.348,3.557,3.557,0,0,0-1.486.316,3.74,3.74,0,0,0-1.218.886,4.154,4.154,0,0,0-.822,1.376,5.071,5.071,0,0,0-.3,1.787v8.042a.5.5,0,0,1-.5.5h-1.472a.5.5,0,0,1-.5-.5v-7.884a6.776,6.776,0,0,0-.663-3.5,2.4,2.4,0,0,0-2.183-1.028,4.821,4.821,0,0,0-2.072.411,3.674,3.674,0,0,0-1.424,1.171,5.249,5.249,0,0,0-.822,1.8,9.231,9.231,0,0,0-.269,2.308v6.714a.5.5,0,0,1-.5.5h-1.472a.5.5,0,0,1-.5-.5Z" transform="translate(-678.884 -1379.039)"/>
    <path id="Path_861" data-name="Path 861" d="M746.009,1376.318a1.755,1.755,0,0,1,.522-1.265,1.794,1.794,0,0,1,2.562,0,1.817,1.817,0,1,1-3.084,1.265Zm1.068,5.789h1.472a.5.5,0,0,1,.5.5v13.807a.5.5,0,0,1-.5.5h-1.472a.5.5,0,0,1-.5-.5V1382.6A.5.5,0,0,1,747.077,1382.107Z" transform="translate(-701.147 -1372.998)"/>
    <path id="Path_862" data-name="Path 862" d="M761.245,1371.727h1.473a.5.5,0,0,1,.5.5v22.917a.5.5,0,0,1-.5.5h-1.473a.5.5,0,0,1-.5-.5v-22.917A.5.5,0,0,1,761.245,1371.727Z" transform="translate(-707.866 -1371.727)"/>
    <path id="Path_863" data-name="Path 863" d="M786.132,1399.946a.5.5,0,0,1,.072.723,7.173,7.173,0,0,1-2.577,1.981,9.227,9.227,0,0,1-3.669.679,7.661,7.661,0,0,1-3.132-.616,7.063,7.063,0,0,1-2.356-1.661,7.281,7.281,0,0,1-1.487-2.468,8.752,8.752,0,0,1-.521-3.036,8.49,8.49,0,0,1,.569-3.148,7.292,7.292,0,0,1,1.581-2.467,7.1,7.1,0,0,1,2.4-1.6,7.944,7.944,0,0,1,3.036-.57,7.575,7.575,0,0,1,2.846.522,6.169,6.169,0,0,1,2.23,1.519,6.827,6.827,0,0,1,1.439,2.435,9.859,9.859,0,0,1,.507,3.274v.293a.5.5,0,0,1-.5.5H775.683a.5.5,0,0,0-.491.6,5.2,5.2,0,0,0,.385,1.223,5.276,5.276,0,0,0,1.028,1.518,4.765,4.765,0,0,0,1.487,1.029,4.552,4.552,0,0,0,1.867.379,5.89,5.89,0,0,0,2.72-.57,5.961,5.961,0,0,0,1.7-1.331.489.489,0,0,1,.663-.057Zm-2.256-5.726a.5.5,0,0,0,.495-.573,4.073,4.073,0,0,0-1.187-2.463,4.427,4.427,0,0,0-3.225-1.138,4.774,4.774,0,0,0-3.322,1.138,4.611,4.611,0,0,0-1.408,2.436.5.5,0,0,0,.488.6Z" transform="translate(-713.205 -1379.039)"/>
    <path id="Path_864" data-name="Path 864" d="M807.832,1371.727H809.3a.5.5,0,0,1,.5.5v22.917a.5.5,0,0,1-.5.5h-1.472a.5.5,0,0,1-.5-.5v-22.917A.5.5,0,0,1,807.832,1371.727Z" transform="translate(-729.101 -1371.727)"/>
    <path id="Path_865" data-name="Path 865" d="M819.05,1395.549a8.059,8.059,0,0,1,.6-3.163,7.48,7.48,0,0,1,1.645-2.451,7.3,7.3,0,0,1,2.5-1.6,9.066,9.066,0,0,1,6.326,0,7.3,7.3,0,0,1,2.5,1.6,7.478,7.478,0,0,1,1.644,2.451,8.618,8.618,0,0,1,0,6.326,7.482,7.482,0,0,1-1.644,2.452,7.312,7.312,0,0,1-2.5,1.6,9.082,9.082,0,0,1-6.326,0,7.307,7.307,0,0,1-2.5-1.6,7.484,7.484,0,0,1-1.645-2.452A8.05,8.05,0,0,1,819.05,1395.549Zm2.657,0a6.262,6.262,0,0,0,.363,2.166,5,5,0,0,0,2.72,2.91,5.707,5.707,0,0,0,4.333,0,5,5,0,0,0,2.72-2.91,6.637,6.637,0,0,0,0-4.333,5,5,0,0,0-2.72-2.911,5.715,5.715,0,0,0-4.333,0,5,5,0,0,0-2.72,2.911A6.26,6.26,0,0,0,821.707,1395.549Z" transform="translate(-734.441 -1379.039)"/>
    <path id="Path_866" data-name="Path 866" d="M865.49,1391.523a.5.5,0,0,1-.7-.041,4.485,4.485,0,0,0-3.4-1.436,5.277,5.277,0,0,0-2.182.427,4.2,4.2,0,0,0-1.566,1.187,5.263,5.263,0,0,0-.933,1.755,7,7,0,0,0-.316,2.135,6.174,6.174,0,0,0,.364,2.135,5.642,5.642,0,0,0,1.012,1.755,4.568,4.568,0,0,0,1.566,1.186,4.8,4.8,0,0,0,2.055.427,4.4,4.4,0,0,0,3.426-1.417.506.506,0,0,1,.728-.048l1.082,1.027a.5.5,0,0,1,.021.709,6.36,6.36,0,0,1-2.189,1.437,8.729,8.729,0,0,1-6.2,0,6.766,6.766,0,0,1-2.42-1.614,7.435,7.435,0,0,1-1.55-2.467,9.054,9.054,0,0,1,0-6.231,7.3,7.3,0,0,1,1.566-2.467,7.128,7.128,0,0,1,2.42-1.629,8.037,8.037,0,0,1,3.115-.585,8.565,8.565,0,0,1,3.115.57,6.732,6.732,0,0,1,2.2,1.394.5.5,0,0,1-.023.729Z" transform="translate(-750.252 -1379.039)"/>
  </g>
  <g id="Group_180" data-name="Group 180" transform="translate(32.078 28.361)">
    <g id="Group_179" data-name="Group 179">
      <path id="Path_867" data-name="Path 867" d="M664.772,1424.092h1.52a3.863,3.863,0,0,1,.6.049,1.43,1.43,0,0,1,.547.2,1.171,1.171,0,0,1,.4.425,1.464,1.464,0,0,1,.152.719,1.085,1.085,0,0,1-.238.7,1.168,1.168,0,0,1-.707.4v.015a1.41,1.41,0,0,1,.477.123,1.206,1.206,0,0,1,.372.268,1.173,1.173,0,0,1,.242.4,1.444,1.444,0,0,1,.086.507,1.41,1.41,0,0,1-.175.741,1.346,1.346,0,0,1-.44.45,1.682,1.682,0,0,1-.573.224,3.053,3.053,0,0,1-.577.059h-1.684Zm.492,2.28h1.02a1.728,1.728,0,0,0,.619-.093,1.068,1.068,0,0,0,.372-.228.674.674,0,0,0,.179-.287,1.019,1.019,0,0,0,.045-.279,1,1,0,0,0-.093-.458.766.766,0,0,0-.25-.291,1.014,1.014,0,0,0-.365-.153,2.076,2.076,0,0,0-.44-.045h-1.087Zm0,2.548h1.125a1.927,1.927,0,0,0,.7-.1,1.056,1.056,0,0,0,.406-.26.824.824,0,0,0,.19-.332,1.209,1.209,0,0,0,.048-.317,1.044,1.044,0,0,0-.112-.5.992.992,0,0,0-.291-.339,1.191,1.191,0,0,0-.406-.19,1.8,1.8,0,0,0-.458-.06h-1.2Z" transform="translate(-664.772 -1423.958)"/>
      <path id="Path_868" data-name="Path 868" d="M674.334,1427.094l-1.937-3h.589l1.594,2.5,1.631-2.5h.551l-1.937,3v2.272h-.491Z" transform="translate(-668.248 -1423.958)"/>
      <path id="Path_869" data-name="Path 869" d="M686.32,1424.092h1.385c.07,0,.164,0,.283.007a2.969,2.969,0,0,1,.387.045,2.332,2.332,0,0,1,.424.119,1.194,1.194,0,0,1,.388.238,1.232,1.232,0,0,1,.283.395,1.364,1.364,0,0,1,.112.581,1.324,1.324,0,0,1-.131.626,1.216,1.216,0,0,1-.328.4,1.372,1.372,0,0,1-.436.227,2.818,2.818,0,0,1-.454.1l1.535,2.533h-.559l-1.482-2.5h-.916v2.5h-.491Zm.491,2.324h1.043a1.709,1.709,0,0,0,.629-.1,1.046,1.046,0,0,0,.377-.238.75.75,0,0,0,.182-.305.942.942,0,0,0,0-.6.758.758,0,0,0-.182-.305,1.05,1.05,0,0,0-.377-.239,1.725,1.725,0,0,0-.629-.1h-1.043Z" transform="translate(-674.594 -1423.958)"/>
      <path id="Path_870" data-name="Path 870" d="M694.355,1426.616a2.988,2.988,0,0,1,.2-1.11,2.637,2.637,0,0,1,.559-.875,2.532,2.532,0,0,1,.86-.577,3.035,3.035,0,0,1,2.213,0,2.532,2.532,0,0,1,.86.577,2.646,2.646,0,0,1,.559.875,2.988,2.988,0,0,1,.2,1.11,3.02,3.02,0,0,1-.2,1.114,2.643,2.643,0,0,1-.559.879,2.492,2.492,0,0,1-.86.574,3.089,3.089,0,0,1-2.213,0,2.492,2.492,0,0,1-.86-.574,2.634,2.634,0,0,1-.559-.879A3.02,3.02,0,0,1,694.355,1426.616Zm.492,0a2.635,2.635,0,0,0,.156.916,2.179,2.179,0,0,0,.447.738,2.069,2.069,0,0,0,.7.492,2.5,2.5,0,0,0,1.854,0,2.069,2.069,0,0,0,.7-.492,2.179,2.179,0,0,0,.447-.738,2.766,2.766,0,0,0,0-1.833,2.178,2.178,0,0,0-.447-.737,2.065,2.065,0,0,0-.7-.492,2.495,2.495,0,0,0-1.854,0,2.066,2.066,0,0,0-.7.492,2.178,2.178,0,0,0-.447.737A2.634,2.634,0,0,0,694.847,1426.616Z" transform="translate(-678.257 -1423.845)"/>
      <path id="Path_871" data-name="Path 871" d="M706.827,1424.092h1.631a3.508,3.508,0,0,1,1.162.168,2.587,2.587,0,0,1,.793.428,2.111,2.111,0,0,1,.5.577,2.821,2.821,0,0,1,.269.607,2.852,2.852,0,0,1,.108.525q.022.234.022.331t-.022.332a2.808,2.808,0,0,1-.377,1.133,2.118,2.118,0,0,1-.5.577,2.577,2.577,0,0,1-.793.428,3.515,3.515,0,0,1-1.162.167h-1.631Zm.491,4.827h1.013a3.512,3.512,0,0,0,.976-.131,2.233,2.233,0,0,0,.79-.4,1.884,1.884,0,0,0,.53-.682,2.575,2.575,0,0,0,0-1.959,1.884,1.884,0,0,0-.53-.682,2.237,2.237,0,0,0-.79-.4,3.512,3.512,0,0,0-.976-.131h-1.013Z" transform="translate(-683.942 -1423.958)"/>
      <path id="Path_872" data-name="Path 872" d="M717.012,1426.616a2.987,2.987,0,0,1,.2-1.11,2.647,2.647,0,0,1,.559-.875,2.532,2.532,0,0,1,.86-.577,3.034,3.034,0,0,1,2.213,0,2.53,2.53,0,0,1,.86.577,2.638,2.638,0,0,1,.559.875,2.988,2.988,0,0,1,.2,1.11,3.02,3.02,0,0,1-.2,1.114,2.635,2.635,0,0,1-.559.879,2.49,2.49,0,0,1-.86.574,3.088,3.088,0,0,1-2.213,0,2.491,2.491,0,0,1-.86-.574,2.644,2.644,0,0,1-.559-.879A3.019,3.019,0,0,1,717.012,1426.616Zm.491,0a2.624,2.624,0,0,0,.157.916,2.18,2.18,0,0,0,.447.738,2.07,2.07,0,0,0,.7.492,2.5,2.5,0,0,0,1.855,0,2.073,2.073,0,0,0,.7-.492,2.179,2.179,0,0,0,.447-.738,2.767,2.767,0,0,0,0-1.833,2.177,2.177,0,0,0-.447-.737,2.07,2.07,0,0,0-.7-.492,2.5,2.5,0,0,0-1.855,0,2.067,2.067,0,0,0-.7.492,2.178,2.178,0,0,0-.447.737A2.623,2.623,0,0,0,717.5,1426.616Z" transform="translate(-688.584 -1423.845)"/>
    </g>
  </g>
  <path id="Path_873" data-name="Path 873" d="M631.17,1388.74l0,0-2.206-2.9,2-.742a.144.144,0,0,0,.021-.233l-7.547-6.289-2.591-3.407a1.542,1.542,0,0,0-.883-.589,11.983,11.983,0,0,0-10.644,2.149,13.01,13.01,0,0,0-3.33,3.922,1.537,1.537,0,0,0-.113,1.083l1.049,4.26.076,9.672a.143.143,0,0,0,.193.133l1.93-.873,1,4.074a1.531,1.531,0,0,0,1.178,1.115c.049.01.1.017.149.023a20.386,20.386,0,0,0,3.142.142c.095,0,.225.008.25-.083a1.617,1.617,0,0,1,2.135-1.178,1.538,1.538,0,0,1,1.068.908.123.123,0,0,0,.132.046,17.193,17.193,0,0,0,8.678-3.906c.153-.133.221-.2.365-.329a.133.133,0,0,0,.04-.147,1.693,1.693,0,0,1,1.181-2.395,1.947,1.947,0,0,1,.98.116c.046.017.094-.018.123-.056a13.982,13.982,0,0,0,1.813-3.043A1.534,1.534,0,0,0,631.17,1388.74Zm-14.994,8.538a13.515,13.515,0,0,1,4.7-3.818,14.267,14.267,0,0,1,5.68-1.266,16.323,16.323,0,0,1-4.684,3.247A17.8,17.8,0,0,1,616.176,1397.278Zm-3.4-.267-4.549-15.044c2.929-6.732,10.753-5.231,11.417-5.027l8.4,12.722A21.4,21.4,0,0,0,612.776,1397.011Z" transform="translate(-605.824 -1372.841)"/>
  <g id="Group_181" data-name="Group 181" transform="translate(148.378 4.906)">
    <path id="Path_874" data-name="Path 874" d="M882.591,1384.848a2.409,2.409,0,1,1,.7-1.707A2.316,2.316,0,0,1,882.591,1384.848Zm-3.165-3.168a2,2,0,0,0-.6,1.464,2.025,2.025,0,0,0,.6,1.474,2.064,2.064,0,0,0,2.928,0,2.092,2.092,0,0,0,0-2.939,2.06,2.06,0,0,0-2.925,0Zm1.415.134a2.014,2.014,0,0,1,.72.1.655.655,0,0,1,.41.669.578.578,0,0,1-.257.521,1,1,0,0,1-.382.128.639.639,0,0,1,.453.259.724.724,0,0,1,.144.409v.193c0,.061,0,.127.006.2a.428.428,0,0,0,.023.137l.016.032h-.436l-.007-.025c0-.009,0-.018-.006-.03l-.01-.084v-.209a.646.646,0,0,0-.249-.6,1.119,1.119,0,0,0-.517-.085h-.367v1.038h-.465v-2.64Zm.5.416a1.211,1.211,0,0,0-.563-.1h-.4v.957h.421a1.268,1.268,0,0,0,.444-.059.475.475,0,0,0,.1-.8Z" transform="translate(-878.49 -1380.743)"/>
  </g>
</svg>
