<svg xmlns="http://www.w3.org/2000/svg" width="182.804" height="38.411" viewBox="0 0 182.804 38.411">
  <g id="Kc7JNC.tif" transform="translate(0 0)">
    <g id="Group_47" data-name="Group 47">
      <g id="Group_46" data-name="Group 46">
        <path id="Path_143" data-name="Path 143" d="M269.315,273.193c-1.356,0-2.432-.007-3.508,0a1.822,1.822,0,0,1-2-1.887c-.1-1.717-.009-3.443-.032-5.165-.02-1.532.265-3.054-1.257-4.313a2.8,2.8,0,0,1,.009-2.762c1.791-1.317,1-3.116,1.369-4.833h5.393l.281,3.83c2.383,0,4.771-.011,7.159.006.734,0,1.733-.325,1.638,1.032a1.343,1.343,0,0,0,.685.2c1.234-1.769,3-1.259,4.967-1.1v4.579c1.695-3.82,4.138-4.738,7.375-4.832,1.545-.045,2.8,1.673,4.685.244,1-.758,3.08-.134,4.781-.134v15.073c-1.936-.184-3.991.746-5.932-.675-.2-.148-.729.051-1.068.184a7.616,7.616,0,0,1-6.332-.176c-2.311-1.052-2.669-3-3.684-4.87-.969-1.791-.123-3.034.31-4.759-1.094,0-1.869-.036-2.641.007a3.279,3.279,0,0,0-3.169,3.2c-.041,1.722,0,3.444-.01,5.167a1.841,1.841,0,0,1-1.93,1.96c-1.178.089-2.369.02-3.678.02V263h-3.41Zm26-7.563c0-2.228-.512-2.757-2.7-2.787-1.852-.025-3.6,1.178-3.772,2.589-.181,1.526,1.7,3.013,3.772,2.984C294.8,268.386,295.313,267.857,295.313,265.63Z" transform="translate(-216.818 -245.952)" fill="#fff"/>
        <path id="Path_144" data-name="Path 144" d="M354.059,274.047c0-2.622-.051-4.993.023-7.36a4.64,4.64,0,0,0-.807-2.87c-.654-.988-1.6-1.353-2.378-.546a5.089,5.089,0,0,0-1.7,3.677c.041,2.248.011,4.5.011,6.922h-4.852c0-1.593-.092-3.167.024-4.727a12.569,12.569,0,0,0-.854-5.236c-.137-.383-.589-.986-.808-.951-.808.127-1.946-.729-2.4.606a10.856,10.856,0,0,0-.78,2.852c-.11,2.487-.037,4.981-.037,7.632-1.286,0-2.344.041-3.4-.009-1.631-.08-2.237-.709-2.254-2.44-.035-3.448-.041-6.9,0-10.346.021-1.719.624-2.362,2.369-2.289,1.087.045,2.494-.711,3.225.576.354.623.1,1.209,1.074.426a7.065,7.065,0,0,1,7.61-.061c.728.551,1.169.86,1.991.14,1.479-1.294,3.35-1.177,5.175-1.125,1.971.057,2.848.891,3.651,2.77a10.585,10.585,0,0,1,.772,4.463c-.028,1.857.03,3.715-.018,5.571-.044,1.705-.62,2.244-2.381,2.318C356.386,274.08,355.442,274.047,354.059,274.047Z" transform="translate(-230.285 -246.806)" fill="#fff"/>
        <path id="Path_145" data-name="Path 145" d="M235.259,244.036c0,2.789.153,5.4-.087,7.985a3.987,3.987,0,0,1-1.833,2.372c-5.158,3.347-10.4,6.569-15.6,9.859a50.229,50.229,0,0,0-5.008,3.4c-1.161.949-1.721.214-2.244-.491a5.849,5.849,0,0,1,1.522-8.379c5.02-3.344,10.159-6.515,15.218-9.8,2.228-1.45,4.372-3.022,6.576-4.509A6.479,6.479,0,0,1,235.259,244.036Z" transform="translate(-206.895 -244.036)" fill="#fff"/>
        <path id="Path_146" data-name="Path 146" d="M206.551,285.783c-.051-.584-.145-1.19-.151-1.8a40.96,40.96,0,0,1,.076-5.944,3.791,3.791,0,0,1,1.789-2.384c4.524-2.483,8.509-5.772,13.052-8.233a57.738,57.738,0,0,0,7.543-5.045c1.16-.889,1.795-.369,2.231.408.9,1.61,1.883,3.091.474,5.21-1.027,1.545-1.739,3-3.477,4.093-7.044,4.426-13.923,9.106-20.869,13.683C207.126,285.836,206.956,285.783,206.551,285.783Z" transform="translate(-206.328 -247.394)" fill="#fff"/>
        <path id="Path_147" data-name="Path 147" d="M383.559,258.845v15.134c-1.638-.246-3.427.866-5.114-.615-.182-.159-.874.35-1.341.383a38.8,38.8,0,0,1-5.918.252c-1.689-.141-4.566-3.818-4.446-5.56.138-2.013-.555-4.026.689-6.071,1.324-2.175,2.848-3.578,5.457-3.407,1.528.1,3.175-.593,4.591.59a1.106,1.106,0,0,0,1.05.028C380.071,258.271,381.807,259.235,383.559,258.845Zm-8.456,4.864c-2.191.018-2.735.56-2.746,2.739-.011,2.433.49,2.9,3.049,2.834,1.81-.045,3.54-1.531,3.42-2.937S376.946,263.694,375.1,263.709Z" transform="translate(-236.456 -246.818)" fill="#fff"/>
        <path id="Path_148" data-name="Path 148" d="M405.774,273.92c-6.633.573-5.656-.447-5.66-5.155a28.318,28.318,0,0,0-.054-3.959A2.557,2.557,0,0,0,398.87,263a2.7,2.7,0,0,0-2.116.5,3.068,3.068,0,0,0-1.544,2.937c.195,2.469.054,4.963.054,7.617-1.406,0-2.6.09-3.773-.025a1.854,1.854,0,0,1-1.892-1.991q.022-5.552,0-11.105a1.827,1.827,0,0,1,1.9-1.974,30.2,30.2,0,0,1,3.546.154c.277,1.543.809,1.439,1.727.353s2.254-.491,3.386-.5c1.247-.006,2.589-.5,3.7.793a6.691,6.691,0,0,1,1.943,4.787C405.7,267.584,405.774,270.626,405.774,273.92Z" transform="translate(-240.764 -246.812)" fill="#fff"/>
        <path id="Path_149" data-name="Path 149" d="M317.611,258.949c0,2.63.124,5-.045,7.351a3.265,3.265,0,0,0,1.623,3.295,2.647,2.647,0,0,0,2.116.322,2.53,2.53,0,0,0,1.105-1.845c.143-1.973.038-3.962.054-5.945.023-2.812.339-3.128,3.119-3.175.777-.013,1.556,0,2.538,0,0,3.6.068,7.015-.022,10.423a4.855,4.855,0,0,1-4.914,4.692c-1.878.062-3.762.075-5.638,0-2.706-.114-3.944-1.708-4.876-4.408-.975-2.825-.617-5.614-.7-8.424-.045-1.632.668-2.21,2.395-2.274C315.31,258.921,316.251,258.949,317.611,258.949Z" transform="translate(-226.178 -246.835)" fill="#fff"/>
        <path id="Path_150" data-name="Path 150" d="M417.374,273.925H412.6V258.917c1.312,0,2.624-.035,3.931.027.288.014.765.341.8.578.132.828.112,1.167,1.063.434a6.675,6.675,0,0,1,9.022,1.335,3.315,3.315,0,0,1,.443,1.791c.04,3.559.02,7.12.02,10.962-1.148,0-2.188.03-3.225-.007-1.735-.061-2.38-.636-2.423-2.269-.052-1.985,0-3.973-.017-5.958s-.54-2.787-1.783-2.912a3.235,3.235,0,0,0-3.045,2.917C417.326,268.451,417.374,271.09,417.374,273.925Z" transform="translate(-245.086 -246.803)" fill="#fff"/>
        <path id="Path_151" data-name="Path 151" d="M246.127,272.768a10.09,10.09,0,0,1,1.025-2.352c.58-.75,1.155-1.756,2.546-.631.66.534,2.025.27,3.069.261a.978.978,0,0,0,.676-.681,1.061,1.061,0,0,0-.517-.849c-.794-.344-1.646-.559-2.475-.824-2.293-.734-3.514-2.211-3.429-4.143.093-2.1,1.748-4.332,3.832-4.559a46.994,46.994,0,0,1,6.847,0c.227.009.655.78.6,1.133a6.877,6.877,0,0,1-.856,2.409c-.184.3-.947.413-1.407.345s-.845-.521-1.3-.707c-.44-.178-2.067.753-1.907,1.022.3.5.793,1.242,1.224,1.254a5.147,5.147,0,0,1,3.572,1.225,4.8,4.8,0,0,1-2.306,8.276C252.282,274.112,249.013,274.872,246.127,272.768Z" transform="translate(-213.806 -246.82)" fill="#fff"/>
      </g>
    </g>
  </g>
</svg>
