<svg xmlns="http://www.w3.org/2000/svg" width="1920" height="1611.868" viewBox="0 0 1920 1611.868">
  <g id="VuJnhd.tif" transform="translate(-308.133 -547.379)" opacity="0.059">
    <g id="Group_68" data-name="Group 68" transform="translate(308.133 547.379)">
      <path id="Path_401" data-name="Path 401" d="M2020.283,714.839c-5.553,2.594-11.13,5.152-16.654,7.789-33.453,15.956-67.305,27.745-107.615,18.453-12.36-2.849-27.583.024-40.665,2.924-61.9,13.719-124.765,21.519-188.584,25.036-10.628.585-21.592,4.766-31.187,9.155-25.822,11.816-53.069,16.1-82.333,18.045-54.1,3.595-108.545,9.671-153.316,38.959-23.7,15.5-41.454,35.055-47.523,61.482-2.2,9.563-11.3,19.164-20.141,26.18-9.423,7.477-21.8,12.723-33.686,17.556-78.425,31.89-131.022,84.364-158.892,151.831-22.592,54.681-61.333,92.126-126.079,110.034-52.469,14.514-105.174,28.617-158.464,40.782-40.317,9.2-73.21,26.3-102.989,50.718a522.637,522.637,0,0,1-80.614,53.986c-42.077,22.958-77.039,51.886-109.907,82.99-19.377,18.332-20.355,38.5-3.732,58.848,21.4,26.2,48.964,46.933,81.6,62.886,26.436,12.919,56.444,10.841,85.2,14.256,31.98,3.8,63.944,7.925,95.633,13.131,16.961,2.787,28.749,12.269,36.751,25.583a97.024,97.024,0,0,0,19.1,22.831c16.191,14.133,22.879,30.424,16.4,49.057a475.242,475.242,0,0,1-24.666,59.181c-7.864,15.5-26.356,21.083-50.325,17.545-50.919-7.52-95.01-28.027-136.754-52.351-37.956-22.114-78.64-39.1-123.228-49.167-13.29-3-27.03-4.661-40.633-6.58-14.5-2.049-23.959,3.127-26.8,15.282-2.764,11.805-4.672,23.755-6.784,35.665-4.029,22.724-13.846,42.307-35.376,58.139-22.314,16.409-25.429,40.489-28.417,63.7-2.735,21.287-4.323,42.677-6.7,64-.409,3.686-2.24,7.257-3.413,10.884l-4.231.04c-.853-2.935-2.751-5.958-2.4-8.787,3.838-31.039,6.183-62.338,12.938-92.942,3.122-14.152,11.612-29.919,23.694-39.7,23.707-19.2,32.894-41.918,36.242-67.885a145.254,145.254,0,0,1,5.471-26.327c4.946-15.234,13.945-20.692,32.644-19.556,60.6,3.676,112.993,25.315,163.97,51.449,35.661,18.281,72.351,36.081,110.952,49.148,51.516,17.438,64.979,10.517,84.829-33.136a157.356,157.356,0,0,0,8.589-24.348c5.084-18.925,2.78-36.2-15.852-50.214a46.794,46.794,0,0,1-13.807-16.178c-8.97-18.557-25.909-28.166-48.229-31.034-33.025-4.242-66.158-9.467-99.416-10.525-74.722-2.379-122.1-38.776-160.04-87.237-17.188-21.953-9.334-43.931,10.558-61.291,27.9-24.356,56.051-49.2,88.085-69.356,41.211-25.935,84.72-48.973,119.988-81.269,22.141-20.276,52.041-29.9,83.183-37.611,57.562-14.256,115.019-28.945,171.853-45.113,56.246-16,91.421-49.188,109.261-97.2,21.978-59.16,68.162-104.4,125.341-141.945,12.759-8.377,28.525-13.617,43.2-19.825,24.915-10.54,43.03-23.35,51.047-48.877,10.737-34.183,40.761-58.453,79.9-72.135,45.5-15.907,93.5-23.213,142.787-25.385,14.012-.615,29.066-2.774,41.423-7.958,27.461-11.515,55.313-17.615,86.206-20.442,54.2-4.959,107.67-15.413,161.567-22.95,13.456-1.882,28.116-4.054,40.943-1.522,36.22,7.147,67.024-2.924,97.189-17.282,7.848-3.737,15.3-8.07,22.927-12.13Z" transform="translate(-100.284 -283.304)" fill="#fff"/>
      <path id="Path_402" data-name="Path 402" d="M1357.506,547.379c38.885,89.82,34.041,165.485-53.322,231.233-45.349,34.127-100.292,51.484-160.068,58.166-61.007,6.819-122.7,10.369-183.034,20.047-60.62,9.73-119.135,4.465-178.535-4.3-20.582-3.037-42.288-2.685-63.253-1.345-22.224,1.423-28.7,9.155-31.4,27.619-2.454,16.8-4.585,33.815-9.657,50.12-7.3,23.462-24.557,33.563-53.539,34.43-6.905.21-13.823.091-20.729.263-14.932.371-26.739,4.975-37.927,14.168-36.833,30.271-75.316,59.122-112.46,89.133-27.743,22.415-45.583,50.41-58.253,80.579-2.7,6.417-.342,14.334-.313,21.559,8.666-.1,17.926,1.391,25.864-.685,12.05-3.152,23.2-8.752,34.7-13.365q94.228-37.771,188.421-75.606c23.956-9.66,47.506-20.034,71.51-29.608,63.145-25.184,124.139-23.895,178.96,14.922a382.01,382.01,0,0,1,64.228,57.052c40.071,45.027,39.416,97.018,26.3,148.832-3.978,15.727-18.457,29.68-28.7,44.157-11.36,16.044-23.819,31.552-34.77,47.781-2.384,3.536-2.646,11.19.1,13.3,3.732,2.875,11.81,3.992,17.124,2.867,76.783-16.27,130.044-54.985,150.242-120.021,14.264-45.939,37.661-86.265,80.052-117.771,15-11.142,31.357-21.819,49.13-29.294,25.94-10.906,44.691-26.875,59.163-47.207,10.366-14.562,20.6-29.2,30.561-43.956,13-19.261,32.74-30.988,57.15-38.454,38.559-11.8,78.745-15.36,119.129-15.679,62.483-.491,121.4-16.066,181.676-26.507,46.129-7.993,93.159-12.742,140.033-17.1a739.412,739.412,0,0,1,87.558-2.459c41.918,1.1,73.533-13.87,91.341-44.009,18.77-31.764,33.622-65.418,46.708-99.2,6.857-17.7,4.691-37.252-7.174-54.6-11.935-17.448-5-35.794-3.208-53.809,4.023-40.433,8.439-80.837,12.7-121.253h6.382c-4.493,43.067-8.58,86.168-13.68,129.184-2.08,17.551-2.17,33.9,6.784,50.888,6.142,11.652,8.954,26.451,6.666,39a262.266,262.266,0,0,1-59.994,125.527c-20.163,23.492-48.551,32.685-82.525,34.14-62.506,2.674-125.1,5.466-187.3,11.008-30.89,2.752-61.221,11.024-91.412,18-56.281,13.011-113.9,16.154-171.751,18.858-18.45.865-36.878,3.753-55.047,6.835-39.045,6.618-69.532,23-87.51,54.316-8.273,14.415-18.805,27.986-29.248,41.426-12.993,16.719-30.462,28.961-51.762,38.592-59.074,26.708-100.991,66.271-119.353,121.342-11.564,34.682-24.95,68.3-54.8,95.485-28.654,26.094-64.353,42.237-104.657,51-8.672,1.885-24.026.9-27.407-3.536-4.4-5.775-2.777-17.516,1.361-24.576a209.425,209.425,0,0,1,31.491-41.646c22.806-23.009,31.631-48.665,35.06-78.391,8.315-72.063-30.506-123.474-93.8-166.06-51.817-34.865-108.037-38.728-167.469-16.221-30.008,11.362-59.326,24.013-88.98,36.038q-93.284,37.831-186.638,75.526c-11.456,4.6-23.272,8.929-35.453,11.789-20.457,4.8-31.756-4.135-26.448-21.314,10.478-33.933,30.746-64.006,59.614-88.888,28.506-24.569,59.969-46.71,90.1-69.944,6.26-4.825,13.807-8.986,18.335-14.788,15.038-19.277,37.489-23,62.343-23.481,39.291-.771,51.83-9.714,59.058-42.05a256.082,256.082,0,0,0,4.752-31.844c2.563-27.162,15.808-39.187,48.411-38.935,26.957.209,54.651.687,80.653,5.88,55.914,11.166,110.511,5.689,165.935-1.579,56.584-7.421,113.808-11.319,170.495-18.254,91.079-11.142,165.363-44.763,209.125-116.217,23.327-38.086,22.061-78.35,12.168-118.982-3.924-16.111-8.644-32.086-13-48.122Z" transform="translate(-139.334 -547.379)" fill="#fff"/>
      <path id="Path_403" data-name="Path 403" d="M1909.655,547.379c-1.051,28.513-2.6,57.02-3.016,85.54-.441,30.3,7.1,59.57,20.863,87.428,19.492,39.442,20.553,77.942-4.135,116.141a105.4,105.4,0,0,0-10.395,21.006c-9.072,24.891-30.238,38.18-59.118,43.716-13.935,2.669-28.436,6.095-42.4,5.367-80.793-4.218-157.886,13.072-236.33,24.77-77.093,11.5-153.78,26.762-233.062,27.342-57.118.419-101.212,20.786-123.43,68.231-9.171,19.594-26.42,34.4-47.28,45.993-18.175,10.1-35.993,20.78-54.932,29.774-48.587,23.073-75.307,59.108-89.708,103.024-7.477,22.807-13.4,46.2-23.864,68.025-7.953,16.587-21.179,31.6-33.686,46.334-4.931,5.81-13.67,10.291-21.8,12.917-5.947,1.922-15.469,1.777-20.115-1.138-3.323-2.089-2.125-10.4-1.217-15.722.636-3.734,3.751-7.375,6.493-10.621,36.993-43.813,40.86-92.113,30.552-143.427-11.833-58.891-51.958-98.422-113.607-124.379-20.4-8.588-41.867-15.365-62.5-23.581-26.014-10.355-52.612-10.505-79.2-3.2-23.7,6.513-47.414,13.408-70.06,22.088-57.521,22.047-114.415,45.244-171.639,67.837-8.628,3.407-17.418,6.943-26.592,8.868-20.547,4.309-36.1-9.472-27.417-25.672,6.106-11.394,16.089-22.244,27.219-30.642,28.43-21.449,58.16-41.716,88.143-61.635,5.525-3.673,15.076-5.665,22.074-4.733,32.894,4.371,60.512-8.076,87.35-19.964,9.037-4,14.124-16.713,17.77-26.316,5.285-13.921,6.122-29.047,11.564-42.908,8.036-20.474,23.713-28.1,48.462-21.623,38.744,10.132,77.863,13.3,117.994,11.04a615.8,615.8,0,0,0,111.019-16.087c36.428-8.814,74.93-12.812,112.869-15.72,91.728-7.026,171.543-33.643,237.155-89.868,60.656-51.978,80.074-111.827,58.617-181.771-3.71-12.1-7-24.287-10.484-36.433h6.381c5.685,21.328,12.945,42.457,16.747,64.016,9.688,54.969-8.883,103.112-52.664,144.743-64.618,61.444-144.839,96.266-242.51,103-58.275,4.019-114.786,16.061-171.8,26.719-57.936,10.836-117.521,13.939-176.282-2.808-31.357-8.935-45.059-1.079-53.367,26.209-3.8,12.487-5.672,25.4-8.276,38.132-2.972,14.517-12.772,23.258-29.149,29.052-28.475,10.076-56.265,20.705-88.561,16.587-4.7-.6-11.053,2.7-15.293,5.584-24.327,16.568-48.654,33.171-72.14,50.56-12.251,9.072-24.215,18.955-33.43,30.142-4.036,4.9-3.908,15.685.01,20.6,2.969,3.727,15.661,4.524,22.742,2.833,12.088-2.889,23.112-8.854,34.683-13.349,61.237-23.785,122.631-47.287,183.721-71.33,52.178-20.533,103.727-24.2,155.55.9,21.135,10.24,43.9,18.206,64.5,29.1,55.895,29.565,81.173,74.452,89.814,128.108,7.752,48.138-1.671,92.26-34.715,132.664-4.179,5.112-3.9,12.8-5.678,19.3,8.19-1.871,17.888-2.005,24.3-5.931,22.732-13.923,35.7-33.836,43.512-56.214,8.522-24.413,16.6-48.936,25.362-73.287,14.054-39.063,39.805-70.623,82.7-91.573,19.275-9.413,37.255-20.667,56.22-30.55,23.384-12.186,40.521-28.768,51.229-49.905,21.691-42.82,61.349-64.714,115.349-66.183,61.911-1.686,122.4-10.769,182.954-20.045,61.6-9.437,122.755-21.226,184.654-28.821,38.064-4.669,77.186-3.012,115.774-5a266.141,266.141,0,0,0,43.873-5.976c23.381-5.211,40.416-16.729,48.1-37.211,4.291-11.432,10.845-22.3,16.894-33.227,15.092-27.243,18.8-56.067,5.365-83.363-30.891-62.781-33.645-127.445-25.116-193.474Z" transform="translate(-85.359 -547.379)" fill="#fff"/>
      <path id="Path_404" data-name="Path 404" d="M1999.756,730.443c-41.806,21.309-88.063,18.761-133.521,15.658-69.238-4.725-135.751,4.113-200.046,24.676-35.309,11.292-70.564,17.54-108.689,16.839-28.9-.529-58.2,3.27-86.852,7.442-43.193,6.293-76.99,26.537-92.9,60.66-16.37,35.1-44.378,57.9-82.17,76.2-51.945,25.154-88.526,62.609-116.218,107.542-21.681,35.171-47.922,68.43-73.476,101.816-17.556,22.936-43.164,38.121-74.652,45.333-51.759,11.851-103.541,23.672-155.569,34.666-62.8,13.268-114.965,40.4-158.423,80.624-17.431,16.136-38.706,29.31-56.559,45.158-24,21.3-48.126,42.8-68.929,66.255-18.176,20.5-11.7,37.745,17.447,44.313,43.426,9.789,87.948,16.522,132.37,22.662,23.285,3.219,44.678-5.316,65.033-14.817,24.6-11.488,49.168-23.165,74.591-33.259,28.123-11.166,57.467-16.372,87.622-4.349,26.023,10.377,36.827,27.283,32.043,51.2-1.578,7.9-4.512,15.612-6.5,23.47-5.177,20.431-8.024,41.491-15.779,61.194-9.759,24.794-22.883,48.71-35.667,72.586-10.414,19.451-24.19,37.711-33.466,57.5-30.462,64.975-107.427,87.621-179.151,51.64-51.568-25.873-102.858-52.142-154.633-77.72a228.021,228.021,0,0,0-41.8-16.216c-17.856-4.768-30.165,1.855-28.66,17.288,2.678,27.42-12.408,47.665-32.523,65.893-31.961,28.958-44.793,64.1-51.277,101.826-1.163,6.787-3.259,13.462-4.924,20.19l-4.122-.454c0-2.644-.5-5.366.08-7.92,3.742-16.665,7.938-33.262,11.564-49.945,5.471-25.17,22.547-44.986,41.317-64.016,18.5-18.756,33.929-37.485,33.335-64.36-.5-22.657,16.862-31.111,42.435-22.176,23.391,8.173,45.321,19.5,67.286,30.3,43.573,21.438,86.245,44.194,130.195,65.058,39.565,18.783,81.074,17.916,120.307-.21,13-6,24.122-17.744,31.456-29,21.617-33.182,40.476-67.622,61.263-101.2,13.721-22.168,21.579-45.258,23.864-70.234,1.118-12.251,7.043-24.174,10.58-36.29,2.9-9.95,6.759-19.857,7.989-29.973,3.327-27.353-16.051-46.034-48.932-48.651-22.31-1.778-43.557,1.487-63.378,10.06-24.557,10.624-48.983,21.495-73.067,32.857-30.97,14.613-63.049,19.892-98.179,12.586-28.851-6-58.432-9.545-87.264-15.6-50.44-10.594-59.834-30.77-29.986-66.213,14.006-16.63,30.759-31.839,47.871-46.358,25.407-21.554,53.411-40.989,78.218-63,50.644-44.933,113.172-69.751,184.188-82.241,32.213-5.665,63.681-14.321,95.9-19.951,56.511-9.872,96.5-37.163,124.3-78.718,19-28.408,39.857-56,57.547-84.963,25.036-40.991,61.4-72.452,107.088-97,8.062-4.331,15.731-9.276,24.173-12.989,24.132-10.615,40.636-26.024,50.286-47.875,24.87-56.322,77.655-80.052,145.487-84.507,23.793-1.563,47.839-.744,71.533-2.883,22.438-2.024,45.826-3.735,66.589-10.417,59.764-19.231,121.011-30.518,184.9-31.291,18.022-.22,36.262.215,54.076,2.309,40.4,4.749,78.234-1.133,114.38-16.361Z" transform="translate(-79.756 -247.983)" fill="#fff"/>
      <path id="Path_405" data-name="Path 405" d="M1977.831,747.417c-36.421,14.35-75.821,18.735-114.9,18.659-70.916-.134-140.906,5.963-211.141,12.879-36.731,3.616-74.325,1.2-111.53,1.259-40.975.067-80.544,6.164-117.339,21.374a79.207,79.207,0,0,0-28.174,20.3c-12.581,14.318-22.381,30.341-33.814,45.4a183.5,183.5,0,0,1-63.685,53.5c-38.706,19.757-64.791,49.819-90.1,80.3-29.171,35.123-57.725,70.607-87.306,105.483-9.2,10.852-20.857,20.235-31.4,30.287-28.241,26.937-63.113,45-104.458,53.7-53.514,11.274-107.408,21.312-160.727,33.173a152.676,152.676,0,0,0-44.237,17.467C721.5,1275.58,671.723,1316.982,627.9,1363.432a67.537,67.537,0,0,0-9.337,12.42c-5,8.656-3.084,17.2,8.177,19.669,35.31,7.735,70.715,16.8,106.74,19.857,16.217,1.372,35.178-8.6,50.852-16.348,53.092-26.247,109.351-41.459,171.38-38.229,11.909.62,24.1,3.528,35.22,7.319,15.581,5.313,25.027,16.3,23.985,30.475-4.355,59.2-6.7,118.955-37.55,173.969-9.423,16.8-24.707,31.27-34.363,48.007-11.561,20.029-21.764,40.89-29.382,62.191-18.172,50.813-63.119,70.2-120.6,78.675-54.581,8.046-98.691-11.81-142.136-33.812-33.2-16.815-64.755-35.912-97.464-53.435-22.553-12.082-28.286-9.9-41.295,9.153a231.837,231.837,0,0,1-29.267,34.7c-30,29.342-47.35,63.2-54.492,101.1a12.065,12.065,0,0,1-5.362,8.537c-.272-3.052-1.243-6.193-.709-9.144,7.525-41.706,27.3-78.421,61.643-109.688,9.542-8.685,16.792-19.4,23.656-29.852,12.8-19.5,23.438-22.931,46.065-11.005,30.159,15.891,59.051,33.484,89.315,49.223a568.243,568.243,0,0,0,64.493,29.124c57.166,21.181,111.6,12.154,161.848-15.59,12.382-6.836,21.633-19.631,28.369-31.3,11.324-19.626,18.5-40.919,29.276-60.8a386.667,386.667,0,0,1,31.839-49.156c26.167-34.51,35.948-73.118,42.145-112.7,3.253-20.775,4.716-41.751,7.982-62.523,4.17-26.539-8.4-41.706-39.975-46.882-41.7-6.833-81.7.6-120.336,12.3-23.8,7.209-46.8,17.223-68.356,28.424-21.71,11.281-44.458,15.848-68.491,12a727.629,727.629,0,0,1-81.554-17.986c-23.934-6.723-27.631-17.32-13.031-34.765,33.233-39.7,74.188-73.459,118.125-104.728,9.727-6.924,19.856-13.453,29.877-20.079,23.026-15.22,49.293-22.01,78.039-27.552,61.454-11.848,122.378-26.523,182.075-43.609,34.38-9.843,57.572-35.217,79.477-58.58,30.839-32.894,57.809-68.325,87.443-102.047,21.416-24.365,43.991-48.047,67.059-71.324a102.408,102.408,0,0,1,28.046-19.626c34.453-16.479,58.86-40.589,78.307-68.889,1.326-1.933,3.2-3.654,4.186-5.692,24.8-51.183,78.6-62.411,135.387-68.527a473.5,473.5,0,0,1,63.653-2.1c58.7,1.646,116.508-4.943,174.643-10.149,43.145-3.863,87.146-.945,130.313-4.72,35.021-3.063,69.366-11.587,104.011-17.69Z" transform="translate(-57.831 -219.39)" fill="#fff"/>
      <path id="Path_406" data-name="Path 406" d="M1513.361,547.379c-14.559,18.069-30.06,34.714-59.339,36.185-5.835.3-11.839,3.874-17.016,6.86-29.644,17.1-60.125,15.972-92.594,5.689-34.632-10.97-70.025-20.313-105.379-29.581-19.166-5.023-23.41-1.627-25.9,14.777-5.63,37.1-10.9,74.264-18.156,111.145-4.333,22-17.888,39.9-38.294,55.481-69.657,53.2-143.085,102.025-231.6,130.524-39.221,12.63-81.995,18.029-123.612,24.687-48.922,7.823-98.115,16-147.629,19.089-30.593,1.906-61.959-5.735-93.063-8.379-12.018-1.023-24.538-1.4-36.358.279-16.23,2.309-20.956,10.4-16.335,23.543,7.327,20.832,24.049,33.238,49.091,37.6,24.94,4.339,50.178,7.56,74.971,12.4,61.528,12.014,105.28,42.64,131.888,90.752,7.835,14.162,15.584,28.405,24.547,42.068,9.877,15.053,16.229,14.584,32.347,4.768,23.975-14.6,49.334-27.616,74.38-40.943,15.687-8.347,33.587-14.38,47.375-24.461,14.418-10.543,26.193-24.058,37.172-37.41,17.409-21.172,31.663-44.267,50.13-64.712,16.284-18.026,40.789-23.946,67.858-24.536,49.3-1.079,98.707-2.167,147.744-6.105,19.988-1.605,39.07-10.793,58.658-16.294,59.949-16.834,120.138-33.087,179.813-50.573,20.409-5.979,39.364-15.381,59.393-22.389,13.606-4.757,27.634-9.209,41.984-11.81,40.47-7.346,60.688-25.025,60.547-60.1-.1-24.34-3.9-48.9-8.909-72.943-10.12-48.544-3.285-97.061-2.493-145.6h6.381c-.856,24.974-3.889,50.058-2.071,74.89,2.86,39.08,9.817,77.934,13.318,117a151.064,151.064,0,0,1-3.442,46.412c-6.279,27.7-30.2,39.856-61.176,46.033-17.735,3.539-34.453,10.637-51.673,16.031-39.269,12.3-78.435,24.845-117.886,36.72-47.506,14.3-94.69,29.68-143.117,41.37-30.775,7.429-63.41,10.283-95.476,12.793-26.362,2.065-53.175,1.584-79.681.438-29.181-1.262-52.657,7.563-69.606,26.386-15.274,16.965-29.912,34.9-40.589,54.074-13.261,23.817-32.651,41.515-59.1,54.351-19.782,9.6-40.352,18.09-59.844,28.08a364.158,364.158,0,0,0-42.732,25.495c-21.4,14.987-32.731,14-46.388-6.683a371.025,371.025,0,0,1-20.93-36.113c-29.928-58.8-85.762-87.473-158.33-97.195-17.821-2.39-35.744-4.752-53.175-8.57-25.295-5.539-40.959-20.058-47.506-41.152-5.049-16.267,2.365-27.089,22.221-28.69,17.715-1.428,36.322-1.506,53.664,1.439,56.824,9.646,112.738,7.971,169.041-3.061,38.757-7.6,78.275-12.417,117.329-19.006,85.379-14.4,155.528-53.76,222.849-97.34,20.6-13.338,38.92-29.2,59.783-42.213,34.456-21.484,43.822-52.888,49.74-85.344,4.972-27.28,7.385-54.923,10-82.466,1.719-18.053,9.487-23.876,30.871-20.751a60.305,60.305,0,0,1,7.717,1.624c35.092,9.961,70.248,19.774,105.222,30.021,29.682,8.693,58.131,9.808,84.9-6.868,4.592-2.862,10.3-5.928,15.67-6.191,26.394-1.283,41.362-16.3,56.412-31.511Z" transform="translate(113.149 -547.379)" fill="#fff"/>
      <path id="Path_407" data-name="Path 407" d="M1959.136,760.4c-18.92,4.046-39.531,5.354-56.415,12.7-36.8,16.012-73.932,14.828-113.277,10.836-38.735-3.928-78.106-3.59-117.215-4.58-4.589-.115-9.3,3.225-13.958,4.962,2.614,4.062,4.231,9,8.014,12.031,16.166,12.946,32.593,25.149,56.374,28.362,17.632,2.382,22.215,10.871,17.635,25.664-10.251,33.122-31.766,40.857-69.1,26.993-22.793-8.463-34.97-22.434-39.885-41.966-2.3-9.163-3.79-18.469-5.934-27.664-4.467-19.137-10.944-25.777-33.961-24.585-38.553,1.995-77.138,5.695-115.24,11.026-24.509,3.429-43.263,17.5-57.166,34.3-27.637,33.391-62.234,60.228-100.078,85.414-28.046,18.667-51.069,42.729-75.709,64.875-3.8,3.41-7.3,10.7-5.419,13.915,1.946,3.31,10.657,5.367,16.367,5.308,28.417-.3,49.734,11.741,68.6,27.4,16.821,13.953,18.226,30.335,3.371,45.762-9.232,9.587-20.668,17.94-32.3,25.562-20.2,13.236-29.091,29.044-25.835,51.161,5.244,35.649-22.374,71.066-61.889,84.85a422.667,422.667,0,0,0-53.843,22.958c-38.217,19.639-59.617,49.513-66.088,86.131-15.827,89.586-65.637,166.812-121.423,242.177-11.417,15.424-20.435,32.25-28.922,49.014a398.307,398.307,0,0,0-20.112,47.988c-18.991,53.991-66.628,78.208-128.265,87.683-55.131,8.475-103.912-6.253-149.459-30.873-27.26-14.734-53.709-30.547-81.218-44.935-21.921-11.469-25.96-9.8-41.911,6.7-13.718,14.186-28.468,27.7-43.394,41.021-18.68,16.667-32.644,35.133-35.808,58.438-.329,2.416-1.71,4.733-3.106,8.441-4.41-13.765-1.371-30.7,11.158-44.683,16.894-18.85,35.923-36.349,53.974-54.472,5.79-5.812,12.063-11.391,16.942-17.717,8.912-11.558,20.5-14.229,34.025-7.3,24.483,12.53,48.6,25.586,72.5,38.887,33.392,18.576,67.114,36.685,107.846,41.255,56.006,6.282,107.743-2.784,148.335-37.523,13.913-11.91,22.713-28.757,30.989-44.415,9.672-18.3,14.8-38.3,24.512-56.585,9.673-18.2,22.934-35.034,34.009-52.74,23.2-37.082,46.273-74.221,68.865-111.566,22.521-37.225,37.591-76.133,44.033-118.034,8.807-57.3,53.213-91.275,114.4-112.058,52.543-17.846,71.929-44.844,66.673-92.542-1.47-13.349,3.949-24.738,15.348-33.829,12.322-9.826,25.761-18.678,37.77-28.751,22.39-18.786,20.339-36.459-4.272-53.309-18.051-12.355-38.425-17.857-61.378-19.545-21.751-1.6-27.136-10.825-12.194-24.249,32.178-28.91,66.679-56,100.314-83.758,18.479-15.252,41.662-28.013,54.84-45.98,37.089-50.563,91.51-69.187,158.509-69.6,15.415-.1,30.839-.8,46.234-.424,22.084.545,30.513,6.924,34.929,24.872,3.333,13.531,5.755,27.294,10.35,40.519,6.225,17.918,38.572,36.2,60.435,35.482,18.1-.6,39.352-27.022,32.338-41.179-1.69-3.418-7.34-7.2-11.65-7.668-26.2-2.808-44.126-16.887-61.57-31.267-5.119-4.223-11.079-12.275-9.385-16.528,1.741-4.374,12.379-8.814,19.1-8.787,37.035.14,74.482-.907,110.987,3.329,43.1,5,83.81,6.747,124.107-10.957,15.84-6.959,35.543-7.713,53.488-11.292Z" transform="translate(-39.137 -197.523)" fill="#fff"/>
      <path id="Path_408" data-name="Path 408" d="M2183.644,663.241c-19.575,26.026-39.233,52.007-58.694,78.1-17.316,23.215-43.678,31.713-74.61,31.879-18.026.094-36.166-2.712-54.077-1.783-39.652,2.054-79.394,4.409-118.716,8.962-37.217,4.312-74.246,10.524-110.821,17.8a975.108,975.108,0,0,1-194.295,18.412c-53.236-.188-90.916,21.385-116.1,59.449-9.011,13.62-15.67,28.325-23.7,42.414-9.3,16.315-23.6,28.752-43.454,35.839-55.827,19.932-93.306,54.764-118.138,100.443-13.028,23.962-27.618,47.328-40.511,71.338-25.669,47.8-68.44,78.689-128.076,93.393-28.04,6.916-55.725,15.376-84.273,20.187-64.219,10.822-118.25,36.647-164.673,74.516-49.456,40.347-104.542,74.361-162.676,105.257a583.356,583.356,0,0,0-58.94,36.546c-29.833,20.737-49.817,47.454-61.1,78.506a506.369,506.369,0,0,0-15.827,50.5c-8.493,34.188-26.979,64.075-54.993,89.358-24.908,22.48-38.278,47.408-41.416,78.651-6.161,61.321-35.6,115.288-84.794,161.082-17.69,16.469-33.677,33.361-40.087,55.425-.543,1.864-2.652,3.4-5.276,4.567,1.016-17.459,9.369-32.406,22.291-45.6,12.152-12.407,26.257-23.608,37.15-36.715,37.073-44.61,62.317-93.275,65.97-148.416,1.313-19.8,7.327-37.721,22.876-53.07,10.334-10.2,20.106-20.8,30.242-31.144,25.413-25.935,37.789-56.622,45.8-88.853,11.449-46.036,31.628-88.222,75.939-119.326,15.878-11.142,32.137-22.236,49.756-31.232,65.27-33.324,125.692-71.869,180.311-116.633,49.1-40.234,109.568-59.815,174.847-72.557,30.424-5.936,60.1-14.92,89.632-23.667,39.729-11.767,70.092-33.485,89.434-65.1,17.977-29.38,35.751-58.883,52.194-88.88,25.717-46.909,64.1-82.716,121.372-103.3,19.38-6.964,32.958-19.336,41.854-35.3,7.433-13.341,13.846-27.13,22.119-40.084,24.755-38.76,62.934-62.62,115.882-62.934a1126.451,1126.451,0,0,0,242.427-27.535c33.983-7.66,70.68-6.393,105.51-11.972s69.357-7.472,104.51-4.722c10.024.784,20.218-.121,30.289.389,31.66,1.605,55.808-9.276,72.907-31.168,18.071-23.138,35.421-46.673,53.124-70.014,2.834-3.737,5.867-7.373,8.81-11.053Z" transform="translate(-263.645 -365.723)" fill="#fff"/>
      <path id="Path_409" data-name="Path 409" d="M1347.055,547.379c-5.851,16.893-9.631,34.591-18.332,50.377-5.26,9.544-9.791,17.43-4.995,27.43,8.74,18.214,1.5,32.9-13.616,46.259-37.645,33.259-84.167,36.416-134.1,28.351-9.388-1.514-18.923-2.647-28.072-4.881-18.307-4.47-34.99-1.2-50.108,7.37-21.537,12.21-44.448,14.307-69.9,11.9-41.071-3.88-82.464-5.313-123.688-8.113-22.2-1.506-44.746-2.113-66.372-6.065-19.581-3.579-34.389.4-47.794,11.512-8.7,7.211-16.718,15.059-25.905,21.792-11.957,8.763-23.426,19.336-37.511,24.41-23.975,8.634-28.6,22.523-27.663,42.318,2.1,44.517,7.579,44.111-48.666,61.887-35.977,11.37-59.272,29.323-65.382,62.454-3.077,16.681-13.91,31.753-31.881,40.13-42.774,19.94-66.327,52.41-82.8,88.773-21.528,47.542-41.164,95.716-60.32,143.98-17.837,44.938-41.748,86.888-78.221,123.342-4.442,4.441-9.091,8.739-13.827,12.96-1.352,1.205-3.339,1.909-9.5,5.3,2.879-6.806,3.205-10.763,5.7-13.016,56.639-51.041,80.691-115.414,106.2-179.559,16.3-40.986,35.329-81.3,55.367-121.119,13.664-27.154,35.61-49.5,67.206-64.3,19.32-9.048,30.727-23.911,34.1-41.754,6.106-32.285,28.12-51.771,63.915-62.188,12.005-3.5,23.307-8.666,35.012-12.917,10.05-3.651,14.117-9.883,13.76-19.065-.559-14.278-.134-28.58-.454-42.865-.233-10.444,4.553-18.259,15.91-22.729,27.036-10.634,48.459-27.095,68.241-45.446,19.751-18.316,41.474-28.2,73.472-20.858,24.186,5.544,50.529,4.505,75.927,6.253,38.549,2.655,77.074,6.256,115.69,7.252,15.68.405,33.479-2.078,46.947-8.347,24.205-11.271,47.372-15.268,74.639-10.038,22.032,4.226,45.116,5.665,67.8,6.135,29.037.6,53.313-9.837,73.84-27.1,14.136-11.888,19.92-24.934,12.517-41.214-5.41-11.886-.9-21.5,6.4-32.553,9.328-14.125,13.612-30.6,20.074-46.068Z" transform="translate(-307.529 -547.379)" fill="#fff"/>
      <path id="Path_410" data-name="Path 410" d="M2039.675,698.5c-36.457,37.542-84.874,45.7-138.113,37-27.682-4.521-53.932-3.939-79.818,3.957-43.567,13.284-88.948,15.827-134.508,18.713-12.91.816-27.813,3.2-37.69,9.451-27.66,17.513-59.349,18.189-91.047,19.244-48.334,1.611-94.521,11.306-140.055,23.959-31.478,8.745-52.958,23.6-56.5,54.424-4.023,35.039-28.985,59.584-67.526,71.958-64.346,20.659-105.289,59.124-132.236,111.282-18.546,35.9-36.188,72.586-66.893,103.179-16.2,16.138-35.533,28.249-59.31,34.833q-99.817,27.63-199.877,54.643c-32.351,8.723-56.7,27.49-82.752,44.409-36.086,23.433-73.271,45.668-109.335,69.128-32.3,21.009-65.043,41.754-95.16,64.851-33.961,26.048-35.409,47.011-13.667,81.432a314.575,314.575,0,0,1,24.9,49.019c6.851,16.764.259,31.973-14.83,43.848a213.617,213.617,0,0,1-31.408,20.432c-20.333,10.852-30.6,26.448-29.909,45.974,1.428,40.522-12.967,74.393-47.321,104.267-13.983,12.159-20.611,32.166-25.228,49.6-6.3,23.787-7.381,48.538-10.9,72.854-1.15,7.976-2.911,15.889-6.522,23.47.815-44.581,2.131-89.13,23.477-130.76,5.122-9.99,13.184-19.559,22.294-27.339,24.506-20.936,36.326-45.59,36.629-74.715a178.155,178.155,0,0,1,2.924-29.3c2.723-15.25,11.2-27.638,27.263-36.108,8.973-4.733,17.335-10.3,25.873-15.6,22.71-14.114,28.791-32.784,18.971-54.491a302.874,302.874,0,0,0-22.393-39.877c-22.477-34.551-20.713-58.8,13.766-85.5,31.919-24.716,67.2-46.423,101.56-68.849,41.055-26.794,83.027-52.6,123.976-79.508a272.99,272.99,0,0,1,84.072-36.787c62.969-16.031,125.226-34.1,187.415-52.211,32.865-9.571,54.645-30.856,70.926-55.425,17.035-25.71,33-52.085,46.736-79.137,26.525-52.225,67.785-90.851,132.1-111.473,39.406-12.635,63.087-37.069,67.148-73.244,2.882-25.7,20.6-41.29,47.9-50.327,50.325-16.654,102.49-26.8,156.566-28.547,29.478-.953,56.418-5.133,83.787-16.753,23.164-9.834,51.811-13.349,78.275-14.17,31.5-.977,60.774-7.692,90.309-14.809,28.855-6.951,57.2-11,87.7-5.606,51.715,9.15,98.374.816,134.307-34.862.942-.934,2.722-1.275,4.113-1.893Z" transform="translate(-119.675 -301.807)" fill="#fff"/>
      <path id="Path_411" data-name="Path 411" d="M1522.669,852.3q-87.422,57.867-174.8,115.779c-13.9,9.241-29.046,14.458-47.043,13.561-9.535-.475-19.169.3-28.685-.3-30.417-1.93-55.236,7.448-75.045,26.276-13.766,13.086-29.161,20.681-51.162,20.149-10.146-.244-22.138,4.237-30.5,9.631-35.306,22.764-73.62,35.9-119.01,36.21-13.318.091-29.455,7.362-39.227,15.593-23.426,19.736-46.934,40.331-64.71,63.648-23.742,31.141-53.689,54.155-94.556,66.532-33.229,10.065-37.8,14.315-38.473,51.782-.268,14.648,1.927,29.4,4.113,43.99,2.5,16.673-6.905,28.021-20.815,38.264-17.159,12.637-34.923,24.891-50.449,38.863-47.481,42.728-59.352,94.926-50.571,150.7,5.86,37.217,13.44,74.012,4.346,111.473-.99,4.078-2.371,8.092-3.569,12.135l-4.381.041c-.783-2.954-2.889-6.165-2.157-8.825,11.468-41.617-.323-82.4-5.122-123.549-7.64-65.5,16.143-121.482,75.831-165.515,7.586-5.595,14.766-11.743,23.093-16.433,21.3-11.993,26.356-28.2,22.828-48.8-2.78-16.224-2.809-32.94-2.141-49.384.767-18.965,10.906-32.765,34.162-39.021,45.484-12.235,78.9-36.285,103.168-71.4,13.379-19.363,32.3-36.443,51.047-52.657,21.809-18.861,48.8-28.74,81.589-27.954,24.339.585,46.794-7.311,66.583-19.612,22.863-14.219,46.1-26.883,76.658-26.08,6.452.169,14.632-5.372,19.5-10.106q41.365-40.24,103.7-34.325c26.758,2.529,47.452-5.257,67.947-19.816,29.9-21.239,63.48-38.779,94.105-59.355,25.615-17.212,49.238-36.516,73.744-54.893Z" transform="translate(397.331 -56.236)" fill="#fff"/>
      <path id="Path_412" data-name="Path 412" d="M1484.835,547.379c2.723,12.675,7.119,25.285,7.832,38.038,1.636,29.329,3.2,58.794,1.636,88.086-2.224,41.668-28.938,71.727-69.91,93.675-44.889,24.048-94.31,36.21-146.977,40.508-66.522,5.429-133.2,10.028-199.4,17.51-48.842,5.523-96.131,5.351-143.024-8.487-22.314-6.586-45.359-8.691-68.989-3.775-23.355,4.859-38.428,16.568-44.953,35.85-4.359,12.874-8.11,25.895-11.928,38.892-6.34,21.586-20.5,36.757-47.132,42.761-35.447,7.99-61.413,25.61-81.931,51.714-13.149,16.726-31.532,31.756-51,43.553-60.125,36.433-92.07,86.335-106.3,145.921-6.372,26.689-13.616,53.234-19.981,79.924-11.938,50.061-35.565,96.18-66.18,139.964-27.519,39.359-70.4,62.242-119.7,78.087-1.224.395-2.914-.236-8.768-.84,9.487-4.365,15.386-7.952,21.965-9.971,57.655-17.682,93.354-53.763,120.142-98.344,29.816-49.62,45.464-102.589,58.038-156.674,6.4-27.524,15.683-54.646,25.183-81.572,15.207-43.115,50.948-73.491,91.734-100.3,23.608-15.518,44.7-32.736,60.483-54.507,15.124-20.874,38.652-33.356,66.11-39.354,31.111-6.793,47.925-22.99,53.424-48.922,1.767-8.328,4.959-16.436,7.18-24.708,10.312-38.4,44.33-51.8,90.466-49.22a107.415,107.415,0,0,1,26.474,4.58c56.8,18.308,114.435,13.934,172.933,7.23,58.828-6.741,118.115-10.761,177.273-15.338,60.758-4.7,116.032-20.614,164.018-53.087,37.246-25.207,46.11-60.4,46.263-97.251.128-30.66-4.765-61.331-7.4-92-.342-3.976-.518-7.963-.773-11.947Z" transform="translate(-308.133 -547.379)" fill="#fff"/>
      <path id="Path_413" data-name="Path 413" d="M1431.559,547.379c3.534,13.494,8.273,26.861,10.286,40.511,2.377,16.1,5.049,32.72,2.761,48.622a210.441,210.441,0,0,1-16.955,57.006c-5.467,11.95-15.715,23.54-27.158,32.164-44.509,33.538-99.16,47.591-157.317,52.472-36.412,3.055-73.169,3.152-109.628,5.9-18.917,1.426-37.4,6.707-56.31,8.508-26.193,2.5-52.693,5.109-78.9,4.245-15.172-.5-30.9-6.28-44.841-12.227-26.621-11.351-53.475-14.358-81.637-6.288-21.109,6.049-42.653,11.652-62.458,20.031-10.005,4.231-19.511,13.088-24.109,21.771-9.666,18.254-17.012,37.526-23.323,56.837-6.96,21.29-21.786,34.239-47.768,37.754-23.608,3.195-38.847,13.182-50.817,31.793-22.528,35.031-57.789,61.68-95.406,85.282-18.016,11.3-32.453,24.12-42.755,40.608-33.28,53.261-62.806,108.372-70.894,168.3-6.592,48.839-29.392,89.766-63.385,127.807-20.793,23.266-48.794,38.546-79.435,50.67l-2.361-2.693c7.177-3.957,14.2-8.119,21.55-11.837,63.314-32.065,101.206-81.253,112.211-140.074,10.561-56.453,30.034-109.311,56.875-160.945,7.845-15.091,18.243-29.232,27.1-43.966,12.922-21.479,38.955-31.125,58.805-46.318,31.568-24.16,60.777-49.5,81.461-81.642,5.656-8.793,20.562-17.073,32.51-18.632,37.367-4.878,54.5-23.022,61.716-52.523,3.9-15.972,10.615-32.21,20.428-46.157,6.953-9.88,19.8-19.059,32.514-23.411,30.213-10.347,59.9-24.571,94.316-21.72,13.482,1.117,28.347,2.556,39.633,8.092,36.428,17.875,75.367,20.968,114.077,12.068,53.127-12.213,107.341-10.635,161.123-14.7,58.994-4.465,115.508-15.177,163.906-46.224,20.045-12.863,35.073-28.027,38.617-50.235,1.888-11.84,7.477-23.237,10.979-34.924,5.557-18.533,5.6-36.833-1.294-55.425-4.876-13.137-7.1-26.969-10.5-40.492Z" transform="translate(-305.9 -547.379)" fill="#fff"/>
      <path id="Path_414" data-name="Path 414" d="M1384.331,547.379c1.393,36.121,2.675,72.248,4.215,108.364,1.176,27.546-13.312,48.477-39.595,63.418-30.024,17.07-63.256,27.173-100.052,27.353-14.35.07-28.711.255-43.046-.132-35.172-.942-69.031,1.52-103.311,11.166-45.334,12.753-92.84,12.208-137.055-5.243-65.4-25.814-123.037-9.722-178.8,20.147-20.71,11.094-32.692,27.7-38.163,47.682a89.941,89.941,0,0,0-2.544,10.49c-5.516,37.515-27.1,60.875-75.291,62.582-19.08.677-32.376,9.587-39.761,24.88-15.843,32.822-46.711,55.009-79,75.55-37.239,23.688-59.607,55.186-73.565,91.729-18.5,48.437-37.7,96.7-55.2,145.384-19.879,55.3-66.762,95.67-106.7,139.95-1.1,1.222-3.288,1.75-7.6.972,2.71-3.313,5.388-6.648,8.136-9.939,31.239-37.442,73.265-68.8,90.983-113.87,17.821-45.328,37.805-90.147,52.942-136.1,18.38-55.787,49.861-102.726,107.267-136.624,25.49-15.054,44.886-35.423,57.291-59.882,8.525-16.812,23.991-25.538,45.094-28.01,6.835-.8,13.609-1.973,20.448-2.744,21.234-2.389,35.054-12.186,40.818-29.436,4.017-12.02,7.327-24.214,10.58-36.4,4.953-18.552,15.383-34.615,33.546-45.84,40.755-25.181,85.538-42.382,137.461-38.009,19.15,1.614,38.1,7.775,56.342,13.612,47.89,15.319,96.227,14.9,143.545,1.028,28.088-8.234,55.651-10.277,84.512-8.154,40.7,2.993,80.685,1.353,118.767-12.965,51.693-19.433,69.12-42.75,66.609-90.053-1.611-30.309-3.493-60.6-5.253-90.907Z" transform="translate(-306.524 -547.379)" fill="#fff"/>
      <path id="Path_415" data-name="Path 415" d="M1544.839,831.96c-27.743,40.669-71.552,65.92-117.959,89.605-21.342,10.895-39.671,26.373-57.847,41.1-13.293,10.771-28.084,17.583-45.931,19.575-13.66,1.525-27.544,2.859-41.269,2.537-38.613-.91-73.21,9.013-105.65,25.6-9.986,5.106-20.2,9.958-29.746,15.6-31.561,18.676-65.455,31.085-105,30.754-42.672-.357-76.361,17.15-106.28,40.371-21.451,16.651-41.982,34.2-62.036,52.047-22.048,19.623-47.538,34.631-78.419,41.853-30.232,7.072-43.09,23.538-44.094,48.917q-1.318,33.4-5.03,66.717c-1.824,16.122-11.146,29.444-25.547,40.473-52.29,40.044-77.869,91.815-82.912,149.317-4.352,49.642-.8,99.778-.524,149.7.093,16.292-5.554,30.99-13.36,45.233l-3.873-.877c3.071-9.6,8.487-19.146,8.762-28.8.78-27.1.514-54.292-1.281-81.355-4.266-64.309,2.512-126.867,40.163-184.448,9.883-15.113,20.77-31.369,36.185-41.985,32.494-22.38,39.677-51.2,40.141-83.459.2-14.243.674-28.564,2.687-42.683,2.623-18.423,15.239-31.986,36-37.611,42.985-11.646,75.54-34.344,106.072-61.562,24.931-22.225,53.932-41.539,82.995-60.078,20.186-12.876,45.193-17.545,70.82-17.352,31.251.234,59.652-6.921,85.653-21.521,14.571-8.183,29.82-15.51,44.621-23.411,35.054-18.71,73.229-27.782,114.805-27.484,12.676.091,26.158.448,37.846-2.865a152.077,152.077,0,0,0,39.352-18.109c18.048-11.462,33.888-25.369,51.833-36.959,13.843-8.941,29.318-16.147,44.359-23.718,27.874-14.028,50.44-32.5,68.11-55.39,4.832-6.258,10.864-11.867,16.345-17.773Z" transform="translate(375.16 -81.466)" fill="#fff"/>
      <path id="Path_416" data-name="Path 416" d="M1570.787,816.669c-36.46,53.817-101.889,80.9-155.518,118.856-7.3,5.168-16.754,8.648-22.643,14.681-23.579,24.158-55.131,34.432-90.482,37.48-48.267,4.161-91.508,19.188-131.863,40.828-27.033,14.5-56.115,21.806-88.2,24.4-59.614,4.827-111.3,25.667-153.595,61.562-43.084,36.569-89.469,68.594-149.479,83.838-15.613,3.968-27.973,13.013-31.967,26.083-5.071,16.595-10.168,34.145-8.9,50.944,2.343,30.958-4.173,59.208-27.257,83.116-61.755,63.96-82.608,138.511-83.372,218.671-.409,42.793,3.384,85.825-9.848,127.907-1.671,5.308-4.2,10.422-6.324,15.628q-1.893-.435-3.79-.872c2.885-11.929,7.5-23.774,8.34-35.8,2.9-41.386,5.519-82.826,6.292-124.271,1.038-55.505,15.6-108,46.151-157.087,9.046-14.535,20.678-28.1,32.571-41.177,21.125-23.24,32.315-48.353,30.829-78.211-.895-18,1.671-36.546,6.273-54.187,4.668-17.916,19.482-31.047,40.822-36.46,56.323-14.286,101.068-43.421,140.79-78.133,41.5-36.269,91.67-60.126,149.8-65.367,45.314-4.086,83.717-17.177,121.17-36.583,33.549-17.381,70.731-26.378,109.766-30.107,34.328-3.281,62.263-15.086,88.51-35.3,37.856-29.165,80.045-54.5,121.567-80.114,22.985-14.181,40.368-31.366,53.159-52.388,1.888-3.1,4.777-5.781,7.2-8.653Z" transform="translate(349.212 -111.742)" fill="#fff"/>
      <path id="Path_417" data-name="Path 417" d="M1304.619,547.379a187.007,187.007,0,0,0-21.955,84.407c-.473,18.968-13.082,29.09-35.744,28.507-29.673-.765-59.272-4.7-88.916-4.79-19.863-.062-40.732,1.7-59.435,6.959-65.366,18.385-130.952,14.028-196.921,4.819-20.428-2.848-40.946-5.592-61.026-9.732-25.535-5.265-47.442.255-66.938,13.7-12.3,8.479-23.112,18.469-35.322,27.044-16.226,11.394-32.223,23.336-50.024,32.768-26.765,14.178-41.3,33.3-39.937,59.772.892,17.3-8.139,27.868-26.333,34.258-6.857,2.408-13.315,5.614-20.163,8.038-25.218,8.927-37.879,23.841-37.3,47.76.617,25.688-16.3,44.659-39.435,59.892a375.789,375.789,0,0,1-35.009,21.017c-28.784,14.753-46.979,35.96-55.585,62.934-12.929,40.522-24.9,81.258-37.818,121.78-6.324,19.83-11.487,40.3-21.537,58.805-10.893,20.066-26.743,38.25-40.662,57.138-7.024,9.531-14.555,18.8-21.857,28.193l-3.851-1.9c2.214-3.713,4.023-7.649,6.72-11.1,12.248-15.679,25.41-30.886,36.926-46.93,7.861-10.946,15.734-22.474,19.825-34.642,17.613-52.394,34.2-105.037,50.43-157.75,10.922-35.461,29.8-65.616,69.568-84.343,12.408-5.845,23.419-13.915,34.555-21.5,19.6-13.351,31.072-30.494,30.849-52.09-.252-24.684,12.785-41.738,39.735-51.411,3.419-1.227,6.6-2.977,10.1-3.982,22.866-6.575,35.568-17.7,34.827-40.245-.805-24.381,15.015-42.366,39.2-56.413,22.56-13.1,45.033-27.143,63.918-43.69,32.4-28.386,67.519-39.458,114.671-29.5,38.895,8.218,79.646,10.481,119.694,14.56,37.083,3.778,73.543-1.493,108.4-11.26,40.777-11.427,81.455-10.044,122.845-5.579,12.082,1.3,24.368,1.393,36.572,1.729,15.622.43,25.078-5.928,27.995-18.9.885-3.941,2.445-7.958,2.179-11.867-1.825-27.149,8.442-51.94,20.383-76.452Z" transform="translate(-306.563 -547.379)" fill="#fff"/>
      <path id="Path_418" data-name="Path 418" d="M1499.809,861.91c-62.151,31.71-114.393,73.757-168.491,113.878-17.837,13.231-39.483,18.759-62.71,20.791-27.736,2.43-52.348,9.853-71.948,27.927-13.9,12.817-33.076,17.626-53.482,17.47-21.8-.167-40.742,5.536-60.547,13.413-28.072,11.168-58.262,19.244-88.414,25.868-28.839,6.333-51.127,18.874-68.724,38.43-15.373,17.089-30.443,34.389-46.452,51.054-15.661,16.3-35.511,28.005-59.362,34.787a191.39,191.39,0,0,0-21.946,7.912c-23.6,9.955-29.541,17.049-23.975,38.248,13.354,50.818-12.791,88.435-54.217,121.49-12.318,9.826-25.119,19.26-38.166,28.4-32.037,22.464-41.173,52.295-37.949,85.4,1.988,20.4,8.081,40.524,10.034,60.926,2.719,28.394,3.326,56.934,4.684,85.417.089,1.893-1.1,3.828-5.154,5.761-.515-4.022-2.039-8.162-1.383-12.044,5.851-34.7-4.128-68.317-8.49-102.4a361.89,361.89,0,0,1-2.042-77.08c1.7-19.524,16.635-35.02,34.05-48.488,22.617-17.489,45.608-34.91,65.746-54.33,26.519-25.573,36.1-55.72,27.088-89.852-6.749-25.575-.042-35.144,28.248-46.871,4.761-1.973,9.5-4.183,14.539-5.453,36.006-9.069,61.157-29.4,82.11-54.547,11.564-13.881,22.342-28.856,36.981-40.119,15.242-11.73,33.354-22.893,52.6-28.443,39.578-11.405,80.506-18.718,117.521-36.83,13.12-6.419,31.849-5.383,48.136-6.43,20.156-1.292,37.041-7.448,50.491-20.018a82.108,82.108,0,0,1,52.872-22.5c46.5-1.933,79.956-22.5,111.952-48.026,27.289-21.771,56.725-41.7,85.982-61.654,15.98-10.9,33.558-20.144,50.417-30.137Z" transform="translate(420.191 -31.006)" fill="#fff"/>
      <path id="Path_419" data-name="Path 419" d="M1463.857,876.2c-34.824,19.6-73.463,35.794-103.525,59.629-39.179,31.071-83.931,50.571-132.981,66.357-19.457,6.264-36.127,18.38-54.984,26.292-22.151,9.292-44.819,18.037-68.11,25.028-52.9,15.872-106.478,30.163-159.381,46.033-8.893,2.669-17.013,9.155-23.327,15.416a217.117,217.117,0,0,0-25.557,30.674c-18.722,27.084-41.831,50.517-73.923,67.1-17.78,9.187-28.136,22.166-31.427,39.8-8.177,43.811-34.686,79.371-73.613,108.27-43.892,32.585-59.157,72.852-54.453,121.188,4.135,42.487,4.023,85.264,2.633,128.554-.911-2.811-2.5-5.6-2.633-8.434-2.313-49.467-5.339-98.929-6.3-148.421-.617-31.611,13.331-59.318,39.882-82.152,12.989-11.174,26.934-21.666,38.9-33.565,25.049-24.912,43.624-52.676,49.05-85.731,3.061-18.646,13.545-33.453,33.281-43.432,29.829-15.081,52.264-36.18,69.539-61.434,5.285-7.727,11.89-14.809,17.434-22.423,14.268-19.6,34.645-31.517,60.86-38.331,53.671-13.945,106.992-28.872,160.161-44.122,13.9-3.989,26.94-10.309,39.987-16.165,25.6-11.488,49.874-25.575,76.594-34.642,41.429-14.06,77.665-32.679,111.482-57.889,32.993-24.6,73.309-42.256,110.411-62.964Z" transform="translate(456.142 -2.412)" fill="#fff"/>
      <path id="Path_420" data-name="Path 420" d="M1431.394,895.169c-57.5,32.051-114.668,64.531-172.626,95.984-32.565,17.674-65.276,35.662-100.058,49.8-32.239,13.112-67,22.147-101.25,31.388-28.276,7.627-57.524,12.672-86.181,19.349-27.49,6.406-46.9,20.187-54.638,44.17-8.666,26.827-30.283,46.348-55.37,62.29-45.717,29.055-77.048,66.411-103.1,108.825-15.118,24.612-38.185,45.937-58.978,67.872-13.913,14.68-21.467,29.919-20.479,49.073.891,17.3-3.375,34.795-2.24,52.058,1.984,30.2,6.349,60.29,9.759,90.421.46,4.065,1.173,8.111,1.767,12.165l-5.592.76c-3.624-18.517-9.615-36.964-10.366-55.562-1.508-37.364-1.355-74.86.745-112.2.629-11.169,7.075-24.142,15.875-32.6,37.731-36.271,65.084-77.87,94.869-118.579,18.927-25.865,48.9-46.5,76.125-67.456,23.231-17.878,43.234-36.492,52.6-62.392,8-22.144,26.5-36.3,52.708-42.881,19.837-4.986,39.789-9.832,60.007-13.521,62.308-11.373,120.624-29.791,174.783-59.106,63.816-34.54,131.76-63.643,190.924-104.32,12.193-8.385,27.075-14,40.719-20.9Z" transform="translate(488.606 29.547)" fill="#fff"/>
      <path id="Path_421" data-name="Path 421" d="M495.57,547.379c-5.11,40.291-23.55,76.527-47.392,111.22-12.727,18.522-25.346,37.144-36.715,56.265-7.254,12.194-2.445,17.422,13.376,13.714a97.392,97.392,0,0,0,33.038-14.973c29.2-20.684,57.566-42.221,85.673-63.96,25.02-19.352,53.261-30.66,87.951-27.855,42.681,3.453,85.276,7.947,128.041,10.31,28.334,1.565,57.345,2.843,85.266-.454,52.169-6.161,104.2-11.142,156.883-8.967,13.631.561,18.875-3.813,23.112-14.686,8.043-20.654,19.182-40.457,29.037-60.615h6.381q-7.41,15.444-14.821,30.888c-5.154,10.734-12.341,21.132-14.955,32.287-3.227,13.765-10.839,18.791-27.094,17.994-59.723-2.929-118.87,2.314-177.448,11.424-34.782,5.41-67.318-4.615-100.937-6.937-40.119-2.771-80.534-4.994-120.669-3.8-15.386.454-32.389,8.83-45.091,17.352-29.836,20.015-57.029,42.788-86.3,63.439a212.762,212.762,0,0,1-43.733,23.693c-6.611,2.626-18.195.553-24.854-2.953-2.953-1.557-1.438-12.86,1.729-18.195,12.079-20.34,25.238-40.25,38.77-59.946C467.37,619.8,483.8,585.259,489.189,547.379Z" transform="translate(-100.446 -547.379)" fill="#fff"/>
      <path id="Path_422" data-name="Path 422" d="M456.647,547.379c-3.077,16.267-6.356,32.51-9.152,48.81-1.678,9.781,4.253,15.408,14.232,9.1,40.591-25.642,84.407-13.47,127.545-9.187C625.1,599.66,660.7,605.4,696.627,607.438c26.845,1.525,54.05-1.109,81.074-2.236,34.977-1.461,69.913-3.737,104.9-4.787,32.667-.977,42.732-6.344,54.936-32.078,3.333-7.029,6.918-13.974,10.388-20.958h6.381c-7.9,15.835-14.1,32.521-24.471,47.11-4.515,6.349-17.38,11.4-26.842,11.9-68.35,3.659-136.831,8.559-205.2,7.888-47.982-.47-95.888-8.844-143.749-14.184-29.36-3.276-57.76-5.576-84.1,10.6-6.359,3.9-19.646,4.623-26.464,1.592-4.806-2.137-6.161-13.258-5.368-20.064,1.754-15.051,5.835-29.909,8.966-44.847Z" transform="translate(-23.242 -547.379)" fill="#fff"/>
      <path id="Path_423" data-name="Path 423" d="M615.642,547.379c-11.187,33.823-17.814,72.675-50.178,94.714C509.858,679.965,481.8,729.126,463.31,783.687c-15.162,44.758-44.992,81.137-79.927,115.833-12.58,12.495-22.486,26.987-32.708,41.032-10.066,13.829-21.834,25.86-38.4,34.038l-3.47-2.115c2.163-2.87,4.122-5.869,6.522-8.591,10.986-12.447,22.084-24.821,33.159-37.209,17.524-19.6,34.44-39.612,52.766-58.668,20.272-21.081,35.722-43.859,46.008-69.743,12.251-30.832,26.145-61.3,41.438-91.154,11.647-22.737,29.58-42.251,53.958-56.987,21.048-12.723,34.1-29.812,42.026-50.6,6.771-17.763,16.278-34.79,24.576-52.141Z" transform="translate(-306.651 -547.379)" fill="#fff"/>
      <path id="Path_424" data-name="Path 424" d="M674.85,547.379c-.646,3.509-.447,7.324-2.061,10.484C646.82,608.719,634.185,665.027,589,708.05c-26.554,25.283-37.914,55.178-44.33,87.291-5.183,25.948-10.682,51.854-16,77.784-4.093,19.951-12.005,39.474-32.488,50.563-54.536,29.522-89.443,74.189-130.856,114.007-14.945,14.369-34.424,25.409-51.833,37.966l-4.042-3.579c1.221-1.463,2.058-3.455,3.723-4.314,34.68-17.913,60.441-43.335,84-70.54,19.457-22.469,39.623-44.2,68.363-59.135,37.958-19.728,57.476-48.71,61.649-85.919,1.991-17.72,6.621-35.23,9.983-52.845,6.816-35.721,19.5-68.784,48.73-97.179,22.473-21.833,40.3-46.471,47.989-76.044,4.451-17.1,16.763-32.685,24.515-49.288,4.416-9.464,6.784-19.6,10.072-29.439Z" transform="translate(-305.248 -547.379)" fill="#fff"/>
      <path id="Path_425" data-name="Path 425" d="M640.43,547.379c-3.943,13.265-7.554,26.612-12.008,39.756-1.566,4.623-6.215,8.522-7.73,13.15-11.932,36.478-38.24,64.988-69.989,90.622-15.984,12.906-23.247,29.458-27.74,47.253-6.72,26.609-14.82,52.995-20.671,79.733-10.8,49.355-35.683,92.193-79.17,126.993-29.2,23.371-58.275,46.861-87.842,69.9-6.8,5.3-15.4,8.97-23.164,13.392l-2.975-2.891c3.956-2.69,8.212-5.125,11.823-8.108,43.812-36.212,89.312-71.136,130.718-109.2,34.277-31.511,39.358-74.251,50.376-114.139,4.077-14.766,8.784-29.535,10.909-44.533,5.026-35.525,28.695-61.933,57.984-85.3,15.913-12.694,26.327-27.071,33.261-44.476,9.727-24.407,21.9-48.13,33.028-72.146Z" transform="translate(-305.92 -547.379)" fill="#fff"/>
      <path id="Path_426" data-name="Path 426" d="M579.685,547.379c-11.181,10.911-20.639,23.7-33.932,32.3-21.381,13.835-47.462,21.035-74.38,21.076-23.959.038-37.527,8.038-40.508,34.161-1.719,15.046-1.045,30.33-.639,45.491.856,31.82-6.969,61.844-22.953,90.751-26.621,48.154-52.181,96.722-78.547,144.976A68.888,68.888,0,0,1,309.2,938.425c.31-1.536.233-3.219.978-4.583,33.063-60.37,67.775-120.158,98.432-181.379,10.152-20.268,11.059-44.109,14.044-66.516,2.582-19.417.268-39.335,3.493-58.633,3.729-22.311,17.815-30.191,44.739-32.22,42.253-3.187,80-14.068,102.417-47.714Z" transform="translate(-305.786 -547.379)" fill="#fff"/>
      <path id="Path_427" data-name="Path 427" d="M1076.064,913.139c-16.239,6.191-33.686,10.809-48.49,18.864-47.146,25.648-93.5,52.348-139.746,79.14a314.449,314.449,0,0,0-40.774,27.586c-11.625,9.459-9.928,14.713,3.847,21.857,12.178,6.315,24.416,12.551,36.808,18.563,18.447,8.943,39.451,11.867,58.438,5.872,43.943-13.872,86.685-30.432,129.916-45.9v8.041q-49.556,18.09-99.116,36.164c-38.326,13.9-75.162,13.319-110.012-7.92-6.845-4.175-14.469-7.442-21.652-11.233-14.29-7.536-16.357-15.3-5.5-26.206a112.848,112.848,0,0,1,23.132-18.192c57.642-33.318,115.355-66.564,173.758-98.919,11.535-6.39,26.177-8.817,39.387-13.07Z" transform="translate(843.935 59.823)" fill="#fff"/>
      <path id="Path_428" data-name="Path 428" d="M1025.113,767.384c-17.757,4.1-35.466,8.358-53.284,12.275-27.576,6.06-55.012,12.772-82.909,17.551-24.816,4.253-30.6,9.295-23.276,29.882,11.97,33.659,25.036,67.05,38.192,100.4,5.3,13.437,15.958,17.36,31.149,11.145a98.332,98.332,0,0,0,25.822-15.2c25.627-21.64,47.816-45.322,57.367-75.722,1.457-4.629,4.582-8.886,6.937-13.317v16.082q-18.688,43.578-58.582,75.547c-2.694,2.156-5.3,4.392-8.081,6.465-32.139,23.916-53.031,18.7-65.27-15.408-10.567-29.447-23.224-58.368-33.546-87.868-8.663-24.762-2.106-31.262,27.449-37.343,36.978-7.609,73.408-17.075,110.172-25.436,9.094-2.067,18.562-2.969,27.858-4.408Z" transform="translate(894.886 -185.75)" fill="#fff"/>
      <path id="Path_429" data-name="Path 429" d="M906.689,547.379c-4.688,19.223-20.892,29-41.847,32.25-30.7,4.758-61.822,7.6-92.789,11.12-70.513,8.009-139.448-3.619-208.8-11.357-28.816-3.214-58.093-3.863-87.2-4.79-30.018-.958-33.29-4.419-22.362-27.224h6.381c-1.179,2.945-2.134,5.971-3.579,8.822-4.029,7.955-1.08,12.221,9.248,12.049,68.877-1.144,135.869,12.713,203.868,17.816,63.464,4.766,127.264.446,189.962-10.567,19-3.337,35.025-10.71,40.735-28.12Z" transform="translate(-1.147 -547.379)" fill="#fff"/>
      <path id="Path_430" data-name="Path 430" d="M1043.455,986.454c-39.889,42.135-91.012,64.583-155.934,62.005-14.622-.583-32.6-.263-38.4-13.985-5.94-14.071,8.5-23.2,20.4-30.327,43.148-25.857,86.436-51.615,130.875-75.848,12.19-6.648,28.589-7.84,43.058-11.534v5.359c-14.37,3.968-30.437,5.7-42.8,12.318-39.742,21.266-78.208,44.221-116.93,66.817a97.98,97.98,0,0,0-20.083,15.072c-4.435,4.478-10.638,12.251-8.72,15.564,2.745,4.744,11.839,8.8,18.8,9.6,38.9,4.481,77.147,1.028,109.82-18.133,21.8-12.782,40.061-29.817,59.908-44.949Z" transform="translate(876.545 74.961)" fill="#fff"/>
      <path id="Path_431" data-name="Path 431" d="M964.115,990.011c-5.116,8-13.6,15.7-14.651,24.058-2.317,18.418-11.542,33.1-25.663,46.414-9.19,8.659-18.815,17.051-27.193,26.239-9.158,10.049-7.644,17.844,6.116,22.539,27.123,9.257,35.6,24.746,28.183,47.964-1.224,3.828-.192,9.678,2.662,12.664,17.514,18.324,17.4,40.7,21.467,62.105,3.336,17.577,6.074,35.232,9.078,52.855v24.123c-4.426-20.015-9.193-39.982-13.162-60.062-3.036-15.349-4.838-30.869-7.653-46.251-.959-5.235-1.748-11.308-5.343-15.239-13.421-14.691-14.533-30.4-11.13-47.994,1.029-5.324-6-12.637-11.238-17.636-3.924-3.743-10.909-5.206-16.5-7.735-16.68-7.547-19.837-16.3-8.49-29.24,10.024-11.432,23.419-20.9,32.417-32.795,8.209-10.846,13.9-23.444,18.147-35.882,4.3-12.613,6.969-25.226,22.95-31.487Z" transform="translate(955.885 189.336)" fill="#fff"/>
      <path id="Path_432" data-name="Path 432" d="M373.2,547.379c-3.547,11.158-5.132,23.116-11.034,33.31-14.51,25.068-14.648,50.549-8.874,77.1,4.483,20.6,10.165,41.475,10.018,62.2-.128,17.76-5.228,36.283-12.7,53.025C340.453,795.76,325.942,817.136,313.3,839.1l-4.5-1.487c1.789-4.137,3.186-8.433,5.442-12.385,8.5-14.9,16.444-30.086,26.107-44.444,23.863-35.455,18.281-72.516,9.184-109.6-8.359-34.07-9.605-67.138,9.647-99.321,4.413-7.372,5.186-16.283,7.634-24.485Z" transform="translate(-306.658 -547.379)" fill="#fff"/>
      <path id="Path_433" data-name="Path 433" d="M348.316,547.379c4.672,4.854,8.727,13.3,14.114,13.953,27.7,3.337,55.751,4.328,81.851-6.988,3.576-1.549,6.228-4.6,9.308-6.964h9.57c-11.35,5.955-21.9,14.817-34.229,17.185-19.163,3.683-39.537,3.9-59.381,3.772-15.134-.1-25.781-7.112-27.615-20.958Z" transform="translate(-233.923 -547.379)" fill="#fff"/>
      <path id="Path_434" data-name="Path 434" d="M660.809,547.379c-45.727,14.372-91.45,15.88-137.177,0h22.33c30.839,8.366,61.678,6.486,92.514,0Z" transform="translate(164.981 -547.379)" fill="#fff"/>
      <path id="Path_435" data-name="Path 435" d="M921.043,1029.37c-14.258,18.761-18.987,37.525,0,56.287v13.4c-5.486-9.5-12.7-18.6-15.9-28.614-2.531-7.888-1.943-17.285.511-25.309,3.617-11.837,10.12-23.049,15.392-34.526Z" transform="translate(998.957 233.068)" fill="#fff"/>
      <path id="Path_436" data-name="Path 436" d="M1337.287,1034.5c-.038,30.309-22.656,50.558-58.617,54.934-10.5,1.278-20.23,7.066-30.312,10.787,5.9,8.425,11.1,17.271,17.9,25.146,5.538,6.411,13.954,11.077,19.4,17.526,15.942,18.871,9.33,32.859-17.757,38.156a135.727,135.727,0,0,1-25.257,2.438c-31.433.134-52.491,14.53-69.616,34.717-9.861,11.627-19.179,23.631-29.813,34.741-14.939,15.607-31.277,28.776-58.818,26.346-7.158-.631-16.52,5.4-22.716,10.294-14.136,11.172-29.085,19.594-48.072,24.917-13.852,3.888-25.2,14.27-37.425,22.021-16.926,10.734-33.1,22.38-50.628,32.349-11.139,6.339-24.378,9.845-37.383,2.429-13.529-7.716-18.792-18.931-17.709-32.408.712-8.871,3.087-17.865,2.016-26.569-1.815-14.734-10.861-16.573-26.1-10.184-8.759,3.673-22.777,5.225-30.583,1.708-6.621-2.985-8.158-14.5-11.031-22.477-.978-2.7.92-6.108,1.352-9.209,1.489-10.715-3.7-13.979-15.821-10.339-19.952,6-39.636,13.072-60.148,17.172-23.167,4.631-34.488-3.85-34.773-23.7-.281-19.425,6.075-37.1,22.917-51.2,27.682-23.175,57.786-43.448,94.958-55.119,4.975-1.56,9.727-3.665,14.773-5.007,35.913-9.555,60.269-28.424,71.456-59.377,8.554-23.661,24.739-42.78,49.865-57.1,12.417-7.077,21.777-18.133,31.846-27.879,10.213-9.888,21.873-15.91,38-17.223,13.015-1.06,26.091-4.2,38.412-8.049,19.182-6,36.019-4.586,48.717,9.33,25.055,27.458,58.339,36.366,98.144,34.39,23.732-1.179,47.669.768,71.453-.035,8.5-.287,17.489-3.528,25.084-7.15,21.7-10.35,34.472-5.171,36.252,15.59C1337.483,1029.133,1337.287,1031.82,1337.287,1034.5ZM882.674,1338l-5.729,1.917c5.3,8.062,8.423,19.516,16.536,23.191,7.5,3.394,21.994.822,30.475-3.34,15.891-7.8,29.593-18.718,44.336-28.2,13.041-8.385,24.947-20.318,39.707-23.962,21.253-5.246,35.955-16.036,51.651-27.369,6.8-4.908,17.214-10.662,24.765-9.641,23.755,3.206,37.179-8.264,49.727-21.067,12.133-12.38,22.365-26.061,33.731-38.988,19.364-22.018,43.707-36,78.052-34.991,8.8.258,18.054-1.546,26.5-3.914,11.855-3.326,15.987-10.933,8.583-19.934-6.253-7.6-14.251-14.275-22.067-20.869-10.9-9.19-24.921-17.929-20.167-32.54,5-15.379,22.295-15.311,37.92-16.568,34.469-2.768,58.617-29.807,51.2-56.66-3.343-12.1-7.736-12.726-21.393-7.735-12.75,4.664-26.819,9.018-40.438,9.314-30.74.663-61.553-1.651-92.348-2-20.825-.236-38.345-6.4-53.421-17.953a257.4,257.4,0,0,1-20.237-17.086c-10.849-10.251-23.026-12.6-38.671-7.985-13.386,3.944-28.225,4.535-41.384,8.847a127.1,127.1,0,0,0-32.935,16.605c-12.539,8.809-21.879,21.086-35.07,28.931-20.1,11.95-34.61,26.947-41.24,46.227-12.82,37.267-41.352,59.79-84.842,71.308-38.86,10.291-71.188,30.209-98.563,55.019-9.609,8.707-17.431,20.732-20.441,32.277-7.538,28.91,3.914,36.691,37.265,27.3,16.607-4.68,32.571-10.981,49.207-15.574,16.4-4.524,24.656,1.45,23.266,15.829-.47,4.878-2.933,9.867-2.141,14.522.888,5.206,3.036,12.995,7.177,14.409,5.582,1.906,15.022.564,20.3-2.467,18.933-10.866,31.274-8.669,37.821,10.32C883.361,1315.474,881.882,1327.011,882.674,1338Z" transform="translate(542.022 166.312)" fill="#fff"/>
      <path id="Path_437" data-name="Path 437" d="M1053.178,910.177c7.12,48.138-25.9,83.43-76,106.876-77.668,36.347-140.333,84.52-194.234,143.956-29.717,32.771-71.4,58.284-109.657,85.094-73.127,51.255-154.825,89.688-248.444,107.612a280.7,280.7,0,0,1-64.5,4.4c-23.637-1.063-36.827-14.157-35.31-34.293,1.221-16.213,4.314-33.283,11.96-48,15.444-29.726,15.674-57.535-3.31-85.822-13.708-20.426-10.209-39.41,9.206-56.295,6.637-5.772,12.453-12.444,19.971-17.228,62.225-39.593,96.789-92.389,108.188-156.76,2.016-11.405,6.154-22.614,10.206-33.683,6.714-18.337,20.758-31.595,40.652-41.169,100.509-48.361,203.875-91.943,309.045-132.677,46.216-17.9,87.641-14.079,131.4,7.509C1029.944,793.05,1054.558,843.051,1053.178,910.177Zm-7.043,7.891c0-6.833-.019-15.725,0-24.62.169-60.708-31.893-104.342-95.815-133.2-35.9-16.2-70.4-19.97-108.076-5.947Q678.212,815.34,522.984,890.819c-18.84,9.126-31.58,22.474-37.108,40.194q-7.271,23.3-13.309,46.869c-9.72,38-23.819,74.353-56.648,103.231-15.392,13.539-32.108,26.018-48.2,39-41.822,33.735-43.065,37.211-20.908,82.235,10.513,21.363,10.941,41.58.974,63.511a190.906,190.906,0,0,0-15.578,55.543c-2.566,21.207,11.357,33.1,37,32.693a333.346,333.346,0,0,0,61.333-6.827c92.255-18.941,171.786-58.585,244.482-108.742,43.924-30.306,88.756-59.8,121.845-99.593,39.984-48.082,91.725-85.162,152.483-113.773a408.267,408.267,0,0,0,45.429-24.73C1026.247,980.368,1047.6,955.238,1046.135,918.067Z" transform="translate(-271.296 -221.446)" fill="#fff"/>
      <path id="Path_438" data-name="Path 438" d="M1146.644,953.535c-2.329,29.044-15.575,52.031-48.938,63.823-11.711,4.137-24.145,6.817-35.932,10.82-31.836,10.814-64.126,20.885-95.057,33.326-28.7,11.539-56.6,16.291-84.746,1.377-43.084-22.829-86.177-45.733-127.865-70.283-16.2-9.542-30.015-22.713-42.355-35.92-13.36-14.3-13.252-27.162,4.1-37.689,54.827-33.265,91.543-82.058,144.618-116.332,16.833-10.874,37.15-19.084,57.352-24.861,30.162-8.629,57.332.942,73.83,24.031,8.966,12.549,14.3,26.915,23.116,39.558,6.528,9.367,14.338,19.226,24.531,25.449,23.135,14.127,48.187,26.026,72.281,39.066C1132.261,917.1,1146.672,931.724,1146.644,953.535ZM937.34,783.622c-26.484.95-49.021,10.033-69.485,23.675-52.488,34.985-89.037,83.817-144.363,116.547-14.632,8.656-14.479,18.622-2.659,30.19,12.373,12.111,25.535,24.37,40.959,33.426,38.684,22.711,78.991,43.459,118.355,65.364,26.212,14.589,52.191,14.546,79.563,2.2,20.514-9.249,41.435-18.109,63.03-25.339,19.652-6.578,40.582-10.4,60.723-16.018,29.721-8.291,48.1-24.6,52.469-51.7,4.406-27.348-14.258-42.023-38.745-54.512-21.314-10.871-43.391-21.035-62.937-33.871-11.964-7.856-21.016-19.529-29.136-30.644-8.826-12.082-14.015-26.026-22.687-38.2C972.6,790.936,957.491,783.048,937.34,783.622Z" transform="translate(557.073 -164.452)" fill="#fff"/>
      <path id="Path_439" data-name="Path 439" d="M561.657,1194.352c-12.747-4.54-30-9.692-46.078-16.737-12.136-5.318-12.961-15.3-5.624-24.19,6.592-7.993,15.466-14.635,23.1-22.042,16.265-15.771,30.976-32.913,49.015-47.075,13.514-10.608,30.005-20.67,47.321-25.318,43.458-11.663,87.641-22.348,132.428-29.425,113.783-17.98,184.526-81.414,243.175-158.21,15.422-20.193,22.742-22.52,49.306-13.7,18.01,5.979,37.086,10.111,56.093,13.424,19.24,3.353,26.784,13.749,16.153,27.914-6.375,8.492-14.616,17.279-24.6,22.332-31.111,15.744-39.607,40.554-42.908,68.078-.958,7.99-1.553,16.026-1.853,24.05-.658,17.558-12.654,27-30.817,33.788-17.287,6.457-33.1,15.682-50.318,22.3-13.3,5.117-27.481,9.783-41.806,11.513-13.258,1.6-23.448,4.875-30.273,14.509-8.736,12.331-22.16,15.832-38.508,18-17.4,2.312-34.757,7.539-50.776,13.9-20.089,7.982-40.269,12.1-62.512,13.727-20.131,1.48-40.23,7.383-59.358,13.51-29.743,9.528-58.412,21.406-88.031,31.238C593.1,1189.815,580.095,1190.873,561.657,1194.352Zm1.272-4.328,1.524-2.384c4.72-.551,9.759-.389,14.111-1.764,35.207-11.115,70.056-23.06,105.487-33.64,22.291-6.656,45.04-14.144,68.232-16.262,25.014-2.282,47.42-7.788,69.341-17.6,11.5-5.152,24.723-10.121,37.335-10.43,20.137-.494,34.29-5.649,44.765-20.461,3.406-4.819,12.347-8.876,19.281-9.566,22.726-2.261,43.458-7.15,61.282-20.088a65.706,65.706,0,0,1,23.86-10.388c32.031-6.935,48.606-22.362,43.375-51.229a9.3,9.3,0,0,1,.1-2.674c3.614-31.24,12.9-59.823,48.171-77.368,6.621-3.292,12.19-8.7,16.888-13.983,13.97-15.7,9.244-23.28-13.785-26.834-16.469-2.542-33.069-6.178-48.439-11.647-26.433-9.4-29.082-8.589-44.64,11.488-59.157,76.329-129.5,140.294-242.99,158.835-45.279,7.4-89.619,18.965-134.208,29.184-23.921,5.48-42.5,16.71-55.313,35.606-7.158,10.562-19.249,18.791-29.292,27.932-10.782,9.813-22.157,19.178-32.517,29.289-6.215,6.068-5.56,13.077,3.342,16.938C533.2,1179.2,548.2,1184.394,562.929,1190.024Z" transform="translate(124.65 -32.848)" fill="#fff"/>
      <path id="Path_440" data-name="Path 440" d="M943,1259.992c1.026-4.476,1.594-9.064,3.141-13.408,16.351-45.953,18.665-93.117,17.364-140.589a27.968,27.968,0,0,0-1.767-9.2c-4.132-10.68-12.8-12.527-20.457-3.471-6.995,8.269-12.242,17.709-17.233,27.022-11.331,21.143-20.441,43.231-33.325,63.657-25.234,40-64.065,59.43-120.068,59.978-73,.714-136.467-18.654-195.7-51.98-44.458-25.012-44.311-24.708-86.318,3.146-22.147,14.683-40.167,30.741-38.4,56.732.195,2.878-2.368,5.891-5.835,8.4-6.615-16.181-4.806-32.795,7.842-44.672,18.943-17.787,40.707-33.823,63.33-48.332,13.3-8.53,28.315-1.482,41.595,5.1,29.238,14.484,57.936,29.943,88.27,42.616,47.951,20.037,99.6,23.919,152.326,19.236,28.621-2.542,53.092-13.687,67.746-33.759,18.188-24.909,31.836-52.157,47.519-78.366,6.892-11.52,12.721-23.709,21.511-34.116,4.065-4.811,14.549-8.892,21.237-8.092,5.682.682,10.913,8.438,14.769,13.854,2.563,3.6,3.167,8.586,3.259,12.973,1.019,47.929-1.953,95.53-18.569,141.819-1.626,4.529-4.978,8.621-7.531,12.917Z" transform="translate(-17.215 349.628)" fill="#fff"/>
      <path id="Path_441" data-name="Path 441" d="M1379.913,1291.414c-2.627-21-3.611-42.256-8.238-62.94q-12.338-55.14-28.541-109.652c-5.989-20.036-20.591-36.124-42.806-46.431-26.557-12.323-50.248-8.454-68.925,11.778-11.721,12.7-22.7,25.884-34.086,38.8-14.574,16.533-33.335,25.884-58.646,24.233-16.431-1.071-29.331,4.7-41.719,13.62-13.9,10.017-28.49,20.192-44.777,26.854-24.375,9.966-46.117,21.932-63.455,39.469-3.726,3.77-7.992,7.174-12.114,10.659-32.469,27.436-73.485,25.914-101.6-5.01-6.2-6.816-8.286-17.046-9.6-25.981-1.144-7.767-3.984-10.771-13.293-11.526-28.481-2.309-31.731-4.575-37.345-28.464-2.406-10.237-7.867-14.63-20.224-14.455-24.979.354-49.976-.121-74.958.19-20.614.255-29.024,6.868-29.069,24.7-.086,35.66-2.33,71.542,10.12,106.4.863,2.419.955,5.034,1.406,7.56q-2.44.463-4.876.929c-3.579-12.17-9.069-24.2-10.334-36.542-2.505-24.429-3.445-49.022-3.6-73.553-.166-26.325,11.472-35.5,42.471-35.616q33.494-.129,66.989.01c19.994.1,24.413,3.155,28.324,18.944,5.177,20.92,6.257,21.953,31.973,24.026,13.28,1.072,20.809,5.466,19.272,17.8-2.687,21.572,16.064,30.636,34.156,39.394,17.7,8.564,35.619,8.183,52.194-2.6,6.276-4.083,12.871-8.242,17.661-13.445,20.709-22.5,47.2-37.928,77.895-49.617,13.622-5.19,26.027-13.693,37-22.445,14.348-11.44,29.979-18.622,49.845-17.271,19.933,1.353,35.255-5.174,47.184-17.913,10.836-11.574,21.192-23.468,31.635-35.3,33.526-37.987,85.318-37.434,114.1,3.861,14.45,20.735,23.908,45.011,29.641,68.707,9.708,40.13,14.724,81.062,21.525,121.68.482,2.883-.6,5.952-.956,8.932Z" transform="translate(515.37 316.603)" fill="#fff"/>
      <path id="Path_442" data-name="Path 442" d="M341.737,1401.982c4.2-9.738,7.119-20.053,12.887-29.087a431.734,431.734,0,0,1,30.9-42.138c36.482-44.248,63.084-91.936,73.862-145.339,4.8-23.771,17.3-44.363,39.035-59.881,26.691-19.059,39.946-42.9,44.26-71.673a173.491,173.491,0,0,1,13.066-43.985c7.906-17.87,23.672-20.343,41.454-8.28,23.7,16.079,29.369,33.606,16.485,56.834-7.151,12.9-16.527,24.928-25.119,37.241-12.622,18.09-20.007,37.241-19.23,58.518,1.029,28.086-7.89,53.519-27.9,76.557-15.012,17.279-27.353,36.18-41.921,53.75s-20.873,36.342-19.869,57.865c.716,15.411-1.678,31.071-4.5,46.385-1.112,6.027-7.158,11.413-13.277,16.187,14.45-19.87,11.59-41.561,10.8-62.658-.821-21.854,5.627-41.193,20.476-59.205,16.936-20.539,32.354-41.958,48.871-62.746,12.772-16.072,20.591-33.625,19.7-52.813-1.553-33.562,10.337-63.24,32.478-90.641a137.525,137.525,0,0,0,14.114-20.95c10.893-20.184,4.3-38.959-17.428-51.537-13.862-8.025-22.863-6.841-28.593,6.613a209.783,209.783,0,0,0-14.363,47.84c-4.563,27.871-18.176,50.547-43.752,69.045-21.994,15.91-34.645,36.881-39.457,61.168-9.676,48.834-33.466,92.717-65.509,134-19.786,25.495-37.4,52.185-55.984,78.339Z" transform="translate(-234.358 205.34)" fill="#fff"/>
      <path id="Path_443" data-name="Path 443" d="M1266.506,1243.611a91.814,91.814,0,0,1,.048-9.746,277.28,277.28,0,0,0-8.905-105.043c-11.261-40.124-30.663-44.753-65.065-15.607-26.615,22.547-57.2,36.4-95.61,37.348-26.225.65-45.608,13.529-63.694,27.667-16.335,12.772-31.942,26.2-47.979,39.244-40.879,33.251-113.128,40.328-160.538,13.956-12.1-6.731-21.553-18.321-28.89-29.259-13.584-20.257-30.168-37.826-53.041-50.834-20.5-11.655-32.015-7.773-33.251,12.635-1.61,26.558-.393,53.234-.393,79.862q-2.377.3-4.752.6c-1.48-6.9-4.32-13.824-4.186-20.705.441-22.283,1.3-44.6,3.307-66.816,1.457-16.146,15.223-22.187,33.06-14.506,27.826,11.985,48.951,30.531,62.068,54.007,14.322,25.64,37.061,38.629,69.75,42.659,45.739,5.638,86.344.714,118.742-30.733,15.22-14.772,33.635-27.234,50.708-40.651,18.594-14.613,40.78-22.6,66.126-23.443,29.73-.991,54.316-10.916,75.217-28.233,7.557-6.266,14.862-12.892,23.272-18.256,23.972-15.293,43.24-11.682,53.977,11.808a181.376,181.376,0,0,1,14.012,49.225C1274.568,1186.935,1279.24,1215.378,1266.506,1243.611Z" transform="translate(552.716 364.366)" fill="#fff"/>
      <path id="Path_444" data-name="Path 444" d="M314.824,1146.529c4,10.817,9.925,21.427,11.606,32.494,3.49,22.955,4.7,46.151,6.9,69.246.933,9.775,1.323,19.629,3.154,29.286,2.119,11.169,9.235,13.872,20.029,6.951,42.624-27.326,77.355-57.916,75.629-108.288-.582-16.963,5.09-36.685,15.952-50.764,21.774-28.236,47.986-54.268,74.53-79.607,15.869-15.148,19.946-33.077,24.793-51.146.467-1.742-9.765-8.266-14.066-7.67-16.674,2.311-33.51,5.378-49.273,10.406-34.843,11.112-70.67,15.617-107.7,15.644-38.911.03-49.008,6.986-58.933,38.833-1.313,4.207-2.87,8.36-4.71,13.69-7.161-21.3,12.267-51.054,35.888-55.9a127.432,127.432,0,0,1,28.394-2.58A329.1,329.1,0,0,0,484.7,991.711,317.25,317.25,0,0,1,532.4,981.184c14.919-2.234,23.349,4.408,20.719,16.737-4.5,21.108-13.293,39.735-31.932,56.764-27.417,25.049-50.993,53.441-72.856,82.206-8.161,10.736-9.727,26.555-9.471,39.993,1.016,52.9-35.718,85.854-82.324,113.763-12.312,7.375-22.608,3.407-25.947-9.279-2.381-9.059-2.448-18.582-3.112-27.917-2.534-35.458-.511-71.41-19.054-105.085Z" transform="translate(-307.503 182.771)" fill="#fff"/>
      <path id="Path_445" data-name="Path 445" d="M309.321,1331.385c2.083,1.2,2.729,1.364,2.873,1.686,14.459,32.6,18.371,34.288,53.233,14.557A350.832,350.832,0,0,0,418.9,1310c23.975-20.292,25.918-47.325,29.82-74.254,7.653-52.831,34.475-97.737,84.813-131.874,7.771-5.27,13.977-13.676,17.39-21.688,10.193-23.921,18.674-48.361,27.73-72.621,1.428-3.826,3.566-7.842,3.282-11.66-.6-8.057-2.582-16.042-4-24.056-8.532,1.114-17.862.728-25.468,3.584-49.44,18.579-101.432,25.8-155.1,25.6-29.248-.11-58.451-1.106-85.037,12.726l-2.128-3.455c4.215-2.344,8.1-5.992,12.7-6.806,18.546-3.289,37.284-7.856,56-8,42.633-.33,85.049-.993,126.184-11.416,17.23-4.366,33.753-10.669,50.7-15.854,25.883-7.92,40.167,1.077,33.4,23.309-9.976,32.787-22.589,65.042-35.335,97.168-2.636,6.65-9.762,12.822-16.546,17.408-50.034,33.828-78.994,78.8-82.285,131.136-3.068,48.823-30.679,80.92-74.751,107.094a248.944,248.944,0,0,1-25.944,13.067c-9.775,4.344-20.329,10.269-31,2.83C312.7,1354.834,307.355,1344.825,309.321,1331.385Z" transform="translate(-306.406 160.26)" fill="#fff"/>
      <path id="Path_446" data-name="Path 446" d="M316,1066.333c3.688-14.27,6.65-28.711,11.3-42.755,3.726-11.257,13.769-18.179,27.717-19.384,34.769-3,69.564-6.162,104.446-7.6,7.72-.317,19.39,4.712,22.659,10.1,2.675,4.4-2.349,14.688-7.675,19.4-11.241,9.942-25.972,17.092-37.281,26.99-9.922,8.683-19.46,18.719-25,29.651-8.906,17.572-14.207,36.421-21.4,54.63a69.717,69.717,0,0,1-8.5,15.8c-8.688,11.762-20.221,12.653-28.529.9C338.678,1132.757,313.891,1095.044,316,1066.333Zm53.508,89.124c4.368-7.12,8.746-12.53,11.158-18.5,7.5-18.571,14.664-37.257,21.182-56.086,5.122-14.79,14.731-26.244,29.836-35.09a270.4,270.4,0,0,0,33.2-22.826c4.288-3.466,5.6-9.528,8.27-14.412-6.317-1.471-12.756-4.5-18.926-4.153-30.082,1.7-60.09,4.28-90.117,6.6-12.823.991-23.119,4.422-28.66,15.765C317.77,1062.95,332.709,1125.376,369.51,1155.457Z" transform="translate(-291.133 209.434)" fill="#fff"/>
      <path id="Path_447" data-name="Path 447" d="M450.6,1187.066c11-17.559,20.725-35.807,33.408-52.463,10.331-13.566,27.078-16.947,41.592-7.485,46.513,30.324,103.369,40.306,155.985,58.6,2.323.806,4.6,1.7,6.212,5.322-6.161-.985-12.622-1.281-18.434-3.072-35.862-11.04-71.9-21.763-107.168-34.043-11.922-4.151-21.611-12.707-32.584-18.92-20.527-11.623-33.443-9.429-45.906,8.661-7.42,10.771-13.028,22.421-19.658,33.587-2.492,4.2-5.573,8.148-8.388,12.213Z" transform="translate(4.645 420.315)" fill="#fff"/>
      <path id="Path_448" data-name="Path 448" d="M545.53,1099.842c-28.276-.086-49.839-5.912-62.589-25.355-14.491-22.1-.773-41.324,29.085-40.312,9.791.331,19.521,3.525,29.11,5.883,7.6,1.865,14.8,4.9,22.422,6.636,20.975,4.781,25.161,8.881,24.563,25.452-.578,16.029-8.03,23.417-27.068,26.281C554.823,1099.365,548.435,1099.587,545.53,1099.842Zm-2.87-6.231c4.039,0,8.279.126,12.507-.021,14.172-.5,24.57-4.446,25.813-18.286,1.489-16.582-.974-19.417-20.847-23.682-7.615-1.633-14.67-5.04-22.237-6.908-9.538-2.352-19.365-5.641-29.024-5.544-21.806.212-31.366,13.9-21.691,30.274C498.436,1088.481,518.059,1095.24,542.661,1093.611Z" transform="translate(62.898 272.708)" fill="#fff"/>
      <path id="Path_449" data-name="Path 449" d="M942.247,1193.732c0-14.917.093-29.834-.022-44.75-.173-22.6-13.526-31.713-37.444-21.425-19.661,8.457-36.885,21.755-53.118,34.736-12.714,10.165-22.259,23.132-35.1,33.37,24.755-30.838,46.57-64.58,93.629-75.937,21-5.066,35.757,2.325,37.786,20.184,2.023,17.814.444,35.915.444,53.892Q945.333,1193.766,942.247,1193.732Z" transform="translate(808.091 414.275)" fill="#fff"/>
      <path id="Path_450" data-name="Path 450" d="M565.186,1199.749c46.078-14.654,56.358-57.5,89.367-83.927,9.989,19.567,5.586,67.332-6.924,83.2,2.914-24.6,5.691-48.039,8.468-71.477l-4.119-1.66C624.522,1151.766,612.235,1190.784,565.186,1199.749Z" transform="translate(256.208 410.331)" fill="#fff"/>
      <path id="Path_451" data-name="Path 451" d="M309.582,1041.453c11.855-28.875,24.643-56.657,34.591-85.137,11.04-31.616,4.033-39.963-33.495-46.345,20.377-7.748,47.369,5.869,44.3,24.523-6.052,36.768-19.106,72.114-41.505,104.557C312.768,1040.068,311.033,1040.586,309.582,1041.453Z" transform="translate(-304.952 59.78)" fill="#fff"/>
      <path id="Path_452" data-name="Path 452" d="M308.707,891.765c1.911-4.773,4.074-9.485,5.688-14.326,8.842-26.542,19.946-52.761,25.624-79.779,5.557-26.451.492-30.617-27.2-40.4,11.174-4.341,24.4-.722,29.721,9.893,3.579,7.147,5.969,15.617,5.218,23.242-3.445,35.013-15.581,68.178-33.379,99.9-.55.982-2.09,1.57-3.17,2.344Z" transform="translate(-306.873 -196.795)" fill="#fff"/>
      <path id="Path_453" data-name="Path 453" d="M311.349,762.388c15.693,8.505,14.14,52.9-2.365,76.6C308.946,812.808,325.373,788.6,311.349,762.388Z" transform="translate(-306.265 -185.133)" fill="#fff"/>
      <path id="Path_454" data-name="Path 454" d="M308.766,978.439c4.867-9.912,10.1-19.712,14.5-29.769,5.413-12.374,8.276-24.493-13.191-30.467,15.076-2.774,21.4.765,22.473,11.711,1.882,19.148-9.746,34.255-19.332,49.924Z" transform="translate(-306.743 75.863)" fill="#fff"/>
      <path id="Path_455" data-name="Path 455" d="M1204.289,655.618c-1.978,24.837-2.729,42.672-4.959,60.378-4.077,32.368-22.448,47.628-60.822,51.672a136.149,136.149,0,0,1-15.871,1.069c-23.282-.293-38.09,9.633-50.015,25.806-5.733,7.77-15.76,14.221-25.49,18.81-26.017,12.27-53.364,20.415-83.992,23-15,1.262-30.82,11.356-42.614,20.7-30.954,24.531-95.029,49.3-143.42,19.148-11.491-7.16-28.4-8.353-43-11.743-7.621-1.772-15.9-1.635-23.423-3.608-31.152-8.167-42.608-33.767-21.933-54.689,15.351-15.534,35.741-27.549,53.83-41.18,32.331-24.362,65.51-48.007,96.419-73.582,10.024-8.3,15.571-21.242,20.511-32.859,8.5-19.98,22.652-35.931,41.205-49.956,12.679-9.587,26.27-13.051,42.451-9.056,15.785,3.9,31.584,7.8,47.165,12.218,33.692,9.561,64.966,4.6,94.473-10.731,12.641-6.567,24.509-14.186,37.2-20.681,9.475-4.849,19.278-9.692,29.682-12.723,23.876-6.956,37.834-1.35,42.41,19.328C1199.595,611.792,1201.678,637.182,1204.289,655.618ZM1198.2,662.2c-2.6-21.207-4.077-44.89-8.739-68.121-4.982-24.807-17.843-29.8-44.886-18.157-16.92,7.284-32.561,16.745-48.417,25.68-35.792,20.171-73.671,26.459-114.971,13.547-11.437-3.576-22.975-8.038-34.862-9.174-11.443-1.1-26.19-1.718-34.562,3.276-19.316,11.529-35.61,26.19-44.125,46.227-6,14.117-12.574,29.766-24.579,40.044-30,25.677-63.065,48.842-95.237,72.693-15.1,11.193-31.51,21.159-46.334,32.588-12.219,9.424-20.962,21.465-14.267,35.829,6.918,14.839,22.783,19.237,40.7,21.835,17.949,2.6,38.287,4.664,52.328,13.118,44.678,26.9,103.653,7.746,132.342-16.45,19.585-16.517,41.26-23.64,68.347-27.315,36.99-5.021,73.549-14.071,94.22-45.386,8.244-12.492,22.487-18.179,39.943-18.565a204.532,204.532,0,0,0,33.114-3.359c24.531-4.626,41.141-16.3,43.714-38.65C1194.118,702.793,1195.952,683.693,1198.2,662.2Z" transform="translate(504.576 -518.074)" fill="#fff"/>
      <path id="Path_456" data-name="Path 456" d="M695.9,719.348c5.883,0,9.66-.371,13.306.059,35.629,4.186,66.455-4.5,95.546-21.935,15.316-9.177,33.242-16.187,51.172-21.172,33.022-9.177,56.14,10.116,48.066,38.282-5.768,20.106-18.7,36.572-34.367,52.133a205.555,205.555,0,0,0-26.474,31.63c-23.448,35.326-63.506,50-106.2,61.006A43.808,43.808,0,0,1,696.113,849.2c-8.982-8.138-18.179-16.589-24.554-26.179-14.3-21.511-36.278-34.462-62.333-43.684-16.15-5.713-32.795-10.6-48.321-17.322-8.254-3.573-14.6-10.256-21.809-15.534,7.832-4.57,14.942-11.268,23.62-13.344C606.861,722.577,652,717.374,695.9,719.348Zm-145.27,25.159-.09,5.174c19.917,7.072,39.8,14.213,59.761,21.194,29.133,10.183,54.118,24.182,69.782,48.428a82.9,82.9,0,0,0,22.9,23.747c7.634,5.093,20.15,10.516,28.247,8.7,42.691-9.585,82.279-24.007,104.954-59.5,6.957-10.892,16.1-21.06,25.832-30.381,16.482-15.779,28.89-33,33.814-53.761,3.253-13.714-5.365-24.582-22.039-24.915a76.787,76.787,0,0,0-29.094,5.071,439.131,439.131,0,0,0-52.667,24.961C769.7,725.914,745.725,730.9,719.452,728c-42.263-4.661-83.707.642-125.021,6.844C579.617,737.064,565.215,741.228,550.628,744.507Z" transform="translate(198.929 -334.063)" fill="#fff"/>
      <path id="Path_457" data-name="Path 457" d="M1005.23,779.489c-3.94,53.948-28.328,95.958-75.6,127.971-18.584,12.584-32.079,9.41-39.556-9.955-9.474-24.539-17.869-49.408-25.49-74.4-5.637-18.493.463-21.948,22.068-26.811,32.037-7.209,63.205-17.309,94.386-26.987C1000.009,763.418,1005.509,765.941,1005.23,779.489Zm-7.41,8.183c.706-16.34-1.368-16.887-17.751-12.036-31.865,9.434-63.95,18.45-96.393,26.338-12.379,3.01-17.281,6.9-13.561,17.674,8.42,24.4,15.833,49.059,24.63,73.362,6.771,18.694,16.028,20.769,34.437,7.928C971.966,871.1,993.887,832.248,997.82,787.672Z" transform="translate(909.164 -178.511)" fill="#fff"/>
      <path id="Path_458" data-name="Path 458" d="M884.315,1314.543c-4.349-4.7-11.842-9.818-14.53-16.34-4.649-11.281-6.531-23.4-9.181-35.224-2.585-11.553-10.369-15.185-23.994-13.534-28.052,3.4-33.9-.671-34.952-24.794-.444-10.208-6.174-13.886-16.932-12.8-16.849,1.691-33.533,4.779-50.414,5.85-7.148.457-16.8-.961-21.157-4.833-2.8-2.489.048-12.06,3.652-16.63,23.212-29.431,52.341-53.28,95.262-60.376,27.222-4.5,46.787-15.751,58.316-36.953,1.978-3.633,5.426-6.731,7.161-10.42,21.672-46.09,67.094-72.253,114.709-96.44,30.951-15.722,50.66-12.535,72.888,10.9,18.418,19.419,41.419,28.384,71.382,23.315,16.076-2.722,32.389-5.378,48.686-5.823,7.049-.193,16.814,3.9,20.53,8.68,2.144,2.765-3.684,12.248-8.714,16.208-28.6,22.517-29.088,38.178-.728,61.205,5.323,4.323,10.775,8.731,14.961,13.806,10.916,13.236,5.995,23.819-12.6,28.281a28.255,28.255,0,0,1-7.8,1.165c-34.431-1.785-56.594,14-74.888,36.054-9.4,11.33-18.351,23.494-30.446,32.488-9.612,7.142-23.327,13.118-35.869,14.178-26.618,2.253-48.3,7.652-65.171,27.5-21.595,25.414-57.55,35.8-88.021,51.792C894.339,1312.919,891.425,1312.988,884.315,1314.543Zm319.811-283.756c-9-2.709-15.284-6.417-21.157-6-13.149.929-26.087,3.933-39.122,6.054-33.549,5.458-61.659-1.195-83.736-24.5-20.243-21.368-38.208-23.484-65.771-8.841-15.258,8.105-29.127,18.208-44.909,25.425-22.013,10.063-37.144,24.807-48.947,42.755-7.455,11.327-16.284,22.069-22.956,33.7-13.187,22.992-33.593,36.838-63.861,41.657-40.892,6.51-68.059,29.594-90.843,56.912-2.678,3.211-2.649,8.014-3.876,12.079,4.943.929,10.043,3.026,14.8,2.578,16.341-1.541,32.5-4.432,48.852-5.941,18.086-1.67,23.662,2.905,24.4,18.275.853,17.674,7.3,22.206,28,19.688,22.042-2.682,26.791-.038,31.913,18.369,3.266,11.719,5.774,23.594,9.337,35.243,2.541,8.3,9.519,12.941,19.07,7.941,31.8-16.637,67.96-28.289,90.763-55.433,12.51-14.887,29.452-22.287,51.689-21.862,23.394.446,41.547-7.657,54.872-24.623,10.785-13.727,23.413-26.523,36.194-39.029,13.009-12.72,29.5-20.136,50.328-19.478,5.189.164,10.554-.993,15.667-2.108,16.463-3.582,19.821-11.4,9.3-22.206-4.681-4.814-10.392-8.924-15.67-13.325-26.733-22.286-26.372-42.766.936-63.75C1193.581,1041.158,1197.077,1037.335,1204.126,1030.787Z" transform="translate(578.579 185.433)" fill="#fff"/>
      <path id="Path_459" data-name="Path 459" d="M393.453,1232.456c4.4-25.355-11.424-45.762-36.645-62.765-26.973-18.182-29.922-38.317-6.727-59.892,15.945-14.831,34-28.325,52.68-40.75,21.2-14.095,33.472-31.56,38.645-53.6,7.394-31.525,14.772-63.114,24.547-94.145,3.413-10.83,12.024-21.653,21.54-29.761,28.96-24.676,64.116-40.538,104.637-48.614,12.453-2.483,23.221-10.414,35.4-14.519,18.054-6.084,36.907-10.484,54.984-16.517,19.486-6.5,39.757-12.318,57.393-21.532,32.964-17.223,66.257-32.507,106.21-32.561,8.7-.011,18.466,1.415,25.931,4.908,41.278,19.328,74.441,45.757,96.288,81.478q21.267,34.771-4.627,67.171c-33.265,41.515-80.033,70.092-130.964,93.946-21.9,10.256-37.6,23.629-49.666,41.794-24.784,37.335-46.062,76.979-87.107,104.718-22.346,15.1-45.254,29.638-68.289,44-29.865,18.616-60.065,36.854-90.2,55.162-32.066,19.48-67.749,29.286-107.51,28.145-26.394-.757-36.07-9.01-36.5-31.477C393.386,1243.619,393.453,1239.6,393.453,1232.456Zm7.068,2.422c0,4.707,0,7.389,0,10.068-.054,23.312,8.014,30.778,36.163,29.64,34.562-1.4,66.957-9.59,95.412-26.886,30.558-18.579,60.633-37.743,91.667-55.741,55.223-32.024,106.925-66.768,135.508-119.809,19.965-37.04,49.7-64.6,93.725-83.8A281.525,281.525,0,0,0,954.27,913.975c19.748-22.947,22.227-46.675,5.847-71.577-21.422-32.58-52.4-57.207-90.964-74.874a60.578,60.578,0,0,0-28.931-4.851c-33.83,3.165-65.388,12.978-92.479,30.389-21.352,13.727-44.8,21.258-70.82,25.8-16.29,2.843-31.833,9.134-47.318,14.659-13.066,4.664-24.947,12.694-38.431,15.317a219.412,219.412,0,0,0-99.007,46.34c-9.283,7.617-17.1,18.383-20.432,28.864a810.986,810.986,0,0,0-22.361,86.311c-5.739,28.607-22.317,50.241-49.443,67.686-16.364,10.522-32.021,22.335-45.484,35.4-20.163,19.564-17.971,35.971,6.007,51.706C388.568,1183.593,403.452,1206.566,400.522,1234.877Z" transform="translate(-250.34 -192.871)" fill="#fff"/>
      <path id="Path_460" data-name="Path 460" d="M890.065,1004.5c-18.5-6.18-38.543-10.277-55.195-18.965-37.827-19.741-74.054-41.663-110.792-62.864-10.858-6.266-11.52-15.354-4.761-23.5A172.258,172.258,0,0,1,746.3,873.108c26.528-20.541,54.1-40.13,80.784-60.529,23.56-18.01,41.416-18.853,66.129-2.022a60.413,60.413,0,0,1,7.1,5.364c33.405,30.972,74.271,52.5,119.324,69.762,16.261,6.231,30.948,17.022,43.48,28.04,14.159,12.449,12.025,23.809-5.046,33.812a245.138,245.138,0,0,1-45.861,21.188c-33.021,11.026-66.768,20.539-100.362,30.317-6.394,1.861-13.462,2.078-20.221,3.055Zm.447-5.469,1.285-2.223c5.739-.87,11.759-1.079,17.172-2.712,37.457-11.3,75.019-22.4,112.025-34.682,12.622-4.188,24.208-11.032,35.392-17.7,10.1-6.019,13.216-14.831,3.521-22.8-11.551-9.5-23.084-20.407-37.255-26-46.56-18.375-90.731-39-125.056-72.135-3.777-3.643-8.832-6.419-13.568-9.279-18.783-11.338-31.373-10.6-48.439,2.177-25.359,18.99-51.187,37.541-76.217,56.829A361.347,361.347,0,0,0,725.5,900.493c-6.19,6.146-6.145,13.15,3.02,18.4,35.961,20.609,71.226,42.149,108.127,61.484C852.9,988.892,872.455,992.954,890.512,999.035Z" transform="translate(584.969 -124.324)" fill="#fff"/>
      <path id="Path_461" data-name="Path 461" d="M647.211,972.6c-.911-21.137,7.356-42.31,25.819-61.358,10.615-10.957,17.473-24.424,26.848-36.3,12.932-16.38,23.448-17.73,44.57-9.593,9.7,3.737,21.183,4.1,31.705,6.473,6.234,1.407,12.171,3.751,18.239,5.676-2.921,4.905-4.735,10.661-8.976,14.552-11.468,10.516-23.781,20.4-36.1,30.233-17.651,14.082-23.588,31.267-20.246,51.127.3,1.766.77,3.512,1.051,5.278,4.033,25.326-7.707,42.5-29.753,43.563-34.987,1.686-52.871-11.751-53.152-39.936C647.192,980.081,647.211,977.847,647.211,972.6ZM789.13,880.937c-17.092-3.512-32.114-4.827-45.26-9.708-21-7.8-28.155-7.316-40.732,9.051-9.5,12.363-16.8,26.171-27.918,37.345-20.553,20.665-23.029,44.882-21.633,69.469,1.281,22.587,17.188,31.1,48.091,29.205,15.565-.958,22.371-10.586,22.25-31.6-.019-3.123.221-6.347-.591-9.349-6.618-24.426,4.407-43.593,24.739-60.2C761.688,904.031,775.044,892.691,789.13,880.937Z" transform="translate(436.14 -19.864)" fill="#fff"/>
      <path id="Path_462" data-name="Path 462" d="M642.36,937.136c16.175-1.348,33.012-3.635,49.877-3.769,8.03-.064,20.035,2.067,23.167,6.631,3.9,5.678,3.78,16.748-.524,22.163-6.685,8.406-17.4,15.472-28.123,20.517-31.782,14.941-63.784,29.78-96.965,42.285-16.383,6.175-35.437,9.155-53.488,9.869-17.837.7-23.33-9.179-14.478-22.418a116.1,116.1,0,0,1,18.853-21.382c13.379-12.041,28.081-23.049,41.5-35.063C598.448,941.4,617.014,932.714,642.36,937.136Zm-96.4,95.369c15.517-4.916,32.677-9.225,48.625-15.658,27.557-11.118,54.533-23.293,81.4-35.563,10.577-4.833,21.866-9.869,29.679-17.185,4.914-4.6,6.487-14.149,4.6-20.423-.923-3.071-13.152-5.184-20.275-5.2-16.856-.046-33.795.862-50.552,2.462-11.893,1.136-26.851.891-34.7,6.723-26.072,19.363-49.881,40.935-73.683,62.344-3.889,3.5-5.854,11.188-4.042,15.577C528.318,1028.728,537.4,1029.611,545.963,1032.506Z" transform="translate(151.885 102.929)" fill="#fff"/>
      <path id="Path_463" data-name="Path 463" d="M802.969,830.491c-39.639-4.527-69.5-17.113-97.921-32.019-10.245-5.375-11.686-15.556-4.733-23.822a155.407,155.407,0,0,1,27.3-25.782c27.74-20.106,57.575-38.266,84.151-59.355,12.545-9.955,19.984-24.636,28.9-37.582,6.873-9.979,11.142-21.355,18.907-30.746,11.129-13.467,25.816-16.015,43.471-9.107a160.148,160.148,0,0,1,23.237,11.617c30.373,18.039,61.806,17.8,95.01,5.8,25.282-9.136,47.41-20.9,65.452-38.929,14.558-14.552,28.573-12.243,40.9,4.011,11.571,15.266,14.955,31.659,7.493,48.635-6.976,15.878-14.5,31.729-23.864,46.678-8.538,13.642-23.26,21.895-41.975,23.849-26.515,2.771-46.826,13.072-68.34,27.361-28.075,18.643-62.905,31.184-96.716,42.3-25.033,8.229-48.967,15.427-68.558,32.043C826.353,823.349,811.562,826.708,802.969,830.491Zm-.319-8.812c6.477-2.913,19.4-5.965,27.561-12.946,19.4-16.6,42.876-24.531,68.385-32.18,40.151-12.036,80.78-24.491,111.127-52.453,7.292-6.717,19.687-10.119,30.443-13.408,9.864-3.018,21.639-2.2,30.842-6.019,11.823-4.9,25.183-10.962,31.993-19.744,10.548-13.609,16.5-29.815,23.681-45.153,6.538-13.961,2.751-27.184-6.215-39.63-9.928-13.773-16.332-14.986-28.657-2.467-17.108,17.376-38.2,29.025-62.592,37.746-40,14.307-78.039,14.86-113.955-8.323a79.886,79.886,0,0,0-12.181-6.317c-16.239-6.854-28.88-4.819-38.655,7.907-6.241,8.124-9.091,18.039-14.827,26.5-9.081,13.4-16.99,28.174-29.586,38.886-20.042,17.043-43.707,31.055-65.506,46.675-14.1,10.106-28.155,20.34-41.163,31.4-7.065,6.009-11.286,15.623-.649,20.928C738.629,806.016,765.378,818.122,802.649,821.679Z" transform="translate(543.455 -490.905)" fill="#fff"/>
      <path id="Path_464" data-name="Path 464" d="M734.129,683.932c18.4-.011,24.86,6.943,17.489,18.7-26.512,42.294-66.452,70.307-123.89,77.932-16.284,2.161-29.928-6.524-31.993-18.42-2.134-12.331,7.612-21.725,22.294-26.971,14.852-5.31,28.679-13.029,42.058-20.788,20.074-11.641,38.5-25.567,63.787-29.041C728.057,684.772,732.237,684.192,734.129,683.932ZM624.858,775.086c2.6-.107,4.231-.024,5.784-.26,53.127-8.132,89.667-34.784,114.85-73.534,5.614-8.637.693-12.949-11.708-11.947C704.622,691.7,683.5,707.04,661,720.51c-12.836,7.681-26.218,15.539-40.777,20.125-12.83,4.041-18.725,9.552-17.38,20.367C604.273,772.46,614.365,774.775,624.858,775.086Z" transform="translate(322.633 -317.315)" fill="#fff"/>
      <path id="Path_465" data-name="Path 465" d="M966.742,799.812c-4.5,21.645-17.121,44.627-43.64,60.735-13.83,8.4-25.573,6.656-33.127-5.931a235.082,235.082,0,0,1-18.965-40.984c-3.518-9.708,1.7-17.567,13.788-21q27.009-7.688,54.153-15.053C958.728,772.225,967.206,777.552,966.742,799.812Zm-8.6-6.172c-.093-9.561-5.212-11.848-15.428-8.8-17.361,5.184-35.4,9.01-52.114,15.341-4.972,1.885-10.03,10.873-8.854,15.494,2.841,11.155,8.8,21.86,14.511,32.354,5.544,10.181,14.839,10.841,24.553,4.1C942.748,836.9,953.871,816.659,958.143,793.639Z" transform="translate(925.256 -162.782)" fill="#fff"/>
      <path id="Path_466" data-name="Path 466" d="M1108.307,1105.356c-5.215,3.821-10.529,11.061-16.833,11.733-22.991,2.448-36.93,14.605-49.813,28.558-19.582,21.2-42.24,36.5-76.524,38.669-12.139.768-23.985,10.382-34.983,17.1-22.723,13.867-43.841,29.729-67.382,42.468-22.985,12.438-31.066,8.556-35.543-13.744-2.384-11.867-8.7-18.372-24.18-17.983-16.53.416-27.612-5.069-32.437-20.158-2.492-7.791-10.7-14.979-18.134-20.818-13.641-10.721-14.287-18.968,1.246-28.067a194.793,194.793,0,0,1,31.9-15.059c29.42-10.656,49.449-28.545,62.186-52.955,16.645-31.909,40.317-58.421,78.821-74.406,27.369-11.365,36.415-11.44,58.2,6.033,14.654,11.751,31.411,17.376,51.721,17.408,36.361.059,41.285,3.56,52.223,32.218C1094.611,1071.635,1100.894,1086.8,1108.307,1105.356Zm-7.714-1.358c-2.365-7.045-3.6-11.368-5.266-15.569-5.033-12.683-10.941-25.154-15.178-38.019-4.47-13.577-13.967-20.756-30.785-20.123-29.718,1.117-55.322-6.027-75.962-24.74-8.979-8.143-20.249-9.058-32.152-4.526-29.05,11.064-54.974,25.285-70.644,49.752-6.784,10.6-13.862,21.083-20.109,31.906-12.005,20.8-29.606,36.7-54.562,46.863a391.448,391.448,0,0,0-36.383,16.514c-13.622,7.257-12.906,12.511-1.8,21.961,7.928,6.744,15.862,14.635,19.722,23.3,4.668,10.471,11.008,14.931,24.161,15.2,21.806.443,27.615,5.348,31.309,23.449,3.515,17.21,8.168,19.879,25.793,9.9,24.106-13.641,47.155-28.754,69.456-44.441,15.667-11.021,32.018-17.808,52.737-19.4,10.264-.784,20.956-6.145,29.548-11.568a133.145,133.145,0,0,0,26.714-22.818c13.363-14.605,28.171-26.343,51.008-29.441C1092.959,1111.55,1096.883,1106.567,1100.593,1104Z" transform="translate(644.738 203.027)" fill="#fff"/>
      <path id="Path_467" data-name="Path 467" d="M476.2,1161.852c-16.872,1.02-31.028-1.63-41.911-14.447-4.263-5.021-14.252-7.2-22.148-9.311-11.091-2.972-22.892-4.081-33.983-7.056-21.08-5.649-28.634-18.334-20.131-35.49,5.672-11.451,13.178-22.4,21.189-32.865,22.707-29.651,37.332-60.419,41.026-96.835,5.288-52.107,45.458-85.956,100.576-106.932,9.283-3.533,21.86-2.408,32.635-1.367,14.038,1.356,24.624-.164,31.874-11.816,7.538-12.114,20.946-17.822,36.977-17.325,19.693.607,36.3-5.082,51.609-14.793,30.724-19.5,63.829-35.066,100.627-45.319,18.23-5.082,34.44-3.436,50.325,4.39,43.748,21.551,69.747,67.125,61.023,106.772-.767,3.485-1.284,7.4-3.525,10.2-21.834,27.342-41.595,56.4-79.738,70.822-7.746,2.929-15,6.922-22.972,9.252-27.557,8.049-39.9,23.146-50.088,47.531-23.72,56.786-71.625,98.508-139.512,121.35C553.528,1150.9,516.043,1160.883,476.2,1161.852ZM879.7,868.97c-4.438-44.8-26.11-73.6-66.04-91.329-9.443-4.194-23.991-3.708-34.987-1.372C740.435,784.391,708.7,803.4,676.111,821.3c-14.459,7.944-32.724,12.785-49.97,14.839-16.233,1.936-28.647,5.49-36.188,17.926C582.712,866,571.17,868.052,556.4,866.146c-10.257-1.324-21.591-2.2-31.334.072-44.4,10.38-93.092,59.071-95.048,97.931-1.943,38.618-17.441,72.06-43.042,103.322a170.74,170.74,0,0,0-20.71,33.033c-5.349,10.9-.486,19.331,13.776,22.571,10.251,2.328,21.253,3.074,30.8,6.645,12.628,4.723,24.148,11.539,36.179,17.4,4.023,1.962,8.046,5.152,12.254,5.383,12.063.663,24.483,1.426,36.3-.209,65.605-9.085,127.5-25.382,173.518-69.123,23.272-22.123,48.67-44.42,54.226-74.439,4.16-22.488,17.635-34.741,40.54-41.657,42.1-12.715,75.716-34.169,98.636-66.446C870.617,889.192,875.8,876.278,879.7,868.97Z" transform="translate(-206.125 -180.082)" fill="#fff"/>
      <path id="Path_468" data-name="Path 468" d="M830.279,917.861c-40.643-.016-78.007-23.025-87.692-49.967-4.362-12.135,1.3-21.132,13.922-26.807,19.457-8.747,40.509-12.093,61.378-5.367,28.161,9.077,55.846,19.328,83.123,30.164,21.1,8.385,21.687,20.141,1.671,30.242C878.405,908.376,852.3,916.844,830.279,917.861Zm-9.5-5.772c29.877-.086,54.316-8.72,77.5-19.87,15.977-7.686,15.079-16.141-2.2-22.719q-39.16-14.909-79.02-28.513c-19.585-6.7-38.713-3.3-56.78,4.575-11.737,5.12-15.4,13.918-9.858,23.782C760.676,887.62,786.332,913.968,820.779,912.089Z" transform="translate(642.479 -67.592)" fill="#fff"/>
      <path id="Path_469" data-name="Path 469" d="M655.976,912.909c3.221-3.189,8.011-7.931,12.8-12.67,8.011,6.382,18.5,11.692,23.272,19.478,4.039,6.575-9.759,18.807-18.447,17.907C658.759,936.089,659.328,925.39,655.976,912.909Zm14.517,18c15.607-10.363,14.619-13.921-3.585-20.233C668.083,917.306,669.093,923.009,670.493,930.907Z" transform="translate(455.53 47.118)" fill="#fff"/>
      <path id="Path_470" data-name="Path 470" d="M763.393,754.888c-15.625-7.861-29.957-13.5-41.917-21.6-9.132-6.188-1.834-13.214,4.982-17.744,13.3-8.844,27.244-17.005,40.863-25.516,24.445-15.279,43.033-34.239,52.383-59a89.532,89.532,0,0,1,4.116-8.693c12.152-23.981,21.882-26.483,43.231-8.256,26.033,22.23,53.986,29.194,89,16.085,18.029-6.75,28.337-3.316,33.833,7.174,5.336,10.183,1.105,20.48-14.856,27.3-21.2,9.064-44.017,15.438-65.321,24.346-32.6,13.631-64.557,28.349-96.675,42.782C796.983,738.978,781.182,746.584,763.393,754.888Zm.217-5.694c15.677-7.407,29.8-14.216,44.078-20.8,30.612-14.109,60.863-28.835,92.108-41.877,21.342-8.911,44.365-14.933,66.135-23.181,11.229-4.253,23.6-10.709,17.553-23.258-6.493-13.459-20.147-6.927-30.181-3.386-32.325,11.408-59.208,6.207-84.34-14.261-26.18-21.323-30.437-20.305-42.384,9-11.168,27.406-31.593,48.17-58.745,65-11.973,7.421-24.432,14.353-35.715,22.445-3.32,2.379-5.838,10.857-4.534,11.644C738.548,737.144,750.489,742.63,763.61,749.194Z" transform="translate(589.927 -455.158)" fill="#fff"/>
      <path id="Path_471" data-name="Path 471" d="M866.169,1012.455c21.847-.26,39.566,9.7,46.324,24.416,5.768,12.559,1.7,22.56-15.031,34.9a134.875,134.875,0,0,1-65.184,25.892c-17.9,2.121-29.248-4.913-30.232-18.283-1.617-21.9,28.168-58.512,52.929-64.867C859.494,1013.352,864.236,1012.8,866.169,1012.455Zm3.087,5.95c-25.3.129-55.47,27.111-59.652,53.358-2.553,16,6.017,24.646,24.116,19.9,20.31-5.327,39.7-13.964,58.224-23,13.239-6.454,19.661-17.518,13.907-31.012C900.807,1025.839,886.127,1018.319,869.256,1018.4Z" transform="translate(776.078 236.171)" fill="#fff"/>
      <path id="Path_472" data-name="Path 472" d="M781.161,1048.422c13.906-.124,25.615,6.363,25.272,14-.38,8.417-17.07,19.059-29.74,18.619-11.094-.384-18.144-4.994-18.517-14.8C757.783,1055.9,767.542,1048.543,781.161,1048.422Zm.888,1.42c-7.023,6.659-12.651,10.815-15.9,16.018-.693,1.112,8.656,9.3,10.944,8.6,8.123-2.478,15.188-7.394,22.652-11.386Z" transform="translate(679.877 296.773)" fill="#fff"/>
      <path id="Path_473" data-name="Path 473" d="M452.219,1115.539c-20.042-6.154-41.521-11.953-62.164-19.392-12-4.328-15.878-13.7-13.293-24.727,10.465-44.64,20.093-89.431,31.385-133.92,10.6-41.751,37.227-59.17,97.413-61.6,25.9-1.044,43.381-9.555,59.761-25.511,8.072-7.864,22.441-13.01,35.012-15.279,14.044-2.537,25.413-6.2,36.405-14.374,14.089-10.482,30.539-18.783,46.366-27.524,6.6-3.649,14.367-5.772,21.339-8.994,36.636-16.941,63.356-12.661,91.36,14.8,35.057,34.371,18.447,92.88-32.063,110.171-15.606,5.343-32.478,8.358-49.043,11.389-26.254,4.8-41.493,17.306-51.453,38.884-13.159,28.507-29.66,56.238-48.107,82.632-22.515,32.212-61.47,47.043-101.608,58.843C494.686,1106.475,475.076,1110.167,452.219,1115.539ZM808.678,840.882c.067-21.728-14.795-39.638-40.518-54.04-21.182-11.859-40.074-11.749-59.5,1.5a32.27,32.27,0,0,1-7.008,3.157c-25.953,9.512-50.347,20.592-69.6,39-5.126,4.9-15.8,7.227-24.228,7.84-15.744,1.144-29.446,4.865-38.722,15.773-16.939,19.913-39.792,26.953-68.462,27.79-55.584,1.624-79.33,21.1-89.14,67.9-7.081,33.788-14.418,67.563-23.071,101.085-9.379,36.317-5.276,42.943,37.923,52.74a67.787,67.787,0,0,0,9.3,1.74c58.23,4.819,107.357-14.613,150.367-44.208,37.671-25.919,56.725-63.27,70.593-101.542,9.369-25.855,28.66-39.523,58.9-44.611,11.436-1.925,22.886-4.035,34.038-6.873C784.2,899.327,808.585,871.322,808.678,840.882Z" transform="translate(-159.137 -165.237)" fill="#fff"/>
      <path id="Path_474" data-name="Path 474" d="M385.672,972.4c4.946-19.7,12.628-51.078,20.773-82.369,3.512-13.48,7.25-26.979,12.21-40.119,6.3-16.683,21.1-24.891,41.595-26.6,27.436-2.282,54.789-5.458,82.276-7.013a164.945,164.945,0,0,1,37.853,2.669c31.187,5.59,46.145,21.543,42.358,48-11.021,76.938-78.9,141.824-163.468,156.76-8.216,1.452-16.862,1.632-25.308,1.646C397.322,1025.431,385.087,1014.993,385.672,972.4ZM559.007,820.463c-37.834,3.377-67.8,6.65-97.885,8.53-20.515,1.278-33.6,10.312-37.757,25.83q-17.6,65.772-32.012,132.13c-3.378,15.473,4.847,27.025,19.166,30.129,11.056,2.395,23.112,3.869,34.37,2.883,86.161-7.525,163.206-76.917,172.1-158.489,1.358-12.452-3.528-23.911-17.342-29.286C584.632,826.343,568.217,823.035,559.007,820.463Z" transform="translate(-137.946 -94.642)" fill="#fff"/>
      <path id="Path_475" data-name="Path 475" d="M592.462,826.509c.451,47.778-28.966,64.36-81.346,45.795-17.616-6.242-32.606-15.159-40.681-30.352-8.366-15.741-3.883-29,13.05-38.4,10.184-5.657,20.508-11.228,31.277-16.031C553.42,770.271,592.114,789.805,592.462,826.509Zm-7.2,2.639c.486-36.462-32.683-53.194-70.683-35.523-8.794,4.089-17.179,8.8-25.691,13.306-16.22,8.591-22.01,22.158-10.452,35.066,9.395,10.489,22.806,20.278,36.977,25.564C560.476,884.369,584.71,870.3,585.259,829.148Z" transform="translate(39.19 -153.485)" fill="#fff"/>
      <path id="Path_476" data-name="Path 476" d="M439.142,986.725c-7.321-.827-14.849-1.01-21.924-2.607-17.9-4.046-25.873-11.354-24.368-26.915,1.962-20.3,6.2-40.522,10.948-60.529,3.1-13.051,9.417-25.538,13.267-38.492,6.091-20.5,22.7-31.9,46.145-33.283,31.577-1.863,63.471-1.584,95.121-.309,19.3.779,29.452,15.859,26.2,35.1-4.033,23.809-12.961,46.13-32.938,64.046-17.361,15.572-35.111,30.9-53.68,45.443C481.67,981.9,461.421,986.87,439.142,986.725Zm73.763-158.016-.118-2.035c-17.377,1.283-34.865,1.917-52.092,4.052-14.648,1.812-29.267,7.021-33.351,19.822-10.8,33.879-20.821,68.009-28.753,102.427-3.672,15.926,5.474,23.283,25.119,26.757,25.432,4.5,49.609.69,68.593-13.687a622.526,622.526,0,0,0,62.483-54.853c16.178-16.069,22.167-36.328,22.962-57.253.629-16.52-5.554-23-25.167-24.979C539.533,827.643,526.144,828.709,512.905,828.709Z" transform="translate(-122.536 -82.057)" fill="#fff"/>
      <path id="Path_477" data-name="Path 477" d="M522.819,843.1c-22.486-.22-47.468-12.672-46.954-23.4.716-14.849,26.3-33.662,45.979-33.807,20.451-.153,34.29,12.181,33.932,30.239C555.422,833.95,543.985,843.309,522.819,843.1Zm-.332-51.164c-17.917.115-39.527,15.185-39.55,27.575-.013,8.105,24.439,19.218,41.742,18.971,15.319-.217,23.937-8.4,24.03-22.807C548.81,800,539.784,791.828,522.487,791.938Z" transform="translate(60.094 -145.536)" fill="#fff"/>
      <path id="Path_478" data-name="Path 478" d="M405.271,891.159c1.623-46.291,41.63-70.873,89.606-54.558,21.646,7.362,29.644,23.057,21.023,41.241-10.465,22.066-57.827,48.375-85.72,45.861-7.314-.66-15.971-6.46-20.112-11.969S406.667,898.123,405.271,891.159Zm8.008,1.973c.16,2.011-1.31,8.624,1.594,13.333,3.144,5.1,9.931,11.368,15.891,12,23.982,2.521,69.686-22.678,78.649-41.727,5.921-12.586,3.713-26.512-8.509-30.829-13.587-4.8-29.618-8.948-43.758-7.528C428.211,841.278,414.384,859.527,413.279,893.132Z" transform="translate(-94.874 -68.6)" fill="#fff"/>
    </g>
  </g>
</svg>
