<svg xmlns="http://www.w3.org/2000/svg" width="595.314" height="362.008" viewBox="0 0 595.314 362.008">
  <g id="Group_91" data-name="Group 91" transform="translate(-129.416 -134.026)">
    <g id="Layer_2" data-name="Layer 2" transform="translate(130.949 135.531)">
      <path id="Path_479" data-name="Path 479" d="M170.458,139.6l-1.491,18.161a1.758,1.758,0,0,1-.082.4l-2.625,7.9a1.7,1.7,0,0,1-.153.335L141.6,207.817a1.717,1.717,0,0,0-.228,1.087l1.354,10.971a1.74,1.74,0,0,1-.039.628L138.8,235.979l-7.783,26.583a1.714,1.714,0,0,0,.144,1.308l9.123,16.639a1.723,1.723,0,0,1,.206.978l-1.3,14.685a1.719,1.719,0,0,0,.166.9l11.206,23.041a1.72,1.72,0,0,1,.151,1.026l-1.419,8.753a4.065,4.065,0,0,0,.629,2.9h0a4.2,4.2,0,0,0,2.43,1.733l8.07,2.128a1.784,1.784,0,0,1,.769.427L177.4,352.364a1.739,1.739,0,0,1,.48.788l4.279,15.008a1.767,1.767,0,0,0,1.495,1.262l26.136,3.136a1.739,1.739,0,0,1,1.193,2.8l-.193.246a1.727,1.727,0,0,0,.581,2.607l42.807,22.126a1.79,1.79,0,0,0,.535.177l30.6,5.008a1.781,1.781,0,0,0,2-1.229l.821-2.743a1.776,1.776,0,0,1,1.914-1.24l17.729,2.066a1.783,1.783,0,0,1,1.164.625l15.881,19.013a1.753,1.753,0,0,1,.327.606l3.908,12.793a1.752,1.752,0,0,0,.649.9l13.792,9.959a1.8,1.8,0,0,0,2.547-.463l6.635-10.137a1.791,1.791,0,0,1,1.958-.74l15.2,4.034a1.769,1.769,0,0,1,1.1.849l22.154,39.959a1.758,1.758,0,0,0,.694.689L414.844,492a1.777,1.777,0,0,0,2.642-1.523V467.508a1.74,1.74,0,0,1,.845-1.486l23.311-14.088,18.537-10.212a1.8,1.8,0,0,1,1.088-.21l52.8,6.452a1.766,1.766,0,0,0,2-1.732v-9.267a1.743,1.743,0,0,1,1.077-1.6l13.391-5.636a1.8,1.8,0,0,1,.532-.134l21.068-1.971a1.8,1.8,0,0,1,1.31.4l10.2,8.406a1.8,1.8,0,0,0,1.918.233l12.83-6.12a1.8,1.8,0,0,1,2.018.321l17.059,16.363a1.735,1.735,0,0,1,.526,1.075l2.026,19.9a1.734,1.734,0,0,0,.357.887L617.3,490.8a8.456,8.456,0,0,0,9.545,2.709l4.812-1.75a1.752,1.752,0,0,0,1.133-1.34l1.9-10.826a1.725,1.725,0,0,0-.036-.751l-4.146-15.066a1.833,1.833,0,0,0-.086-.241L610.554,418.7a1.716,1.716,0,0,1-.125-.975l3.6-21.854a1.742,1.742,0,0,1,.707-1.131l19.288-13.795a1.735,1.735,0,0,0,.731-1.41V369.211a1.761,1.761,0,0,1,1.825-1.744l9.416.254a1.788,1.788,0,0,0,1.543-.8l19.582-29.949a1.715,1.715,0,0,0,.221-1.4l-3.4-12.435a1.729,1.729,0,0,0-.367-.684l-9.364-10.727a1.724,1.724,0,0,1-.422-1.271l1.282-16.16a1.783,1.783,0,0,1,3.457-.416l4.784,14.1a1.791,1.791,0,0,0,2.881.739l4.811-4.3a1.729,1.729,0,0,0,.582-1.291V296.8a1.72,1.72,0,0,0-.274-.932l-7.262-11.292a1.717,1.717,0,0,1-.07-1.745l9.092-16.932a1.762,1.762,0,0,1,.546-.612l32.891-22.8a1.725,1.725,0,0,0,.321-2.565L695.99,227.589a1.72,1.72,0,0,1-.165-2.062l14.814-23.4a1.76,1.76,0,0,1,.541-.542l8.379-5.348a4.953,4.953,0,0,0,1.045-7.511l-6.169-6.865a1.725,1.725,0,0,1-.28-.42l-8.295-17.544a1.778,1.778,0,0,0-1.611-1.01h-14.2a1.761,1.761,0,0,0-1.777,1.708l-.484,22.855a10.967,10.967,0,0,1-7.521,10.123l-35.5,11.984a1.757,1.757,0,0,0-1.125,1.152l-6.951,22.961a1.762,1.762,0,0,1-1.344,1.212l-20.332,4.11a1.744,1.744,0,0,0-1.355,2.168l1.295,4.663a1.718,1.718,0,0,1-.4,1.632l-12.67,13.688a1.787,1.787,0,0,1-.816.5l-24.455,7.03a1.762,1.762,0,0,1-2.21-2.145l3.766-13.206a1.718,1.718,0,0,0-.039-1.062l-4.69-12.791a3.344,3.344,0,0,0-4.612-1.813l-3.749,1.84a1.764,1.764,0,0,1-2.48-2.112l1.953-5.756a1.718,1.718,0,0,0,.09-.638l-.606-11.9a1.751,1.751,0,0,0-1.213-1.569l-13.937-4.562a1.793,1.793,0,0,0-2.054.708L532.98,234.687a1.715,1.715,0,0,0-.224,1.4l4.543,16.571a1.579,1.579,0,0,1,.049.25l1.241,10.361a1.73,1.73,0,0,1-.6,1.522l-8.194,6.973a1.8,1.8,0,0,1-2.506-.175l-7.16-8.114a1.725,1.725,0,0,1-.406-1.453l7.337-39.959a1.835,1.835,0,0,1,.075-.277l3.009-8.273a1.771,1.771,0,0,1,1.411-1.139l24.766-3.622a1.737,1.737,0,0,0,.424-3.334l-14.649-6.033a1.806,1.806,0,0,0-1.334-.016l-14.476,5.563a1.8,1.8,0,0,1-1.149.049l-9.582-2.767a1.743,1.743,0,0,1-1.261-1.89l.7-5.529a1.774,1.774,0,0,0-2.733-1.678l-12.3,7.878a1.781,1.781,0,0,0-.366.312l-4.037,4.531a1.793,1.793,0,0,1-1.468.592l-13.142-.957a1.738,1.738,0,0,1-1-3.087l16.321-13.2a1.738,1.738,0,0,0-1.022-3.088l-17.776-1.057a1.813,1.813,0,0,1-.5-.1l-32.927-11.878a1.781,1.781,0,0,0-.617-.106c-6.274.029-105.962-.114-249.712-37.281-7.314-1.89,1.751,16.212-1.662,16.268-4.686.076-13.954-8.723-18.553-13.41A1.78,1.78,0,0,0,170.458,139.6Z" transform="translate(-130.949 -135.531)" fill="#113571" stroke="#f1f2f2" stroke-miterlimit="10" stroke-width="3"/>
    </g>
    <path id="Path_602" data-name="Path 602" d="M507.753,350.341l7.1-11.336L499.1,320.355l.32-8.431L486.1,304.272V294.181l-4.027-3.876H441.615l1.57,7.755,6.243,4-2.178,5.034,3.664,4.2v36.765l51.271-2.091,2.2,5.8Z" fill="#00bfe3" stroke="#fff" stroke-width="3"/>
    <g id="Layer_8" data-name="Layer 8" transform="translate(131.018 193.115)">
      <path id="Path_481" data-name="Path 481" d="M183.651,362.766l26.135,3.137,12.865-22.014-3.259-9.414-44.577-66.744,10.951-40.981-43.048-13.53-11.706,42.686,9.266,17.947-1.095,15.663,11.523,24.97-.79,11.653,11.269,4.287,15.406,14.328,7.061,18.013,26.135,3.137-26.135-3.137" transform="translate(-131.011 -186.46)" fill="#00bfe3" stroke="#f1f2f2" stroke-miterlimit="10" stroke-width="3"/>
      <path id="Path_482" data-name="Path 482" d="M400.5,474.155l.845-24.456,42.936-24.509,3.283-18.785-8.136-17.8.185-16.888-42.53-3.814-25.7-11.985V329.044l-33.367-2.979L333.291,387.3l-41.343-.625,16.208,19.619,4.557,13.7,13.792,9.959,9.183-10.6,17.157,3.293,23.945,41.5,21.065,11.537,2.642-1.524" transform="translate(-114.029 -176.792)" fill="#00bfe3" stroke="#fff" stroke-miterlimit="10" stroke-width="3"/>
      <path id="Path_483" data-name="Path 483" d="M425.733,378.1h37.673l-.6-11.547,15.1-28.464-.6-3.953-3.623.988-2.617-5.732-50.119,1.977,1.61,38.94L426,371.435Z" transform="translate(-100.418 -176.507)" fill="#00bfe3" stroke="#fff" stroke-miterlimit="10" stroke-width="3"/>
      <path id="Path_485" data-name="Path 485" d="M500.3,406.806l-2.878-8.074,31.243-1.413,1.439,2.624,36.381-5.046,4.522,1.817,20.826,44.842,4.146,15.066L594.118,468.2l-2.964,2.393-7.194,1.615-5.333-3.627L561.7,446.873l-2.384-20.791-17.586-17.438-14.847,5.8-13.432-9.04-13.151,1.4" transform="translate(-92.346 -170.895)" fill="#00bfe3" stroke="#fff" stroke-miterlimit="10" stroke-width="3"/>
      <path id="Path_486" data-name="Path 486" d="M571.481,377.388l19.288-13.795.731-11.735,1.05-1.869-9.813-9.637-11.256,1.7-7.359-3.968-15.008,1.842-6.638,2.693-1.587,4.96,30.593,29.808" transform="translate(-87.76 -175.762)" fill="#00bfe3" stroke="#fff" stroke-miterlimit="10" stroke-width="3"/>
      <path id="Path_487" data-name="Path 487" d="M539.739,261.98l-44.608,5.24,8.194-6.974-.689-12.133-4.319-17.971,15.905-21.73-1.651-2.915-15.68,2.334-4.495,9.688-1.659,9.883-.314,1.08-8.8-17.585-16.807-3.7-5.389-5.311,5.871-5.434,12.3-7.877,2.733,1.678-.7,5.53,1.262,1.89,9.582,2.768,15.624-5.612,15.984,6.049-.425,3.334-7.672,1.135,1.885,3.856,12.29,3.775,1.729,14.106-1.954,5.756,2.48,2.112,3.749-1.841,4.612,1.813,4.689,12.791-3.726,14.268" transform="translate(-96.356 -188.571)" fill="#00bfe3" stroke="#fff" stroke-miterlimit="10" stroke-width="3"/>
    </g>
    <g id="Layer_5" data-name="Layer 5" transform="translate(142.724 148.043)">
      <path id="Path_488" data-name="Path 488" d="M244.179,241.579,226.888,320.2l-8.323-2.516-3.206,16.042L170.53,267.05l11.21-41.19Z" transform="translate(-138.547 -140.304)" fill="none" stroke="#f1f2f2" stroke-miterlimit="10" stroke-width="1"/>
      <path id="Path_489" data-name="Path 489" d="M216.219,239.666l12.928-41.657,3.1-2.309a2.314,2.314,0,0,0,.66-2.975l-3.76-6.878-42.856-5.6-12.384-6.4v-5.6l-11.018-4.589" transform="translate(-139.353 -145.634)" fill="none" stroke="#f1f2f2" stroke-miterlimit="10" stroke-width="1"/>
      <line id="Line_4" data-name="Line 4" x1="13.408" y2="40.214" transform="translate(89.793)" fill="none" stroke="#f1f2f2" stroke-miterlimit="10" stroke-width="1"/>
      <path id="Path_490" data-name="Path 490" d="M243.859,148.837l-3.7,12.068,10.149,25.108-3.432,10.449a.582.582,0,0,0,.784.709l2.018-.826,5.188,18.028,20.884,6.139-6.785,33.7-31.82-6.039" transform="translate(-131.517 -146.903)" fill="none" stroke="#f1f2f2" stroke-miterlimit="10" stroke-width="1"/>
      <path id="Path_491" data-name="Path 491" d="M275.386,316.906l8.528-53.773-20.7-3.75,3.005-13.482" transform="translate(-128.767 -138.587)" fill="none" stroke="#f1f2f2" stroke-miterlimit="10" stroke-width="1"/>
      <path id="Path_492" data-name="Path 492" d="M351.074,325.917l5.225-54.671-74.361-9.474" transform="translate(-126.791 -137.228)" fill="none" stroke="#f1f2f2" stroke-miterlimit="10" stroke-width="1"/>
      <line id="Line_5" data-name="Line 5" x1="14.735" y2="111.564" transform="translate(207.257 19.62)" fill="none" stroke="#f1f2f2" stroke-miterlimit="10" stroke-width="1"/>
      <path id="Path_493" data-name="Path 493" d="M272.069,215.417l1.228-7.106,68.276,10.177.757.1" transform="translate(-127.833 -141.808)" fill="none" stroke="#f1f2f2" stroke-miterlimit="10" stroke-width="1"/>
      <path id="Path_494" data-name="Path 494" d="M333.77,326.314l33.356,2.632v27.115l25.755,11.83,42.339,3.564v17.016l7.863,18.029-3.218,18.668" transform="translate(-121.322 -131.698)" fill="none" stroke="#f1f2f2" stroke-miterlimit="10" stroke-width="1"/>
      <path id="Path_495" data-name="Path 495" d="M431.418,371.749l-2.017-48.09-83.426-3.178-11.632-1.276" transform="translate(-121.261 -132.307)" fill="none" stroke="#f1f2f2" stroke-miterlimit="10" stroke-width="1"/>
      <path id="Path_496" data-name="Path 496" d="M348.088,282.359l72.266,2.754,5.869,4.068-1.726,4.747,3.452,4.408v28.48" transform="translate(-119.811 -135.464)" fill="none" stroke="#f1f2f2" stroke-miterlimit="10" stroke-width="1"/>
      <path id="Path_497" data-name="Path 497" d="M420.637,330.95l51.1-1.709,2.417,5.425,3.67-.872.433,3.8-15.41,28.878.967,11.715H426.054" transform="translate(-112.156 -131.447)" fill="none" stroke="#f1f2f2" stroke-miterlimit="10" stroke-width="1"/>
      <path id="Path_498" data-name="Path 498" d="M482.357,415.425l-6.529-13.65-21.818.645,7.755-18.2-2.76-9.9" transform="translate(-108.634 -127.585)" fill="none" stroke="#f1f2f2" stroke-miterlimit="10" stroke-width="1"/>
      <path id="Path_499" data-name="Path 499" d="M399.852,169.7,404.3,211.62V260.76l6.119,24.286,3.059,2.5,1.416,7.215" transform="translate(-114.349 -145.116)" fill="none" stroke="#f1f2f2" stroke-miterlimit="10" stroke-width="1"/>
      <line id="Line_6" data-name="Line 6" x2="73.765" y2="3.984" transform="translate(216.185 63.589)" fill="none" stroke="#f1f2f2" stroke-miterlimit="10" stroke-width="1"/>
      <path id="Path_500" data-name="Path 500" d="M332.283,243.154l43.709,2.8,18.1,6.51,8.631-1.753,8.706,3.756" transform="translate(-121.479 -138.823)" fill="none" stroke="#f1f2f2" stroke-miterlimit="10" stroke-width="1"/>
      <path id="Path_501" data-name="Path 501" d="M451.152,197.108l-10.917,15.661,5.459,19.346,9.863,6.449,2.189,6.807-53.872-.479" transform="translate(-113.924 -142.768)" fill="none" stroke="#f1f2f2" stroke-miterlimit="10" stroke-width="1"/>
      <path id="Path_502" data-name="Path 502" d="M486.185,254.39H458.441l-5.837-5.444v-7.385" transform="translate(-108.782 -138.959)" fill="none" stroke="#f1f2f2" stroke-miterlimit="10" stroke-width="1"/>
      <path id="Path_503" data-name="Path 503" d="M459.431,200.832l5.586,5.206,16.768,3.984,8.551,17.665" transform="translate(-108.062 -142.449)" fill="none" stroke="#f1f2f2" stroke-miterlimit="10" stroke-width="1"/>
      <path id="Path_504" data-name="Path 504" d="M412.177,280.364h40.681l4.013,4.461,3.283-9.182,9.485-13.167-5.221-8.9" transform="translate(-113.048 -137.93)" fill="none" stroke="#f1f2f2" stroke-miterlimit="10" stroke-width="1"/>
      <path id="Path_505" data-name="Path 505" d="M474.449,337.809l6.246-10.994-15.322-18.79v-8.259L452.6,292.081v-9.723" transform="translate(-108.782 -135.464)" fill="none" stroke="#f1f2f2" stroke-miterlimit="10" stroke-width="1"/>
      <path id="Path_506" data-name="Path 506" d="M490.665,260.852l2.671,40.758-2.671,6.728-2.289,10.748-10.362,9.573" transform="translate(-106.101 -137.307)" fill="none" stroke="#f1f2f2" stroke-miterlimit="10" stroke-width="1"/>
      <line id="Line_7" data-name="Line 7" y1="5.24" x2="44.608" transform="translate(387.07 118.481)" fill="none" stroke="#f1f2f2" stroke-miterlimit="10" stroke-width="1"/>
      <path id="Path_507" data-name="Path 507" d="M487.973,316.261l22.419-4.113L521.9,294.976l-4.379-36.711" transform="translate(-105.05 -137.528)" fill="none" stroke="#f1f2f2" stroke-miterlimit="10" stroke-width="1"/>
      <path id="Path_508" data-name="Path 508" d="M518.66,295.508l28.447,6.855,15.481-23.29-3.853-27.008" transform="translate(-101.812 -138.059)" fill="none" stroke="#f1f2f2" stroke-miterlimit="10" stroke-width="1"/>
      <path id="Path_509" data-name="Path 509" d="M467.617,348.922s47.409.13,61.49-1.831a10.291,10.291,0,0,0,4.9-2.065l30.641-23.808-75.17,5.531.648,1.8-14.67,1.381" transform="translate(-107.198 -132.135)" fill="none" stroke="#f1f2f2" stroke-miterlimit="10" stroke-width="1"/>
      <line id="Line_8" data-name="Line 8" x1="1.183" y1="66.449" transform="translate(382.923 216.789)" fill="none" stroke="#f1f2f2" stroke-miterlimit="10" stroke-width="1"/>
      <path id="Path_510" data-name="Path 510" d="M518.669,345.678l5.421,27.336,4.928,8.228-2.464,9.438,2.464,10.89-31.541,1.452,2.964,7.814" transform="translate(-104.047 -130.039)" fill="none" stroke="#f1f2f2" stroke-miterlimit="10" stroke-width="1"/>
      <path id="Path_511" data-name="Path 511" d="M568.867,396.477l-5.158-1.547-36.469,5.082-1.232-2.662" transform="translate(-101.037 -125.82)" fill="none" stroke="#f1f2f2" stroke-miterlimit="10" stroke-width="1"/>
      <path id="Path_512" data-name="Path 512" d="M572.877,377.024,541.85,347.116l1.479-4.789-15.662.892" transform="translate(-100.862 -130.326)" fill="none" stroke="#f1f2f2" stroke-miterlimit="10" stroke-width="1"/>
      <path id="Path_513" data-name="Path 513" d="M593.225,350.113l-10.733-9.844-11.11,1.694-7.371-3.872-15.234,1.694-6.943,2.9" transform="translate(-99.367 -130.689)" fill="none" stroke="#f1f2f2" stroke-miterlimit="10" stroke-width="1"/>
      <line id="Line_9" data-name="Line 9" x1="63.628" y2="10.351" transform="translate(457.445 178.733)" fill="none" stroke="#f1f2f2" stroke-miterlimit="10" stroke-width="1"/>
      <path id="Path_514" data-name="Path 514" d="M545.6,298.393l2.888,9.2-1.444,4.143L532.923,325" transform="translate(-100.307 -134.09)" fill="none" stroke="#f1f2f2" stroke-miterlimit="10" stroke-width="1"/>
      <path id="Path_515" data-name="Path 515" d="M610.167,294.566l-9.6-1.493v-5.925l-7.883-6.665h-1.838l-17.975,14.083v5.361l-9.9,8.259-10.088,5.046L547,309.123" transform="translate(-98.821 -135.625)" fill="none" stroke="#f1f2f2" stroke-miterlimit="10" stroke-width="1"/>
      <path id="Path_516" data-name="Path 516" d="M561.16,247.976l.918,2.551,44.9-8.968,5.119,6.416,4.19,1.292-1.79,13.485" transform="translate(-97.327 -138.959)" fill="none" stroke="#f1f2f2" stroke-miterlimit="10" stroke-width="1"/>
      <path id="Path_517" data-name="Path 517" d="M614.532,268.984l-1.055,2.851L558.4,280.086v-2.465" transform="translate(-97.619 -136.61)" fill="none" stroke="#f1f2f2" stroke-miterlimit="10" stroke-width="1"/>
      <path id="Path_518" data-name="Path 518" d="M569.239,277.554l1.674,9.051,13.127-9.051,5.522,3.18" transform="translate(-96.475 -135.876)" fill="none" stroke="#f1f2f2" stroke-miterlimit="10" stroke-width="1"/>
      <path id="Path_519" data-name="Path 519" d="M608.216,271.612l7.051,17.767,5.962-1.175" transform="translate(-92.362 -136.385)" fill="none" stroke="#f1f2f2" stroke-miterlimit="10" stroke-width="1"/>
      <line id="Line_10" data-name="Line 10" x2="5.078" y2="1.921" transform="translate(516.184 132.865)" fill="none" stroke="#f1f2f2" stroke-miterlimit="10" stroke-width="1"/>
      <path id="Path_520" data-name="Path 520" d="M609.308,260.733l3.052,4.113-2.826,5.531" transform="translate(-92.247 -137.317)" fill="none" stroke="#f1f2f2" stroke-miterlimit="10" stroke-width="1"/>
      <path id="Path_521" data-name="Path 521" d="M611.023,198.452l5.041,21.385,2.213,2.388,2.4,18.631,2.287,17.739v1.3l-11.942-6.931" transform="translate(-92.066 -142.652)" fill="none" stroke="#f1f2f2" stroke-miterlimit="10" stroke-width="1"/>
      <path id="Path_522" data-name="Path 522" d="M641.355,243.521l-3.426-10.207-18.173,4.555" transform="translate(-91.144 -139.666)" fill="none" stroke="#f1f2f2" stroke-miterlimit="10" stroke-width="1"/>
      <path id="Path_523" data-name="Path 523" d="M646.016,239.165l-4.9-7.165-4.444,3" transform="translate(-89.359 -139.778)" fill="none" stroke="#f1f2f2" stroke-miterlimit="10" stroke-width="1"/>
      <line id="Line_11" data-name="Line 11" x1="26.596" y2="7.044" transform="translate(527.192 80.138)" fill="none" stroke="#f1f2f2" stroke-miterlimit="10" stroke-width="1"/>
      <line id="Line_12" data-name="Line 12" x2="12.238" y2="29.756" transform="translate(540.864 47.727)" fill="none" stroke="#f1f2f2" stroke-miterlimit="10" stroke-width="1"/>
      <path id="Path_524" data-name="Path 524" d="M627.954,192.674l1.873,11.354-3.161,3.339V227.93" transform="translate(-90.415 -143.148)" fill="none" stroke="#f1f2f2" stroke-miterlimit="10" stroke-width="1"/>
      <path id="Path_525" data-name="Path 525" d="M182.533,362.766l26.139,3.132,12.946-21.974-3.206-9.12-44.829-66.671,11.21-41.19L141.6,213.22l43.193,13.723-11.21,41.19L218.412,334.8l3.206,9.12L208.672,365.9l12.946-21.974-3.206-9.12,3.206-16.042,8.323,2.516,2.347-10.669,55.932,9.1L277.1,398.16l11.115-78.454,66.462,8.579-5.626,68.622-42.408-1.191" transform="translate(-141.6 -141.387)" fill="none" stroke="#f1f2f2" stroke-miterlimit="10" stroke-width="1"/>
    </g>
    <g id="Layer_6" data-name="Layer 6" transform="translate(159.5 159.465)">
      <text id="CA" transform="translate(-4 145.602)" fill="#fff" font-size="12" font-family="Poppins-Bold, Poppins" font-weight="700"><tspan x="0" y="0">CA</tspan></text>
      <text id="NV" transform="translate(43.017 117.077)" fill="#00bfe3" font-size="6" font-family="Poppins-Light, Poppins" font-weight="300"><tspan x="0" y="0">NV</tspan></text>
      <text id="OR" transform="translate(21.83 51.475)" fill="#00bfe3" font-size="6" font-family="Poppins-Light, Poppins" font-weight="300"><tspan x="0" y="0">OR</tspan></text>
      <text id="AZ" transform="translate(89.961 199.063)" fill="#00bfe3" font-size="6" font-family="Poppins-Light, Poppins" font-weight="300"><tspan x="0" y="0">AZ</tspan></text>
      <text id="UT" transform="translate(98.779 134.535)" fill="#00bfe3" font-size="6" font-family="Poppins-Light, Poppins" font-weight="300"><tspan x="0" y="0">UT</tspan></text>
      <text id="ID" transform="translate(89.961 72.414)" fill="#00bfe3" font-size="6" font-family="Poppins-Light, Poppins" font-weight="300"><tspan x="0" y="0">ID</tspan></text>
      <text id="WA" transform="translate(43.568 6)" fill="#00bfe3" font-size="6" font-family="Poppins-Light, Poppins" font-weight="300"><tspan x="0" y="0">WA</tspan></text>
      <text id="MT" transform="translate(142.955 32.62)" fill="#00bfe3" font-size="5" font-family="Poppins-Light, Poppins" font-weight="300"><tspan x="0" y="0">MT</tspan></text>
      <text id="WY" transform="translate(151.012 88.494)" fill="#00bfe3" font-size="6" font-family="Poppins-Light, Poppins" font-weight="300"><tspan x="0" y="0">WY</tspan></text>
      <text id="CO" transform="translate(158.935 143.341)" fill="#00bfe3" font-size="6" font-family="Poppins-Light, Poppins" font-weight="300"><tspan x="0" y="0">CO</tspan></text>
      <text id="NM" transform="translate(151.563 205.317)" fill="#00bfe3" font-size="6" font-family="Poppins-Light, Poppins" font-weight="300"><tspan x="0" y="0">NM</tspan></text>
      <text id="TX" transform="translate(230.476 260.504)" fill="#fff" font-size="12" font-family="Poppins-Bold, Poppins" font-weight="700"><tspan x="0" y="0">TX</tspan></text>
      <text id="OK" transform="translate(254.516 202.973)" fill="#00bfe3" font-size="6" font-family="Poppins-Light, Poppins" font-weight="300"><tspan x="0" y="0">OK</tspan></text>
      <text id="KA" transform="translate(245.134 159.897)" fill="#00bfe3" font-size="6" font-family="Poppins-Light, Poppins" font-weight="300"><tspan x="0" y="0">KA</tspan></text>
      <text id="NE" transform="translate(234.976 117.329)" fill="#00bfe3" font-size="6" font-family="Poppins-Light, Poppins" font-weight="300"><tspan x="0" y="0">NE</tspan></text>
      <text id="SD" transform="translate(229.508 78.116)" fill="#00bfe3" font-size="6" font-family="Poppins-Light, Poppins" font-weight="300"><tspan x="0" y="0">SD</tspan></text>
      <text id="MN" transform="translate(284.873 57.534)" fill="#00bfe3" font-size="6" font-family="Poppins-Light, Poppins" font-weight="300"><tspan x="0" y="0">MN</tspan></text>
      <text id="IA" transform="translate(299.945 110.898)" fill="#00bfe3" font-size="6" font-family="Poppins-Light, Poppins" font-weight="300"><tspan x="0" y="0">IA</tspan></text>
      <text id="MO" transform="translate(306.091 167.942)" fill="#fff" font-size="10" font-family="Poppins-Bold, Poppins" font-weight="700"><tspan x="0" y="0">MO</tspan></text>
      <text id="AR" transform="translate(316.09 213.973)" fill="#fff" font-size="10" font-family="Poppins-Bold, Poppins" font-weight="700"><tspan x="-6.945" y="0">AR</tspan></text>
      <text id="LA" transform="translate(309.341 254.004)" fill="#00bfe3" font-size="5" font-family="Poppins-Light, Poppins" font-weight="300"><tspan x="0" y="0">LA</tspan></text>
      <text id="MS" transform="translate(347.324 240.907)" fill="#00bfe3" font-size="6" font-family="Poppins-Light, Poppins" font-weight="300"><tspan x="0" y="0">MS</tspan></text>
      <text id="AL" transform="translate(380.62 235.43)" fill="#00bfe3" font-size="5" font-family="Poppins-Light, Poppins" font-weight="300"><tspan x="0" y="0">AL</tspan></text>
      <text id="GA" transform="translate(421.422 235.907)" fill="#00bfe3" font-size="6" font-family="Poppins-Light, Poppins" font-weight="300"><tspan x="0" y="0">GA</tspan></text>
      <text id="FL" transform="translate(454.447 307.307)" fill="#fff" font-size="12" font-family="Poppins-Bold, Poppins" font-weight="700"><tspan x="-6.144" y="0">FL</tspan></text>
      <text id="SC" transform="translate(454.447 216.317)" fill="#fff" font-size="10" font-family="Poppins-Bold, Poppins" font-weight="700"><tspan x="-6.885" y="0">SC</tspan></text>
      <text id="NC" transform="translate(468.74 186.192)" fill="#00bfe3" font-size="6" font-family="Poppins-Light, Poppins" font-weight="300"><tspan x="0" y="0">NC</tspan></text>
      <text id="KY" transform="translate(401.177 164.627)" fill="#00bfe3" font-size="6" font-family="Poppins-Light, Poppins" font-weight="300"><tspan x="0" y="0">KY</tspan></text>
      <text id="VA" transform="translate(464.141 160.513)" fill="#00bfe3" font-size="6" font-family="Poppins-Light, Poppins" font-weight="300"><tspan x="0" y="0">VA</tspan></text>
      <text id="OH" transform="translate(413.612 129.538)" fill="#00bfe3" font-size="6" font-family="Poppins-Light, Poppins" font-weight="300"><tspan x="0" y="0">OH</tspan></text>
      <text id="IN" transform="translate(377.759 134.603)" fill="#00bfe3" font-size="6" font-family="Poppins-Light, Poppins" font-weight="300"><tspan x="0" y="0">IN</tspan></text>
      <text id="IL" transform="translate(347.824 133.953)" fill="#00bfe3" font-size="4" font-family="Poppins-Light, Poppins" font-weight="300"><tspan x="0" y="0">IL</tspan></text>
      <text id="WI" transform="translate(332.831 73.075)" fill="#00bfe3" font-size="6" font-family="Poppins-Light, Poppins" font-weight="300"><tspan x="0" y="0">WI</tspan></text>
      <text id="MI" transform="translate(395.177 98.101)" fill="#fff" font-size="10" font-family="Poppins-Bold, Poppins" font-weight="700"><tspan x="-6.065" y="0">MI</tspan></text>
      <text id="PA" transform="translate(465.311 112.684)" fill="#00bfe3" font-size="6" font-family="Poppins-Light, Poppins" font-weight="300"><tspan x="0" y="0">PA</tspan></text>
      <text id="NY" transform="translate(489.155 79.542)" fill="#00bfe3" font-size="6" font-family="Poppins-Light, Poppins" font-weight="300"><tspan x="0" y="0">NY</tspan></text>
      <text id="VT" transform="translate(502.962 26.36)" fill="#00bfe3" font-size="6" font-family="Poppins-Light, Poppins" font-weight="300"><tspan x="0" y="0">VT</tspan></text>
      <text id="NH" transform="translate(558.171 59.035)" fill="#00bfe3" font-size="5" font-family="Poppins-Light, Poppins" font-weight="300"><tspan x="0" y="0">NH</tspan></text>
      <text id="RI" transform="translate(553.662 96.221)" fill="#00bfe3" font-size="5" font-family="Poppins-Light, Poppins" font-weight="300"><tspan x="0" y="0">RI</tspan></text>
      <text id="MD" transform="translate(522.97 157.022)" fill="#00bfe3" font-size="6" font-family="Poppins-Light, Poppins" font-weight="300"><tspan x="0" y="0">MD</tspan></text>
      <text id="NJ" transform="translate(520.82 121.754)" fill="#00bfe3" font-size="6" font-family="Poppins-Light, Poppins" font-weight="300"><tspan x="0" y="0">NJ</tspan></text>
      <text id="DE" transform="translate(528.606 137.684)" fill="#00bfe3" font-size="6" font-family="Poppins-Light, Poppins" font-weight="300"><tspan x="0" y="0">DE</tspan></text>
      <text id="MA" transform="translate(556.23 77.254)" fill="#00bfe3" font-size="6" font-family="Poppins-Light, Poppins" font-weight="300"><tspan x="0" y="0">MA</tspan></text>
      <text id="CT" transform="translate(537.374 110.576)" fill="#00bfe3" font-size="6" font-family="Poppins-Light, Poppins" font-weight="300"><tspan x="0" y="0">CT</tspan></text>
      <text id="ME" transform="translate(534.541 33.62)" fill="#00bfe3" font-size="6" font-family="Poppins-Light, Poppins" font-weight="300"><tspan x="0" y="0">ME</tspan></text>
      <text id="WV" transform="translate(438.447 147.126)" fill="#00bfe3" font-size="6" font-family="Poppins-Light, Poppins" font-weight="300"><tspan x="0" y="0">WV</tspan></text>
      <text id="TN" transform="translate(378.31 197.341)" fill="#00bfe3" font-size="6" font-family="Poppins-Light, Poppins" font-weight="300"><tspan x="0" y="0">TN</tspan></text>
      <text id="ND" transform="translate(229.508 33.688)" fill="#00bfe3" font-size="6" font-family="Poppins-Light, Poppins" font-weight="300"><tspan x="0" y="0">ND</tspan></text>
      <line id="Line_13" data-name="Line 13" x2="3.66" y2="16.174" transform="translate(509.131 34.625)" fill="none" stroke="#fff" stroke-miterlimit="10" stroke-width="1"/>
      <line id="Line_14" data-name="Line 14" x1="10.98" y1="10.783" transform="translate(506.935 108.308)" fill="none" stroke="#fff" stroke-miterlimit="10" stroke-width="1"/>
      <line id="Line_15" data-name="Line 15" x1="16.104" y1="3.594" transform="translate(506.203 132.03)" fill="none" stroke="#fff" stroke-miterlimit="10" stroke-width="1"/>
      <line id="Line_16" data-name="Line 16" x1="32.208" y1="18.69" transform="translate(487.171 135.265)" fill="none" stroke="#fff" stroke-miterlimit="10" stroke-width="1"/>
      <line id="Line_17" data-name="Line 17" x1="12.078" y1="13.299" transform="translate(521.575 92.852)" fill="none" stroke="#fff" stroke-miterlimit="10" stroke-width="1"/>
      <line id="Line_18" data-name="Line 18" x1="15.738" y1="8.986" transform="translate(534.385 87.101)" fill="none" stroke="#fff" stroke-miterlimit="10" stroke-width="1"/>
      <line id="Line_19" data-name="Line 19" x1="17.202" y1="1.078" transform="translate(535.117 75.24)" fill="none" stroke="#fff" stroke-miterlimit="10" stroke-width="1"/>
      <line id="Line_20" data-name="Line 20" x1="25.254" y2="3.235" transform="translate(529.627 59.425)" fill="none" stroke="#fff" stroke-miterlimit="10" stroke-width="1"/>
    </g>
  </g>
</svg>
