<svg xmlns="http://www.w3.org/2000/svg" width="182.804" height="37.128" viewBox="0 0 182.804 37.128">
  <g id="Group_96" data-name="Group 96" transform="translate(0 0)">
    <path id="Path_662" data-name="Path 662" d="M536.034,355.828c-2.768.486-5.3-.521-7.8-1.347a12.229,12.229,0,0,1-3.948-2.415,19.311,19.311,0,0,1-5.474-6.952,12.026,12.026,0,0,1-1.4-5.061,10.588,10.588,0,0,0-.411-1.616,7.188,7.188,0,0,1-.011-1.574,19.884,19.884,0,0,1,2.77-9.423,16.873,16.873,0,0,1,4.224-4.6,22.232,22.232,0,0,1,5.789-3,15.868,15.868,0,0,1,7.745-.855,24.621,24.621,0,0,1,7.649,2.216,12.494,12.494,0,0,1,3.343,2.3c.878.911,1.9,1.635,2.74,2.636,1.769,2.111,2.595,4.643,3.73,7.04.116.246-.005.595.02.893a5.631,5.631,0,0,0,.374,2.327c.307.607-.054,1.556-.147,2.35-.032.273-.231.54-.219.8a12.357,12.357,0,0,1-2.046,6.81,17.041,17.041,0,0,1-5,5.607,16.614,16.614,0,0,1-5.019,2.658C540.671,355.27,538.482,356.3,536.034,355.828Zm12.836-28.451c-.7,1.156-1.4,2.215-2.009,3.318-2.026,3.658-3.637,7.527-5.852,11.1a68.129,68.129,0,0,0-3.12,6.358c.192.025.428.13.6.068a20.638,20.638,0,0,0,2.916-1.129c2.454-1.32,3.846-3.585,4.969-6,.658-1.416.557-1.462,2.356-1.192v7.956a16.861,16.861,0,0,0,3.557-10.039A16.17,16.17,0,0,0,548.87,327.377Zm-14.1-.184c-.405-.089-.558-.172-.678-.14-.471.127-.928.3-1.4.439a9.268,9.268,0,0,0-6.183,6.948c-.154.783-.445,1.213-1.272,1.168-.492-.026-.983-.058-1.546-.092v-7.579c-.194.129-.334.175-.4.272a13.494,13.494,0,0,0-2.213,6.5c-.109,1.417-.005,2.849-.025,4.273a13.5,13.5,0,0,0,1.066,4.733c.469,1.315,1.476,2.267,1.834,3.658.288-.287.5-.418.6-.609,2.313-4.519,4.594-9.055,6.923-13.566C532.5,331.22,533.617,329.288,534.769,327.193Zm12.222-2.044c-1.4-.9-2.572-1.788-3.864-2.454a7.578,7.578,0,0,0-4.532-1.061c-1.457-1.216-2.906.259-4.377.016-1.633-.27-3.043.632-4.508,1.112a12.588,12.588,0,0,0-3.854,2.387Zm-.488,24.886h-8.249c-2.035,0-4.071.03-6.105-.008-1.874-.036-3.767.28-6.012-.589C532.493,354.756,540.9,355.113,546.5,350.034Z" transform="translate(-516.955 -318.827)" fill="#fff"/>
    <path id="Path_663" data-name="Path 663" d="M682.094,337.224c-.065,2.946-.522,5.69-.794,8.508h-2.148c.168-1.1-.327-2.2.4-3.35.3-.484.1-1.32.046-1.991-.245-2.959.847-5.845.389-8.918h2.241l3.921,10.353c.271-.369.6-.63.679-.953.646-2.65,1.978-5.039,2.857-7.6.09-.261.238-.5.327-.765.357-1.073.522-1.2,1.508-1.145.772.045,1.263.432,1.189,1.213-.3,3.116.681,6.156.5,9.265a2.656,2.656,0,0,0,.314,1.9c.307.442.058,1.267.058,1.916-2.654.195-2.655.195-2.656-2.33,0-2.006,0-4.013-.17-6.062-1.6,2.681-2.318,5.708-3.631,8.476a1.741,1.741,0,0,1-2.328-1.309C683.93,342.019,683,339.627,682.094,337.224Z" transform="translate(-532.05 -319.993)" fill="#fff"/>
    <path id="Path_664" data-name="Path 664" d="M716.526,331.453v1.671h-4.438v12.622H709.8V333.217H699.377c0,1.14-.012,2.249,0,3.357a1.026,1.026,0,0,0,1.089,1.1c1.13.036,2.264-.029,3.392.029a6.364,6.364,0,0,1,1.4.4,1.294,1.294,0,0,1-1.442.939c-1.425-.033-2.851-.01-4.361-.01v4.9c.7.019,1.494.05,2.291.061.83.011,1.66-.015,2.489.007,1.205.032,1.289.139,1.436,1.707h-8.52c-.1-2.261-.03-4.628-.042-6.991-.013-2.4,0-4.79,0-7.264Z" transform="translate(-533.722 -320.002)" fill="#fff"/>
    <path id="Path_665" data-name="Path 665" d="M597.372,345.741a7.9,7.9,0,0,1-1.068.04c-.818-.077-1.166-.419-1.182-1.232-.028-1.5-.055-3.006.006-4.5a7.356,7.356,0,0,0-.652-3.615l-3.653,9.3-1.376.066c-1.209-3.236-2.375-6.359-3.542-9.483l-.231.008a16.574,16.574,0,0,0-.045,2.369c.283,2.373-.65,4.634-.472,7.041h-1.82c.18-1.774-.4-3.6.46-5.35a.43.43,0,0,0,0-.223c-.346-2.891.7-5.706.427-8.692h1.7l4.412,11.309c.492-.811,0-1.611.659-2.246.391-.378.28-1.221.563-1.768a43.184,43.184,0,0,0,2.655-6.567,1.1,1.1,0,0,1,1.367-.814,1,1,0,0,1,.887,1.079c0,.075.005.151,0,.226-.344,3.638.674,7.216.479,10.853A9.756,9.756,0,0,0,597.372,345.741Z" transform="translate(-523.131 -319.992)" fill="#fff"/>
    <path id="Path_666" data-name="Path 666" d="M614.763,345.79h-1.506c-.05-.051-.145-.1-.149-.159-.231-3.214-.454-6.429-.7-10l-3.98,10.146h-1.209l-3.505-9.387A21.285,21.285,0,0,0,603.1,339a26.409,26.409,0,0,0-.025,2.925,14.041,14.041,0,0,1-.024,2.023,10.154,10.154,0,0,1-.634,1.781l-1.441.067c-.077-.235-.2-.438-.152-.488a2.6,2.6,0,0,0,.434-2.076c-.134-3.4.766-6.758.489-10.176a4.58,4.58,0,0,1,.491-1.58c.858-.293,1.47-.105,1.74.782.706,2.331,1.726,4.544,2.553,6.829l1.333,3.683c1.5-3.856,2.961-7.6,4.429-11.366h1.488a1.635,1.635,0,0,1,.148.437c.012.9-.05,1.806.02,2.7.1,1.218.349,2.425.422,3.644a21.09,21.09,0,0,0,.082,3.811A10.292,10.292,0,0,1,614.763,345.79Z" transform="translate(-524.76 -319.993)" fill="#fff"/>
    <path id="Path_667" data-name="Path 667" d="M676.293,338.464a6.952,6.952,0,0,1-3.961,6.993,6.38,6.38,0,0,1-6.668-.934,8.212,8.212,0,0,1-.97-10.751,5.206,5.206,0,0,1,4.614-2.412,16.239,16.239,0,0,0,1.807,0,2.992,2.992,0,0,1,2.143.826C675.268,333.832,676.545,335.852,676.293,338.464Zm-2.255.1c0-.15-.007-.3,0-.45a5.194,5.194,0,0,0-2.079-4.536,12.643,12.643,0,0,0-2.763-.766,5.306,5.306,0,0,0-2.919,2.3,7.337,7.337,0,0,0-.829,4.387,4.919,4.919,0,0,0,2.987,4.586,2.681,2.681,0,0,0,2.636,0,5.718,5.718,0,0,0,2.929-3.5A5.974,5.974,0,0,0,674.038,338.562Z" transform="translate(-530.557 -319.993)" fill="#fff"/>
    <path id="Path_668" data-name="Path 668" d="M647.293,331.931a7.013,7.013,0,0,1,5.755-.073,3.452,3.452,0,0,1,1.8,1.754c.309.805,1.056,1.783.089,2.762-.448.454-.4,1.36-1.46,1.435a17.877,17.877,0,0,1,1.43,1.443,3.206,3.206,0,0,1,.523,3.727,4.429,4.429,0,0,1-4.273,2.8c-1.264.039-2.532.007-3.863.007Zm1.815,7.148v5.5a28.108,28.108,0,0,0,3-.613,2.408,2.408,0,0,0,.764-4.075C651.776,338.864,650.5,338.967,649.108,339.079Zm.042-5.919v3.99h2.826a2.436,2.436,0,0,0,1.092-2.9c-.346-.345-.717-.717-1.091-1.088Z" transform="translate(-529.086 -319.986)" fill="#fff"/>
    <path id="Path_669" data-name="Path 669" d="M638.851,345.7a6.653,6.653,0,0,1-.888.081c-1.033-.05-1.2-.248-1.43-1.22-.254-1.086-.663-2.178-.813-3.236-.2-1.395-1.152-1.54-2.045-1.815a7.228,7.228,0,0,0-2.012-.035c.721,2.08.163,4.12.4,6.311-.36,0-.638.022-.911,0-1.04-.1-1.35-.366-1.387-1.252-.031-.747-.006-1.5-.006-2.246V332.5c1.389-1.569,3.175-1.211,4.8-1.088a4.048,4.048,0,0,1,2.8,1.4c1.686,1.948,1.209,4.609-1.319,5.959a5.062,5.062,0,0,1,1.908,4.049A12.686,12.686,0,0,0,638.851,345.7Zm-3.773-12.459H631.62c.856,1.565.1,3.214.5,4.8a7.7,7.7,0,0,0,2.677-.287c1.063-.172,1.16-.928,1.6-1.515.512-.688-.035-1.232-.325-1.756A8.3,8.3,0,0,0,635.078,333.239Z" transform="translate(-527.453 -319.987)" fill="#fff"/>
    <path id="Path_670" data-name="Path 670" d="M564.183,345.726a8.456,8.456,0,0,1,.611-1.456c2.409-3.511,4.846-7,7.261-10.51.06-.087-.03-.277-.062-.5h-6.626l-.105-1.812h9.347c.581.991-.016,1.868-.571,2.674-2.139,3.1-4.33,6.167-6.488,9.255-.064.093.012.284.037.62,2.066,0,4.149,0,6.233.005a2.324,2.324,0,0,1,.847.13.861.861,0,0,1,.467.467,6.1,6.1,0,0,1,.123,1.127Z" transform="translate(-521.351 -320.002)" fill="#fff"/>
    <path id="Path_671" data-name="Path 671" d="M626.866,345.742h-7.485V331.428h7.051v1.724h-5.676c.633,1.457.178,2.907.409,4.47h5.323c.122,1-.343,1.371-1.076,1.4-1.353.05-2.709.014-4.228.014-.223,1.589.009,3.2-.133,4.959,1.594,0,3.081-.018,4.566.006C626.707,344.018,626.856,344.246,626.866,345.742Z" transform="translate(-526.488 -320)" fill="#fff"/>
    <path id="Path_672" data-name="Path 672" d="M660.892,345.75h-2.116V331.443l2.116-.093Z" transform="translate(-530.155 -319.993)" fill="#fff"/>
    <path id="Path_673" data-name="Path 673" d="M580.107,345.75h-1.663V331.441l1.663-.092Z" transform="translate(-522.678 -319.993)" fill="#fff"/>
  </g>
</svg>
